<?xml version="1.0" encoding="utf-8"?>
<!-- Generator: Adobe Illustrator 17.0.0, SVG Export Plug-In . SVG Version: 6.00 Build 0)  -->
<!DOCTYPE svg PUBLIC "-//W3C//DTD SVG 1.1//EN" "http://www.w3.org/Graphics/SVG/1.1/DTD/svg11.dtd">
<svg version="1.1" id="Layer_1" xmlns="http://www.w3.org/2000/svg" xmlns:xlink="http://www.w3.org/1999/xlink" x="0px" y="0px"
	 width="54px" height="49px" viewBox="0 0 54 49" enable-background="new 0 0 54 49" xml:space="preserve">
<g>
	<path fill="#6E8999" stroke="#6E8999" stroke-width="0.25" d="M12.018,29.509h6.231c0.439,0,0.795-0.356,0.795-0.796
		c0-0.439-0.356-0.795-0.795-0.795h-6.231c-3.289,0-5.965-2.675-5.965-5.965c0-3.062,2.294-5.612,5.336-5.931
		c0.25-0.026,0.472-0.169,0.601-0.384c0.128-0.216,0.148-0.479,0.052-0.71c-0.279-0.677-0.421-1.39-0.421-2.121
		c0-3.07,2.498-5.568,5.567-5.568c1.555,0,3.053,0.663,4.108,1.821c0.169,0.186,0.415,0.285,0.668,0.254
		c0.251-0.025,0.474-0.167,0.603-0.384c1.816-3.05,5.008-4.872,8.54-4.872c5.482,0,9.942,4.46,9.942,9.942
		c0,0.352-0.023,0.721-0.069,1.127c-0.027,0.235,0.083,0.467,0.247,0.638c0.164,0.171,0.423,0.254,0.662,0.241
		c0.117-0.008,0.233-0.017,0.352-0.017c3.29,0,5.965,2.675,5.965,5.965c0,3.29-2.675,5.965-5.965,5.965h-9.146
		c-0.44,0-0.796,0.356-0.796,0.795c0,0.439,0.356,0.796,0.796,0.796h9.146c4.167,0,7.556-3.39,7.556-7.556
		c0-4.036-3.181-7.342-7.167-7.546c0.005-0.138,0.008-0.274,0.008-0.408c0-6.358-5.173-11.533-11.533-11.533
		c-3.708,0-7.213,1.827-9.367,4.825c-1.276-1.053-2.888-1.643-4.552-1.643c-3.947,0-7.158,3.211-7.158,7.158
		c0,0.61,0.077,1.212,0.229,1.797c-3.365,0.795-5.797,3.8-5.797,7.349C4.462,26.119,7.852,29.509,12.018,29.509L12.018,29.509z
		 M12.018,29.509"/>
	<path fill="#6E8999" stroke="#6E8999" stroke-width="0.25" d="M25.142,40.644c0.439,0,0.795-0.356,0.795-0.795V19.17h6.476
		c0.356,1.368,1.591,2.385,3.068,2.385c1.755,0,3.182-1.427,3.182-3.181c0-1.754-1.427-3.182-3.182-3.182
		c-1.478,0-2.712,1.018-3.068,2.386h-7.271c-0.439,0-0.795,0.357-0.795,0.795v20.679H8.439v-2.499
		c1.368-0.355,2.386-1.591,2.386-3.068c0-1.754-1.427-3.182-3.181-3.182c-1.755,0-3.182,1.427-3.182,3.182
		c0,1.478,1.018,2.713,2.386,3.068v3.295c0,0.439,0.356,0.795,0.796,0.795H25.142z M35.481,16.783c0.877,0,1.591,0.713,1.591,1.591
		c0,0.878-0.714,1.591-1.591,1.591c-0.877,0-1.591-0.713-1.591-1.591C33.891,17.497,34.604,16.783,35.481,16.783L35.481,16.783z
		 M6.053,33.486c0-0.877,0.713-1.591,1.591-1.591c0.877,0,1.591,0.713,1.591,1.591c0,0.877-0.714,1.591-1.591,1.591
		C6.766,35.076,6.053,34.363,6.053,33.486L6.053,33.486z M6.053,33.486"/>
	<path fill="#6E8999" stroke="#6E8999" stroke-width="0.25" d="M16.393,33.486c-0.439,0-0.795,0.356-0.795,0.795
		c0,0.439,0.356,0.795,0.795,0.795h5.568c0.439,0,0.795-0.356,0.795-0.795v-9.544c0-0.186-0.065-0.367-0.184-0.509l-3.485-4.181
		c0.304-0.487,0.488-1.057,0.488-1.673c0-1.754-1.427-3.181-3.182-3.181c-1.754,0-3.181,1.428-3.181,3.181
		c0,1.755,1.427,3.182,3.181,3.182c0.56,0,1.079-0.158,1.537-0.413l3.235,3.883v8.461H16.393z M14.802,18.374
		c0-0.877,0.714-1.591,1.591-1.591c0.877,0,1.591,0.713,1.591,1.591c0,0.308-0.092,0.592-0.244,0.836
		c-0.094,0.031-0.185,0.076-0.266,0.144c-0.117,0.097-0.186,0.225-0.231,0.359c-0.246,0.157-0.537,0.251-0.85,0.251
		C15.516,19.964,14.802,19.252,14.802,18.374L14.802,18.374z M14.802,18.374"/>
	<path fill="#6E8999" stroke="#6E8999" stroke-width="0.25" d="M47.412,33.486H30.709V27.01c1.368-0.356,2.386-1.59,2.386-3.068
		c0-1.754-1.428-3.181-3.182-3.181s-3.181,1.427-3.181,3.181c0,1.478,1.017,2.713,2.386,3.068v7.271
		c0,0.439,0.356,0.795,0.796,0.795h17.498c0.439,0,0.795-0.356,0.795-0.795C48.207,33.842,47.851,33.486,47.412,33.486
		L47.412,33.486z M28.323,23.942c0-0.877,0.713-1.591,1.591-1.591c0.877,0,1.591,0.713,1.591,1.591c0,0.877-0.713,1.591-1.591,1.591
		C29.036,25.532,28.323,24.819,28.323,23.942L28.323,23.942z M28.323,23.942"/>
	<path fill="#6E8999" stroke="#6E8999" stroke-width="0.25" d="M46.616,43.03h-5.901l-2.952-5.167
		c-0.141-0.248-0.405-0.401-0.69-0.401h-7.158c-0.439,0-0.796,0.356-0.796,0.796c0,0.439,0.356,0.795,0.796,0.795h6.697l2.952,5.167
		c0.141,0.248,0.405,0.401,0.691,0.401h6.363c0.439,0,0.796-0.356,0.796-0.796C47.412,43.386,47.056,43.03,46.616,43.03
		L46.616,43.03z M46.616,43.03"/>
	<path fill="#6E8999" stroke="#6E8999" stroke-width="0.25" d="M36.277,43.03h-2.499c-0.356-1.368-1.591-2.386-3.068-2.386
		c-1.478,0-2.713,1.018-3.069,2.386H8.439c-0.439,0-0.795,0.356-0.795,0.795c0,0.439,0.356,0.796,0.795,0.796h19.202
		c0.356,1.368,1.591,2.386,3.069,2.386c1.478,0,2.712-1.018,3.068-2.386h2.499c0.439,0,0.796-0.356,0.796-0.796
		C37.072,43.386,36.716,43.03,36.277,43.03L36.277,43.03z M30.709,45.416c-0.877,0-1.591-0.713-1.591-1.591
		c0-0.877,0.714-1.591,1.591-1.591c0.877,0,1.591,0.713,1.591,1.591C32.3,44.703,31.587,45.416,30.709,45.416L30.709,45.416z
		 M30.709,45.416"/>
</g>
</svg>
