<?xml version="1.0" encoding="utf-8"?>
<!-- Generator: Adobe Illustrator 17.0.0, SVG Export Plug-In . SVG Version: 6.00 Build 0)  -->
<!DOCTYPE svg PUBLIC "-//W3C//DTD SVG 1.1//EN" "http://www.w3.org/Graphics/SVG/1.1/DTD/svg11.dtd">
<svg version="1.1" id="Layer_1" xmlns="http://www.w3.org/2000/svg" xmlns:xlink="http://www.w3.org/1999/xlink" x="0px" y="0px"
	 width="54px" height="49px" viewBox="0 0 54 49" enable-background="new 0 0 54 49" xml:space="preserve">
<g>
	<rect x="8.997" y="20.612" fill="#6E8999" stroke="#6E8999" stroke-width="0.25" width="1.425" height="1.425"/>
	<rect x="11.847" y="20.612" fill="#6E8999" stroke="#6E8999" stroke-width="0.25" width="1.425" height="1.425"/>
	<rect x="14.697" y="20.612" fill="#6E8999" stroke="#6E8999" stroke-width="0.25" width="1.425" height="1.425"/>
	<path fill="#6E8999" stroke="#6E8999" stroke-width="0.25" d="M45.684,13.678l1.373-0.381c-0.757-2.731-2.5-5.075-4.907-6.598
		l-0.762,1.203C43.496,9.237,45.022,11.288,45.684,13.678L45.684,13.678z M45.684,13.678"/>
	<path fill="#6E8999" stroke="#6E8999" stroke-width="0.25" d="M40.63,5.89c-0.492-0.215-1.003-0.398-1.521-0.541l-0.381,1.373
		c0.453,0.126,0.9,0.284,1.329,0.473L40.63,5.89z M40.63,5.89"/>
	<path fill="#6E8999" stroke="#6E8999" stroke-width="0.25" d="M50.318,17.05v-0.712c0-7.857-6.392-14.248-14.248-14.248h-0.712
		v2.886c-5.953,0.37-10.686,5.318-10.686,11.363c0,0.484,0.04,0.957,0.099,1.425H6.148v28.497h38.471V23.851
		c1.62-1.841,2.652-4.202,2.814-6.801H50.318z M36.782,3.533c6.505,0.358,11.734,5.587,12.092,12.092H36.782V3.533z M35.357,26.275
		c-2.214-0.158-4.228-1.037-5.809-2.409l5.809-5.809V26.275z M35.357,14.618l-5.809-5.809c1.581-1.372,3.596-2.251,5.809-2.409
		V14.618z M28.541,9.816l6.521,6.521l-6.521,6.521c-1.519-1.75-2.445-4.027-2.445-6.521S27.021,11.566,28.541,9.816L28.541,9.816z
		 M25.046,19.187c0.41,1.583,1.144,3.036,2.139,4.275H7.572v-4.275H25.046z M7.572,44.834V24.886h20.983
		c2.008,1.768,4.634,2.85,7.514,2.85c2.695,0,5.171-0.945,7.124-2.515v19.613H7.572z M36.782,26.275V17.05h9.225
		C45.656,21.98,41.712,25.924,36.782,26.275L36.782,26.275z M36.782,26.275"/>
	<path fill="#6E8999" stroke="#6E8999" stroke-width="0.25" d="M27.52,43.409h14.248v-4.275H27.52V43.409z M33.22,41.985V40.56h2.85
		v1.425H33.22z M40.344,41.985h-2.85V40.56h2.85V41.985z M28.945,40.56h2.85v1.425h-2.85V40.56z M28.945,40.56"/>
	<rect x="27.52" y="36.285" fill="#6E8999" stroke="#6E8999" stroke-width="0.25" width="14.248" height="1.425"/>
	<rect x="27.52" y="33.435" fill="#6E8999" stroke="#6E8999" stroke-width="0.25" width="14.248" height="1.425"/>
	<rect x="27.52" y="30.586" fill="#6E8999" stroke="#6E8999" stroke-width="0.25" width="14.248" height="1.425"/>
	<path fill="#6E8999" stroke="#6E8999" stroke-width="0.25" d="M22.533,29.161c-0.575,0-1.095,0.231-1.479,0.6l-2.109-1.054
		c0.01-0.085,0.026-0.17,0.026-0.258c0-1.178-0.959-2.137-2.137-2.137c-1.178,0-2.137,0.959-2.137,2.137
		c0,0.222,0.043,0.432,0.106,0.633l-2.485,1.864c-0.338-0.226-0.745-0.359-1.183-0.359c-1.178,0-2.137,0.959-2.137,2.137
		c0,1.178,0.959,2.137,2.137,2.137s2.137-0.959,2.137-2.137c0-0.222-0.043-0.432-0.106-0.633l2.485-1.864
		c0.338,0.226,0.745,0.359,1.183,0.359c0.575,0,1.095-0.231,1.48-0.601l2.109,1.055c-0.011,0.086-0.026,0.17-0.026,0.259
		c0,1.178,0.959,2.137,2.137,2.137c1.178,0,2.137-0.959,2.137-2.137S23.711,29.161,22.533,29.161L22.533,29.161z M11.135,33.435
		c-0.392,0-0.712-0.32-0.712-0.712c0-0.392,0.32-0.712,0.712-0.712c0.392,0,0.712,0.32,0.712,0.712
		C11.847,33.115,11.527,33.435,11.135,33.435L11.135,33.435z M16.834,29.161c-0.392,0-0.712-0.32-0.712-0.712
		c0-0.392,0.32-0.712,0.712-0.712c0.392,0,0.712,0.32,0.712,0.712C17.546,28.841,17.226,29.161,16.834,29.161L16.834,29.161z
		 M22.533,32.011c-0.392,0-0.712-0.32-0.712-0.712s0.32-0.712,0.712-0.712c0.392,0,0.712,0.32,0.712,0.712
		S22.926,32.011,22.533,32.011L22.533,32.011z M22.533,32.011"/>
	<path fill="#6E8999" stroke="#6E8999" stroke-width="0.25" d="M8.997,43.409h4.275v-7.124H8.997V43.409z M10.422,37.71h1.425v4.275
		h-1.425V37.71z M10.422,37.71"/>
	<path fill="#6E8999" stroke="#6E8999" stroke-width="0.25" d="M14.697,43.409h4.275V32.011h-4.275V43.409z M16.122,33.435h1.425
		v8.549h-1.425V33.435z M16.122,33.435"/>
	<path fill="#6E8999" stroke="#6E8999" stroke-width="0.25" d="M20.396,43.409h4.275V34.86h-4.275V43.409z M21.821,36.285h1.425
		v5.699h-1.425V36.285z M21.821,36.285"/>
</g>
</svg>
