<?xml version="1.0" encoding="utf-8"?>
<!-- Generator: Adobe Illustrator 17.0.0, SVG Export Plug-In . SVG Version: 6.00 Build 0)  -->
<!DOCTYPE svg PUBLIC "-//W3C//DTD SVG 1.1//EN" "http://www.w3.org/Graphics/SVG/1.1/DTD/svg11.dtd">
<svg version="1.1" id="Layer_1" xmlns="http://www.w3.org/2000/svg" xmlns:xlink="http://www.w3.org/1999/xlink" x="0px" y="0px"
	 width="54px" height="49px" viewBox="0 0 54 49" enable-background="new 0 0 54 49" xml:space="preserve">
<g>
	<rect x="10.133" y="17.453" fill="#6E8999" stroke="#6E8999" stroke-width="0.25" width="2.785" height="1.393"/>
	<path fill="#6E8999" stroke="#6E8999" stroke-width="0.25" d="M47.037,14.668c1.151,0,2.089-0.937,2.089-2.089V5.616
		c0-1.151-0.937-2.089-2.089-2.089h-9.748c-1.152,0-2.089,0.937-2.089,2.089v6.963c0,1.151,0.937,2.089,2.089,2.089h2.089v1.393
		h-1.393v1.393h3.481v6.963h-2.874c-0.555-0.542-1.24-0.957-2.005-1.186c0.003-0.07,0.005-0.138,0.005-0.207
		c0-3.071-2.499-5.57-5.57-5.57c-1.906,0-3.677,0.991-4.691,2.577c-0.715-0.321-1.487-0.488-2.271-0.488
		c-2.311,0-4.392,1.456-5.206,3.593c-0.529,0.114-1.022,0.317-1.47,0.585h-5.162v-2.089h2.785c1.151,0,2.089-0.937,2.089-2.089
		V5.616c0-1.151-0.937-2.089-2.089-2.089H8.044c-1.151,0-2.089,0.937-2.089,2.089v13.926c0,1.151,0.937,2.089,2.089,2.089h2.785
		v3.481h5.073c-0.296,0.423-0.526,0.889-0.677,1.393h-3.004v7.659H9.437c-1.151,0-2.089,0.937-2.089,2.089v6.267H5.955v2.089
		c0,1.151,0.937,2.089,2.089,2.089h11.141c1.151,0,2.089-0.937,2.089-2.089V42.52h-1.393v-6.267c0-1.151-0.937-2.089-2.089-2.089
		h-4.178v-6.267h1.393c0,2.687,2.187,4.874,4.874,4.874H35.2c2.45,0,4.479-1.82,4.818-4.178h2.841v5.57h-4.874v12.533h11.141V34.164
		h-4.874v-6.963h-4.236c-0.072-0.49-0.223-0.957-0.433-1.393h3.277v-8.356h3.481V16.06h-1.393v-1.393H47.037z M15.703,14.668H7.348
		V7.705h8.356V14.668z M8.044,4.92h6.963c0.384,0,0.696,0.312,0.696,0.696v0.696H7.348V5.616C7.348,5.232,7.66,4.92,8.044,4.92
		L8.044,4.92z M7.348,19.542V16.06h8.356v3.481c0,0.384-0.312,0.696-0.696,0.696H8.044C7.66,20.238,7.348,19.926,7.348,19.542
		L7.348,19.542z M19.881,44.608c0,0.384-0.312,0.696-0.696,0.696H8.044c-0.384,0-0.696-0.312-0.696-0.696v-0.696h12.533V44.608z
		 M18.489,36.253v6.267H8.74v-6.267c0-0.384,0.312-0.696,0.696-0.696h8.356C18.176,35.557,18.489,35.869,18.489,36.253
		L18.489,36.253z M39.377,45.305v-4.178h8.356v4.178H39.377z M47.733,39.734h-8.356v-4.178h8.356V39.734z M35.2,31.379H19.881
		c-1.92,0-3.481-1.562-3.481-3.481c0-1.76,1.317-3.245,3.064-3.454l0.457-0.055l0.129-0.442c0.515-1.774,2.165-3.012,4.01-3.012
		c0.769,0,1.523,0.216,2.185,0.623l0.665,0.41l0.332-0.708c0.685-1.467,2.17-2.414,3.782-2.414c2.304,0,4.178,1.874,4.178,4.178
		c0,0.192-0.017,0.397-0.055,0.644l-0.105,0.689l0.688,0.104c1.684,0.257,2.953,1.735,2.953,3.437
		C38.681,29.817,37.119,31.379,35.2,31.379L35.2,31.379z M37.289,4.92h9.748c0.384,0,0.696,0.312,0.696,0.696v4.874H36.592V5.616
		C36.592,5.232,36.904,4.92,37.289,4.92L37.289,4.92z M36.592,12.579v-0.696h11.141v0.696c0,0.384-0.312,0.696-0.696,0.696h-9.748
		C36.904,13.275,36.592,12.963,36.592,12.579L36.592,12.579z M43.555,16.06H40.77v-1.393h2.785V16.06z M43.555,16.06"/>
	<rect x="40.77" y="36.949" fill="#6E8999" stroke="#6E8999" stroke-width="0.25" width="1.393" height="1.393"/>
	<rect x="44.948" y="42.52" fill="#6E8999" stroke="#6E8999" stroke-width="0.25" width="1.393" height="1.393"/>
	<rect x="43.555" y="36.949" fill="#6E8999" stroke="#6E8999" stroke-width="0.25" width="2.785" height="1.393"/>
	<rect x="40.77" y="42.52" fill="#6E8999" stroke="#6E8999" stroke-width="0.25" width="2.785" height="1.393"/>
</g>
</svg>
