<?xml version="1.0" encoding="utf-8"?>
<!-- Generator: Adobe Illustrator 17.0.0, SVG Export Plug-In . SVG Version: 6.00 Build 0)  -->
<!DOCTYPE svg PUBLIC "-//W3C//DTD SVG 1.1//EN" "http://www.w3.org/Graphics/SVG/1.1/DTD/svg11.dtd">
<svg version="1.1" id="Layer_1" xmlns="http://www.w3.org/2000/svg" xmlns:xlink="http://www.w3.org/1999/xlink" x="0px" y="0px"
	 width="54px" height="49px" viewBox="0 0 54 49" enable-background="new 0 0 54 49" xml:space="preserve">
<g>
	<path fill="#6E8999" stroke="#6E8999" stroke-width="0.25" d="M46.931,3.935H8.368c-1.636,0-2.967,1.331-2.967,2.968v24.472
		c0,0.409,0.332,0.742,0.741,0.742h43.014c0.41,0,0.742-0.332,0.742-0.742V6.902C49.898,5.266,48.566,3.935,46.931,3.935
		L46.931,3.935z M48.414,30.633H6.884V6.902c0-0.819,0.666-1.484,1.484-1.484h38.563c0.818,0,1.484,0.665,1.484,1.484V30.633z
		 M48.414,30.633"/>
	<path fill="#6E8999" stroke="#6E8999" stroke-width="0.25" d="M49.156,30.633H6.142c-0.409,0-0.741,0.332-0.741,0.741v3.707
		c0,1.636,1.331,2.968,2.967,2.968h38.563c1.636,0,2.967-1.331,2.967-2.968v-3.707C49.898,30.965,49.565,30.633,49.156,30.633
		L49.156,30.633z M48.414,35.082c0,0.818-0.666,1.484-1.484,1.484H8.368c-0.818,0-1.484-0.665-1.484-1.484v-2.966h41.53V35.082z
		 M48.414,35.082"/>
	<path fill="#6E8999" stroke="#6E8999" stroke-width="0.25" d="M29.874,33.599h-4.449c-0.41,0-0.742,0.332-0.742,0.742
		c0,0.409,0.332,0.741,0.742,0.741h4.449c0.41,0,0.742-0.332,0.742-0.741C30.616,33.932,30.284,33.599,29.874,33.599L29.874,33.599z
		 M29.874,33.599"/>
	<path fill="#6E8999" stroke="#6E8999" stroke-width="0.25" d="M46.19,6.901H9.109c-0.409,0-0.741,0.332-0.741,0.741v23.732
		c0,0.41,0.332,0.742,0.741,0.742H46.19c0.409,0,0.741-0.332,0.741-0.742V7.643C46.931,7.234,46.599,6.901,46.19,6.901L46.19,6.901z
		 M45.448,30.633H9.85V8.385h35.598V30.633z M45.448,30.633"/>
	<path fill="#6E8999" stroke="#6E8999" stroke-width="0.25" d="M37.29,42.499H18.008c-1.227,0-2.225,0.999-2.225,2.225
		c0,1.227,0.998,2.225,2.225,2.225H37.29c1.227,0,2.225-0.999,2.225-2.225C39.515,43.497,38.517,42.499,37.29,42.499L37.29,42.499z
		 M37.29,45.465H18.008c-0.409,0-0.741-0.333-0.741-0.742c0-0.408,0.332-0.741,0.741-0.741H37.29c0.41,0,0.742,0.333,0.742,0.741
		C38.032,45.132,37.7,45.465,37.29,45.465L37.29,45.465z M37.29,45.465"/>
	<path fill="#6E8999" stroke="#6E8999" stroke-width="0.25" d="M35.807,42.499c-2.461,0-3.708-1.746-3.708-5.191
		c0-0.41-0.332-0.742-0.741-0.742h-7.416c-0.409,0-0.741,0.332-0.741,0.742c0,3.445-1.248,5.191-3.708,5.191
		c-0.41,0-0.742,0.332-0.742,0.742c0,0.409,0.332,0.741,0.742,0.741h16.315c0.41,0,0.742-0.332,0.742-0.741
		C36.549,42.831,36.216,42.499,35.807,42.499L35.807,42.499z M23.104,42.499c0.913-1.011,1.451-2.518,1.559-4.449h5.973
		c0.108,1.932,0.646,3.438,1.559,4.449H23.104z M23.104,42.499"/>
	<path fill="#6E8999" stroke="#6E8999" stroke-width="0.25" d="M40.838,25.786l-1.79-1.79L40.044,23
		c0.185-0.185,0.258-0.453,0.195-0.706c-0.064-0.253-0.256-0.453-0.506-0.529l-7.416-2.225c-0.262-0.079-0.544-0.007-0.737,0.186
		c-0.194,0.193-0.265,0.476-0.187,0.737l2.225,7.416c0.075,0.251,0.276,0.443,0.529,0.507c0.252,0.062,0.521-0.01,0.706-0.195
		l1.049-1.05l1.79,1.791c0.139,0.139,0.328,0.217,0.524,0.217c0.197,0,0.386-0.078,0.525-0.217l2.097-2.098
		C41.128,26.544,41.128,26.076,40.838,25.786L40.838,25.786z M38.216,27.36l-1.63-1.631c-0.189-0.189-0.437-0.283-0.684-0.283
		c-0.249,0-0.496,0.095-0.684,0.283l-0.535,0.535l-1.472-4.907l4.907,1.472l-0.574,0.574c-0.158,0.159-0.245,0.369-0.245,0.594
		c0,0.225,0.088,0.437,0.246,0.594l1.72,1.72L38.216,27.36z M38.216,27.36"/>
	<path fill="#6E8999" stroke="#6E8999" stroke-width="0.25" d="M36.549,9.868H15.784c-0.41,0-0.742,0.332-0.742,0.741v3.708
		c0,0.409,0.332,0.741,0.742,0.741h20.765c0.409,0,0.741-0.332,0.741-0.741v-3.708C37.29,10.2,36.958,9.868,36.549,9.868
		L36.549,9.868z M35.807,13.576H16.525v-2.225h19.282V13.576z M35.807,13.576"/>
	<path fill="#6E8999" stroke="#6E8999" stroke-width="0.25" d="M24.682,18.026H18.75c-0.409,0-0.741,0.332-0.741,0.741v2.967
		c0,0.409,0.332,0.741,0.741,0.741h5.933c0.41,0,0.742-0.332,0.742-0.741v-2.967C25.424,18.358,25.092,18.026,24.682,18.026
		L24.682,18.026z M23.941,20.992h-4.449v-1.483h4.449V20.992z M23.941,20.992"/>
	<path fill="#6E8999" stroke="#6E8999" stroke-width="0.25" d="M36.549,9.868H15.784c-0.41,0-0.742,0.332-0.742,0.741V24.7
		c0,0.41,0.332,0.742,0.742,0.742h17.655c0.235,0,0.455-0.11,0.595-0.299c0.14-0.189,0.183-0.432,0.115-0.656l-0.939-3.131
		l3.126,0.938c0.224,0.067,0.468,0.024,0.655-0.116c0.188-0.139,0.299-0.36,0.299-0.595V10.609
		C37.29,10.2,36.958,9.868,36.549,9.868L36.549,9.868z M35.807,20.587l-3.491-1.047c-0.262-0.079-0.544-0.007-0.737,0.186
		c-0.194,0.194-0.265,0.476-0.186,0.738l1.048,3.494H16.525V11.351h19.282V20.587z M35.807,20.587"/>
</g>
</svg>
