<?xml version="1.0" encoding="utf-8"?>
<!-- Generator: Adobe Illustrator 17.0.0, SVG Export Plug-In . SVG Version: 6.00 Build 0)  -->
<!DOCTYPE svg PUBLIC "-//W3C//DTD SVG 1.1//EN" "http://www.w3.org/Graphics/SVG/1.1/DTD/svg11.dtd">
<svg version="1.1" id="Layer_1" xmlns="http://www.w3.org/2000/svg" xmlns:xlink="http://www.w3.org/1999/xlink" x="0px" y="0px"
	 width="54px" height="49px" viewBox="0 0 54 49" enable-background="new 0 0 54 49" xml:space="preserve">
<g>
	<path fill="#6E8999" stroke="#6E8999" stroke-width="0.25" d="M46.94,3.651H27.557c-1.145,0-2.077,0.932-2.077,2.077v6.702
		c-1.697-0.745-3.568-1.165-5.538-1.165c-7.634,0-13.844,6.211-13.844,13.844c0,6.555,4.587,12.149,10.867,13.522l-5.33,5.584v2.353
		h30.458V30.935l4.153-4.153v5.251h1.384v-7.614h-7.614v1.384h5.251L35.151,35.92l-3.592-3.293c1.453-2.241,2.228-4.822,2.228-7.517
		c0-0.708-0.07-1.397-0.173-2.077H46.94c1.145,0,2.077-0.932,2.077-2.077V5.728C49.016,4.583,48.085,3.651,46.94,3.651L46.94,3.651z
		 M37.941,6.42v1.384h-1.384V6.42h-1.384v1.384h-1.384V5.036h6.922v2.769h-1.384V6.42H37.941z M10.287,24.418
		c0.153-2.151,1.007-4.108,2.341-5.645l1.931,1.932l0.979-0.979l-1.932-1.931c1.537-1.334,3.494-2.188,5.645-2.341v2.734h1.384
		v-2.734c2.151,0.153,4.108,1.007,5.645,2.341l-1.932,1.931l0.979,0.979l1.931-1.932c1.334,1.537,2.188,3.494,2.341,5.645h-2.734
		v1.384h2.744c-0.099,1.396-0.498,2.744-1.17,3.966l-1.607-1.473l-4.143,4.34c-0.006-0.064-0.005-0.129-0.016-0.193l-1.242-7.455
		c-0.123-0.731-0.748-1.261-1.489-1.261s-1.366,0.53-1.489,1.261l-1.242,7.454c-0.025,0.151-0.038,0.302-0.038,0.456v0.521
		c0,0.364,0.075,0.71,0.203,1.028c-3.886-1.069-6.795-4.496-7.09-8.643h2.734v-1.384H10.287z M18.558,33.417v-0.521
		c0-0.075,0.006-0.152,0.018-0.228l1.242-7.454c0.021-0.121,0.226-0.121,0.246,0l1.242,7.455c0.014,0.075,0.02,0.152,0.02,0.227
		v0.521c0,0.763-0.621,1.384-1.384,1.384S18.558,34.18,18.558,33.417L18.558,33.417z M24.096,33.167v12.017h-2.769v-9.117
		L24.096,33.167z M25.481,31.717l1.417-1.485l1.352,1.239v13.713h-2.769V31.717z M29.634,32.741l2.769,2.539v9.906h-2.769V32.741z
		 M19.943,45.185h-2.769v-4.766l2.769-2.9V45.185z M13.021,44.769l2.769-2.9v3.316h-2.769V44.769z M40.709,45.185h-2.769V35.088
		l2.769-2.769V45.185z M35.192,37.836l1.364-1.364v8.712h-2.769v-8.637L35.192,37.836z M30.525,31.68l-1.041-0.954
		c1.002-1.699,1.534-3.626,1.534-5.615c0-6.107-4.969-11.076-11.076-11.076S8.867,19.003,8.867,25.11
		c0,5.9,4.641,10.724,10.463,11.044l-1.214,1.271C12.033,36.533,7.483,31.302,7.483,25.11c0-6.87,5.59-12.46,12.46-12.46
		s12.46,5.59,12.46,12.46C32.403,27.457,31.753,29.71,30.525,31.68L30.525,31.68z M47.632,20.957c0,0.381-0.311,0.692-0.692,0.692
		H33.332c-0.939-3.624-3.303-6.674-6.467-8.51V5.728c0-0.381,0.311-0.692,0.692-0.692h4.846v4.153h9.691V5.036h4.846
		c0.381,0,0.692,0.311,0.692,0.692V20.957z M47.632,20.957"/>
	<rect x="39.325" y="18.88" fill="#6E8999" stroke="#6E8999" stroke-width="0.25" width="1.384" height="1.384"/>
	<rect x="44.863" y="18.88" fill="#6E8999" stroke="#6E8999" stroke-width="0.25" width="1.384" height="1.384"/>
	<rect x="42.094" y="18.88" fill="#6E8999" stroke="#6E8999" stroke-width="0.25" width="1.384" height="1.384"/>
	<rect x="39.325" y="16.111" fill="#6E8999" stroke="#6E8999" stroke-width="0.25" width="6.922" height="1.384"/>
</g>
</svg>
