<?xml version="1.0" encoding="utf-8"?>
<!-- Generator: Adobe Illustrator 17.0.0, SVG Export Plug-In . SVG Version: 6.00 Build 0)  -->
<!DOCTYPE svg PUBLIC "-//W3C//DTD SVG 1.1//EN" "http://www.w3.org/Graphics/SVG/1.1/DTD/svg11.dtd">
<svg version="1.1" id="Layer_1" xmlns="http://www.w3.org/2000/svg" xmlns:xlink="http://www.w3.org/1999/xlink" x="0px" y="0px"
	 width="54px" height="49px" viewBox="0 0 54 49" enable-background="new 0 0 54 49" xml:space="preserve">
<g>
	<g>
		<path fill="#6E8999" stroke="#6E8999" stroke-width="0.25" d="M47.988,43.104c-1.172,0-2.125,0.954-2.125,2.125
			s0.954,2.125,2.125,2.125c1.171,0,2.125-0.954,2.125-2.125S49.16,43.104,47.988,43.104L47.988,43.104z M47.988,45.938
			c-0.39,0-0.708-0.318-0.708-0.708s0.318-0.708,0.708-0.708c0.39,0,0.708,0.318,0.708,0.708S48.379,45.938,47.988,45.938
			L47.988,45.938z M47.988,45.938"/>
	</g>
	<path fill="#6E8999" stroke="#6E8999" stroke-width="0.25" d="M10.444,4.851c0-1.172-0.954-2.125-2.125-2.125
		c-1.171,0-2.125,0.954-2.125,2.125s0.954,2.125,2.125,2.125C9.49,6.976,10.444,6.023,10.444,4.851L10.444,4.851z M7.61,4.851
		c0-0.39,0.318-0.708,0.708-0.708c0.39,0,0.708,0.318,0.708,0.708c0,0.39-0.318,0.708-0.708,0.708C7.928,5.56,7.61,5.241,7.61,4.851
		L7.61,4.851z M7.61,4.851"/>
	<path fill="#6E8999" stroke="#6E8999" stroke-width="0.25" d="M44.249,30.799l-1.399-2.798c0.297-0.602,0.551-1.211,0.76-1.816
		l2.962-0.987v-8.106l-2.962-0.987c-0.208-0.606-0.463-1.214-0.76-1.816l1.4-2.801l-5.731-5.731l-2.801,1.4
		c-0.602-0.297-1.211-0.552-1.816-0.76l-0.987-2.962h-8.106l-0.987,2.962c-0.606,0.208-1.214,0.463-1.816,0.76l-2.801-1.4
		l-5.731,5.731l1.4,2.801c-0.297,0.602-0.552,1.211-0.76,1.816l-2.962,0.987v8.105l2.962,0.987c0.207,0.602,0.458,1.204,0.752,1.802
		l-0.911,1.66h-4.22v14.168h4.959v-2.125h5.374l2.125,2.125h3.835v0.708c0,1.563,1.271,2.834,2.834,2.834
		c1.563,0,2.834-1.271,2.834-2.834v-0.708h4.959c1.172,0,2.125-0.954,2.125-2.125c0-0.546-0.213-1.04-0.552-1.417
		c0.34-0.377,0.552-0.871,0.552-1.417c0-0.546-0.213-1.04-0.552-1.417c0.27-0.3,0.455-0.675,0.52-1.093L44.249,30.799z
		 M16.296,27.671c-0.39-0.749-0.708-1.509-0.945-2.26l-0.109-0.344l-2.673-0.891v-6.063l2.673-0.891l0.108-0.345
		c0.237-0.75,0.555-1.511,0.945-2.26l0.167-0.321l-1.265-2.529l4.287-4.287l2.529,1.265l0.321-0.166
		c0.749-0.391,1.509-0.708,2.26-0.945l0.345-0.108l0.892-2.673h6.063l0.891,2.673l0.345,0.108c0.75,0.237,1.511,0.555,2.26,0.945
		l0.321,0.167l2.529-1.265l4.287,4.287l-1.265,2.529l0.166,0.321c0.391,0.749,0.708,1.509,0.945,2.26l0.108,0.345l2.673,0.892v6.063
		l-2.673,0.891l-0.109,0.344c-0.238,0.751-0.556,1.512-0.945,2.26l-0.166,0.321l1.266,2.531l-4.186,4.218
		c-0.036-0.047-0.074-0.094-0.114-0.138c0.34-0.377,0.552-0.871,0.552-1.417c0-1.105-0.851-2.005-1.93-2.105
		c3.005-2.409,4.763-6.023,4.763-9.937c0-7.031-5.72-12.751-12.751-12.751c-7.031,0-12.751,5.72-12.751,12.751
		c0,3.867,1.758,7.505,4.743,9.917h-6.059l1.676-3.055L16.296,27.671z M37.363,38.854c0,0.391-0.318,0.708-0.708,0.708h-5.668
		c-0.39,0-0.708-0.318-0.708-0.708c0-0.391,0.318-0.708,0.708-0.708h5.668C37.045,38.146,37.363,38.463,37.363,38.854L37.363,38.854
		z M27.152,21.144h3.42l1.124-1.124v-3.127c0.781,0,1.417,0.635,1.417,1.417v3.249l-2.418,2.418H27.03l-2.418-2.418v-3.249
		c0-0.781,0.635-1.417,1.417-1.417v3.127L27.152,21.144z M27.445,25.395h2.834v2.834h-2.834V25.395z M31.695,24.979l2.834-2.834
		v-3.835c0-1.563-1.271-2.834-2.834-2.834h-1.417v3.957l-0.293,0.293h-2.247l-0.293-0.293v-3.957h-1.417
		c-1.563,0-2.834,1.271-2.834,2.834v3.835l2.834,2.834v3.249h-1.71l-0.045,0.045c-2.419-1.561-3.912-4.236-3.912-7.129
		c0-4.688,3.813-8.501,8.501-8.501s8.501,3.813,8.501,8.501c0,2.871-1.434,5.501-3.835,7.084h-1.832V24.979z M38.779,21.144
		c0-5.469-4.449-9.917-9.917-9.917s-9.917,4.449-9.917,9.917c0,3.272,1.628,6.319,4.298,8.16l-1.02,1.02
		c-2.942-2.131-4.695-5.541-4.695-9.18c0-6.249,5.085-11.334,11.334-11.334s11.334,5.085,11.334,11.334
		c0,3.501-1.582,6.731-4.284,8.872c-0.081-0.502-0.337-0.942-0.706-1.261C37.464,26.882,38.779,24.122,38.779,21.144L38.779,21.144z
		 M36.655,32.478c0.39,0,0.708,0.318,0.708,0.708c0,0.391-0.318,0.708-0.708,0.708h-5.668c-0.39,0-0.708-0.318-0.708-0.708
		c0-0.391,0.318-0.708,0.708-0.708H36.655z M30.987,36.729c-0.39,0-0.708-0.318-0.708-0.708c0-0.391,0.318-0.708,0.708-0.708h5.668
		c0.39,0,0.708,0.318,0.708,0.708c0,0.391-0.318,0.708-0.708,0.708H30.987z M13.277,42.396h-2.125V31.062h2.125V42.396z
		 M22.78,42.396l-2.125-2.125h-5.96v-7.792h7.377l2.834-2.834h8.916c0.39,0,0.708,0.318,0.708,0.708
		c0,0.391-0.318,0.708-0.708,0.708h-7.377l-3.041,3.041l1.002,1.002l1.624-1.624v8.916H22.78z M28.862,45.938
		c-0.781,0-1.417-0.635-1.417-1.417V32.478h1.547c-0.08,0.222-0.13,0.459-0.13,0.708c0,0.546,0.213,1.04,0.552,1.417
		c-0.34,0.377-0.552,0.871-0.552,1.417c0,0.546,0.213,1.04,0.552,1.417c-0.34,0.377-0.552,0.871-0.552,1.417
		c0,0.546,0.213,1.04,0.552,1.417c-0.34,0.377-0.552,0.871-0.552,1.417c0,0.922,0.594,1.701,1.417,1.995v0.839
		C30.279,45.302,29.643,45.938,28.862,45.938L28.862,45.938z M36.655,42.396h-5.668c-0.39,0-0.708-0.318-0.708-0.708
		s0.318-0.708,0.708-0.708h5.668c0.39,0,0.708,0.318,0.708,0.708S37.045,42.396,36.655,42.396L36.655,42.396z M36.655,42.396"/>
	<rect x="7.61" y="9.102" fill="#6E8999" stroke="#6E8999" stroke-width="0.25" width="1.417" height="1.417"/>
	<rect x="7.61" y="12.644" fill="#6E8999" stroke="#6E8999" stroke-width="0.25" width="1.417" height="1.417"/>
	<rect x="7.61" y="16.185" fill="#6E8999" stroke="#6E8999" stroke-width="0.25" width="1.417" height="1.417"/>
	<rect x="47.28" y="32.478" fill="#6E8999" stroke="#6E8999" stroke-width="0.25" width="1.417" height="1.417"/>
	<rect x="47.28" y="36.02" fill="#6E8999" stroke="#6E8999" stroke-width="0.25" width="1.417" height="1.417"/>
	<rect x="47.28" y="39.562" fill="#6E8999" stroke="#6E8999" stroke-width="0.25" width="1.417" height="1.417"/>
</g>
</svg>
