<svg width="57" height="57" viewBox="0 0 57 57" fill="none" xmlns="http://www.w3.org/2000/svg">
<path d="M50.6825 1.66504H6.35352V27.7381H50.6825V1.66504Z" stroke="#6E8999" stroke-width="3" stroke-miterlimit="10"/>
<path d="M6.35352 8.76514H45.9855" stroke="#6E8999" stroke-width="3" stroke-miterlimit="10" stroke-linecap="square"/>
<path d="M9.87988 5.1748H12.3959" stroke="#6E8999" stroke-width="3" stroke-miterlimit="10"/>
<path d="M14.9111 5.1748H17.4271" stroke="#6E8999" stroke-width="3" stroke-miterlimit="10"/>
<path d="M19.9434 5.1748H22.4594" stroke="#6E8999" stroke-width="3" stroke-miterlimit="10"/>
<path d="M19.7758 13.7959H11.0498V17.7799H19.7758V13.7959Z" stroke="#6E8999" stroke-width="3" stroke-miterlimit="10" stroke-linecap="square"/>
<path d="M32.8803 13.7959H24.1543V17.7799H32.8803V13.7959Z" stroke="#6E8999" stroke-width="3" stroke-miterlimit="10" stroke-linecap="square"/>
<path d="M45.9857 13.7959H37.2598V17.7799H45.9857V13.7959Z" stroke="#6E8999" stroke-width="3" stroke-miterlimit="10" stroke-linecap="square"/>
<path d="M11.0498 22.5991H19.7758" stroke="#6E8999" stroke-width="3" stroke-miterlimit="10" stroke-linecap="square"/>
<path d="M24.1543 22.5991H32.8803" stroke="#6E8999" stroke-width="3" stroke-miterlimit="10" stroke-linecap="square"/>
<path d="M37.2598 22.5991H45.9857" stroke="#6E8999" stroke-width="3" stroke-miterlimit="10" stroke-linecap="square"/>
<path d="M6.75293 32.1128H50.6579" stroke="#6E8999" stroke-width="3" stroke-miterlimit="10" stroke-linecap="square"/>
<path d="M6.75293 35.1109V33.6929" stroke="#6E8999" stroke-width="3" stroke-miterlimit="10" stroke-linecap="square"/>
<path d="M50.6582 36.1108V32.1128" stroke="#6E8999" stroke-width="3" stroke-miterlimit="10" stroke-linecap="square"/>
<path d="M28.7051 36.1109V33.0649" stroke="#6E8999" stroke-width="3" stroke-miterlimit="10" stroke-linecap="square"/>
<path d="M28.7051 32.018V28.917" stroke="#6E8999" stroke-width="3" stroke-miterlimit="10" stroke-linecap="square"/>
<path d="M28.7051 46.8829V43.2749" stroke="#6E8999" stroke-width="3" stroke-miterlimit="10" stroke-linecap="square"/>
<path d="M50.6582 46.8829V43.2749" stroke="#6E8999" stroke-width="3" stroke-miterlimit="10" stroke-linecap="square"/>
<path d="M11.1382 35.5752H2.36816V44.3452H11.1382V35.5752Z" stroke="#6E8999" stroke-width="3" stroke-miterlimit="10" stroke-linecap="square"/>
<path d="M28.7053 55.647C26.2833 55.647 24.3203 53.6839 24.3203 51.2619C24.3203 48.8399 26.2833 46.877 28.7053 46.877C31.1273 46.877 33.0903 48.8399 33.0903 51.2619C33.0903 53.6829 31.1273 55.647 28.7053 55.647Z" stroke="#6E8999" stroke-width="3" stroke-miterlimit="10" stroke-linecap="square"/>
<path d="M50.6584 55.647C48.2364 55.647 46.2734 53.6839 46.2734 51.2619C46.2734 48.8399 48.2364 46.877 50.6584 46.877C53.0804 46.877 55.0434 48.8399 55.0434 51.2619C55.0434 53.6829 53.0804 55.647 50.6584 55.647Z" stroke="#6E8999" stroke-width="3" stroke-miterlimit="10" stroke-linecap="square"/>
<path d="M55.0433 36.9399H24.3213V43.2809H55.0433V36.9399Z" stroke="#6E8999" stroke-width="3" stroke-miterlimit="10" stroke-linecap="square"/>
<path d="M11.3408 39.96H24.3208" stroke="#6E8999" stroke-width="3" stroke-miterlimit="10" stroke-linecap="square"/>
</svg>
