<svg width="54" height="49" viewBox="0 0 54 49" fill="none" xmlns="http://www.w3.org/2000/svg">
<path d="M36.715 28.7115L36.3218 28.9727L36.7363 30.6123L35.9818 31.3248L34.313 30.8382L34.0377 31.2295C33.8284 31.5261 33.6511 31.806 33.4898 32.0773L34.6135 32.8031C34.6928 32.6671 34.7741 32.5311 34.8661 32.3885L36.3451 32.8197L38.2259 31.0429L37.8547 29.5759C38.008 29.4873 38.1733 29.4006 38.3545 29.3113L39.4169 30.435L41.9316 29.8245L42.3662 28.3436C42.4048 28.3429 42.4435 28.3422 42.4815 28.3422C42.6328 28.3422 42.7801 28.3462 42.9233 28.3542L43.2806 29.8485L45.3054 30.439L45.7267 29.1713L44.403 28.7868L44.0071 27.1292L43.5465 27.0719C43.2066 27.0292 42.8567 27.0086 42.4882 27.0086C42.2722 27.0086 42.0489 27.0159 41.8176 27.0299L41.3491 27.0592L40.8646 28.7108L39.8575 28.9547L38.6678 27.6951L38.2312 27.8923C37.6081 28.1769 37.1408 28.4289 36.715 28.7115ZM52.7715 36.7387L52.7422 36.2715L51.0853 35.789L50.8393 34.7852L52.1037 33.6002L51.9057 33.1656C51.6218 32.5458 51.3692 32.0799 51.0853 31.6554L50.826 31.2695L49.1584 31.6654L48.3506 30.8229L47.8901 32.2712L48.7179 33.1403L50.2141 32.7857C50.3041 32.9404 50.3928 33.1063 50.4834 33.2889L49.3557 34.3467L49.9689 36.852L51.4552 37.2852C51.4585 37.4765 51.4545 37.6611 51.4438 37.8404L49.9442 38.1957L49.2157 40.6717L50.2568 41.7814C50.1662 41.9407 50.0655 42.1047 49.9555 42.2746L48.4766 41.8447L46.5998 43.6163L46.9563 45.1072C46.8037 45.1945 46.6384 45.2818 46.4578 45.3711L45.4114 44.2274L42.8894 44.8393L42.4542 46.3202C42.4142 46.3202 42.3735 46.3209 42.3342 46.3209C42.1849 46.3209 42.0389 46.3176 41.897 46.3089L41.5397 44.8146L39.0531 44.0888L37.9233 45.1479C37.7667 45.0592 37.6034 44.9606 37.4361 44.8526L37.8887 43.397L36.1045 41.5221L34.6089 41.878C34.5195 41.7228 34.4303 41.5568 34.3389 41.3735L35.4666 40.3158L34.8548 37.8104L33.3678 37.3772C33.3652 37.1873 33.5078 36.0509 33.5178 35.8723L32.2921 35.1358L32.0922 36.2022C32.0242 36.7394 32.0109 37.3032 32.0502 37.9251L32.0802 38.3916L33.7377 38.8742L33.983 39.8772L32.7187 41.0629L32.9173 41.4975C33.1972 42.108 33.4578 42.5879 33.7384 43.0071L33.9977 43.3937L35.6653 42.9971L36.3797 43.7476L35.8672 45.3951L36.2664 45.6744C36.7956 46.0436 37.2775 46.3336 37.7407 46.5588L38.1566 46.7614L39.4143 45.5831L40.42 45.8763L40.8159 47.5332L41.2758 47.5912C41.6144 47.6332 41.9649 47.6545 42.3348 47.6545C42.5508 47.6545 42.7741 47.6472 43.0047 47.6326L43.4739 47.6032L43.9591 45.9523L44.9588 45.7097L46.1332 46.9927L46.5771 46.7914C47.1996 46.5088 47.6675 46.2562 48.0934 45.973L48.4799 45.7157L48.0827 44.0541L48.8418 43.3383L50.5107 43.8249L50.7867 43.4336C51.1579 42.9058 51.4485 42.4259 51.6744 41.9654L51.877 41.5528L50.7173 40.3171L51.0126 39.314L52.6762 38.9195L52.7342 38.4609C52.7975 37.9244 52.8108 37.3612 52.7715 36.7387ZM19.5468 10.5302C14.4828 10.5302 10.3778 14.6191 10.3778 19.6632C10.3778 24.7072 14.4828 28.7961 19.5468 28.7961C20.8184 28.7961 22.0295 28.5375 23.1305 28.0716L37.3081 37.2313C37.3075 37.2692 37.3028 37.3052 37.3028 37.3432C37.3028 40.1485 39.5863 42.4226 42.4029 42.4226C45.2195 42.4226 47.5028 40.1485 47.5028 37.3432C47.5028 36.1442 47.0836 35.0445 46.3851 34.1754L51.8697 17.2911C52.3509 16.5246 52.6329 15.6222 52.6329 14.6525C52.6329 11.8965 50.3901 9.66242 47.6228 9.66242C47.019 9.66242 46.4431 9.77372 45.9073 9.96967L26.1937 13.3848C24.5222 11.6299 22.1654 10.5302 19.5468 10.5302ZM19.5468 28.1296C14.86 28.1296 11.047 24.3313 11.047 19.6632C11.047 14.9944 14.86 11.1967 19.5468 11.1967C21.8068 11.1967 23.8583 12.0851 25.3826 13.5234L20.1586 14.4278C19.9573 14.4052 19.754 14.3905 19.5468 14.3905C16.6229 14.3905 14.2535 16.7512 14.2535 19.6632C14.2535 21.9752 15.7497 23.9347 17.8292 24.6459L22.4287 27.6178C21.5269 27.943 20.5598 28.1296 19.5468 28.1296ZM21.8888 19.6632C21.8888 20.9515 20.8398 21.9959 19.5461 21.9959C18.2531 21.9959 17.204 20.9515 17.204 19.6632C17.204 18.3742 18.2531 17.3304 19.5461 17.3304C20.8404 17.3304 21.8888 18.3748 21.8888 19.6632ZM46.833 37.3426C46.833 39.7759 44.8456 41.7554 42.4029 41.7554C40.0708 41.7554 38.1579 39.9505 37.9886 37.6705L39.9295 38.9241C40.454 39.7353 41.3625 40.2751 42.4029 40.2751C44.0291 40.2751 45.3468 38.9628 45.3468 37.3426C45.3468 37.3306 45.3434 37.3192 45.3434 37.3072C45.3527 37.3059 45.3601 37.3026 45.3694 37.3012L46.1292 34.9645C46.5724 35.6517 46.833 36.4668 46.833 37.3426ZM42.4022 34.4107C40.8766 34.4107 39.6369 35.5704 39.4876 37.0506L38.1339 36.1762C38.6491 34.308 40.3654 32.9297 42.4022 32.9297C43.4112 32.9297 44.3404 33.2723 45.0862 33.8401L44.583 35.3891C44.0444 34.7926 43.2713 34.4107 42.4022 34.4107ZM43.4059 37.3426C43.4059 37.8951 42.9567 38.3423 42.4022 38.3423C41.8476 38.3423 41.3984 37.8951 41.3984 37.3426C41.3984 36.7907 41.8476 36.3422 42.4022 36.3422C42.9567 36.3428 43.4059 36.7907 43.4059 37.3426ZM47.6228 12.3191C48.9158 12.3191 49.9649 13.3635 49.9649 14.6518C49.9649 15.9401 48.9158 16.9845 47.6228 16.9845C46.3291 16.9845 45.2801 15.9401 45.2801 14.6518C45.2801 13.3635 46.3291 12.3191 47.6228 12.3191ZM43.5699 11.7265C42.97 12.5497 42.6121 13.5574 42.6121 14.6518C42.6121 17.4077 44.8555 19.6418 47.6228 19.6418C48.4326 19.6418 49.1957 19.4452 49.8729 19.106L45.3047 33.1683C44.4809 32.5991 43.4819 32.2632 42.4029 32.2632C40.1281 32.2632 38.2026 33.7475 37.5454 35.7956L24.4795 27.3545C27.0248 25.7316 28.7157 22.897 28.7157 19.6638C28.7157 17.777 28.1412 16.0254 27.1575 14.5705L43.5699 11.7265ZM28.0472 19.6632C28.0472 22.765 26.3583 25.475 23.8536 26.9499L20.5785 24.8338C23.0085 24.3553 24.8401 22.2232 24.8401 19.6632C24.8401 17.8843 23.953 16.314 22.598 15.3589L26.4163 14.6971C27.4374 16.0947 28.0472 17.8076 28.0472 19.6632ZM28.3858 34.6313L26.1711 32.6758L22.2314 34.0048L21.6289 36.858C21.0317 36.9313 20.3732 36.9753 19.6621 36.9887L18.7103 34.1954L14.642 33.3723L12.6819 35.575C12.1407 35.3431 11.5789 35.0612 10.9357 34.6979L11.5882 31.7987L8.46298 29.0674L5.64771 30.0178C5.23182 29.4746 4.87591 28.9447 4.56999 28.4162L6.53282 26.2095L5.19783 22.2851L2.28193 21.6846C2.20861 21.0921 2.16527 20.4396 2.15061 19.7351L4.95457 18.8374L5.78236 14.7778L3.57094 12.8263C3.80488 12.2844 4.08945 11.7225 4.45535 11.0794L7.36658 11.6792L10.1059 8.57137L9.15014 5.76743C9.69466 5.3542 10.2265 4.99963 10.7584 4.69437L12.9732 6.65053L16.9121 5.32154L17.516 2.46762C18.1145 2.39364 18.7643 2.35098 19.4821 2.33765L20.4339 5.13226L24.5082 5.95538L26.417 3.75462C26.9582 3.98656 27.5207 4.26982 28.1639 4.63239L27.562 7.53297L30.6812 10.2603L33.4965 9.30784C33.907 9.8477 34.2676 10.3836 34.5735 10.9108L34.079 11.4673L36.1931 11.1007L36.1965 11.0967L35.9792 10.6882C35.5226 9.82837 34.9581 8.98593 34.2543 8.10815L33.961 7.74358L30.9831 8.74999L29.0297 7.04243L29.6688 3.96323L29.2549 3.72129C28.1858 3.09546 27.3254 2.66757 26.4663 2.33432L26.0258 2.1637L24.0056 4.49309L21.4523 3.97723L20.4405 1H19.9606C18.7849 1 17.7686 1.06998 16.8542 1.21394L16.3983 1.28526L15.7604 4.30248L13.2797 5.13959L10.945 3.07813L10.5351 3.29407C9.674 3.74862 8.82623 4.31114 7.94513 5.01296L7.57856 5.30488L8.58896 8.27011L6.87473 10.2163L3.78353 9.57977L3.54092 9.991C2.91308 11.0547 2.48321 11.9112 2.14797 12.7683L1.97935 13.2015L4.31672 15.265L3.79817 17.8063L0.807617 18.7641V19.2499C0.807617 20.4183 0.878305 21.43 1.02293 22.3445L1.0949 22.8003L4.17609 23.4348L5.01587 25.9029L2.94708 28.2283L3.16369 28.6368C3.61958 29.4933 4.18407 30.3377 4.88989 31.2161L5.1825 31.5821L8.1604 30.5757L10.1085 32.2779L9.41541 35.3571L9.83595 35.603C10.905 36.2302 11.7661 36.6581 12.6246 36.9913L13.0585 37.1586L15.1306 34.8305L17.6899 35.3491L18.7036 38.3263H19.1835C20.3566 38.3263 21.3736 38.2557 22.2914 38.111L22.7473 38.039L23.3844 35.0225L25.8645 34.1854L28.1992 36.2468L28.6098 36.0309C29.4542 35.5857 30.286 35.0338 31.1491 34.35L29.9594 33.5822C29.4295 33.9814 28.903 34.3333 28.3858 34.6313ZM32.2702 29.1087L35.36 29.7459L35.6033 29.3346C36.2331 28.2696 36.663 27.4125 36.9963 26.5574L37.1649 26.1248L34.8268 24.0607L35.346 21.5173L38.2852 20.5596V20.0757C38.2852 18.9093 38.2139 17.8969 38.0693 16.9812L37.9973 16.5273L34.9681 15.8928L34.2863 13.8853L32.9526 14.1166L33.9464 17.0398L36.8116 17.6403C36.8849 18.2342 36.9289 18.888 36.9422 19.5938L34.1897 20.4903L33.3619 24.5472L35.5739 26.5C35.3407 27.0406 35.0561 27.6024 34.6888 28.2456L31.7776 27.6457L29.9114 29.7639L31.0465 30.4977L32.2702 29.1087Z" fill="#6E8999" stroke="#6E8999"/>
</svg>
