<svg width="60" height="49" viewBox="0 0 60 49" fill="none" xmlns="http://www.w3.org/2000/svg">
<path d="M54.6461 6.99844H38.6503V3.66597C38.6503 2.25701 37.3933 1 35.9843 1H23.3209C21.9113 1 20.655 2.25701 20.655 3.66597V6.99844H4.65912C2.20709 6.99844 0.660156 8.54671 0.660156 10.9974V24.3273C0.660156 25.2784 0.898761 26.0881 1.32665 26.7293V43.6556C1.32665 45.9163 2.99955 47.6545 5.32561 47.6545H53.9796C56.3057 47.6545 57.9786 45.9163 57.9786 43.6556V26.7293C58.4072 26.0881 58.6451 25.2784 58.6451 24.3273V10.9974C58.6451 8.54671 57.0975 6.99844 54.6461 6.99844ZM21.9879 3.66597C21.9879 2.99215 22.6464 2.33365 23.3209 2.33365H35.9843C36.6581 2.33365 37.3173 2.99282 37.3173 3.66597V6.99844H21.9879V3.66597ZM56.6456 43.6556C56.6456 45.1812 55.5706 46.3209 53.9796 46.3209H5.32561C3.73469 46.3209 2.65964 45.1812 2.65964 43.6556V27.8777C3.22949 28.1603 3.89398 28.3262 4.65912 28.3262H25.3204V32.9924C25.3204 34.0148 26.4121 34.9918 27.3199 34.9918H31.9854C32.8931 34.9918 33.9848 34.0154 33.9848 32.9924V28.3262H54.6461C55.4113 28.3262 56.0758 28.1596 56.6456 27.8777V43.6556ZM33.3183 31.6587V32.9924H25.9869V31.6587H33.3183ZM25.9869 30.9922V28.3262H33.3183V30.9922H25.9869ZM57.3121 24.3273C57.3121 26.0435 56.3617 26.9939 54.6461 26.9939H4.65912C2.9429 26.9939 1.99314 26.0435 1.99314 24.3273V10.9974C1.99314 9.28118 2.9429 8.3321 4.65912 8.3321H54.6461C56.3617 8.3321 57.3121 9.28185 57.3121 10.9974V24.3273ZM55.3126 23.6608C55.3126 24.4559 54.7754 24.9938 53.9796 24.9938H5.32561C4.53048 24.9938 3.99262 24.4559 3.99262 23.6608V10.9974H3.32613V23.6608C3.32613 24.8245 4.16191 25.6609 5.32561 25.6609H53.9796C55.1433 25.6609 55.9791 24.8245 55.9791 23.6608V10.9974H55.3126V23.6608ZM25.653 13.6634C26.1629 13.6634 26.3195 13.5068 26.3195 12.9969C26.3195 12.4877 26.1629 12.3311 25.653 12.3311C25.1438 12.3311 24.9865 12.4877 24.9865 12.9969C24.9865 13.5068 25.1438 13.6634 25.653 13.6634ZM29.6526 13.6634C30.1625 13.6634 30.3191 13.5068 30.3191 12.9969C30.3191 12.4877 30.1625 12.3311 29.6526 12.3311C29.1428 12.3311 28.9861 12.4877 28.9861 12.9969C28.9861 13.5068 29.1428 13.6634 29.6526 13.6634ZM33.6509 13.6634C34.1608 13.6634 34.3174 13.5068 34.3174 12.9969C34.3174 12.4877 34.1608 12.3311 33.6509 12.3311C33.141 12.3311 32.9844 12.4877 32.9844 12.9969C32.9844 13.5068 33.1417 13.6634 33.6509 13.6634Z" fill="#6E8999" stroke="#6E8999"/>
</svg>
