<svg width="64" height="54" viewBox="0 0 64 54" fill="none" xmlns="http://www.w3.org/2000/svg">
<path d="M61.924 6.894V43.467H2V2H61.924" stroke="#6E8999" stroke-width="3" stroke-miterlimit="10" stroke-linecap="square"/>
<path d="M39.8246 46.3118V51.6098H24.0986V43.4668H39.8246" stroke="#6E8999" stroke-width="3" stroke-miterlimit="10"/>
<path d="M18.4629 51.6099H45.4609" stroke="#6E8999" stroke-width="3" stroke-miterlimit="10"/>
<path d="M2 36.5352H57.228" stroke="#6E8999" stroke-width="3" stroke-miterlimit="10"/>
<path d="M56.1359 7.37891H45.4609V31.1179H56.1359V7.37891Z" stroke="#6E8999" stroke-width="3" stroke-miterlimit="10" stroke-linecap="square"/>
<path d="M8.18359 7.37891H9.40558" stroke="#6E8999" stroke-width="3" stroke-miterlimit="10" stroke-linecap="square"/>
<path d="M8.18359 11.5098H9.40558" stroke="#6E8999" stroke-width="3" stroke-miterlimit="10" stroke-linecap="square"/>
<path d="M8.18359 15.6411H9.40558" stroke="#6E8999" stroke-width="3" stroke-miterlimit="10" stroke-linecap="square"/>
<path d="M8.18359 19.772H9.40558" stroke="#6E8999" stroke-width="3" stroke-miterlimit="10" stroke-linecap="square"/>
<path d="M8.18359 23.9019H9.40558" stroke="#6E8999" stroke-width="3" stroke-miterlimit="10" stroke-linecap="square"/>
<path d="M49.3145 11.3359H52.2845" stroke="#6E8999" stroke-width="3" stroke-miterlimit="10" stroke-linecap="square" stroke-linejoin="round"/>
<path d="M49.3145 15.377H52.2845" stroke="#6E8999" stroke-width="3" stroke-miterlimit="10" stroke-linecap="square" stroke-linejoin="round"/>
<path d="M49.3145 19.4189H52.2845" stroke="#6E8999" stroke-width="3" stroke-miterlimit="10" stroke-linecap="square" stroke-linejoin="round"/>
<path d="M49.3145 23.4609H52.2845" stroke="#6E8999" stroke-width="3" stroke-miterlimit="10" stroke-linecap="square" stroke-linejoin="round"/>
<path d="M49.3145 27.502H52.2845" stroke="#6E8999" stroke-width="3" stroke-miterlimit="10" stroke-linecap="square" stroke-linejoin="round"/>
<path d="M14.5771 31.2979H39.9592" stroke="#6E8999" stroke-width="3" stroke-miterlimit="10" stroke-linecap="square"/>
<path d="M39.9592 7.37891H14.5771" stroke="#6E8999" stroke-width="3" stroke-miterlimit="10" stroke-linecap="square"/>
<path d="M38.1619 25.4029L34.5209 21.5269L30.8799 25.4029" stroke="#6E8999" stroke-width="3" stroke-miterlimit="10" stroke-linecap="square"/>
<path d="M16.9531 25.4031L25.3601 16.4561L29.9481 21.2831" stroke="#6E8999" stroke-width="3" stroke-miterlimit="10" stroke-linecap="square"/>
<path d="M36.4474 16.9448C37.5111 16.9448 38.3735 16.0825 38.3735 15.0188C38.3735 13.9551 37.5111 13.0928 36.4474 13.0928C35.3837 13.0928 34.5215 13.9551 34.5215 15.0188C34.5215 16.0825 35.3837 16.9448 36.4474 16.9448Z" stroke="#6E8999" stroke-width="3" stroke-miterlimit="10" stroke-linecap="square"/>
</svg>
