<svg width="60" height="58" viewBox="0 0 60 58" fill="none" xmlns="http://www.w3.org/2000/svg">
<path d="M4.96515 53.4934L2.99414 53.9814L5.56012 44.2134L42.3111 8.65039" stroke="#6E8999" stroke-width="3" stroke-miterlimit="10" stroke-linecap="square"/>
<path d="M49.8115 15.9282L13.0595 51.4912L8.8125 52.5422" stroke="#6E8999" stroke-width="3" stroke-miterlimit="10" stroke-linecap="square"/>
<path d="M44.8496 11.1143L49.8106 15.9283" stroke="#6E8999" stroke-width="3" stroke-miterlimit="10" stroke-linecap="square"/>
<path d="M49.8115 15.9282L51.3445 14.4402C52.5235 13.2962 52.5235 11.4422 51.3445 10.2982L48.1135 7.1622C46.9345 6.0182 45.0235 6.0182 43.8455 7.1622L42.3125 8.65019" stroke="#6E8999" stroke-width="3" stroke-miterlimit="10" stroke-linecap="square"/>
<path d="M46.0611 12.2891L12.8281 44.4381" stroke="#6E8999" stroke-width="3" stroke-miterlimit="10" stroke-linecap="square"/>
<path d="M6.56543 44.9502L10.0364 48.3192" stroke="#6E8999" stroke-width="3" stroke-miterlimit="10" stroke-linecap="square"/>
<path d="M46.168 55.7479L27.625 37.7539" stroke="#6E8999" stroke-width="3" stroke-miterlimit="10" stroke-linecap="square"/>
<path d="M41.3291 30.084L56.9681 45.267L46.1682 55.748" stroke="#6E8999" stroke-width="3" stroke-miterlimit="10" stroke-linecap="square"/>
<path d="M16.4434 26.903L2.44336 13.342L13.2444 2.854L30.5093 19.591" stroke="#6E8999" stroke-width="3" stroke-miterlimit="10" stroke-linecap="square"/>
<path d="M51.9761 40.7539L49.9971 42.6749" stroke="#6E8999" stroke-width="3" stroke-miterlimit="10" stroke-linecap="square"/>
<path d="M47.603 36.5112L45.624 38.4312" stroke="#6E8999" stroke-width="3" stroke-miterlimit="10" stroke-linecap="square"/>
<path d="M43.231 32.2681L41.251 34.1881" stroke="#6E8999" stroke-width="3" stroke-miterlimit="10" stroke-linecap="square"/>
<path d="M25.7407 15.2949L23.7617 17.2149" stroke="#6E8999" stroke-width="3" stroke-miterlimit="10" stroke-linecap="square"/>
<path d="M21.3669 11.0518L18.1699 14.1538" stroke="#6E8999" stroke-width="3" stroke-miterlimit="10" stroke-linecap="square"/>
<path d="M16.9956 6.80811L15.0166 8.72911" stroke="#6E8999" stroke-width="3" stroke-miterlimit="10" stroke-linecap="square"/>
<path d="M47.6033 36.5112L44.4062 39.6132" stroke="#6E8999" stroke-width="3" stroke-miterlimit="10" stroke-linecap="square"/>
</svg>
