<svg width="90" height="49" viewBox="0 0 90 49" fill="none" xmlns="http://www.w3.org/2000/svg">
<path d="M81.1122 21.9649H74.23V22.672H81.1122V24.087H70.7889V24.7948H81.1122V26.2098H74.23V26.9176H81.1122L87.9997 24.5289L81.1122 21.9649ZM81.8 23.3792L85.9409 24.5255L81.8 25.5019V23.3792ZM21.0151 20.034L46.0473 35.736C46.4898 36.0132 46.9851 36.1518 47.4803 36.1518C47.9801 36.1518 48.48 36.0105 48.9252 35.7286L72.4618 20.8078C73.0736 20.4199 73.4402 19.7474 73.4422 19.009C73.4455 18.2712 73.0843 17.5953 72.4758 17.2028L48.1454 1.50618C47.263 0.936995 46.16 0.924984 45.2669 1.47551L21.0291 16.4023C20.404 16.7875 20.0287 17.4647 20.0254 18.2145C20.0227 18.963 20.3926 19.6441 21.0151 20.034ZM21.7376 17.616L45.9753 2.6892C46.1939 2.5539 46.4385 2.4866 46.6832 2.4866C46.9364 2.4866 47.1897 2.55923 47.4149 2.70519L71.7453 18.4024C72.0379 18.5904 72.0685 18.8857 72.0679 19.0043C72.0672 19.1223 72.0345 19.4182 71.7406 19.6041L48.2041 34.5249C47.7602 34.8062 47.2083 34.8069 46.7644 34.5289L21.7329 18.8277C21.4337 18.6404 21.4024 18.3411 21.403 18.2205C21.403 18.0992 21.437 17.8006 21.7376 17.616ZM46.2939 6.82013L46.7031 6.5682L47.1077 6.82879C47.1637 6.86612 47.227 6.88278 47.2903 6.88278C47.4049 6.88278 47.5169 6.82346 47.5823 6.71682C47.6836 6.55153 47.6349 6.33293 47.4736 6.22895L46.8904 5.85305C46.7811 5.78107 46.6411 5.77973 46.5312 5.84905L45.9407 6.21229C45.7774 6.31227 45.7247 6.53021 45.8227 6.6975C45.92 6.86612 46.1313 6.92144 46.2939 6.82013ZM63.2208 17.2254L64.4612 18.0246C64.5172 18.0619 64.5805 18.0792 64.6438 18.0792C64.7578 18.0792 64.8697 18.0206 64.935 17.9133C65.0364 17.7486 64.9877 17.5293 64.8271 17.426L63.5868 16.6256C63.4268 16.5216 63.2142 16.5729 63.1128 16.7369C63.0115 16.9035 63.0602 17.1221 63.2208 17.2254ZM60.7422 15.6258L61.9818 16.4256C62.0385 16.463 62.1018 16.4803 62.1644 16.4803C62.2791 16.4803 62.391 16.4216 62.4564 16.3143C62.557 16.1484 62.5084 15.9304 62.3477 15.8265L61.108 15.0267C60.9474 14.9227 60.7348 14.9734 60.6335 15.138C60.5329 15.3039 60.5815 15.5219 60.7422 15.6258ZM48.3474 7.62859L49.5871 8.42837C49.6437 8.46503 49.707 8.48236 49.7697 8.48236C49.8843 8.48236 49.9963 8.42371 50.0616 8.3164C50.1629 8.15111 50.1142 7.93318 49.9536 7.8292L48.714 7.02873C48.5527 6.92476 48.34 6.97541 48.2394 7.1407C48.1374 7.30666 48.1861 7.52462 48.3474 7.62859ZM58.2635 14.0263L59.5031 14.826C59.5591 14.8627 59.6224 14.8807 59.6858 14.8807C59.8004 14.8807 59.9117 14.8221 59.9777 14.7147C60.0783 14.5495 60.0297 14.3309 59.8691 14.2275L58.6293 13.4277C58.4687 13.3244 58.2561 13.3744 58.1555 13.539C58.0535 13.7037 58.1022 13.9223 58.2635 14.0263ZM55.7841 12.4273L57.0231 13.2265C57.0804 13.2631 57.1431 13.2804 57.2057 13.2804C57.3204 13.2804 57.433 13.2218 57.4976 13.1145C57.599 12.9492 57.5503 12.7313 57.3897 12.6273L56.15 11.8275C55.9901 11.7235 55.7774 11.7735 55.6761 11.9395C55.5748 12.1048 55.6235 12.3234 55.7841 12.4273ZM50.8267 9.2275L50.9414 9.30215C50.8301 9.56275 50.7667 9.84934 50.7667 10.1526C50.7667 11.3243 51.6905 12.2747 52.8309 12.2747C53.4574 12.2747 54.0125 11.9815 54.3911 11.5282L54.5444 11.6269C54.6004 11.6642 54.6637 11.6815 54.7264 11.6815C54.841 11.6815 54.953 11.6229 55.0183 11.5156C55.1196 11.3503 55.071 11.1317 54.9103 11.0284L54.7497 10.9251C54.8417 10.6851 54.8957 10.4265 54.8957 10.1533C54.8957 8.98157 53.9719 8.03049 52.8315 8.03049C52.2337 8.03049 51.6992 8.29575 51.3226 8.71364L51.1926 8.62966C51.032 8.52502 50.8201 8.57633 50.7188 8.74096C50.6168 8.90558 50.6654 9.1242 50.8267 9.2275ZM65.5869 19.4582C65.6522 19.5662 65.7642 19.6261 65.8802 19.6261C65.9415 19.6261 66.0041 19.6095 66.0608 19.5735L66.6466 19.2022C66.7472 19.1376 66.8093 19.025 66.8099 18.9023C66.8099 18.7803 66.7493 18.6664 66.6486 18.6011L66.0654 18.2245C65.9048 18.1219 65.6922 18.1705 65.5916 18.3371C65.4909 18.5018 65.5396 18.7204 65.7002 18.8244L65.8148 18.8983L65.6995 18.971C65.5376 19.0736 65.4876 19.2916 65.5869 19.4582ZM62.0951 21.2564L60.8941 22.0182C60.7321 22.1208 60.6822 22.3388 60.7822 22.5061C60.8468 22.614 60.9601 22.674 61.0754 22.674C61.1367 22.674 61.1994 22.6567 61.256 22.6214L62.457 21.8602C62.619 21.7569 62.669 21.5396 62.569 21.3724C62.469 21.2064 62.2564 21.1537 62.0951 21.2564ZM54.8857 25.8272L53.6846 26.5883C53.5233 26.691 53.4734 26.9089 53.572 27.0755C53.6373 27.1842 53.7499 27.2435 53.8652 27.2435C53.9272 27.2435 53.9899 27.2268 54.0459 27.1915L55.2469 26.4297C55.4082 26.3271 55.4588 26.1098 55.3595 25.9425C55.2596 25.7759 55.0476 25.7246 54.8857 25.8272ZM48.8785 29.6355C48.7166 29.7375 48.6666 29.9555 48.7666 30.1214C48.8319 30.23 48.9446 30.29 49.0599 30.29C49.1212 30.29 49.1838 30.2734 49.2405 30.2374L50.4415 29.4763C50.6035 29.3736 50.6534 29.1557 50.5541 28.989C50.4542 28.8237 50.2422 28.7718 50.0803 28.8744L48.8785 29.6355ZM57.289 24.3036L56.088 25.0647C55.9267 25.1674 55.8761 25.3853 55.9754 25.5519C56.0407 25.6599 56.1533 25.7199 56.2686 25.7199C56.33 25.7199 56.3926 25.7032 56.4493 25.6672L57.651 24.9054C57.8123 24.8028 57.8622 24.5848 57.7629 24.4182C57.6629 24.2529 57.4503 24.1996 57.289 24.3036ZM59.6917 22.7793L58.4907 23.5411C58.3288 23.6444 58.2788 23.8624 58.3788 24.029C58.4441 24.137 58.5561 24.1969 58.672 24.1969C58.7333 24.1969 58.7953 24.1796 58.8526 24.1443L60.0537 23.3832C60.215 23.2799 60.2649 23.0626 60.1663 22.896C60.0657 22.7293 59.853 22.6773 59.6917 22.7793ZM52.483 27.3501L51.2819 28.1119C51.12 28.2139 51.0707 28.4318 51.1693 28.5978C51.2346 28.7064 51.3472 28.7658 51.4626 28.7658C51.5239 28.7658 51.5865 28.7491 51.6432 28.7138L52.8442 27.9526C53.0061 27.8493 53.0562 27.6321 52.9562 27.4648C52.8569 27.3001 52.6456 27.2468 52.483 27.3501ZM64.4978 19.7334L63.2968 20.4952C63.1355 20.5972 63.0856 20.8158 63.1842 20.9824C63.2495 21.0904 63.3622 21.1497 63.4775 21.1497C63.5388 21.1497 63.6021 21.1324 63.6581 21.0978L64.8591 20.3359C65.0204 20.2333 65.0704 20.0154 64.971 19.8487C64.8717 19.6828 64.6604 19.6301 64.4978 19.7334ZM46.8638 30.3987C46.7018 30.2967 46.4892 30.3494 46.3912 30.516C46.2919 30.6833 46.3432 30.9005 46.5052 31.0032L47.0923 31.3711C47.1477 31.4057 47.2097 31.4231 47.2717 31.4231C47.3343 31.4231 47.397 31.4057 47.4523 31.3704L48.0381 30.9998C48.1994 30.8965 48.2494 30.6793 48.1501 30.5126C48.0495 30.3467 47.8375 30.294 47.6762 30.3973L47.2703 30.6539L46.8638 30.3987ZM28.4832 19.6988L29.6096 20.4053C29.6649 20.4406 29.7269 20.4573 29.7882 20.4573C29.9048 20.4573 30.0175 20.3966 30.0828 20.288C30.1821 20.1213 30.1308 19.9034 29.9681 19.8021L28.8418 19.0956C28.6805 18.9936 28.4679 19.0456 28.3686 19.2136C28.2699 19.3795 28.3213 19.5975 28.4832 19.6988ZM41.2319 26.8663L40.1055 26.1598C39.9449 26.0578 39.7316 26.1091 39.633 26.2771C39.5337 26.4437 39.585 26.6616 39.7476 26.7629L40.874 27.4694C40.9293 27.5048 40.9913 27.5214 41.0526 27.5214C41.1685 27.5214 41.2819 27.4614 41.3465 27.3521C41.4458 27.1855 41.3938 26.9682 41.2319 26.8663ZM43.4846 28.2799L42.3583 27.5734C42.197 27.4708 41.9843 27.5234 41.8857 27.6907C41.7864 27.8573 41.8377 28.0759 42.0004 28.1773L43.1267 28.8831C43.1827 28.9191 43.244 28.9351 43.3053 28.9351C43.4213 28.9351 43.5346 28.8757 43.5993 28.7658C43.6979 28.5985 43.6466 28.3812 43.4846 28.2799ZM44.1384 29.103C44.0391 29.2703 44.0905 29.4876 44.2531 29.5895L45.3795 30.296C45.4354 30.3314 45.4974 30.3473 45.5581 30.3473C45.674 30.3473 45.7874 30.2874 45.852 30.1781C45.9513 30.0121 45.9 29.7935 45.7374 29.6922L44.611 28.9857C44.4491 28.8837 44.2371 28.9364 44.1384 29.103ZM37.3795 24.8648C37.2802 25.0321 37.3322 25.2493 37.4942 25.3507L38.6205 26.0571C38.6765 26.0925 38.7385 26.1091 38.7992 26.1091C38.9151 26.1091 39.0285 26.0491 39.0931 25.9398C39.1924 25.7725 39.1411 25.5553 38.9784 25.4533L37.8521 24.7475C37.6908 24.6448 37.4788 24.6975 37.3795 24.8648ZM30.7366 21.1111L31.863 21.8176C31.9183 21.8536 31.981 21.8696 32.0416 21.8696C32.1576 21.8696 32.2709 21.8096 32.3355 21.7003C32.4348 21.5336 32.3835 21.3157 32.2209 21.2144L31.0945 20.5079C30.9326 20.4053 30.7206 20.4579 30.622 20.6252C30.5227 20.7925 30.574 21.0105 30.7366 21.1111ZM35.1275 23.4518C35.0288 23.6184 35.0795 23.8364 35.2421 23.9377L36.3685 24.6442C36.4238 24.6795 36.4858 24.6962 36.5471 24.6962C36.6631 24.6962 36.7764 24.6362 36.8417 24.5262C36.941 24.3596 36.8897 24.1416 36.727 24.0397L35.6007 23.3332C35.4394 23.2325 35.2268 23.2845 35.1275 23.4518ZM32.9894 22.5247L34.1157 23.2305C34.1717 23.2659 34.2337 23.2825 34.2944 23.2825C34.4103 23.2825 34.5236 23.2232 34.5889 23.1132C34.6882 22.9466 34.6369 22.7287 34.4743 22.6274L33.3479 21.9209C33.186 21.8189 32.974 21.8722 32.8754 22.0389C32.7754 22.2048 32.8267 22.4227 32.9894 22.5247ZM27.3568 18.9923C27.4135 19.027 27.4748 19.0443 27.5361 19.0443C27.6521 19.0443 27.7654 18.9836 27.83 18.875C27.9287 18.7084 27.878 18.4904 27.7161 18.3885L27.6141 18.3245L27.7161 18.2618C27.8787 18.1618 27.932 17.9439 27.8347 17.7766C27.7374 17.6087 27.5255 17.5547 27.3622 17.654L26.7717 18.0179C26.6684 18.0819 26.605 18.1958 26.6043 18.3198C26.6037 18.4438 26.667 18.5591 26.769 18.6231L27.3568 18.9923ZM43.6399 8.39573C43.7006 8.39573 43.7612 8.37972 43.8165 8.34573L45.0549 7.58261C45.2182 7.48263 45.2708 7.26536 45.1728 7.0974C45.0762 6.93011 44.8643 6.87479 44.701 6.97609L43.4626 7.73922C43.3 7.83853 43.2467 8.05647 43.3447 8.22443C43.4093 8.33506 43.5233 8.39573 43.6399 8.39573ZM33.7331 14.4981C33.7925 14.4981 33.8538 14.4815 33.9091 14.4475L35.1475 13.685C35.3107 13.585 35.3634 13.3671 35.2654 13.1998C35.1681 13.0325 34.9562 12.9779 34.7935 13.0785L33.5552 13.841C33.3926 13.9409 33.3393 14.1582 33.4372 14.3262C33.5012 14.4375 33.6152 14.4981 33.7331 14.4981ZM41.1632 9.92198C41.2232 9.92198 41.2846 9.90533 41.3392 9.87134L42.5782 9.10821C42.7408 9.00824 42.7941 8.79095 42.6962 8.62366C42.5988 8.45637 42.3882 8.40172 42.2236 8.5017L40.9853 9.26483C40.822 9.3648 40.7693 9.58208 40.8673 9.75003C40.9326 9.86 41.0466 9.92198 41.1632 9.92198ZM28.7778 17.5493C28.8378 17.5493 28.8991 17.5327 28.9544 17.4987L30.1928 16.7362C30.3554 16.6356 30.4094 16.4183 30.3107 16.251C30.2134 16.0831 30.0021 16.0291 29.8389 16.1291L28.6005 16.8915C28.4379 16.9915 28.3845 17.2088 28.4825 17.3761C28.5472 17.488 28.6611 17.5493 28.7778 17.5493ZM31.2552 16.0237C31.3151 16.0237 31.3764 16.0077 31.4311 15.9731L32.6701 15.2106C32.8327 15.11 32.8861 14.8934 32.7881 14.7254C32.6908 14.5574 32.4802 14.5035 32.3162 14.6041L31.0779 15.3666C30.9146 15.4665 30.8613 15.6838 30.9599 15.8525C31.0239 15.9624 31.1385 16.0237 31.2552 16.0237ZM38.6865 11.4469C38.7465 11.4469 38.8078 11.4309 38.8632 11.3963L40.1015 10.6338C40.2648 10.5338 40.3181 10.3165 40.2195 10.1486C40.1222 9.9813 39.9102 9.92666 39.7483 10.0266L38.5099 10.7898C38.3473 10.8904 38.294 11.107 38.392 11.2743C38.456 11.3863 38.5699 11.4469 38.6865 11.4469ZM36.2092 12.9732C36.2692 12.9732 36.3298 12.9565 36.3858 12.9219L37.6241 12.1594C37.7868 12.0588 37.8401 11.8415 37.7421 11.6742C37.6448 11.5069 37.4335 11.4523 37.2702 11.5529L36.0319 12.3154C35.8686 12.4153 35.8153 12.6333 35.9139 12.7999C35.9786 12.9112 36.0926 12.9732 36.2092 12.9732ZM72.4758 29.5002L66.506 25.6486C66.184 25.442 65.7595 25.5406 65.5569 25.8718C65.355 26.2031 65.4523 26.6397 65.7742 26.8476L71.7439 30.6993C72.0365 30.8879 72.0672 31.1831 72.0665 31.3018C72.0659 31.4191 72.0332 31.715 71.7393 31.901L48.2027 46.8224C47.7595 47.103 47.207 47.1037 46.7631 46.8257L21.7316 31.1238C21.4324 30.9365 21.401 30.6373 21.4017 30.5173C21.4024 30.398 21.4363 30.0988 21.7363 29.9135L27.802 26.1778C28.1279 25.9772 28.2339 25.5426 28.0386 25.2074C27.844 24.8728 27.4201 24.7641 27.0949 24.9641L21.0285 28.6998C20.4033 29.085 20.0287 29.7628 20.0254 30.512C20.0221 31.2611 20.3926 31.9423 21.0145 32.3315L46.0466 48.0328C46.4892 48.3107 46.9844 48.4493 47.4796 48.4493C47.9794 48.4493 48.4793 48.3087 48.9246 48.0261L72.4611 33.1053C73.0729 32.7181 73.4395 32.0456 73.4415 31.3078C73.4462 30.568 73.0849 29.8928 72.4758 29.5002ZM12.9799 24.7948H23.3025V24.087H12.9799V22.672H19.8621V21.9649H12.9799V21.2571C12.9799 20.8665 12.672 20.5492 12.2914 20.5492H6.09767C5.7171 20.5492 5.40921 20.8665 5.40921 21.2571H3.34504C2.20467 21.2571 1.28027 22.2068 1.28027 23.3792V24.7941C1.28027 25.9665 2.20467 26.9169 3.34504 26.9169H5.40921C5.40921 27.3075 5.7171 27.6241 6.09767 27.6241H12.2914C12.672 27.6241 12.9799 27.3068 12.9799 26.9169H19.8621V26.2091H12.9799V24.7948ZM5.40986 26.2098H3.34574C2.5866 26.2098 1.96943 25.5753 1.96943 24.7948V23.3798C1.96943 22.5994 2.58727 21.9655 3.34574 21.9655H5.40986V26.2098ZM12.2914 26.9169H6.09767V21.2571H12.2914V26.9169Z" fill="#6E8999" stroke="#6E8999"/>
</svg>
