<?xml version="1.0" encoding="utf-8"?>
<!-- Generator: Adobe Illustrator 17.0.0, SVG Export Plug-In . SVG Version: 6.00 Build 0)  -->
<!DOCTYPE svg PUBLIC "-//W3C//DTD SVG 1.1//EN" "http://www.w3.org/Graphics/SVG/1.1/DTD/svg11.dtd">
<svg version="1.1" id="Layer_1" xmlns="http://www.w3.org/2000/svg" xmlns:xlink="http://www.w3.org/1999/xlink" x="0px" y="0px"
	 width="117.333px" height="117.333px" viewBox="0 0 117.333 117.333" enable-background="new 0 0 117.333 117.333"
	 xml:space="preserve">
<g>
	<circle fill="none" stroke="#52B6C0" stroke-width="3" stroke-miterlimit="10" cx="58.667" cy="58.667" r="57.167"/>
	<g>
		<path fill="#52B6C0" d="M89.843,57.533V32.582c0-3.127-2.544-5.671-5.671-5.671H34.271c-3.127,0-5.671,2.544-5.671,5.671v17.012
			c-1.876,0-3.402,1.526-3.402,3.402V87.02c0,1.876,1.526,3.402,3.402,3.402h24.951c1.876,0,3.402-1.526,3.402-3.402h9.506
			c1.069,0,2.055-0.488,2.704-1.337c0.649-0.849,0.859-1.929,0.578-2.96l-2.23-8.178h6.454V87.02c0,1.876,1.526,3.402,3.402,3.402
			h12.476c1.876,0,3.402-1.526,3.402-3.402V60.935C93.246,59.059,91.719,57.533,89.843,57.533L89.843,57.533z M54.685,87.02
			c0,0.625-0.509,1.134-1.134,1.134H28.6c-0.625,0-1.134-0.509-1.134-1.134v-2.268h27.219V87.02z M54.685,82.483H27.466v-24.95
			h27.219V82.483z M54.685,55.264H27.466v-2.268c0-0.625,0.509-1.134,1.134-1.134h24.951c0.625,0,1.134,0.509,1.134,1.134V55.264z
			 M67.553,83.319c0.094,0.343,0.023,0.703-0.193,0.987c-0.217,0.284-0.544,0.446-0.901,0.446h-9.506v-2.268h10.372L67.553,83.319z
			 M56.953,80.215v-5.671h8.207l1.546,5.671H56.953z M73.965,72.276H56.953v-6.805h17.012V72.276z M73.965,60.935v2.268H56.953
			V52.996c0-1.876-1.526-3.402-3.402-3.402H30.868V32.582c0-1.876,1.526-3.402,3.402-3.402h49.902c1.876,0,3.402,1.526,3.402,3.402
			v24.951H77.367C75.491,57.533,73.965,59.059,73.965,60.935L73.965,60.935z M90.977,87.02c0,0.625-0.509,1.134-1.134,1.134H77.367
			c-0.624,0-1.134-0.509-1.134-1.134v-2.268h14.743V87.02z M90.977,82.483H76.234V65.471h14.743V82.483z M90.977,63.204H76.234
			v-2.268c0-0.625,0.509-1.135,1.134-1.135h12.476c0.625,0,1.134,0.509,1.134,1.135V63.204z M90.977,63.204"/>
		<path fill="#52B6C0" d="M31.2,73.741l4.537-4.536l1.604,1.604l-4.537,4.536L31.2,73.741z M31.2,73.741"/>
		<path fill="#52B6C0" d="M35.736,77.144l13.61-13.61l1.604,1.604l-13.61,13.61L35.736,77.144z M35.736,77.144"/>
		<path fill="#52B6C0" d="M38.005,66.938l6.804-6.805l1.604,1.604l-6.805,6.805L38.005,66.938z M38.005,66.938"/>
		<path fill="#52B6C0" d="M78.831,73.743l5.67-5.669l1.604,1.604l-5.67,5.669L78.831,73.743z M78.831,73.743"/>
		<path fill="#52B6C0" d="M81.099,78.285l5.67-5.67l1.604,1.604l-5.67,5.67L81.099,78.285z M81.099,78.285"/>
		<path fill="#52B6C0" d="M55.016,46.524"/>
		<path fill="#52B6C0" d="M65.224,44.255"/>
		<path fill="#52B6C0" d="M58.418,51.061"/>
		<path fill="#52B6C0" d="M64.082,37.465"/>
	</g>
	<g>
		<path fill="#52B6C0" d="M42.099,33.453c0,1.424-1.098,2.583-2.448,2.583c-1.35,0-2.448-1.159-2.448-2.583v-0.861h-1.632v0.861
			c0,2.373,1.83,4.304,4.079,4.304c2.249,0,4.079-1.931,4.079-4.304H42.099z M42.099,33.453"/>
		<path fill="#52B6C0" d="M48.626,33.453c0,1.424-1.099,2.583-2.448,2.583c-1.35,0-2.448-1.159-2.448-2.583v-4.304h-1.632v4.304
			c0,2.373,1.83,4.304,4.079,4.304c2.249,0,4.079-1.931,4.079-4.304H48.626z M48.626,33.453"/>
		<path fill="#52B6C0" d="M29.039,33.453c0,2.373,1.83,4.304,4.079,4.304c2.249,0,4.079-1.931,4.079-4.304v-4.304h-1.632v4.304
			c0,1.424-1.098,2.583-2.448,2.583c-1.349,0-2.448-1.159-2.448-2.583H29.039z M30.671,33.453"/>
		<path fill="#52B6C0" d="M55.153,33.453c0,1.424-1.098,2.583-2.448,2.583c-1.35,0-2.448-1.159-2.448-2.583v-4.304h-1.632v4.304
			c0,2.373,1.829,4.304,4.079,4.304c2.249,0,4.079-1.931,4.079-4.304H55.153z M55.153,33.453"/>
		<path fill="#52B6C0" d="M61.68,33.453c0,1.424-1.098,2.583-2.448,2.583c-1.35,0-2.448-1.159-2.448-2.583v-4.304h-1.632v4.304
			c0,2.373,1.83,4.304,4.079,4.304c2.249,0,4.079-1.931,4.079-4.304H61.68z M61.68,33.453"/>
		<path fill="#52B6C0" d="M68.207,29.149v4.304c0,1.424-1.099,2.583-2.448,2.583c-1.35,0-2.448-1.159-2.448-2.583v-4.304H61.68
			v4.304c0,2.373,1.83,4.304,4.079,4.304c2.249,0,4.079-1.931,4.079-4.304v-4.304H68.207z M68.207,29.149"/>
		<path fill="#52B6C0" d="M74.733,29.149v4.304c0,1.424-1.099,2.583-2.448,2.583c-1.35,0-2.448-1.159-2.448-2.583v-4.304h-1.632
			v4.304c0,2.373,1.829,4.304,4.079,4.304c2.249,0,4.079-1.931,4.079-4.304v-4.304H74.733z M74.733,29.149"/>
		<path fill="#52B6C0" d="M81.26,32.592v0.861c0,1.424-1.098,2.583-2.448,2.583c-1.35,0-2.448-1.159-2.448-2.583v-4.304h-1.632
			v4.304c0,2.373,1.83,4.304,4.079,4.304c2.249,0,4.079-1.931,4.079-4.304v-0.861H81.26z M81.26,32.592"/>
		<path fill="#52B6C0" d="M87.752,32.592v0.861c0,1.424-1.098,2.583-2.448,2.583c-1.35,0-2.448-1.159-2.448-2.583v-4.304h-1.632
			v4.304c0,2.373,1.83,4.304,4.079,4.304c2.249,0,4.079-1.931,4.079-4.304v-0.861H87.752z M87.752,32.592"/>
		<path fill="#52B6C0" d="M79.435,48.392c-0.155-0.194-0.382-0.305-0.622-0.305h-6.298l-0.254-1.07
			c-0.091-0.382-0.417-0.652-0.791-0.652h-2.448v1.722h1.81l1.478,6.235c0.092,0.383,0.417,0.652,0.791,0.652h4.895
			c0.399,0,0.739-0.305,0.805-0.719l0.816-5.165C79.657,48.841,79.59,48.586,79.435,48.392L79.435,48.392z M77.306,53.252h-3.567
			l-0.816-3.443h4.926L77.306,53.252z M77.306,53.252"/>
		<rect x="72.286" y="56.696" fill="#52B6C0" width="1.632" height="1.722"/>
		<rect x="76.365" y="56.696" fill="#52B6C0" width="1.632" height="1.722"/>
		<path fill="#52B6C0" d="M46.178,39.479h-6.527c-0.451,0-0.816,0.386-0.816,0.861v6.887c0,0.475,0.365,0.861,0.816,0.861h6.527
			c0.45,0,0.816-0.386,0.816-0.861V40.34C46.994,39.864,46.628,39.479,46.178,39.479L46.178,39.479z M45.362,46.365h-4.895V41.2
			h4.895V46.365z M45.362,46.365"/>
		<path fill="#52B6C0" d="M55.968,39.479h-6.527c-0.45,0-0.816,0.386-0.816,0.861v6.887c0,0.475,0.365,0.861,0.816,0.861h6.527
			c0.451,0,0.816-0.386,0.816-0.861V40.34C56.784,39.864,56.419,39.479,55.968,39.479L55.968,39.479z M55.153,46.365h-4.895V41.2
			h4.895V46.365z M55.153,46.365"/>
		<path fill="#52B6C0" d="M65.759,39.479h-6.527c-0.451,0-0.816,0.386-0.816,0.861v6.887c0,0.475,0.365,0.861,0.816,0.861h6.527
			c0.451,0,0.816-0.386,0.816-0.861V40.34C66.574,39.864,66.21,39.479,65.759,39.479L65.759,39.479z M64.943,46.365h-4.895V41.2
			h4.895V46.365z M64.943,46.365"/>
		<path fill="#52B6C0" d="M65.759,49.809h-6.527c-0.451,0-0.816,0.386-0.816,0.861v6.887c0,0.476,0.365,0.861,0.816,0.861h3.263
			v-1.722h-2.448v-5.165h4.895v0.861h1.632V50.67C66.574,50.195,66.21,49.809,65.759,49.809L65.759,49.809z M65.759,49.809"/>
		<path fill="#52B6C0" d="M64.943,54.113c-0.451,0-0.816,0.385-0.816,0.861v3.444h1.632v-2.583h2.448v-1.722H64.943z M64.943,54.113
			"/>
		<path fill="#52B6C0" d="M64.364,55.58l1.154-1.218l3.263,3.444l-1.154,1.217L64.364,55.58z M64.364,55.58"/>
		<path fill="#52B6C0" d="M79.586,42.65c-0.11-0.352-0.422-0.589-0.773-0.589h-0.816V40.34c0-0.475-0.365-0.861-0.816-0.861h-3.264
			c-0.451,0-0.816,0.386-0.816,0.861v1.722h-0.816c-0.351,0-0.662,0.237-0.774,0.589c-0.111,0.351,0.003,0.739,0.285,0.961
			l3.264,2.583c0.145,0.114,0.318,0.172,0.489,0.172c0.172,0,0.345-0.058,0.489-0.172l3.264-2.583
			C79.583,43.389,79.698,43.002,79.586,42.65L79.586,42.65z M75.549,44.429l-1.09-0.863c0.169-0.158,0.275-0.388,0.275-0.644V41.2
			h1.632v1.722c0,0.256,0.106,0.486,0.274,0.644L75.549,44.429z M75.549,44.429"/>
	</g>
</g>
<g>
</g>
<g>
</g>
<g>
</g>
<g>
</g>
<g>
</g>
<g>
</g>
<g>
</g>
<g>
</g>
<g>
</g>
<g>
</g>
<g>
</g>
<g>
</g>
<g>
</g>
<g>
</g>
<g>
</g>
</svg>
