<svg width="62" height="52" viewBox="0 0 62 52" fill="none" xmlns="http://www.w3.org/2000/svg">
<path d="M39.3226 41.176C39.3226 41.825 39.3226 42.377 39.3226 42.964C33.7266 42.964 19.0046 42.964 13.3916 42.964C13.3916 28.652 13.3916 14.346 13.3916 0C25.3516 0 41.7806 0 53.7576 0C53.7576 8.111 53.7576 21.096 53.7576 29.205C53.1756 29.205 52.6246 29.205 52.0076 29.205C52.0076 23.865 52.0076 13.613 52.0076 8.227C41.2046 8.227 25.9816 8.227 15.1986 8.227C15.1986 19.201 15.1986 30.16 15.1986 41.176C20.1816 41.176 34.3066 41.176 39.3226 41.176ZM51.9606 1.814C41.1726 1.814 25.9486 1.814 15.1956 1.814C15.1956 3.346 15.1956 4.84 15.1956 6.34C25.9746 6.34 41.1996 6.34 51.9606 6.34C51.9606 4.823 51.9606 3.342 51.9606 1.814Z" fill="#6E8999" stroke="#6E8999"/>
<path d="M35.1422 38.114C35.1742 37.47 34.9892 36.678 35.2992 36.223C35.5932 35.791 36.3862 35.597 36.9922 35.498C38.2592 35.291 38.4782 34.265 38.8542 33.346C38.9042 33.225 38.8172 33.029 38.7542 32.884C38.4362 32.152 38.1152 31.42 37.7732 30.7C37.6462 30.433 37.6342 30.25 37.8712 30.023C38.6372 29.29 39.3642 28.518 40.1372 27.793C40.2642 27.673 40.5762 27.628 40.7442 27.695C41.4852 27.989 42.1962 28.36 42.9392 28.651C43.1642 28.739 43.4622 28.704 43.7132 28.654C44.8582 28.427 45.4272 27.659 45.6972 26.568C45.8192 26.074 45.9602 25.445 46.3172 25.189C46.6532 24.948 47.2822 25.112 47.7832 25.107C48.4342 25.101 49.0852 25.122 49.7352 25.099C50.0602 25.087 50.2292 25.181 50.3402 25.506C50.5922 26.243 50.8722 26.973 51.1872 27.685C51.2852 27.907 51.5102 28.097 51.7192 28.241C52.7082 28.923 53.6412 28.693 54.6482 28.167C55.9972 27.462 56.0292 27.524 57.1092 28.605C57.5822 29.079 58.0452 29.564 58.5362 30.017C58.7682 30.231 58.7962 30.41 58.6602 30.69C58.3202 31.391 57.9852 32.098 57.7042 32.824C57.6102 33.066 57.6462 33.382 57.6952 33.651C57.9072 34.814 58.7092 35.346 59.7892 35.622C60.2842 35.748 60.9152 35.89 61.1702 36.248C61.4102 36.584 61.2392 37.215 61.2422 37.717C61.2462 38.368 61.2222 39.02 61.2512 39.669C61.2662 40.01 61.1392 40.162 60.8292 40.27C60.0932 40.525 59.3582 40.791 58.6452 41.103C58.4242 41.2 58.2462 41.439 58.0992 41.65C57.4222 42.618 57.5842 43.563 58.1632 44.525C58.4262 44.963 58.7882 45.514 58.7072 45.937C58.6252 46.365 58.0552 46.703 57.6922 47.073C57.2622 47.511 56.8082 47.926 56.3982 48.382C56.1462 48.662 55.9282 48.718 55.5822 48.545C54.8852 48.198 54.1722 47.876 53.4482 47.59C53.2402 47.508 52.9702 47.584 52.7282 47.592C52.6942 47.593 52.6632 47.633 52.6282 47.639C51.4802 47.837 51.0142 48.647 50.7372 49.673C50.6032 50.168 50.4742 50.813 50.1162 51.058C49.7562 51.305 49.1142 51.147 48.5962 51.154C47.9642 51.163 47.3302 51.138 46.7002 51.168C46.3372 51.185 46.1762 51.045 46.0622 50.714C45.8162 49.994 45.5562 49.276 45.2452 48.583C45.1402 48.348 44.8862 48.16 44.6632 48.001C43.7112 47.322 42.7882 47.528 41.8442 48.073C41.3882 48.337 40.8232 48.692 40.3762 48.614C39.9532 48.54 39.6172 47.955 39.2482 47.59C38.8242 47.172 38.4262 46.726 37.9782 46.336C37.6502 46.051 37.6362 45.803 37.8252 45.431C38.1602 44.769 38.4642 44.089 38.7302 43.396C38.8162 43.173 38.7792 42.882 38.7352 42.633C38.5292 41.467 37.7352 40.925 36.6542 40.646C36.1602 40.518 35.5192 40.381 35.2752 40.023C35.0292 39.663 35.1902 39.023 35.1752 38.506C35.1712 38.376 35.1742 38.246 35.1742 38.115C35.1622 38.115 35.1522 38.114 35.1422 38.114ZM40.9342 33.336C40.8932 33.416 40.8602 33.482 40.8272 33.547C40.6092 33.977 40.2622 34.389 40.1972 34.842C39.9982 36.215 39.1002 36.738 37.9012 37.075C36.9672 37.337 37.0012 37.403 36.9902 38.381C36.9862 38.73 37.0812 38.92 37.4272 39.034C38.0612 39.243 38.6902 39.475 39.2992 39.748C39.5002 39.838 39.6902 40.059 39.7842 40.266C40.1282 41.024 40.4452 41.796 40.7372 42.575C40.8162 42.787 40.8472 43.073 40.7712 43.276C40.5442 43.883 40.2782 44.48 39.9772 45.054C39.7752 45.438 39.8182 45.704 40.1612 45.952C40.2802 46.038 40.3852 46.15 40.4762 46.267C40.6772 46.527 40.8852 46.564 41.1912 46.41C41.8032 46.101 42.4312 45.816 43.0692 45.566C43.2602 45.491 43.5312 45.503 43.7272 45.578C44.5222 45.881 45.3092 46.207 46.0822 46.562C46.2892 46.657 46.5072 46.849 46.5972 47.051C46.8832 47.694 47.1032 48.367 47.3702 49.019C47.4232 49.148 47.5612 49.305 47.6852 49.331C48.6402 49.53 48.9282 49.359 49.2802 48.444C49.3132 48.357 49.3602 48.273 49.3782 48.184C49.6002 47.06 50.2172 46.342 51.4012 46.199C51.4542 46.193 51.5142 46.171 51.5552 46.138C52.6282 45.258 53.6572 45.558 54.7442 46.166C55.6122 46.652 55.6362 46.58 56.3522 45.876C56.5862 45.646 56.6392 45.463 56.4882 45.16C56.1822 44.546 55.8962 43.919 55.6532 43.278C55.5752 43.073 55.6012 42.784 55.6812 42.572C55.9772 41.794 56.3012 41.024 56.6502 40.268C56.7452 40.063 56.9302 39.842 57.1292 39.752C57.7712 39.462 58.4422 39.239 59.0942 38.969C59.2272 38.914 59.3932 38.788 59.4242 38.664C59.6452 37.778 59.4412 37.408 58.6002 37.086C58.5312 37.06 58.4622 37.027 58.3902 37.013C57.2242 36.776 56.4192 36.178 56.2692 34.914C56.2632 34.86 56.2422 34.8 56.2082 34.76C55.3172 33.705 55.6562 32.688 56.2272 31.62C56.7102 30.716 56.6502 30.699 55.9312 29.971C55.7152 29.753 55.5502 29.698 55.2642 29.842C54.6682 30.142 54.0612 30.43 53.4352 30.659C53.1972 30.746 52.8692 30.728 52.6262 30.639C51.8612 30.361 51.1082 30.044 50.3692 29.702C50.1492 29.6 49.9132 29.4 49.8162 29.186C49.5322 28.562 49.3262 27.904 49.0632 27.27C49.0042 27.127 48.8562 26.945 48.7232 26.92C47.7072 26.733 47.5112 26.856 47.1422 27.821C47.1162 27.89 47.0792 27.957 47.0632 28.029C46.8132 29.139 46.2612 29.944 45.0212 30.061C44.9682 30.066 44.9102 30.092 44.8682 30.126C43.7942 30.999 42.7612 30.713 41.6712 30.103C40.8042 29.618 40.7812 29.688 40.0702 30.388C39.8352 30.62 39.7792 30.805 39.9322 31.11C40.2232 31.69 40.4702 32.292 40.7352 32.885C40.8022 33.034 40.8682 33.186 40.9342 33.336Z" fill="#6E8999" stroke="#6E8999"/>
<path d="M29.8668 22.804C29.2438 22.804 28.6938 22.804 28.0658 22.804C28.0658 21.536 28.0658 20.284 28.0658 18.998C26.9188 18.998 25.8478 18.998 24.7068 18.998C24.7068 20.255 24.7068 21.51 24.7068 22.794C24.0708 22.794 23.5048 22.794 22.8848 22.794C22.8848 21.999 22.8848 21.241 22.8848 20.483C22.8848 19.126 22.8798 17.768 22.8858 16.411C22.8948 14.441 24.0458 13.285 26.0028 13.282C26.5218 13.281 27.0528 13.252 27.5588 13.343C28.8798 13.583 29.8048 14.61 29.8488 16.053C29.9168 18.281 29.8668 20.512 29.8668 22.804ZM24.6958 17.149C25.7638 17.149 26.7578 17.16 27.7508 17.133C27.8538 17.13 28.0268 16.918 28.0408 16.789C28.1798 15.508 27.7747 15.077 26.4687 15.077C26.3027 15.077 26.1358 15.074 25.9698 15.078C25.1038 15.095 24.7268 15.465 24.6968 16.331C24.6888 16.57 24.6958 16.809 24.6958 17.149Z" fill="#6E8999" stroke="#6E8999"/>
<path d="M33.4629 18.9612C33.4629 20.2942 33.4629 21.5332 33.4629 22.8002C32.8569 22.8002 32.2909 22.8002 31.6769 22.8002C31.6769 22.2322 31.6769 21.6962 31.6769 21.1612C31.6759 18.9512 31.6719 16.7422 31.6749 14.5322C31.6759 13.5592 31.9599 13.2812 32.9409 13.2772C33.8509 13.2732 34.7609 13.2712 35.6709 13.2812C37.3589 13.3002 38.5899 14.4582 38.6209 16.0462C38.6529 17.6672 37.4549 18.8962 35.7539 18.9572C35.0159 18.9832 34.2769 18.9612 33.4629 18.9612ZM33.4889 17.1062C34.3489 17.1062 35.1629 17.1432 35.9709 17.0932C36.5029 17.0602 36.7799 16.6712 36.8139 16.1472C36.8459 15.6592 36.5369 15.1892 36.0329 15.1492C35.1939 15.0842 34.3469 15.1312 33.4889 15.1312C33.4889 15.7962 33.4889 16.4252 33.4889 17.1062Z" fill="#6E8999" stroke="#6E8999"/>
<path d="M41.4387 15.1129C41.1047 15.0909 40.7977 15.0699 40.4707 15.0479C40.4707 14.4529 40.4707 13.8859 40.4707 13.2969C41.7477 13.2969 42.9877 13.2969 44.2667 13.2969C44.2667 13.8779 44.2667 14.4419 44.2667 15.0509C43.9567 15.0679 43.6517 15.0839 43.3147 15.1019C43.3147 17.0679 43.3147 19.0089 43.3147 20.9829C43.6237 20.9989 43.9147 21.0139 44.2547 21.0309C44.2547 21.6179 44.2547 22.1959 44.2547 22.8059C43.0047 22.8059 41.7657 22.8059 40.4807 22.8059C40.4807 22.2239 40.4807 21.6599 40.4807 21.0449C40.7887 21.0229 41.0947 21.0009 41.4377 20.9759C41.4387 19.0229 41.4387 17.0829 41.4387 15.1129Z" fill="#6E8999" stroke="#6E8999"/>
<path d="M0.648438 15.4089C0.648438 14.8079 0.648438 14.2569 0.648438 13.6709C4.18144 13.6709 7.68942 13.6709 11.2494 13.6709C11.2494 14.2299 11.2494 14.7929 11.2494 15.4089C7.72842 15.4089 4.20944 15.4089 0.648438 15.4089Z" fill="#6E8999" stroke="#6E8999"/>
<path d="M11.266 27.4741C11.266 28.0711 11.266 28.6211 11.266 29.2051C7.72796 29.2051 4.22097 29.2051 0.667969 29.2051C0.667969 28.6501 0.667969 28.0861 0.667969 27.4741C4.17397 27.4741 7.69496 27.4741 11.266 27.4741Z" fill="#6E8999" stroke="#6E8999"/>
<path d="M11.2711 41.228C11.2711 41.81 11.2711 42.36 11.2711 42.954C7.73609 42.954 4.22009 42.954 0.663086 42.954C0.663086 42.403 0.663086 41.837 0.663086 41.228C4.17009 41.228 7.68709 41.228 11.2711 41.228Z" fill="#6E8999" stroke="#6E8999"/>
<path d="M24.097 48.1309C24.097 48.7279 24.097 49.2789 24.097 49.8609C20.56 49.8609 17.052 49.8609 13.499 49.8609C13.499 49.3069 13.499 48.7419 13.499 48.1309C17.005 48.1309 20.527 48.1309 24.097 48.1309Z" fill="#6E8999" stroke="#6E8999"/>
<path d="M5.7793 36.1248C5.7793 35.4808 5.7793 34.9288 5.7793 34.3488C5.9203 34.3308 6.0443 34.3008 6.1683 34.2998C7.7063 34.2948 9.24432 34.3028 10.7823 34.2868C11.1433 34.2828 11.3073 34.3548 11.3083 34.7708C11.3123 36.1198 11.3303 36.1218 9.98831 36.1238C8.60231 36.1268 7.2163 36.1248 5.7793 36.1248Z" fill="#6E8999" stroke="#6E8999"/>
<path d="M5.78125 18.8649C5.78125 18.2719 5.78125 17.7209 5.78125 17.1279C7.60425 17.1279 9.41325 17.1279 11.2603 17.1279C11.2603 17.7029 11.2603 18.2669 11.2603 18.8649C9.43425 18.8649 7.63725 18.8649 5.78125 18.8649Z" fill="#6E8999" stroke="#6E8999"/>
<path d="M11.2691 20.5811C11.2691 21.1681 11.2691 21.7181 11.2691 22.3021C9.43213 22.3021 7.62311 22.3021 5.78711 22.3021C5.78711 21.7251 5.78711 21.1741 5.78711 20.5811C7.59611 20.5811 9.40713 20.5811 11.2691 20.5811Z" fill="#6E8999" stroke="#6E8999"/>
<path d="M11.2679 46.4189C9.42588 46.4189 7.6289 46.4189 5.7959 46.4189C5.7959 45.8329 5.7959 45.2689 5.7959 44.6709C7.6189 44.6709 9.42788 44.6709 11.2679 44.6709C11.2679 45.2489 11.2679 45.7999 11.2679 46.4189Z" fill="#6E8999" stroke="#6E8999"/>
<path d="M13.4971 44.6621C15.3201 44.6621 17.1171 44.6621 18.9501 44.6621C18.9501 45.2471 18.9501 45.8141 18.9501 46.4121C17.1311 46.4121 15.3361 46.4121 13.4971 46.4121C13.4971 45.8521 13.4971 45.2871 13.4971 44.6621Z" fill="#6E8999" stroke="#6E8999"/>
<path d="M5.78809 48.1172C7.61009 48.1172 9.4071 48.1172 11.2511 48.1172C11.2511 48.6872 11.2511 49.2502 11.2511 49.8512C9.4391 49.8512 7.63009 49.8512 5.78809 49.8512C5.78809 49.2762 5.78809 48.7122 5.78809 48.1172Z" fill="#6E8999" stroke="#6E8999"/>
<path d="M5.78809 32.6432C5.78809 32.0412 5.78809 31.4902 5.78809 30.9072C7.61009 30.9072 9.4031 30.9072 11.2471 30.9072C11.2471 31.4792 11.2471 32.0392 11.2471 32.6432C9.4401 32.6432 7.63509 32.6432 5.78809 32.6432Z" fill="#6E8999" stroke="#6E8999"/>
<path d="M0.651367 39.5319C0.651367 38.9339 0.651367 38.3689 0.651367 37.7739C2.34037 37.7739 4.00137 37.7739 5.71237 37.7739C5.71237 38.3469 5.71237 38.9249 5.71237 39.5319C4.03437 39.5319 2.35737 39.5319 0.651367 39.5319Z" fill="#6E8999" stroke="#6E8999"/>
<path d="M5.71625 25.7641C4.02225 25.7641 2.35525 25.7641 0.65625 25.7641C0.65625 25.1781 0.65625 24.6131 0.65625 24.0171C2.34025 24.0171 4.00625 24.0171 5.71625 24.0171C5.71625 24.5751 5.71625 25.1401 5.71625 25.7641Z" fill="#6E8999" stroke="#6E8999"/>
<path d="M19.5654 3.19678C19.5654 3.79578 19.5654 4.36078 19.5654 4.95778C18.9734 4.95778 18.4094 4.95778 17.8174 4.95778C17.8174 4.35778 17.8174 3.79278 17.8174 3.19678C18.4114 3.19678 18.9744 3.19678 19.5654 3.19678Z" fill="#6E8999" stroke="#6E8999"/>
<path d="M23.1669 3.19824C23.1669 3.81124 23.1669 4.36224 23.1669 4.95124C22.5809 4.95124 22.0179 4.95124 21.4199 4.95124C21.4199 4.36524 21.4199 3.80224 21.4199 3.19824C21.9919 3.19824 22.5539 3.19824 23.1669 3.19824Z" fill="#6E8999" stroke="#6E8999"/>
<path d="M26.7908 4.9492C26.2108 4.9492 25.6498 4.9492 25.0508 4.9492C25.0508 4.3632 25.0508 3.8012 25.0508 3.2002C25.6338 3.2002 26.1938 3.2002 26.7908 3.2002C26.7908 3.7892 26.7908 4.3492 26.7908 4.9492Z" fill="#6E8999" stroke="#6E8999"/>
<path d="M48.18 43.663C45.147 43.649 42.654 41.137 42.669 38.113C42.684 35.053 45.198 32.571 48.264 32.588C51.267 32.605 53.778 35.156 53.757 38.17C53.736 41.186 51.206 43.678 48.18 43.663ZM44.484 38.122C44.48 40.176 46.135 41.846 48.188 41.859C50.248 41.872 51.976 40.15 51.949 38.111C51.922 36.073 50.219 34.381 48.202 34.388C46.164 34.394 44.488 36.078 44.484 38.122Z" fill="#6E8999" stroke="#6E8999"/>
</svg>
