<svg width="52" height="52" viewBox="0 0 52 52" fill="none" xmlns="http://www.w3.org/2000/svg">
<rect width="52" height="52" rx="3" fill="#F2F9FC"/>
<path d="M28.8789 23.7461C28.4277 23.2949 27.9355 22.9668 27.4023 22.6797C27.1973 22.5977 26.9922 22.6387 26.8281 22.8027L26.6641 22.9668C26.2949 23.2949 26.0898 23.7461 26.0488 24.1973C26.0078 24.4023 26.1309 24.6074 26.2949 24.7305C26.582 24.8535 27.0332 25.1406 27.2383 25.3867C28.5918 26.7402 28.5918 28.9141 27.2383 30.2676L24.1621 33.3438C22.8086 34.6973 20.6348 34.6973 19.2812 33.3438C17.9277 31.9902 17.9277 29.8164 19.2812 28.4629L21.168 26.5762C21.291 26.4531 21.332 26.2891 21.291 26.125C21.209 25.7148 21.127 25.0176 21.0859 24.5664C21.0859 24.1562 20.5527 23.9512 20.2656 24.2383C19.7734 24.7305 18.9941 25.5098 17.6816 26.8223C15.4258 29.0781 15.4258 32.7285 17.6816 34.9434C19.8965 37.1992 23.5469 37.1992 25.8027 34.9434C29.166 31.5801 29.002 31.7441 29.248 31.416C31.0938 29.2012 30.9707 25.8379 28.8789 23.7461ZM35.2773 17.3477C33.0625 15.0918 29.4121 15.0918 27.1562 17.3477C23.793 20.7109 23.957 20.5469 23.7109 20.875C21.8652 23.0898 21.9883 26.4531 24.0801 28.5449C24.5312 28.9961 25.0234 29.3242 25.5566 29.6113C25.7617 29.6934 25.9668 29.6523 26.1309 29.4883L26.2949 29.3242C26.6641 28.9961 26.8691 28.5449 26.9102 28.0938C26.9512 27.8887 26.8281 27.6836 26.6641 27.5605C26.377 27.4375 25.9258 27.1504 25.7207 26.9043C24.3672 25.5508 24.3672 23.377 25.7207 22.0234L28.7969 18.9473C30.1504 17.5938 32.3242 17.5938 33.6777 18.9473C35.0312 20.3008 35.0312 22.4746 33.6777 23.8281L31.791 25.7148C31.668 25.8379 31.627 26.002 31.668 26.166C31.75 26.5762 31.832 27.2734 31.873 27.7246C31.873 28.1348 32.4062 28.3398 32.6934 28.0527C33.1855 27.5605 33.9648 26.7812 35.2773 25.4688C37.5332 23.2129 37.5332 19.5625 35.2773 17.3477Z" fill="#4A9EDB"/>
</svg>
