<svg width="96" height="56" viewBox="0 0 96 56" fill="none" xmlns="http://www.w3.org/2000/svg">
<path d="M88.7611 18.5105C92.1586 18.5105 94.9128 15.7563 94.9128 12.3588C94.9128 8.96126 92.1586 6.20703 88.7611 6.20703C85.3636 6.20703 82.6094 8.96126 82.6094 12.3588C82.6094 15.7563 85.3636 18.5105 88.7611 18.5105Z" stroke="#6E8999" stroke-width="2" stroke-miterlimit="10"/>
<path d="M7.99352 50.4201C11.8559 50.4201 14.987 47.289 14.987 43.4266C14.987 39.5642 11.8559 36.4331 7.99352 36.4331C4.1311 36.4331 1 39.5642 1 43.4266C1 47.289 4.1311 50.4201 7.99352 50.4201Z" stroke="#6E8999" stroke-width="2" stroke-miterlimit="10"/>
<path d="M83.496 53.8592C85.5411 53.8592 87.199 52.2013 87.199 50.1562C87.199 48.111 85.5411 46.4531 83.496 46.4531C81.4509 46.4531 79.793 48.111 79.793 50.1562C79.793 52.2013 81.4509 53.8592 83.496 53.8592Z" stroke="#6E8999" stroke-width="2" stroke-miterlimit="10"/>
<path d="M21.7497 16.209C20.882 16.6822 19.8876 16.9515 18.8318 16.9515C15.4587 16.9515 12.7154 14.2075 12.7154 10.8351C12.7154 7.46262 15.4587 4.71867 18.8318 4.71867C22.205 4.71867 24.9482 7.46262 24.9482 10.8351C24.9482 10.9244 24.9389 11.011 24.9349 11.0997C25.2308 10.7538 25.5421 10.4219 25.8607 10.0973C25.4901 6.54553 22.4796 3.76758 18.8318 3.76758C14.9342 3.76758 11.7637 6.9381 11.7637 10.8357C11.7637 14.7334 14.9342 17.9039 18.8318 17.9039C19.6883 17.9039 20.5061 17.7433 21.2659 17.4627C21.4145 17.0381 21.5731 16.6189 21.7497 16.209Z" fill="#6E8999" stroke="#6E8999"/>
<path d="M80.8655 48.1799L70.8408 41.9995" stroke="#6E8999" stroke-width="2" stroke-miterlimit="10"/>
<path d="M84.1482 15.3384L72.8965 19.9019" stroke="#6E8999" stroke-width="2" stroke-miterlimit="10"/>
<path d="M25.3881 37.333L14.9121 41.23" stroke="#6E8999" stroke-width="2" stroke-miterlimit="10"/>
<path d="M40.4508 25.3133V39.7063L46.3812 43.3433L52.3617 39.6803V25.3047L48.0321 22.66V39.4897L46.3812 40.5014L44.729 39.4843V22.6727L40.4508 25.3133ZM58.8693 35.7673V21.3724L46.3812 13.797L33.9091 21.3724V35.7673L37.1483 37.6801V23.2846L46.3839 17.6547L55.6275 23.2759L55.6662 23.2979L55.6615 37.6588L58.8693 35.7673ZM63.6941 17.4754C67.977 17.4754 71.4607 13.983 71.4607 9.68941C71.4607 5.39652 67.9763 1.90343 63.6941 1.90343C59.4119 1.90343 55.9274 5.39652 55.9274 9.68941C55.9274 13.9823 59.4112 17.4754 63.6941 17.4754ZM63.6941 3.50034C67.0985 3.50034 69.8678 6.27696 69.8678 9.68941C69.8678 13.1019 67.0985 15.8778 63.6941 15.8778C60.2896 15.8778 57.5204 13.1019 57.5204 9.68941C57.5204 6.2763 60.2896 3.50034 63.6941 3.50034ZM69.134 28.5705C69.134 24.9954 68.3116 21.6137 66.8486 18.6018C66.3381 18.7837 65.8082 18.9223 65.2623 19.0143C66.7166 21.8882 67.5411 25.1341 67.5411 28.5698C67.5411 40.2615 58.0522 49.7737 46.3892 49.7737C34.7263 49.7737 25.2374 40.2615 25.2374 28.5698C25.2374 16.8789 34.7263 7.36602 46.3892 7.36602C49.1818 7.36602 51.8472 7.91654 54.2899 8.90629C54.3358 8.3531 54.4318 7.81589 54.5678 7.29336C52.0284 6.31228 49.2732 5.76843 46.3886 5.76843C33.8272 5.76843 23.6438 15.9764 23.6438 28.5685C23.6438 41.1612 33.8272 51.3693 46.3886 51.3693C58.9506 51.3713 69.134 41.1632 69.134 28.5705ZM66.4967 12.0075H62.3198V11.4303C62.3198 10.6985 63.2222 10.5545 63.7794 10.5545C65.1904 10.5545 66.4774 10.2266 66.4774 8.51371C66.4774 6.91546 65.0177 6.36695 63.6734 6.36695C62.4344 6.36695 61.0901 6.98277 61.0801 8.40707H62.3384C62.3478 7.80123 63.0296 7.46464 63.6921 7.46464C64.5559 7.46464 65.219 7.81122 65.219 8.54237C65.219 9.32217 64.2873 9.40947 63.7787 9.40947C62.4537 9.40947 61.0508 9.87136 61.0508 11.421V13.1925H66.496V12.0075H66.4967ZM42.1063 1.7628L41.9431 0.979004C28.6585 3.11378 18.5078 14.6515 18.5078 28.5705C18.5078 29.6236 18.5738 30.662 18.6878 31.685L19.4796 31.5737C19.3703 30.5866 19.3049 29.5869 19.3049 28.5705C19.3043 15.0607 29.2004 3.82693 42.1063 1.7628ZM71.6254 16.6862C71.4341 16.9049 71.2368 17.1162 71.0282 17.3181C72.5938 20.7492 73.4742 24.5582 73.4742 28.5712C73.4742 39.9156 66.4947 49.6517 56.6166 53.706L56.9245 54.4491C67.0992 50.2829 74.2707 40.2695 74.2707 28.5712C74.27 24.3196 73.3189 20.2933 71.6254 16.6862ZM28.7598 10.9857C33.2686 6.44359 39.507 3.62633 46.3886 3.62633C49.1399 3.62633 51.7852 4.08354 54.2612 4.91333C54.3845 4.67006 54.5178 4.43278 54.6584 4.20017C52.0631 3.31574 49.2838 2.82785 46.3886 2.82785C39.2751 2.82785 32.8381 5.72843 28.1873 10.4125L28.7598 10.9857ZM70.8402 36.4465L70.0971 36.1425C66.8912 46.2053 57.477 53.5147 46.3886 53.5147C44.3631 53.5147 42.3956 53.2648 40.5101 52.8035L40.2962 53.5787C42.249 54.0572 44.2891 54.3138 46.3892 54.3138C57.8309 54.3132 67.5204 46.8104 70.8402 36.4465Z" fill="#6E8999" stroke="#6E8999"/>
</svg>
