<svg width="71" height="49" viewBox="0 0 71 49" fill="none" xmlns="http://www.w3.org/2000/svg">
<path d="M4.17524 5.66545C4.17524 3.66531 5.50823 2.33299 7.50771 2.33299H63.4932C65.4926 2.33299 66.8256 3.66597 66.8256 5.66545V38.9901H68.1586V5.66545C68.1586 2.99948 66.1591 1 63.4932 1H7.50771C4.84173 1 2.84225 2.99948 2.84225 5.66545V38.9901H4.17524V5.66545V5.66545ZM64.8262 38.9901V7.66494C64.8262 5.62613 63.5865 4.33247 61.4937 4.33247H9.50719C7.41373 4.33247 6.17472 5.62613 6.17472 7.66494V38.9901H6.84122V7.66494C6.84122 5.99337 7.78164 4.99896 9.50719 4.99896H61.4937C63.2199 4.99896 64.1597 5.99404 64.1597 7.66494V38.9901H64.8262ZM67.4921 40.9896H3.50875C2.09911 40.9896 0.842773 42.2466 0.842773 43.6556V44.9886C0.842773 46.3982 2.09978 47.6545 3.50875 47.6545H67.4921C68.9011 47.6545 70.1581 46.3982 70.1581 44.9886V43.6556C70.1574 42.2466 68.9011 40.9896 67.4921 40.9896ZM68.8251 44.9886C68.8251 45.6624 68.166 46.3209 67.4921 46.3209H3.50875C2.83426 46.3209 2.17576 45.6624 2.17576 44.9886V43.6556C2.17576 42.9818 2.83426 42.3226 3.50875 42.3226H67.4921C68.166 42.3226 68.8251 42.9818 68.8251 43.6556V44.9886ZM42.498 43.6556H28.5016C28.1337 43.6556 27.8351 43.9548 27.8351 44.3227C27.8351 44.6907 28.1337 44.9886 28.5016 44.9886H42.498C42.8665 44.9886 43.1644 44.69 43.1644 44.3227C43.1644 43.9542 42.8665 43.6556 42.498 43.6556Z" fill="#6E8999" stroke="#6E8999"/>
<path d="M21.7617 24.0405H20.7246V27.6696H21.7617V24.0405Z" fill="#6E8999" stroke="#6E8999"/>
<path d="M49.7561 39.0746H27.9824V38.0382H48.719V24.0405H49.7561V39.0746Z" fill="#6E8999" stroke="#6E8999"/>
<path d="M21.2434 24.5592C20.0997 24.5592 19.1699 23.6287 19.1699 22.4857V16.2646H22.2804V17.3017H20.207V22.4857C20.207 23.0576 20.6722 23.5228 21.244 23.5228C21.8159 23.5228 22.2811 23.0576 22.2811 22.4857V19.8937H23.3182V22.4857C23.3175 23.6287 22.3871 24.5592 21.2434 24.5592Z" fill="#6E8999" stroke="#6E8999"/>
<path d="M24.3537 24.5595C23.21 24.5595 22.2803 23.6291 22.2803 22.486H23.3173C23.3173 23.0579 23.7825 23.5231 24.3544 23.5231C24.9263 23.5231 25.3915 23.0579 25.3915 22.486V19.894H26.4285V22.486C26.4279 23.6291 25.4974 24.5595 24.3537 24.5595Z" fill="#6E8999" stroke="#6E8999"/>
<path d="M27.4641 24.5595C26.3204 24.5595 25.3906 23.6291 25.3906 22.486H26.4277C26.4277 23.0579 26.8929 23.5231 27.4648 23.5231C28.0366 23.5231 28.5018 23.0579 28.5018 22.486V19.894H29.5389V22.486C29.5382 23.6291 28.6078 24.5595 27.4641 24.5595Z" fill="#6E8999" stroke="#6E8999"/>
<path d="M27.4641 24.5595C26.3204 24.5595 25.3906 23.6291 25.3906 22.486H26.4277C26.4277 23.0579 26.8929 23.5231 27.4648 23.5231C28.0366 23.5231 28.5018 23.0579 28.5018 22.486V19.894H29.5389V22.486C29.5382 23.6291 28.6078 24.5595 27.4641 24.5595Z" fill="#6E8999" stroke="#6E8999"/>
<path d="M30.5744 24.5595C29.4307 24.5595 28.501 23.6291 28.501 22.486H29.538C29.538 23.0579 30.0033 23.5231 30.5751 23.5231C31.147 23.5231 31.6122 23.0579 31.6122 22.486V19.894H32.6492V22.486C32.6486 23.6291 31.7181 24.5595 30.5744 24.5595Z" fill="#6E8999" stroke="#6E8999"/>
<path d="M30.5744 24.5595C29.4307 24.5595 28.501 23.6291 28.501 22.486H29.538C29.538 23.0579 30.0033 23.5231 30.5751 23.5231C31.147 23.5231 31.6122 23.0579 31.6122 22.486V19.894H32.6492V22.486C32.6486 23.6291 31.7181 24.5595 30.5744 24.5595Z" fill="#6E8999" stroke="#6E8999"/>
<path d="M33.6848 24.5595C32.5411 24.5595 31.6113 23.6291 31.6113 22.486H32.6484C32.6484 23.0579 33.1136 23.5231 33.6855 23.5231C34.2573 23.5231 34.7225 23.0579 34.7225 22.486V19.894H35.7596V22.486C35.7589 23.6291 34.8285 24.5595 33.6848 24.5595Z" fill="#6E8999" stroke="#6E8999"/>
<path d="M33.6848 24.5595C32.5411 24.5595 31.6113 23.6291 31.6113 22.486H32.6484C32.6484 23.0579 33.1136 23.5231 33.6855 23.5231C34.2573 23.5231 34.7225 23.0579 34.7225 22.486V19.894H35.7596V22.486C35.7589 23.6291 34.8285 24.5595 33.6848 24.5595Z" fill="#6E8999" stroke="#6E8999"/>
<path d="M36.7951 24.5595C35.6514 24.5595 34.7217 23.6291 34.7217 22.486H35.7587C35.7587 23.0579 36.224 23.5231 36.7958 23.5231C37.3677 23.5231 37.8329 23.0579 37.8329 22.486V19.894H38.8699V22.486C38.8693 23.6291 37.9388 24.5595 36.7951 24.5595Z" fill="#6E8999" stroke="#6E8999"/>
<path d="M36.7951 24.5595C35.6514 24.5595 34.7217 23.6291 34.7217 22.486H35.7587C35.7587 23.0579 36.224 23.5231 36.7958 23.5231C37.3677 23.5231 37.8329 23.0579 37.8329 22.486V19.894H38.8699V22.486C38.8693 23.6291 37.9388 24.5595 36.7951 24.5595Z" fill="#6E8999" stroke="#6E8999"/>
<path d="M39.9065 24.5595C38.7628 24.5595 37.833 23.6291 37.833 22.486H38.8701C38.8701 23.0579 39.3353 23.5231 39.9071 23.5231C40.479 23.5231 40.9442 23.0579 40.9442 22.486V19.894H41.9813V22.486C41.9806 23.6291 41.0502 24.5595 39.9065 24.5595Z" fill="#6E8999" stroke="#6E8999"/>
<path d="M39.9065 24.5595C38.7628 24.5595 37.833 23.6291 37.833 22.486H38.8701C38.8701 23.0579 39.3353 23.5231 39.9071 23.5231C40.479 23.5231 40.9442 23.0579 40.9442 22.486V19.894H41.9813V22.486C41.9806 23.6291 41.0502 24.5595 39.9065 24.5595Z" fill="#6E8999" stroke="#6E8999"/>
<path d="M43.0168 24.5595C41.8731 24.5595 40.9434 23.6291 40.9434 22.486H41.9804C41.9804 23.0579 42.4456 23.5231 43.0175 23.5231C43.5893 23.5231 44.0546 23.0579 44.0546 22.486V19.894H45.0916V22.486C45.0909 23.6291 44.1605 24.5595 43.0168 24.5595Z" fill="#6E8999" stroke="#6E8999"/>
<path d="M43.0168 24.5595C41.8731 24.5595 40.9434 23.6291 40.9434 22.486H41.9804C41.9804 23.0579 42.4456 23.5231 43.0175 23.5231C43.5893 23.5231 44.0546 23.0579 44.0546 22.486V19.894H45.0916V22.486C45.0909 23.6291 44.1605 24.5595 43.0168 24.5595Z" fill="#6E8999" stroke="#6E8999"/>
<path d="M46.1272 24.5595C44.9835 24.5595 44.0537 23.6291 44.0537 22.486H45.0908C45.0908 23.0579 45.556 23.5231 46.1278 23.5231C46.6997 23.5231 47.1649 23.0579 47.1649 22.486V19.894H48.202V22.486C48.2013 23.6291 47.2709 24.5595 46.1272 24.5595Z" fill="#6E8999" stroke="#6E8999"/>
<path d="M46.1272 24.5595C44.9835 24.5595 44.0537 23.6291 44.0537 22.486H45.0908C45.0908 23.0579 45.556 23.5231 46.1278 23.5231C46.6997 23.5231 47.1649 23.0579 47.1649 22.486V19.894H48.202V22.486C48.2013 23.6291 47.2709 24.5595 46.1272 24.5595Z" fill="#6E8999" stroke="#6E8999"/>
<path d="M46.6458 38.5571H45.6087V28.707H40.4248V38.5571H39.3877V27.6699H46.6458V38.5571Z" fill="#6E8999" stroke="#6E8999"/>
<path d="M31.0937 28.1885H30.0566V35.4466H31.0937V28.1885Z" fill="#6E8999" stroke="#6E8999"/>
<path d="M41.4602 32.854H39.9053V33.8911H41.4602V32.854Z" fill="#6E8999" stroke="#6E8999"/>
<path d="M36.2768 35.9644H29.0187V34.928H35.2398V28.707H25.9082V27.6699H36.2768V35.9644Z" fill="#6E8999" stroke="#6E8999"/>
<path d="M37.8323 16.7835C36.6885 16.7835 35.7588 15.8531 35.7588 14.7101V12.1174C35.7588 10.9737 36.6892 10.0439 37.8323 10.0439C38.976 10.0439 39.9057 10.9744 39.9057 12.1174V14.7094C39.9057 15.8531 38.976 16.7835 37.8323 16.7835ZM37.8323 11.081C37.2604 11.081 36.7952 11.5462 36.7952 12.1181V14.7101C36.7952 15.2819 37.2604 15.7471 37.8323 15.7471C38.4041 15.7471 38.8693 15.2819 38.8693 14.7101V12.1174C38.8693 11.5456 38.4041 11.081 37.8323 11.081Z" fill="#6E8999" stroke="#6E8999"/>
<path d="M27.4641 16.7835C26.3204 16.7835 25.3906 15.8531 25.3906 14.7101H26.4277C26.4277 15.2819 26.8929 15.7471 27.4648 15.7471C28.0993 15.7471 28.5018 15.3826 28.5018 15.2286V14.7101C28.4645 14.6034 28.0913 14.3082 27.7507 14.1362L26.7143 13.6183C26.4037 13.4631 25.3906 12.8959 25.3906 12.1174V11.5989C25.3906 10.7558 26.3404 10.0439 27.4641 10.0439C28.6078 10.0439 29.5375 10.9744 29.5375 12.1174H28.5005C28.5005 11.5456 28.0353 11.0803 27.4634 11.0803C26.8289 11.0803 26.4264 11.4449 26.4264 11.5989V12.1174C26.4637 12.224 26.8369 12.5193 27.1775 12.6913L28.2139 13.2091C28.5245 13.3644 29.5375 13.9316 29.5375 14.7094V15.2279C29.5382 16.071 28.5885 16.7835 27.4641 16.7835Z" fill="#6E8999" stroke="#6E8999"/>
<path d="M31.6123 10.0439H30.5752V16.7835H31.6123V10.0439Z" fill="#6E8999" stroke="#6E8999"/>
<path d="M34.7226 10.0439H33.6855V16.7835H34.7226V10.0439Z" fill="#6E8999" stroke="#6E8999"/>
<path d="M34.2033 13.1543H31.0928V14.1914H34.2033V13.1543Z" fill="#6E8999" stroke="#6E8999"/>
<path d="M41.9804 16.7835H40.9434V10.0439H43.5354C44.3931 10.0439 45.0903 10.7418 45.0903 11.5989V12.6359C45.0903 13.4937 44.3925 14.1909 43.5354 14.1909H41.9804V16.7835ZM41.9804 13.1545H43.5354C43.8213 13.1545 44.0539 12.9219 44.0539 12.6359V11.5989C44.0539 11.3129 43.8213 11.0803 43.5354 11.0803H41.9804V13.1545Z" fill="#6E8999" stroke="#6E8999"/>
<path d="M45.608 18.8567H24.8713C24.0136 18.8567 23.3164 18.1589 23.3164 17.3018V9.52514C23.3164 8.66737 24.0142 7.97021 24.8713 7.97021H45.608C46.4657 7.97021 47.1629 8.66803 47.1629 9.52514V17.3011C47.1635 18.1589 46.4657 18.8567 45.608 18.8567ZM24.8713 9.00661C24.5854 9.00661 24.3528 9.23922 24.3528 9.52514V17.3011C24.3528 17.5871 24.5854 17.8197 24.8713 17.8197H45.608C45.8939 17.8197 46.1265 17.5871 46.1265 17.3011V9.52514C46.1265 9.23922 45.8939 9.00661 45.608 9.00661H24.8713Z" fill="#6E8999" stroke="#6E8999"/>
<path d="M49.2375 24.5592C48.0938 24.5592 47.1641 23.6287 47.1641 22.4857H48.2011C48.2011 23.0576 48.6663 23.5228 49.2382 23.5228C49.81 23.5228 50.2753 23.0576 50.2753 22.4857V17.3017H48.2018V16.2646H51.3123V22.4857C51.3117 23.6287 50.3812 24.5592 49.2375 24.5592Z" fill="#6E8999" stroke="#6E8999"/>
<path d="M23.8349 34.4092H22.7979V41.7206H23.8349V34.4092Z" fill="#6E8999" stroke="#6E8999"/>
<path d="M23.3168 39.0748C20.3516 39.0748 18.6514 37.7524 18.6514 35.4457C18.6514 33.037 22.4824 28.3789 22.9189 27.8557C23.1155 27.6197 23.5181 27.6197 23.7147 27.8557C24.1519 28.3789 27.9823 33.037 27.9823 35.4457C27.9823 37.7524 26.2821 39.0748 23.3168 39.0748ZM23.3168 29.0107C22.0265 30.6356 19.6878 33.9008 19.6878 35.4464C19.6878 37.1666 20.9088 38.0384 23.3168 38.0384C25.7249 38.0384 26.9459 37.1666 26.9459 35.4464C26.9459 33.8994 24.6072 30.6349 23.3168 29.0107Z" fill="#6E8999" stroke="#6E8999"/>
</svg>
