<svg width="34" height="30" viewBox="0 0 34 30" fill="none" xmlns="http://www.w3.org/2000/svg">
<path d="M24.2888 13.6201H16.1738V14.6115H24.2888V13.6201Z" fill="#6E8999"/>
<path d="M26.1978 10.6465H19.9922V11.6378H26.1978V10.6465Z" fill="#6E8999"/>
<path d="M30.2853 15.4837L30.9199 16.1426L33.5132 13.4499L32.8787 12.791L30.2853 15.4837Z" fill="#6E8999"/>
<path d="M17.6059 16.5942H16.1738V17.5856H17.6059V16.5942Z" fill="#6E8999"/>
<path d="M23.8843 17.7232L23.3908 19.4783L22.7354 20.1588L23.3702 20.818L24.0256 20.1375L25.716 19.625L31.954 13.148L32.5889 12.4888L33.5322 11.5094L31.7006 9.60767L30.7573 10.587L30.1224 11.2462L23.8843 17.7232ZM31.7006 10.9261L32.2629 11.5099L31.9545 11.8301L31.3922 11.2462L31.7006 10.9261ZM30.7573 11.9054L31.3196 12.4893L25.2439 18.7973L24.45 19.0377L24.6815 18.2134L30.7573 11.9054Z" fill="#6E8999"/>
<path d="M18.5606 10.6465H16.1738V11.6378H18.5606V10.6465Z" fill="#6E8999"/>
<path d="M12.832 9.60571V12.4927C12.832 12.9269 13.7867 13.2099 13.7867 13.5057V10.7055C13.7867 10.6946 13.55 10.6872 13.5094 10.6693C13.1194 10.5038 12.832 10.1132 12.832 9.60571Z" fill="#6E8999"/>
<path d="M24.6892 26.5026C24.6892 26.5026 25.243 27.3744 25.8917 27.3744C26.5404 27.3744 27.8488 26.3365 27.0865 26.6225C26.2325 26.9432 25.4 25.831 25.4 25.831C24.9861 25.2684 24.7651 24.5805 24.7651 23.8707V23.5332H15.293C15.4515 23.5332 15.5713 24.0288 15.6639 24.5245H23.8911C23.9627 25.0201 24.2353 25.886 24.6892 26.5026Z" fill="#6E8999"/>
<path d="M28.5843 23.7814C28.5843 25.6004 27.3771 27.0026 25.6256 27.0026H16.0947C16.3315 27.4983 16.4919 27.4983 16.5191 27.9939H25.6252C27.8716 27.9939 29.5385 26.1139 29.5385 23.7814V15.4387L28.5838 15.9591V23.7814H28.5843Z" fill="#6E8999"/>
<path d="M21.4247 19.5679H16.1738V20.5593H21.4247V19.5679Z" fill="#6E8999"/>
<path d="M12.9155 4.77803C13.1242 4.87369 13.3156 4.98472 13.3738 5.00306C13.6058 5.07641 13.7834 5.10714 14.0941 5.14035C14.2808 5.16067 14.4822 5.17852 14.771 5.22065C15.2154 5.28508 15.4637 5.69002 15.604 5.69002H24.7659V10.1508H28.802L28.8029 13.0707L29.7004 12.2117L29.6956 8.91122L25.5741 4.69873H12.8311C12.8578 4.69873 12.8902 4.76614 12.9155 4.77803ZM25.7211 6.27488L28.4463 9.15954H25.7211V6.27488Z" fill="#6E8999"/>
<path d="M21.4247 16.5942H18.5605V17.5856H21.4247V16.5942Z" fill="#6E8999"/>
<path d="M13.9163 21.2056H4.56391C4.43646 21.2056 4.3195 21.1322 4.26031 21.0152C4.20112 20.8983 4.20924 20.7565 4.28132 20.6475C4.29229 20.6306 5.41265 18.8979 5.41265 16.4038C5.41265 15.0383 4.93768 13.8607 4.43455 12.6141C4.00779 11.556 3.56624 10.4616 3.42876 9.22992C3.16956 6.90933 3.81351 5.38128 4.014 4.97237C3.81446 2.74943 4.10422 0.886816 4.11711 0.807514C4.13763 0.677656 4.22547 0.570102 4.34528 0.527973C4.46462 0.486339 4.59732 0.515086 4.68993 0.605788L7.21657 3.06664C9.42959 3.21236 11.8674 4.33449 12.92 4.81922C13.1286 4.91488 13.3253 5.00558 13.3835 5.02392C13.6155 5.09728 13.8031 5.1176 14.1144 5.1513C14.301 5.17162 14.5235 5.19541 14.8118 5.23754C15.8667 5.3902 15.8663 6.2204 15.8658 6.66697V6.69621C15.8658 6.88406 15.977 7.31378 16.0663 7.65924C16.1718 8.06715 16.2629 8.42004 16.2629 8.64606C16.2629 9.0619 16.0806 9.44304 15.7359 9.74836C15.4514 10.0006 15.0619 10.191 14.6671 10.2703C14.49 10.306 14.4289 10.3862 14.3354 10.5082C14.2055 10.6782 13.964 10.9939 13.4251 10.8006C12.8985 10.6128 12.6355 10.0814 12.5195 9.75282C11.5963 9.70623 10.3623 9.84451 10.1194 10.3288C10.1256 10.3897 10.2316 10.5994 10.9166 11.1248C10.9695 11.1649 11.0139 11.1996 11.0474 11.2264C11.4087 11.5208 11.7877 11.8087 12.1539 12.0878C12.626 12.4466 13.1138 12.8179 13.5778 13.2119C14.7554 14.2111 15.5646 15.1964 15.6892 16.7587C15.7961 18.1063 15.4004 19.5021 14.6032 20.5875C14.596 20.5974 14.5841 20.6153 14.5693 20.6376C14.3454 20.9701 14.1669 21.2056 13.9163 21.2056Z" fill="#6E8999"/>
<path d="M14.0609 22.6304H4.39734C3.82977 22.6304 3.36816 22.1511 3.36816 21.5618C3.36816 20.9725 3.82977 20.4932 4.39734 20.4932H14.0605C14.628 20.4932 15.0896 20.9725 15.0896 21.5618C15.0901 22.1511 14.6285 22.6304 14.0609 22.6304ZM4.39734 21.2054C4.20831 21.2054 4.05412 21.365 4.05412 21.5618C4.05412 21.758 4.20783 21.9181 4.39734 21.9181H14.0605C14.2495 21.9181 14.4037 21.7585 14.4037 21.5618C14.4037 21.3655 14.25 21.2054 14.0605 21.2054H4.39734Z" fill="#6E8999"/>
<path d="M13.0864 29.4121H11.979C11.7895 29.4121 11.6357 29.2525 11.6357 29.0557C11.6357 28.8589 11.7895 28.6992 11.979 28.6992H13.0864C13.2759 28.6992 13.4297 28.8589 13.4297 29.0557C13.4297 29.2525 13.2759 29.4121 13.0864 29.4121Z" fill="#6E8999"/>
<path d="M10.6382 29.4121H10.2797C10.0902 29.4121 9.93652 29.2525 9.93652 29.0557C9.93652 28.8589 10.0902 28.6992 10.2797 28.6992H10.6382C10.8277 28.6992 10.9815 28.8589 10.9815 29.0557C10.9815 29.2525 10.8277 29.4121 10.6382 29.4121Z" fill="#6E8999"/>
<path d="M15.4981 29.4119H14.4121C14.2226 29.4119 14.0689 29.2523 14.0689 29.0555C14.0689 28.8587 14.2226 28.6991 14.4121 28.6991H15.4981C15.6604 28.6991 15.8413 28.4765 15.8413 28.1578C15.8413 27.8391 15.6604 27.6166 15.4981 27.6166H2.96082C2.79852 27.6166 2.6176 27.8391 2.6176 28.1578C2.6176 28.4765 2.79852 28.6991 2.96082 28.6991H8.98982C9.17933 28.6991 9.33304 28.8587 9.33304 29.0555C9.33304 29.2523 9.17933 29.4119 8.98982 29.4119H2.96082C2.39324 29.4119 1.93164 28.8493 1.93164 28.1583C1.93164 27.4674 2.39324 26.9048 2.96082 26.9048H15.4981C16.0657 26.9048 16.5273 27.4674 16.5273 28.1583C16.5273 28.8493 16.0657 29.4119 15.4981 29.4119Z" fill="#6E8999"/>
<path d="M15.4983 27.6167C15.472 27.6167 15.4458 27.6137 15.4195 27.6073C15.2353 27.5627 3.78277 27.4509 3.82573 27.2596C0.661383 27.0317 4.04066 22.526 4.43216 22.526C4.29802 22.3867 13.6839 22.1617 13.818 22.0224C13.9517 21.8832 14.1689 21.8832 14.303 22.0224C16.4893 24.2924 15.8597 27.2187 15.8315 27.3421C15.7947 27.5062 15.6539 27.6167 15.4983 27.6167Z" fill="#6E8999"/>
<path d="M2.86349 27.6167C2.70787 27.6167 2.56705 27.5062 2.52981 27.3421C2.50213 27.2187 1.87201 24.2924 4.05832 22.0224C4.19246 21.8832 4.40966 21.8832 4.54332 22.0224C4.67746 22.1617 4.67746 22.3872 4.54332 22.526C2.63292 24.509 3.19191 27.1533 3.19764 27.18C3.24013 27.3714 3.12556 27.5627 2.94082 27.6073C2.91504 27.6137 2.88927 27.6167 2.86349 27.6167Z" fill="#6E8999"/>
<path d="M5.40249 19.2424C5.22682 19.2424 5.07741 19.1032 5.06118 18.9178C4.94996 17.6237 4.59814 16.3538 4.01577 15.1425C3.68162 14.4486 3.27635 13.7696 2.88396 13.1133C2.15886 11.9005 1.40941 10.646 1.03994 9.19332C0.607934 7.49426 0.75305 5.68121 1.42898 4.34298C2.0357 3.14155 3.05104 2.20627 4.21483 1.77705C4.39384 1.71162 4.58955 1.80827 4.65304 1.99364C4.71605 2.17951 4.62249 2.38322 4.44396 2.44914C3.44151 2.81839 2.56413 3.62926 2.03666 4.67407C1.43853 5.85865 1.31394 7.48038 1.70346 9.01191C2.04668 10.362 2.73646 11.5164 3.46729 12.7386C3.86779 13.4087 4.28166 14.1012 4.62965 14.8248C5.25069 16.1154 5.62589 17.4715 5.74475 18.8543C5.76146 19.0501 5.62207 19.2231 5.43352 19.2409C5.42301 19.2419 5.41299 19.2424 5.40249 19.2424Z" fill="#6E8999"/>
<path d="M8.65887 3.99939C8.64168 3.99939 8.62498 3.9984 8.60731 3.99542C8.41971 3.96618 8.29082 3.78478 8.31899 3.59049L8.57294 1.83347C7.94092 1.82306 6.63629 1.83843 5.60281 2.10458C5.41903 2.15266 5.23333 2.03569 5.18798 1.84487C5.14216 1.65356 5.25434 1.46076 5.43812 1.41317C6.9504 1.02361 8.90566 1.12967 8.98872 1.13413C9.08515 1.13958 9.17489 1.18717 9.236 1.26498C9.2971 1.34279 9.32335 1.44341 9.30903 1.54303L8.99779 3.69606C8.97249 3.873 8.82594 3.99939 8.65887 3.99939Z" fill="#6E8999"/>
</svg>
