<svg width="50" height="50" viewBox="0 0 50 50" fill="none" xmlns="http://www.w3.org/2000/svg">
<path d="M4.57187 10.3969L4.57254 10.3956L18.275 24.1127L19.2594 23.1269L5.55694 9.41051L7.25584 7.71027L20.9583 21.4274L21.4508 20.9342L7.74837 7.21707L9.44727 5.51685L23.1497 19.234L24.1341 18.2482L10.431 4.53177L10.433 4.52976L9.44593 3.54202L3.58478 9.40984L4.57187 10.3969ZM1.49598 7.31771L2.48307 8.30612L8.34422 2.4383L7.35713 1.44991L7.32449 1.48256C6.72331 1.01735 5.99749 0.753418 5.22569 0.753418C4.30193 0.753418 3.43349 1.11266 2.78099 1.76715L1.81324 2.73557C0.5729 3.97725 0.488929 5.92741 1.52999 7.28305L1.49598 7.31771ZM2.79765 3.72132L3.76607 2.75223C4.1553 2.36233 4.6745 2.14773 5.22569 2.14773C5.62492 2.14773 6.00481 2.26369 6.33406 2.4743L2.5184 6.29332C2.01054 5.49353 2.10116 4.41913 2.79765 3.72132ZM45.8931 40.0152L45.8825 40.0179L30.7284 24.8485L29.744 25.8342L44.1529 40.2578L44.1602 40.2652L42.4594 41.9641L42.454 41.9587L28.0451 27.5345L27.5525 28.0277L41.9615 42.4512L41.9675 42.4572L41.9615 42.4632L40.2686 44.1581L40.2626 44.1521L25.8537 29.7286L24.8692 30.7143L40.0347 45.8957L48.5298 48.449L45.8931 40.0152ZM44.6501 40.7564L44.6668 40.7724L46.423 46.3416L40.7711 44.634L44.6501 40.7564ZM33.8723 20.0564L37.6939 16.2301C40.2266 16.9945 43.0859 16.3774 45.0873 14.3732C47.1961 12.2624 47.7626 9.19789 46.8009 6.56791L42.3321 11.0407L38.8583 10.1083L37.9272 6.63123L42.3954 2.15839C39.7667 1.1953 36.7062 1.76182 34.5974 3.87327C32.5959 5.87609 31.9794 8.74002 32.7432 11.2747L28.9209 15.1004L14.442 29.5946L10.621 33.4209C8.08761 32.6565 5.22836 33.2736 3.22688 35.2778C1.11809 37.3886 0.551573 40.4531 1.51466 43.0831L5.98284 38.6102L9.45593 39.542L10.3877 43.0204L5.91952 47.4933C8.54684 48.4564 11.608 47.8898 13.7182 45.7784C15.719 43.7749 16.3355 40.9123 15.5717 38.3763L19.3934 34.552L33.8723 20.0564ZM17.2306 31.5881C16.9586 31.3155 16.9586 30.8743 17.2306 30.6017L30.0326 17.787C30.3045 17.5144 30.7451 17.5144 31.017 17.787C31.2889 18.0589 31.2889 18.5002 31.017 18.7727L18.215 31.5888C17.9431 31.86 17.5025 31.86 17.2306 31.5881Z" fill="#6E8999" stroke="#6E8999"/>
</svg>
