<svg width="125" height="17" viewBox="0 0 125 17" fill="none" xmlns="http://www.w3.org/2000/svg">
<path d="M3.12804 1.91193C4.86671 1.91193 6.25871 2.30659 7.30404 3.09593C8.36004 3.87459 8.88804 5.30926 8.88804 7.39993C8.88804 9.45859 8.37604 10.9093 7.35204 11.7519C6.32804 12.5839 5.00004 12.9999 3.36804 12.9999H0.0400391V1.91193H3.12804ZM2.66404 3.81593V11.0959H3.52804C4.39204 11.0959 5.04804 10.8293 5.49604 10.2959C5.94404 9.75193 6.16804 8.78659 6.16804 7.39993C6.16804 6.45059 6.05604 5.71459 5.83204 5.19193C5.60804 4.66926 5.30404 4.31193 4.92004 4.11993C4.53604 3.91726 4.06137 3.81593 3.49604 3.81593H2.66404Z" fill="#444444"/>
<path d="M12.9419 4.50393V12.9999H10.4139V4.50393H12.9419ZM11.6619 0.0239258C12.0992 0.0239258 12.4566 0.162593 12.7339 0.439926C13.0219 0.706593 13.1659 1.04793 13.1659 1.46393C13.1659 1.87993 13.0219 2.22659 12.7339 2.50393C12.4566 2.77059 12.0992 2.90393 11.6619 2.90393C11.2246 2.90393 10.8672 2.77059 10.5899 2.50393C10.3126 2.22659 10.1739 1.87993 10.1739 1.46393C10.1739 1.04793 10.3126 0.706593 10.5899 0.439926C10.8672 0.162593 11.2246 0.0239258 11.6619 0.0239258Z" fill="#444444"/>
<path d="M22.7535 4.99993C22.1989 5.22393 21.3829 5.33593 20.3055 5.33593C20.8602 5.57059 21.2655 5.85859 21.5215 6.19993C21.7775 6.54126 21.9055 6.98393 21.9055 7.52793C21.9055 8.07193 21.7615 8.56259 21.4735 8.99993C21.1855 9.42659 20.7695 9.76259 20.2255 10.0079C19.6922 10.2533 19.0629 10.3759 18.3375 10.3759C17.9962 10.3759 17.6709 10.3439 17.3615 10.2799C17.2762 10.3226 17.2069 10.3919 17.1535 10.4879C17.1109 10.5733 17.0895 10.6639 17.0895 10.7599C17.0895 10.9199 17.1482 11.0479 17.2655 11.1439C17.3935 11.2293 17.6442 11.2719 18.0175 11.2719H19.2975C19.9482 11.2719 20.5189 11.3786 21.0095 11.5919C21.5002 11.8053 21.8789 12.0986 22.1455 12.4719C22.4122 12.8453 22.5455 13.2666 22.5455 13.7359C22.5455 14.6213 22.1615 15.3093 21.3935 15.7999C20.6362 16.3013 19.5375 16.5519 18.0975 16.5519C17.0629 16.5519 16.2469 16.4399 15.6495 16.2159C15.0522 16.0026 14.6309 15.6986 14.3855 15.3039C14.1509 14.9093 14.0335 14.4133 14.0335 13.8159H16.3055C16.3055 14.0719 16.3535 14.2746 16.4495 14.4239C16.5562 14.5733 16.7429 14.6853 17.0095 14.7599C17.2762 14.8346 17.6602 14.8719 18.1615 14.8719C18.8549 14.8719 19.3349 14.7866 19.6015 14.6159C19.8682 14.4559 20.0015 14.2213 20.0015 13.9119C20.0015 13.6559 19.9002 13.4533 19.6975 13.3039C19.4949 13.1546 19.1909 13.0799 18.7855 13.0799H17.5535C16.6789 13.0799 16.0229 12.9253 15.5855 12.6159C15.1589 12.2959 14.9455 11.8906 14.9455 11.3999C14.9455 11.0906 15.0362 10.7919 15.2175 10.5039C15.3989 10.2053 15.6442 9.95993 15.9535 9.76793C15.4202 9.47993 15.0309 9.14393 14.7855 8.75993C14.5509 8.36526 14.4335 7.89059 14.4335 7.33593C14.4335 6.38659 14.7749 5.63459 15.4575 5.07993C16.1402 4.51459 17.0415 4.23193 18.1615 4.23193C19.0149 4.25326 19.7349 4.16793 20.3215 3.97593C20.9189 3.78393 21.5322 3.50126 22.1615 3.12793L22.7535 4.99993ZM18.2255 5.89593C17.8309 5.89593 17.5162 6.02393 17.2815 6.27993C17.0575 6.52526 16.9455 6.86659 16.9455 7.30393C16.9455 7.76259 17.0575 8.11993 17.2815 8.37593C17.5162 8.62126 17.8309 8.74393 18.2255 8.74393C18.6415 8.74393 18.9562 8.62126 19.1695 8.37593C19.3935 8.13059 19.5055 7.76259 19.5055 7.27193C19.5055 6.35459 19.0789 5.89593 18.2255 5.89593Z" fill="#444444"/>
<path d="M26.27 4.50393V12.9999H23.742V4.50393H26.27ZM24.99 0.0239258C25.4274 0.0239258 25.7847 0.162593 26.062 0.439926C26.35 0.706593 26.494 1.04793 26.494 1.46393C26.494 1.87993 26.35 2.22659 26.062 2.50393C25.7847 2.77059 25.4274 2.90393 24.99 2.90393C24.5527 2.90393 24.1954 2.77059 23.918 2.50393C23.6407 2.22659 23.502 1.87993 23.502 1.46393C23.502 1.04793 23.6407 0.706593 23.918 0.439926C24.1954 0.162593 24.5527 0.0239258 24.99 0.0239258Z" fill="#444444"/>
<path d="M33.5857 12.5999C33.2763 12.8133 32.9137 12.9786 32.4977 13.0959C32.0923 13.2133 31.687 13.2719 31.2817 13.2719C29.4257 13.2613 28.4977 12.2373 28.4977 10.1999V6.26393H27.2977V4.50393H28.4977V2.66393L31.0257 2.37593V4.50393H32.9777L32.7057 6.26393H31.0257V10.1679C31.0257 10.5626 31.0897 10.8453 31.2177 11.0159C31.3457 11.1866 31.5483 11.2719 31.8257 11.2719C32.1137 11.2719 32.4177 11.1813 32.7377 10.9999L33.5857 12.5999Z" fill="#444444"/>
<path d="M40.994 10.5359C40.994 10.8559 41.0367 11.0906 41.122 11.2399C41.218 11.3893 41.3674 11.5013 41.57 11.5759L41.042 13.2239C40.5194 13.1813 40.0927 13.0693 39.762 12.8879C39.4314 12.6959 39.1754 12.3973 38.994 11.9919C38.4394 12.8453 37.586 13.2719 36.434 13.2719C35.5914 13.2719 34.9194 13.0266 34.418 12.5359C33.9167 12.0453 33.666 11.4053 33.666 10.6159C33.666 9.68793 34.0074 8.97859 34.69 8.48793C35.3727 7.99726 36.3594 7.75193 37.65 7.75193H38.514V7.38393C38.514 6.88259 38.4074 6.54126 38.194 6.35993C37.9807 6.16793 37.6074 6.07193 37.074 6.07193C36.7967 6.07193 36.4607 6.11459 36.066 6.19993C35.6714 6.27459 35.266 6.38126 34.85 6.51993L34.274 4.85593C34.8074 4.65326 35.3514 4.49859 35.906 4.39193C36.4714 4.28526 36.994 4.23193 37.474 4.23193C38.69 4.23193 39.5807 4.48259 40.146 4.98393C40.7114 5.48526 40.994 6.23726 40.994 7.23993V10.5359ZM37.17 11.4639C37.746 11.4639 38.194 11.1919 38.514 10.6479V9.14393H37.89C37.314 9.14393 36.882 9.24526 36.594 9.44793C36.3167 9.65059 36.178 9.96526 36.178 10.3919C36.178 10.7333 36.2634 10.9999 36.434 11.1919C36.6154 11.3733 36.8607 11.4639 37.17 11.4639Z" fill="#444444"/>
<path d="M45.1074 13.2719C44.3714 13.2719 43.7954 13.0639 43.3794 12.6479C42.9741 12.2213 42.7714 11.6186 42.7714 10.8399V1.12793L45.2994 0.855926V10.7439C45.2994 11.0959 45.4434 11.2719 45.7314 11.2719C45.8807 11.2719 46.0194 11.2453 46.1474 11.1919L46.6434 12.9839C46.1847 13.1759 45.6727 13.2719 45.1074 13.2719Z" fill="#444444"/>
<path d="M62.4543 12.9999H59.8783L59.6863 8.66393C59.633 7.62926 59.6063 6.70659 59.6063 5.89593C59.6063 5.27726 59.6223 4.69059 59.6543 4.13593L57.9423 11.8319H55.4623L53.6383 4.13593C53.7023 5.06393 53.7343 5.93859 53.7343 6.75993C53.7343 7.37859 53.7183 8.02393 53.6863 8.69593L53.4943 12.9999H50.9343L51.7663 1.91193H55.0783L56.7423 9.43193L58.2943 1.91193H61.6223L62.4543 12.9999Z" fill="#444444"/>
<path d="M70.7284 10.5359C70.7284 10.8559 70.7711 11.0906 70.8564 11.2399C70.9524 11.3893 71.1017 11.5013 71.3044 11.5759L70.7764 13.2239C70.2537 13.1813 69.8271 13.0693 69.4964 12.8879C69.1657 12.6959 68.9097 12.3973 68.7284 11.9919C68.1737 12.8453 67.3204 13.2719 66.1684 13.2719C65.3257 13.2719 64.6537 13.0266 64.1524 12.5359C63.6511 12.0453 63.4004 11.4053 63.4004 10.6159C63.4004 9.68793 63.7417 8.97859 64.4244 8.48793C65.1071 7.99726 66.0937 7.75193 67.3844 7.75193H68.2484V7.38393C68.2484 6.88259 68.1417 6.54126 67.9284 6.35993C67.7151 6.16793 67.3417 6.07193 66.8084 6.07193C66.5311 6.07193 66.1951 6.11459 65.8004 6.19993C65.4057 6.27459 65.0004 6.38126 64.5844 6.51993L64.0084 4.85593C64.5417 4.65326 65.0857 4.49859 65.6404 4.39193C66.2057 4.28526 66.7284 4.23193 67.2084 4.23193C68.4244 4.23193 69.3151 4.48259 69.8804 4.98393C70.4458 5.48526 70.7284 6.23726 70.7284 7.23993V10.5359ZM66.9044 11.4639C67.4804 11.4639 67.9284 11.1919 68.2484 10.6479V9.14393H67.6244C67.0484 9.14393 66.6164 9.24526 66.3284 9.44793C66.0511 9.65059 65.9124 9.96526 65.9124 10.3919C65.9124 10.7333 65.9977 10.9999 66.1684 11.1919C66.3497 11.3733 66.5951 11.4639 66.9044 11.4639Z" fill="#444444"/>
<path d="M77.35 4.26393C77.6594 4.26393 77.942 4.30126 78.198 4.37593L77.798 6.82393C77.478 6.74926 77.222 6.71193 77.03 6.71193C76.5287 6.71193 76.1447 6.88793 75.878 7.23993C75.622 7.58126 75.4194 8.09859 75.27 8.79193V12.9999H72.742V4.50393H74.95L75.158 6.15193C75.35 5.56526 75.638 5.10659 76.022 4.77593C76.4167 4.43459 76.8594 4.26393 77.35 4.26393Z" fill="#444444"/>
<path d="M81.6919 0.855926V12.9999H79.1639V1.12793L81.6919 0.855926ZM86.9399 4.50393L84.3639 8.23193L87.1479 12.9999H84.2999L81.7719 8.35993L84.3639 4.50393H86.9399Z" fill="#444444"/>
<path d="M95.1969 8.58393C95.1969 8.93593 95.1809 9.23993 95.1489 9.49593H89.8849C89.9702 10.2106 90.1729 10.7119 90.4929 10.9999C90.8129 11.2879 91.2556 11.4319 91.8209 11.4319C92.1622 11.4319 92.4929 11.3733 92.8129 11.2559C93.1329 11.1279 93.4796 10.9359 93.8529 10.6799L94.8929 12.0879C93.9009 12.8773 92.7969 13.2719 91.5809 13.2719C90.2049 13.2719 89.1489 12.8666 88.4129 12.0559C87.6769 11.2453 87.3089 10.1573 87.3089 8.79193C87.3089 7.92793 87.4636 7.15459 87.7729 6.47193C88.0822 5.77859 88.5356 5.23459 89.1329 4.83993C89.7302 4.43459 90.4449 4.23193 91.2769 4.23193C92.5036 4.23193 93.4636 4.61593 94.1569 5.38393C94.8502 6.15193 95.1969 7.21859 95.1969 8.58393ZM92.7169 7.86393C92.6956 6.56259 92.2369 5.91193 91.3409 5.91193C90.9036 5.91193 90.5622 6.07193 90.3169 6.39193C90.0822 6.71193 89.9382 7.23993 89.8849 7.97593H92.7169V7.86393Z" fill="#444444"/>
<path d="M101.945 12.5999C101.636 12.8133 101.273 12.9786 100.857 13.0959C100.452 13.2133 100.046 13.2719 99.641 13.2719C97.785 13.2613 96.857 12.2373 96.857 10.1999V6.26393H95.657V4.50393H96.857V2.66393L99.385 2.37593V4.50393H101.337L101.065 6.26393H99.385V10.1679C99.385 10.5626 99.449 10.8453 99.577 11.0159C99.705 11.1866 99.9077 11.2719 100.185 11.2719C100.473 11.2719 100.777 11.1813 101.097 10.9999L101.945 12.5999Z" fill="#444444"/>
<path d="M105.317 4.50393V12.9999H102.789V4.50393H105.317ZM104.037 0.0239258C104.474 0.0239258 104.832 0.162593 105.109 0.439926C105.397 0.706593 105.541 1.04793 105.541 1.46393C105.541 1.87993 105.397 2.22659 105.109 2.50393C104.832 2.77059 104.474 2.90393 104.037 2.90393C103.6 2.90393 103.242 2.77059 102.965 2.50393C102.688 2.22659 102.549 1.87993 102.549 1.46393C102.549 1.04793 102.688 0.706593 102.965 0.439926C103.242 0.162593 103.6 0.0239258 104.037 0.0239258Z" fill="#444444"/>
<path d="M112.281 4.23193C113.017 4.23193 113.593 4.45593 114.009 4.90393C114.425 5.35193 114.633 5.98126 114.633 6.79193V12.9999H112.105V7.22393C112.105 6.79726 112.035 6.50393 111.897 6.34393C111.769 6.17326 111.571 6.08793 111.305 6.08793C110.793 6.08793 110.302 6.45593 109.833 7.19193V12.9999H107.305V4.50393H109.513L109.689 5.51193C110.051 5.08526 110.441 4.76526 110.857 4.55193C111.283 4.33859 111.758 4.23193 112.281 4.23193Z" fill="#444444"/>
<path d="M124.363 4.99993C123.808 5.22393 122.992 5.33593 121.915 5.33593C122.47 5.57059 122.875 5.85859 123.131 6.19993C123.387 6.54126 123.515 6.98393 123.515 7.52793C123.515 8.07193 123.371 8.56259 123.083 8.99993C122.795 9.42659 122.379 9.76259 121.835 10.0079C121.302 10.2533 120.672 10.3759 119.947 10.3759C119.606 10.3759 119.28 10.3439 118.971 10.2799C118.886 10.3226 118.816 10.3919 118.763 10.4879C118.72 10.5733 118.699 10.6639 118.699 10.7599C118.699 10.9199 118.758 11.0479 118.875 11.1439C119.003 11.2293 119.254 11.2719 119.627 11.2719H120.907C121.558 11.2719 122.128 11.3786 122.619 11.5919C123.11 11.8053 123.488 12.0986 123.755 12.4719C124.022 12.8453 124.155 13.2666 124.155 13.7359C124.155 14.6213 123.771 15.3093 123.003 15.7999C122.246 16.3013 121.147 16.5519 119.707 16.5519C118.672 16.5519 117.856 16.4399 117.259 16.2159C116.662 16.0026 116.24 15.6986 115.995 15.3039C115.76 14.9093 115.643 14.4133 115.643 13.8159H117.915C117.915 14.0719 117.963 14.2746 118.059 14.4239C118.166 14.5733 118.352 14.6853 118.619 14.7599C118.886 14.8346 119.27 14.8719 119.771 14.8719C120.464 14.8719 120.944 14.7866 121.211 14.6159C121.478 14.4559 121.611 14.2213 121.611 13.9119C121.611 13.6559 121.51 13.4533 121.307 13.3039C121.104 13.1546 120.8 13.0799 120.395 13.0799H119.163C118.288 13.0799 117.632 12.9253 117.195 12.6159C116.768 12.2959 116.555 11.8906 116.555 11.3999C116.555 11.0906 116.646 10.7919 116.827 10.5039C117.008 10.2053 117.254 9.95993 117.563 9.76793C117.03 9.47993 116.64 9.14393 116.395 8.75993C116.16 8.36526 116.043 7.89059 116.043 7.33593C116.043 6.38659 116.384 5.63459 117.067 5.07993C117.75 4.51459 118.651 4.23193 119.771 4.23193C120.624 4.25326 121.344 4.16793 121.931 3.97593C122.528 3.78393 123.142 3.50126 123.771 3.12793L124.363 4.99993ZM119.835 5.89593C119.44 5.89593 119.126 6.02393 118.891 6.27993C118.667 6.52526 118.555 6.86659 118.555 7.30393C118.555 7.76259 118.667 8.11993 118.891 8.37593C119.126 8.62126 119.44 8.74393 119.835 8.74393C120.251 8.74393 120.566 8.62126 120.779 8.37593C121.003 8.13059 121.115 7.76259 121.115 7.27193C121.115 6.35459 120.688 5.89593 119.835 5.89593Z" fill="#444444"/>
</svg>
