<?xml version="1.0" encoding="UTF-8"?>
<!-- Generator: Adobe Illustrator 21.0.2, SVG Export Plug-In . SVG Version: 6.00 Build 0)  -->
<svg version="1.1" id="Layer_1" xmlns="http://www.w3.org/2000/svg" xmlns:xlink="http://www.w3.org/1999/xlink" x="0px" y="0px" viewBox="0 0 122.2 30.4" style="enable-background:new 0 0 122.2 30.4;" xml:space="preserve">
<style type="text/css">
	.st0{fill:#A1BD52;}
	.st1{fill:#6E8B45;}
	.st2{fill:#0E0E0E;}
</style>
<g>
	<path class="st0" d="M15.8,5.2L14.7,28h0L0,25.1c0,0,1.9-14.7,2-15.2C2,9.3,2.1,9.2,2.8,9c0.1,0,1-0.3,2.3-0.7   c0.5-2.1,2.1-6.2,5.4-6.2c0.4,0,0.9,0.2,1.3,0.8c0,0,0.1,0,0.1,0c1.4,0,2.2,1.2,2.7,2.5c0.5-0.1,0.8-0.2,0.8-0.2   C15.5,5.1,15.6,5.2,15.8,5.2z M11.4,3.9C10.6,4.2,9.7,5.1,9.2,7c0.9-0.3,1.8-0.5,2.6-0.8c0,0,0-0.1,0-0.1   C11.7,5.1,11.6,4.4,11.4,3.9z M6.1,8c0.6-0.2,1.3-0.4,2-0.6c0.5-2.5,1.6-3.8,2.7-4.3c-0.1-0.1-0.3-0.1-0.4-0.1C8,2.9,6.7,6.1,6.1,8   z M12,11.2c0,0-0.7-0.4-2-0.4c-3.5,0-5.2,2.3-5.2,4.7c0,2.9,2.8,2.9,2.8,4.7c0,0.4-0.3,1-1,1c-1.1,0-2.4-1.1-2.4-1.1l-0.7,2.2   c0,0,1.3,1.6,3.8,1.6c2.1,0,3.7-1.6,3.7-4c0-3.1-3.5-3.6-3.5-5c0-0.2,0.1-1.2,1.6-1.2c1.1,0,1.9,0.5,1.9,0.5L12,11.2z M13.8,5.6   c-0.3-1-0.8-1.8-1.5-1.9c0.2,0.5,0.3,1.2,0.3,2c0,0.1,0,0.2,0,0.3C13.1,5.8,13.5,5.7,13.8,5.6z"/>
	<path class="st1" d="M20.6,7.2c0,0.1,2.8,19,2.8,19l-7.9,1.7l1.1-22.7c0.1,0,0.2,0,0.2,0.1c0.2,0.2,1.5,1.5,1.5,1.5s2,0.1,2.1,0.2   C20.4,7,20.5,7,20.6,7.2z"/>
	<g>
		<g>
			<g>
				<path class="st2" d="M31.9,16.7c-0.8-0.4-1.2-0.8-1.2-1.3c0-0.6,0.6-1,1.4-1c1,0,1.9,0.4,1.9,0.4l0.7-2.2c0,0-0.7-0.5-2.6-0.5      c-2.7,0-4.6,1.6-4.6,3.8c0,1.2,0.9,2.2,2.1,2.9c1,0.5,1.3,0.9,1.3,1.5c0,0.6-0.5,1.1-1.4,1.1c-1.3,0-2.6-0.7-2.6-0.7l-0.8,2.2      c0,0,1.1,0.8,3.1,0.8c2.8,0,4.8-1.4,4.8-3.9C34.1,18.4,33.1,17.4,31.9,16.7z"/>
			</g>
			<g>
				<path class="st2" d="M43,12c-1.4,0-2.5,0.7-3.3,1.7l0-0.1l1.2-6.3h-3.1l-3,15.8h3.1l1-5.3c0.4-2.1,1.5-3.3,2.5-3.3      c0.7,0,1,0.5,1,1.2c0,0.4,0,0.8-0.1,1.3L41,23.1h3.1l1.2-6.3c0.1-0.7,0.2-1.4,0.2-2C45.6,13,44.7,12,43,12z"/>
			</g>
			<g>
				<g>
					<path class="st2" d="M52.7,12c-3.8,0-6.2,3.4-6.2,7.2c0,2.4,1.5,4.4,4.3,4.4c3.7,0,6.2-3.3,6.2-7.2C56.9,14.2,55.6,12,52.7,12z        M51.1,21.2c-1.1,0-1.5-0.9-1.5-2c0-1.8,0.9-4.7,2.6-4.7c1.1,0,1.5,1,1.5,1.9C53.7,18.2,52.8,21.2,51.1,21.2z"/>
				</g>
			</g>
			<g>
				<g>
					<path class="st2" d="M64.9,12c-2.1,0-3.3,1.8-3.3,1.8h0l0.2-1.6H59c-0.1,1.1-0.4,2.9-0.6,4.2L56.2,28h3.1l0.9-4.9h0.1       c0,0,0.6,0.4,1.8,0.4c3.7,0,6.1-3.7,6.1-7.5C68.1,13.9,67.2,12,64.9,12z M61.9,21.2c-0.8,0-1.3-0.5-1.3-0.5l0.5-2.9       c0.4-1.9,1.4-3.2,2.5-3.2c1,0,1.2,0.9,1.2,1.7C64.8,18.4,63.6,21.2,61.9,21.2z"/>
				</g>
			</g>
			<g>
				<path class="st2" d="M72.6,7.6c-1,0-1.8,0.9-1.8,1.9c0,0.9,0.6,1.7,1.5,1.7h0c1,0,1.8-0.8,1.8-1.9C74.1,8.3,73.5,7.6,72.6,7.6z"/>
			</g>
			<g>
				<polygon class="st2" points="68.2,23.1 71.3,23.1 73.4,12.2 70.3,12.2     "/>
			</g>
			<g>
				<path class="st2" d="M81.4,12.2h-2.2l0.1-0.5c0.2-1.1,0.8-2,1.9-2c0.6,0,1,0.2,1,0.2l0.6-2.4c0,0-0.5-0.3-1.7-0.3      c-1.1,0-2.2,0.3-3.1,1c-1.1,0.9-1.6,2.2-1.8,3.5l-0.1,0.5h-1.4l-0.5,2.2h1.4L74,23.1h3.1l1.7-8.7H81L81.4,12.2z"/>
			</g>
			<g>
				<path class="st2" d="M88.9,12.2c0,0-2,4.9-2.8,7.6h0c-0.1-0.5-0.8-7.6-0.8-7.6H82l1.9,10.2c0,0.2,0,0.4-0.1,0.5      c-0.4,0.7-1,1.4-1.7,1.9c-0.6,0.4-1.2,0.7-1.8,0.9l0.9,2.7c0.6-0.1,1.9-0.7,3.1-1.7c1.4-1.3,2.7-3.4,4.1-6.2l3.8-8.2H88.9z"/>
			</g>
		</g>
	</g>
</g>
</svg>