<svg width="134" height="17" viewBox="0 0 134 17" fill="none" xmlns="http://www.w3.org/2000/svg">
<path d="M13.392 1.91196L11.536 13H8.12804L6.75204 4.53596L5.29604 13H1.96804L0.144043 1.91196H2.76804L3.87204 11.016L5.40804 1.91196H8.16004L9.60004 11.016L10.896 1.91196H13.392Z" fill="#444444"/>
<path d="M21.7907 8.58396C21.7907 8.93596 21.7747 9.23996 21.7427 9.49596H16.4787C16.564 10.2106 16.7667 10.712 17.0867 11C17.4067 11.288 17.8493 11.432 18.4147 11.432C18.756 11.432 19.0867 11.3733 19.4067 11.256C19.7267 11.128 20.0733 10.936 20.4467 10.68L21.4867 12.088C20.4947 12.8773 19.3907 13.272 18.1747 13.272C16.7987 13.272 15.7427 12.8666 15.0067 12.056C14.2707 11.2453 13.9027 10.1573 13.9027 8.79196C13.9027 7.92796 14.0573 7.15462 14.3667 6.47196C14.676 5.77862 15.1293 5.23462 15.7267 4.83996C16.324 4.43462 17.0387 4.23196 17.8707 4.23196C19.0973 4.23196 20.0573 4.61596 20.7507 5.38396C21.444 6.15196 21.7907 7.21862 21.7907 8.58396ZM19.3107 7.86396C19.2893 6.56262 18.8307 5.91196 17.9347 5.91196C17.4973 5.91196 17.156 6.07196 16.9107 6.39196C16.676 6.71196 16.532 7.23996 16.4787 7.97596H19.3107V7.86396Z" fill="#444444"/>
<path d="M28.0268 4.23196C29.0401 4.23196 29.8188 4.63196 30.3628 5.43196C30.9068 6.22129 31.1788 7.33062 31.1788 8.75996C31.1788 9.63462 31.0401 10.4133 30.7628 11.096C30.4961 11.7786 30.1068 12.312 29.5948 12.696C29.0935 13.08 28.4961 13.272 27.8028 13.272C27.3441 13.272 26.9228 13.176 26.5388 12.984C26.1655 12.792 25.8455 12.5253 25.5788 12.184L25.4508 13H23.2108V1.12796L25.7388 0.855957V5.36796C25.9948 5.01596 26.3201 4.73862 26.7148 4.53596C27.1201 4.33329 27.5575 4.23196 28.0268 4.23196ZM27.0668 11.432C28.0588 11.432 28.5548 10.5413 28.5548 8.75996C28.5548 7.74662 28.4375 7.04796 28.2028 6.66396C27.9681 6.27996 27.6268 6.08796 27.1788 6.08796C26.6135 6.08796 26.1335 6.41862 25.7388 7.07996V10.616C25.8988 10.872 26.0908 11.0746 26.3148 11.224C26.5495 11.3626 26.8001 11.432 27.0668 11.432Z" fill="#444444"/>
<path d="M39.6905 1.91196C41.4292 1.91196 42.8212 2.30662 43.8665 3.09596C44.9225 3.87462 45.4505 5.30929 45.4505 7.39996C45.4505 9.45862 44.9385 10.9093 43.9145 11.752C42.8905 12.584 41.5625 13 39.9305 13H36.6025V1.91196H39.6905ZM39.2265 3.81596V11.096H40.0905C40.9545 11.096 41.6105 10.8293 42.0585 10.296C42.5065 9.75196 42.7305 8.78662 42.7305 7.39996C42.7305 6.45062 42.6185 5.71462 42.3945 5.19196C42.1705 4.66929 41.8665 4.31196 41.4825 4.11996C41.0985 3.91729 40.6239 3.81596 40.0585 3.81596H39.2265Z" fill="#444444"/>
<path d="M54.3844 8.58396C54.3844 8.93596 54.3684 9.23996 54.3364 9.49596H49.0724C49.1578 10.2106 49.3604 10.712 49.6804 11C50.0004 11.288 50.4431 11.432 51.0084 11.432C51.3498 11.432 51.6804 11.3733 52.0004 11.256C52.3204 11.128 52.6671 10.936 53.0404 10.68L54.0804 12.088C53.0884 12.8773 51.9844 13.272 50.7684 13.272C49.3924 13.272 48.3364 12.8666 47.6004 12.056C46.8644 11.2453 46.4964 10.1573 46.4964 8.79196C46.4964 7.92796 46.6511 7.15462 46.9604 6.47196C47.2698 5.77862 47.7231 5.23462 48.3204 4.83996C48.9177 4.43462 49.6324 4.23196 50.4644 4.23196C51.6911 4.23196 52.6511 4.61596 53.3444 5.38396C54.0378 6.15196 54.3844 7.21862 54.3844 8.58396ZM51.9044 7.86396C51.8831 6.56262 51.4244 5.91196 50.5284 5.91196C50.0911 5.91196 49.7498 6.07196 49.5044 6.39196C49.2698 6.71196 49.1258 7.23996 49.0724 7.97596H51.9044V7.86396Z" fill="#444444"/>
<path d="M62.9915 4.50396L60.3195 13H57.3275L54.5915 4.50396H57.3435L58.8475 11.08L60.4155 4.50396H62.9915Z" fill="#444444"/>
<path d="M71.1657 8.58396C71.1657 8.93596 71.1497 9.23996 71.1177 9.49596H65.8537C65.939 10.2106 66.1417 10.712 66.4617 11C66.7817 11.288 67.2243 11.432 67.7897 11.432C68.131 11.432 68.4617 11.3733 68.7817 11.256C69.1017 11.128 69.4483 10.936 69.8217 10.68L70.8617 12.088C69.8697 12.8773 68.7657 13.272 67.5497 13.272C66.1737 13.272 65.1177 12.8666 64.3817 12.056C63.6457 11.2453 63.2777 10.1573 63.2777 8.79196C63.2777 7.92796 63.4323 7.15462 63.7417 6.47196C64.051 5.77862 64.5043 5.23462 65.1017 4.83996C65.699 4.43462 66.4137 4.23196 67.2457 4.23196C68.4723 4.23196 69.4323 4.61596 70.1257 5.38396C70.819 6.15196 71.1657 7.21862 71.1657 8.58396ZM68.6857 7.86396C68.6643 6.56262 68.2057 5.91196 67.3097 5.91196C66.8723 5.91196 66.531 6.07196 66.2857 6.39196C66.051 6.71196 65.907 7.23996 65.8537 7.97596H68.6857V7.86396Z" fill="#444444"/>
<path d="M74.8418 13.272C74.1058 13.272 73.5298 13.064 73.1138 12.648C72.7085 12.2213 72.5058 11.6186 72.5058 10.84V1.12796L75.0338 0.855957V10.744C75.0338 11.096 75.1778 11.272 75.4658 11.272C75.6151 11.272 75.7538 11.2453 75.8818 11.192L76.3778 12.984C75.9191 13.176 75.4071 13.272 74.8418 13.272Z" fill="#444444"/>
<path d="M80.9377 4.23196C82.239 4.23196 83.2577 4.63196 83.9937 5.43196C84.7297 6.22129 85.0977 7.33062 85.0977 8.75996C85.0977 9.66663 84.927 10.4613 84.5857 11.144C84.255 11.816 83.775 12.3386 83.1457 12.712C82.527 13.0853 81.791 13.272 80.9377 13.272C79.647 13.272 78.6283 12.8773 77.8817 12.088C77.1457 11.288 76.7777 10.1733 76.7777 8.74396C76.7777 7.83729 76.943 7.04796 77.2737 6.37596C77.615 5.69329 78.095 5.16529 78.7137 4.79196C79.343 4.41862 80.0843 4.23196 80.9377 4.23196ZM80.9377 6.08796C80.4257 6.08796 80.0417 6.30662 79.7857 6.74396C79.5297 7.17062 79.4017 7.83729 79.4017 8.74396C79.4017 9.67196 79.5243 10.3493 79.7697 10.776C80.0257 11.2026 80.415 11.416 80.9377 11.416C81.4497 11.416 81.8337 11.2026 82.0897 10.776C82.3457 10.3386 82.4737 9.66663 82.4737 8.75996C82.4737 7.83196 82.3457 7.15462 82.0897 6.72796C81.8443 6.30129 81.4603 6.08796 80.9377 6.08796Z" fill="#444444"/>
<path d="M91.4014 4.23196C92.4681 4.23196 93.2628 4.62662 93.7854 5.41596C94.3081 6.20529 94.5694 7.30929 94.5694 8.72796C94.5694 9.60262 94.4308 10.3866 94.1534 11.08C93.8868 11.7626 93.4974 12.3013 92.9854 12.696C92.4734 13.08 91.8761 13.272 91.1934 13.272C90.3401 13.272 89.6521 12.9786 89.1294 12.392V16.28L86.6014 16.552V4.50396H88.8254L88.9534 5.44796C89.2841 5.03196 89.6628 4.72796 90.0894 4.53596C90.5161 4.33329 90.9534 4.23196 91.4014 4.23196ZM90.4254 11.416C91.4388 11.416 91.9454 10.5306 91.9454 8.75996C91.9454 7.75729 91.8334 7.06396 91.6094 6.67996C91.3854 6.28529 91.0494 6.08796 90.6014 6.08796C90.3134 6.08796 90.0414 6.17329 89.7854 6.34396C89.5401 6.51462 89.3214 6.75996 89.1294 7.07996V10.664C89.4708 11.1653 89.9028 11.416 90.4254 11.416Z" fill="#444444"/>
<path d="M105.54 4.23196C106.212 4.23196 106.751 4.46129 107.156 4.91996C107.562 5.36796 107.764 5.99196 107.764 6.79196V13H105.236V7.22396C105.236 6.46662 104.996 6.08796 104.516 6.08796C104.25 6.08796 104.015 6.17862 103.812 6.35996C103.61 6.54129 103.412 6.81862 103.22 7.19196V13H100.692V7.22396C100.692 6.46662 100.452 6.08796 99.9723 6.08796C99.7163 6.08796 99.4816 6.18396 99.2683 6.37596C99.0656 6.55729 98.8683 6.82929 98.6763 7.19196V13H96.1483V4.50396H98.3563L98.5323 5.49596C98.863 5.06929 99.2256 4.75462 99.6203 4.55196C100.026 4.33862 100.484 4.23196 100.996 4.23196C101.476 4.23196 101.887 4.34929 102.228 4.58396C102.58 4.81862 102.836 5.14929 102.996 5.57596C103.338 5.11729 103.711 4.78129 104.116 4.56796C104.532 4.34396 105.007 4.23196 105.54 4.23196Z" fill="#444444"/>
<path d="M117.072 8.58396C117.072 8.93596 117.056 9.23996 117.024 9.49596H111.76C111.845 10.2106 112.048 10.712 112.368 11C112.688 11.288 113.131 11.432 113.696 11.432C114.037 11.432 114.368 11.3733 114.688 11.256C115.008 11.128 115.355 10.936 115.728 10.68L116.768 12.088C115.776 12.8773 114.672 13.272 113.456 13.272C112.08 13.272 111.024 12.8666 110.288 12.056C109.552 11.2453 109.184 10.1573 109.184 8.79196C109.184 7.92796 109.339 7.15462 109.648 6.47196C109.957 5.77862 110.411 5.23462 111.008 4.83996C111.605 4.43462 112.32 4.23196 113.152 4.23196C114.379 4.23196 115.339 4.61596 116.032 5.38396C116.725 6.15196 117.072 7.21862 117.072 8.58396ZM114.592 7.86396C114.571 6.56262 114.112 5.91196 113.216 5.91196C112.779 5.91196 112.437 6.07196 112.192 6.39196C111.957 6.71196 111.813 7.23996 111.76 7.97596H114.592V7.86396Z" fill="#444444"/>
<path d="M123.468 4.23196C124.204 4.23196 124.78 4.45596 125.196 4.90396C125.612 5.35196 125.82 5.98129 125.82 6.79196V13H123.292V7.22396C123.292 6.79729 123.223 6.50396 123.084 6.34396C122.956 6.17329 122.759 6.08796 122.492 6.08796C121.98 6.08796 121.489 6.45596 121.02 7.19196V13H118.492V4.50396H120.7L120.876 5.51196C121.239 5.08529 121.628 4.76529 122.044 4.55196C122.471 4.33862 122.945 4.23196 123.468 4.23196Z" fill="#444444"/>
<path d="M133.054 12.6C132.745 12.8133 132.382 12.9786 131.966 13.096C131.561 13.2133 131.156 13.272 130.75 13.272C128.894 13.2613 127.966 12.2373 127.966 10.2V6.26396H126.766V4.50396H127.966V2.66396L130.494 2.37596V4.50396H132.446L132.174 6.26396H130.494V10.168C130.494 10.5626 130.558 10.8453 130.686 11.016C130.814 11.1866 131.017 11.272 131.294 11.272C131.582 11.272 131.886 11.1813 132.206 11L133.054 12.6Z" fill="#444444"/>
</svg>
