<?xml version="1.0" encoding="UTF-8"?>
<!-- Generator: Adobe Illustrator 21.0.2, SVG Export Plug-In . SVG Version: 6.00 Build 0)  -->
<svg version="1.1" id="Layer_1" xmlns="http://www.w3.org/2000/svg" xmlns:xlink="http://www.w3.org/1999/xlink" x="0px" y="0px" viewBox="0 0 122.2 30.4" style="enable-background:new 0 0 122.2 30.4;" xml:space="preserve">
<style type="text/css">
	.st0{fill:#32373C;}
</style>
<g id="Logotype">
	<g id="Wordmark">
		<path class="st0" d="M64.9,12.2h-4.6v0.5c1.4,0,1.7,0.3,1.7,2.1v3.3c0,1.8-0.2,2.2-1.7,2.2c-1.1-0.2-1.9-0.8-2.9-1.9l-1.2-1.3    c1.6-0.3,2.5-1.3,2.5-2.4c0-1.4-1.2-2.5-3.5-2.5h-4.6v0.5c1.4,0,1.7,0.3,1.7,2.1v3.3c0,1.8-0.2,2.2-1.7,2.2v0.5h5.1v-0.5    c-1.4,0-1.7-0.3-1.7-2.2v-0.9h0.4l2.9,3.6h7.5c3.7,0,5.3-2,5.3-4.3C70.2,14.2,68.6,12.2,64.9,12.2z M54.1,16.4V13h1.1    c1.2,0,1.7,0.8,1.7,1.7c0,0.9-0.5,1.7-1.7,1.7H54.1z M65,20h-0.2c-0.9,0-1.1-0.2-1.1-1.4V13c0,0,1.1,0,1.2,0c2.7,0,3.2,2,3.2,3.5    C68.2,18.1,67.7,20,65,20z"/>
		<path class="st0" d="M36.2,17.4l1.8-5.3c0.5-1.5,0.3-2-1.4-2V9.6h4.9v0.5c-1.6,0-2,0.4-2.7,2.3l-2.9,8.8h-0.3l-2.6-8.1l-2.7,8.1    h-0.3L27,12.4c-0.6-1.9-1-2.3-2.5-2.3V9.6h5.7v0.5c-1.5,0-1.9,0.4-1.4,2l1.7,5.3l2.6-7.8h0.5L36.2,17.4z"/>
		<path class="st0" d="M45,21.2c-2.8,0-5.2-2.1-5.2-4.7c0-2.5,2.3-4.6,5.2-4.6c2.8,0,5.2,2.1,5.2,4.6C50.2,19.1,47.8,21.2,45,21.2z     M45,12.7c-2.4,0-3.2,2.1-3.2,3.8c0,1.7,0.8,3.8,3.2,3.8c2.4,0,3.2-2.1,3.2-3.8C48.2,14.8,47.4,12.7,45,12.7z"/>
		<path class="st0" d="M76.6,20.3v0.5h-5.9v-0.5c1.7,0,2-0.4,2-3v-4.1c0-2.6-0.3-3-2-3V9.6H76c2.7,0,4.1,1.4,4.1,3.2    c0,1.8-1.5,3.2-4.1,3.2h-1.5v1.3C74.6,19.9,74.9,20.3,76.6,20.3z M76,10.6h-1.5v4.5H76c1.4,0,2.1-1,2.1-2.2    C78.1,11.6,77.5,10.6,76,10.6z"/>
		<path class="st0" d="M97.9,18.4l-0.1,0.5c-0.2,0.9-0.5,1.2-2.4,1.2h-0.4c-1.3,0-1.6-0.3-1.6-2.1v-1.2c2,0,2.2,0.2,2.2,1.5h0.5    v-3.9h-0.5c0,1.3-0.2,1.5-2.2,1.5V13h1.4c1.8,0,2.1,0.3,2.4,1.2l0.1,0.5h0.4l-0.2-2.4H90v0.5c1.4,0,1.7,0.3,1.7,2.1v3.3    c0,1.7-0.2,2.1-1.3,2.2c-1.1-0.2-1.8-0.8-2.9-1.9l-1.2-1.3c1.6-0.3,2.5-1.3,2.5-2.4c0-1.4-1.2-2.5-3.5-2.5h-4.6v0.5    c1.4,0,1.7,0.3,1.7,2.1v3.3c0,1.8-0.2,2.2-1.7,2.2v0.5h5.1v-0.5c-1.4,0-1.7-0.3-1.7-2.2v-0.9h0.4l2.9,3.6h10.6l0.2-2.4H97.9z     M84.2,16.4V13h1.1c1.2,0,1.7,0.8,1.7,1.7c0,0.9-0.5,1.7-1.7,1.7H84.2z"/>
		<path class="st0" d="M103.2,21.2c-1,0-1.9-0.5-2.3-0.9c-0.1,0.1-0.4,0.5-0.4,0.9H100v-3.6h0.5c0.2,1.7,1.4,2.7,2.9,2.7    c0.8,0,1.5-0.5,1.5-1.2c0-0.7-0.6-1.2-1.7-1.7l-1.5-0.7c-1-0.5-1.8-1.3-1.8-2.5c0-1.2,1.2-2.3,2.8-2.3c0.9,0,1.6,0.3,2,0.7    c0.1-0.1,0.3-0.4,0.3-0.7h0.5v3.1H105c-0.2-1.2-0.9-2.2-2.2-2.2c-0.7,0-1.4,0.4-1.4,1.1c0,0.7,0.5,1,1.8,1.6l1.4,0.7    c1.2,0.6,1.7,1.6,1.7,2.3C106.3,20,104.9,21.2,103.2,21.2z"/>
		<path class="st0" d="M111,21.2c-1,0-1.9-0.5-2.3-0.9c-0.1,0.1-0.4,0.5-0.4,0.9h-0.5v-3.6h0.5c0.2,1.7,1.4,2.7,2.9,2.7    c0.8,0,1.5-0.5,1.5-1.2c0-0.7-0.6-1.2-1.7-1.7l-1.5-0.7c-1-0.5-1.8-1.3-1.8-2.5c0-1.2,1.2-2.3,2.8-2.3c0.9,0,1.6,0.3,2,0.7    c0.1-0.1,0.3-0.4,0.3-0.7h0.5v3.1h-0.5c-0.2-1.2-0.9-2.2-2.2-2.2c-0.7,0-1.4,0.4-1.4,1.1c0,0.7,0.5,1,1.8,1.6l1.4,0.7    c1.2,0.6,1.7,1.6,1.7,2.3C114.2,20,112.7,21.2,111,21.2z"/>
	</g>
	<g id="W_Mark">
		<path class="st0" d="M11.6,4.3c1.5,0,2.9,0.3,4.3,0.9c0.6,0.3,1.3,0.6,1.9,1c0.6,0.4,1.1,0.8,1.6,1.3c0.5,0.5,0.9,1,1.3,1.6    c0.4,0.6,0.7,1.2,1,1.9c0.6,1.3,0.9,2.8,0.9,4.3s-0.3,2.9-0.9,4.3c-0.3,0.6-0.6,1.3-1,1.9c-0.4,0.6-0.8,1.1-1.3,1.6    c-0.5,0.5-1,0.9-1.6,1.3c-0.6,0.4-1.2,0.7-1.9,1c-1.3,0.6-2.8,0.9-4.3,0.9c-1.5,0-2.9-0.3-4.3-0.9c-0.6-0.3-1.3-0.6-1.9-1    c-0.6-0.4-1.1-0.8-1.6-1.3c-0.5-0.5-0.9-1-1.3-1.6c-0.4-0.6-0.7-1.2-1-1.9c-0.6-1.3-0.9-2.8-0.9-4.3S1,12.3,1.6,11    c0.3-0.6,0.6-1.3,1-1.9C3,8.5,3.4,8,3.9,7.5c0.5-0.5,1-0.9,1.6-1.3c0.6-0.4,1.2-0.7,1.9-1C8.7,4.6,10.2,4.3,11.6,4.3 M11.6,3.6    C5.2,3.6,0,8.8,0,15.2c0,6.4,5.2,11.6,11.6,11.6c6.4,0,11.6-5.2,11.6-11.6C23.3,8.8,18.1,3.6,11.6,3.6L11.6,3.6z"/>
		<path class="st0" d="M1.9,15.2c0,3.8,2.2,7.2,5.5,8.7L2.8,11.3C2.2,12.5,1.9,13.8,1.9,15.2z M18.2,14.7c0-1.2-0.4-2-0.8-2.7    c-0.5-0.8-1-1.5-1-2.3c0-0.9,0.7-1.7,1.6-1.7c0,0,0.1,0,0.1,0c-1.7-1.6-4-2.5-6.6-2.5c-3.4,0-6.4,1.7-8.1,4.4c0.2,0,0.4,0,0.6,0    c1,0,2.6-0.1,2.6-0.1c0.5,0,0.6,0.7,0.1,0.8c0,0-0.5,0.1-1.1,0.1l3.5,10.5l2.1-6.4l-1.5-4.1c-0.5,0-1-0.1-1-0.1    c-0.5,0-0.5-0.8,0.1-0.8c0,0,1.6,0.1,2.6,0.1c1,0,2.6-0.1,2.6-0.1c0.5,0,0.6,0.7,0.1,0.8c0,0-0.5,0.1-1.1,0.1l3.5,10.4l1-3.2    C17.9,16.5,18.2,15.6,18.2,14.7z M11.8,16.1l-2.9,8.5c0.9,0.3,1.8,0.4,2.7,0.4c1.1,0,2.2-0.2,3.2-0.5c0,0,0-0.1-0.1-0.1L11.8,16.1    z M20.2,10.6c0,0.3,0.1,0.6,0.1,1c0,1-0.2,2.1-0.7,3.5l-3,8.6c2.9-1.7,4.8-4.8,4.8-8.4C21.3,13.5,20.9,11.9,20.2,10.6z"/>
	</g>
</g>
</svg>