<?xml version="1.0" encoding="utf-8"?>
<!-- Generator: Adobe Illustrator 21.0.2, SVG Export Plug-In . SVG Version: 6.00 Build 0)  -->
<svg version="1.1" id="Layer_1" xmlns="http://www.w3.org/2000/svg" xmlns:xlink="http://www.w3.org/1999/xlink" x="0px" y="0px"
	 width="22px" height="22px" viewBox="0 0 22 22" style="enable-background:new 0 0 22 22;" xml:space="preserve">
<style type="text/css">
	.st0{fill:#FFFFFF;}
</style>
<g>
	<path class="st0" d="M4.7,10.3H1.5C1.2,10.3,1,10,1,9.8v-1c0-0.3,0.2-0.5,0.5-0.5h3C4.5,9,4.5,9.6,4.7,10.3z M2.1,4.7l0.5-0.9
		C2.7,3.6,3,3.5,3.3,3.7L5.7,5C5.3,5.6,5,6.2,4.8,6.8L2.3,5.4C2,5.3,2,4.9,2.1,4.7z M6.1,13.1C6.2,13.1,6.2,13.2,6.1,13.1l-2.9,1.8
		C3,15,2.7,14.9,2.6,14.7l-0.5-0.9C2,13.6,2,13.3,2.3,13.2l2.8-1.6C5.4,12.1,5.7,12.6,6.1,13.1z M16.5,8.8c0,1.4-0.5,2.7-1.4,3.6
		c-0.5,0.6-1.3,1.8-1.6,2.9c0,0,0,0,0,0h-5c0,0,0,0,0,0c-0.3-1-1.1-2.3-1.6-2.9c-0.8-1-1.4-2.2-1.4-3.6c0-2.9,2.3-5.5,5.5-5.5
		C14,3.3,16.5,5.7,16.5,8.8z M11.5,5.8c0-0.3-0.2-0.5-0.5-0.5c-1.9,0-3.5,1.6-3.5,3.5C7.5,9,7.7,9.3,8,9.3S8.5,9,8.5,8.8
		c0-1.4,1.1-2.5,2.5-2.5C11.3,6.3,11.5,6,11.5,5.8z M8.5,16.3h5l0,1.2c0,0.2-0.1,0.4-0.2,0.6l-0.5,0.8c-0.2,0.2-0.5,0.4-0.8,0.4H10
		c-0.3,0-0.7-0.2-0.8-0.4L8.7,18c-0.1-0.2-0.2-0.4-0.2-0.6L8.5,16.3z M19.9,13.8l-0.5,0.9c-0.1,0.2-0.4,0.3-0.7,0.2l-2.9-1.7
		c0,0,0.1-0.1,0.1-0.1c0.4-0.5,0.7-1,1-1.5l2.9,1.7C20,13.3,20,13.6,19.9,13.8z M17.2,6.8C17,6.2,16.7,5.6,16.3,5l2.4-1.4
		c0.2-0.1,0.5-0.1,0.7,0.2l0.5,0.9C20,4.9,20,5.3,19.7,5.4L17.2,6.8z M21,8.8v1c0,0.3-0.2,0.5-0.5,0.5h-3.2c0.2-1,0.2-1.5,0.2-2h3
		C20.8,8.3,21,8.5,21,8.8z"/>
</g>
</svg>
