<?xml version="1.0" encoding="utf-8"?>
<!-- Generator: Adobe Illustrator 21.0.2, SVG Export Plug-In . SVG Version: 6.00 Build 0)  -->
<svg version="1.1" id="Layer_1" xmlns="http://www.w3.org/2000/svg" xmlns:xlink="http://www.w3.org/1999/xlink" x="0px" y="0px"
	 width="155px" height="155px" viewBox="0 0 155 155" style="enable-background:new 0 0 155 155;" xml:space="preserve">
<style type="text/css">
	.st0{fill:url(#SVGID_1_);}
	.st1{fill:#FFFFFF;}
</style>
<linearGradient id="SVGID_1_" gradientUnits="userSpaceOnUse" x1="77.5" y1="-96" x2="77.5" y2="59" gradientTransform="matrix(1 0 0 1 0 96)">
	<stop  offset="0" style="stop-color:#1269EA"/>
	<stop  offset="1" style="stop-color:#144EA5"/>
</linearGradient>
<circle class="st0" cx="77.5" cy="77.5" r="77.5"/>
<g>
	<path class="st1" d="M77.5,95.3c2.1,0,3.9-1.7,3.9-3.9c0-2.1-1.7-3.9-3.9-3.9c-2.1,0-3.9,1.7-3.9,3.9
		C73.6,93.5,75.4,95.3,77.5,95.3z M75.6,91.4c0-1.1,0.9-1.9,1.9-1.9c1.1,0,1.9,0.9,1.9,1.9s-0.9,1.9-1.9,1.9
		C76.4,93.3,75.6,92.4,75.6,91.4z"/>
	<path class="st1" d="M112.4,46.6c-1-1-2.3-1.6-3.8-1.6h-8.3v-9.5c0-1.9-1.6-3.5-3.5-3.5h-17c-1.9,0-3.5,1.6-3.5,3.5v15.8l-4,1.7
		h-5.9l-4.3-3.6l-2.3-6.2c-0.2-0.5-0.7-0.8-1.2-0.7l-3.2,0.8c-0.3,0.1-0.5,0.3-0.7,0.5c-0.1,0.3-0.2,0.6-0.1,0.8l0.1,0.3h-8.4
		c-2.9,0-5.3,2.4-5.3,5.3v44.8c0,2.9,2.4,5.3,5.3,5.3h21.3l-2.3,6.5h-0.1c-2.3,0-4.2,1.9-4.2,4.2v2.9c0,0.5,0.4,1,1,1h30.7
		c0.5,0,1-0.4,1-1v-2.9c0-2.3-1.9-4.2-4.2-4.2h-0.1l-2.3-6.5h21.3c2.9,0,5.3-2.4,5.3-5.3V50.4C114,48.9,113.4,47.6,112.4,46.6z
		 M63.1,111.2c0-1.2,1-2.2,2.2-2.2h24.3c1.2,0,2.2,1,2.2,2.2v1.9H63.1V111.2z M67.5,107l2.3-6.5h15.5l2.3,6.5H67.5z M54.7,90
		c0-0.5-0.4-1-1-1H43v-3.6h69v9.7c0,1.9-1.5,3.4-3.4,3.4H46.3c-1.9,0-3.4-1.5-3.4-3.4V91h10.8C54.3,91,54.7,90.5,54.7,90z M100.4,47
		h8.3c1.9,0,3.4,1.5,3.4,3.4v10.8h-7.3c-0.5,0-1,0.4-1,1s0.4,1,1,1h7.3v20.3H99.6v-6.7c0-0.3-0.1-0.5-0.3-0.7l-1-1
		c0.4-0.7,0.5-1.5,0.5-2.3c0-2.6-2-4.8-4.6-5.1c-0.8-2-2.6-3.3-4.7-3.3c-1.6,0-3,0.7-4,2c-1-1.2-2.4-2-4-2c-1.6,0-3,0.7-4,2
		c-0.5-0.7-1.2-1.2-2.1-1.6v-6l1.5-0.7c0.6,1.2,1.8,1.9,3.1,1.9h17c1.9,0,3.5-1.6,3.5-3.5V47z M70.9,67.8c0.6-0.8,1.5-1.3,2.5-1.3
		c1,0,2,0.5,2.5,1.4c-1,0.3-1.8,0.9-2.4,1.7C72.8,68.7,71.9,68.1,70.9,67.8z M72.4,72.7c0,1.6-1.3,3-3,3c-1.6,0-3-1.3-3-3
		c0-1.6,1.3-3,3-3C71.1,69.7,72.4,71,72.4,72.7z M65.4,69.6c-0.6-0.8-1.5-1.4-2.5-1.7c0.5-0.8,1.5-1.4,2.5-1.4c1,0,1.9,0.5,2.5,1.4
		C66.9,68.1,66,68.7,65.4,69.6z M74.5,72.7c0-1.6,1.3-3,3-3c1.6,0,3,1.3,3,3c0,1.6-1.3,3-3,3C75.9,75.7,74.5,74.3,74.5,72.7z
		 M78.9,67.8c0.6-0.8,1.5-1.3,2.5-1.3c1,0,2,0.5,2.5,1.4c-0.9,0.3-1.8,0.9-2.4,1.7C80.9,68.7,80,68.1,78.9,67.8z M82.6,72.7
		c0-1.6,1.3-3,3-3c1.6,0,3,1.3,3,3c0,1.6-1.3,3-3,3C83.9,75.7,82.6,74.3,82.6,72.7z M86.9,67.8c0.6-0.8,1.5-1.3,2.4-1.3
		c1,0,2,0.6,2.5,1.4c-0.9,0.3-1.7,0.9-2.3,1.7C88.9,68.7,88,68,86.9,67.8z M90.7,72.7c0-1.6,1.3-3,3-3c1.6,0,3,1.3,3,3
		c0,1.6-1.3,3-3,3C92,75.7,90.7,74.3,90.7,72.7z M61.3,75.7c-1.6,0-3-1.3-3-3c0-1.6,1.3-3,3-3c1.6,0,3,1.3,3,3
		C64.3,74.3,63,75.7,61.3,75.7z M98.3,56.5c0,0.8-0.6,1.4-1.4,1.4h-17c-0.5,0-1-0.3-1.2-0.8l2.5-1.3c0.1-0.1,0.2-0.1,0.3-0.2
		l5.7-5.7c0.4-0.4,0.4-1.1,0-1.5l-2.4-2.4c-0.4-0.4-1-0.4-1.4-0.1l-4.7,4V35.5c0-0.8,0.6-1.4,1.4-1.4h17c0.8,0,1.4,0.6,1.4,1.4V56.5
		z M79,52.5l4.9-4.2l1,1L80.1,54l-6.3,3.2c-0.4,0.2-0.6,0.5-0.6,0.9v6.2c-1.5,0.1-2.9,0.8-3.8,2c-0.9-1.2-2.3-1.9-3.8-2v-6.2
		c0-0.3-0.1-0.6-0.3-0.7L59,51.1l-2-6l1.2-0.3l2.1,5.6c0.1,0.2,0.2,0.3,0.3,0.4l4.8,4c0.2,0.2,0.4,0.2,0.7,0.2h6.5
		c0.1,0,0.3,0,0.4-0.1l5.7-2.4C78.8,52.6,78.9,52.5,79,52.5z M57.5,77.2l0.6-0.6c0.9,0.8,2.1,1.2,3.2,1.2c1.6,0,3.1-0.7,4-2
		c1,1.3,2.5,2,4,2c1.6,0,3.1-0.7,4-2c1,1.3,2.5,2,4,2c1.6,0,3.1-0.7,4-2c1,1.3,2.5,2,4,2c1.6,0,3.1-0.7,4-2c1,1.3,2.5,2,4,2
		c1.2,0,2.3-0.4,3.2-1.2l0.5,0.6v6.3H57.5V77.2z M57.4,52.4l6.2,6.2v6.1c-1.3,0.5-2.4,1.6-2.9,2.9c-2.5,0.4-4.4,2.5-4.4,5
		c0,0.8,0.2,1.6,0.5,2.3l-1,1c-0.2,0.2-0.3,0.5-0.3,0.7v6.7H43V54.4h9.7c0.5,0,1-0.4,1-1c0-0.5-0.4-1-1-1H43v-2.1
		c0-1.9,1.5-3.4,3.4-3.4h9.1l1.7,5C57.2,52.2,57.2,52.3,57.4,52.4z"/>
	<path class="st1" d="M64.3,46.8c0,2.8,2.3,5.1,5.1,5.1c2.8,0,5.1-2.3,5.1-5.1c0-2.8-2.3-5.1-5.1-5.1C66.6,41.7,64.3,44,64.3,46.8z
		 M66.4,46.8c0-1.6,1.3-3,3-3c1.6,0,3,1.3,3,3c0,1.6-1.3,3-3,3C67.8,49.8,66.4,48.5,66.4,46.8z"/>
	<polygon class="st1" points="67.6,58.4 68.4,58.4 68.4,64.8 70.5,64.8 70.5,58.4 71.3,58.4 71.3,56.3 67.6,56.3 	"/>
	<path class="st1" d="M96.1,36.1H88c-0.6,0-1.1,0.5-1.1,1.1v3.2c0,0.6,0.5,1.1,1.1,1.1h3v1.6l-2.8,2.1c-0.3,0.2-0.4,0.5-0.4,0.8
		c0,0.3,0.2,0.6,0.4,0.8L91,49v1.6h-2.2c-0.4,0-0.8,0.2-1,0.6l-1.6,3.2c-0.2,0.3-0.1,0.7,0,1c0.2,0.3,0.5,0.5,0.9,0.5h7.3
		c0.4,0,0.8-0.2,0.9-0.6l1.6-3.2c0.2-0.3,0.1-0.7,0-1c-0.2-0.3-0.5-0.5-0.9-0.5h-3V49l2.8-2.1c0.3-0.2,0.4-0.5,0.4-0.8
		c0-0.3-0.2-0.7-0.4-0.8l-2.8-2.1v-1.6h3c0.6,0,1.1-0.5,1.1-1.1v-3.2C97.1,36.5,96.7,36.1,96.1,36.1z M88.9,53.8l0.6-1.1h4.9
		l-0.6,1.1H88.9z M93.5,46L92,47.1L90.6,46l1.5-1.1L93.5,46z M95,38.2v1.1h-6v-1.1H95z"/>
	<path class="st1" d="M59.7,40.6H60l2.1,2.8c0.2,0.3,0.5,0.4,0.8,0.4c0.1,0,0.2,0,0.3-0.1c0.4-0.1,0.7-0.5,0.7-1v-2.2h4.6
		c1.5,0,2.7-1.2,2.7-2.7v-3.2c0-1.5-1.2-2.7-2.7-2.7h-8.9c-1.5,0-2.7,1.2-2.7,2.7v3.2C57,39.4,58.2,40.6,59.7,40.6z M59.2,37.9v-3.2
		c0-0.3,0.3-0.6,0.6-0.6h8.9c0.3,0,0.6,0.2,0.6,0.6v3.2c0,0.3-0.2,0.6-0.6,0.6H63c-0.6,0-1.1,0.5-1.1,1.1v0.1l-0.5-0.7
		c-0.2-0.3-0.5-0.4-0.8-0.4h-0.8C59.4,38.5,59.2,38.2,59.2,37.9z"/>
	<rect x="60.3" y="35.3" class="st1" width="7.8" height="2.1"/>
	<rect x="79.7" y="36.1" class="st1" width="6.2" height="2.1"/>
	<rect x="79.7" y="39.3" class="st1" width="6.2" height="2.1"/>
	<rect x="79.7" y="42.5" class="st1" width="6.2" height="2.1"/>
	<rect x="98.3" y="61.1" class="st1" width="2.1" height="2.1"/>
	<rect x="95" y="61.1" class="st1" width="2.1" height="2.1"/>
	<rect x="91.8" y="61.1" class="st1" width="2.1" height="2.1"/>
</g>
</svg>
