<?xml version="1.0" encoding="utf-8"?>
<!-- Generator: Adobe Illustrator 21.0.2, SVG Export Plug-In . SVG Version: 6.00 Build 0)  -->
<svg version="1.1" id="Layer_1" xmlns="http://www.w3.org/2000/svg" xmlns:xlink="http://www.w3.org/1999/xlink" x="0px" y="0px"
	 width="155px" height="155px" viewBox="0 0 155 155" style="enable-background:new 0 0 155 155;" xml:space="preserve">
<style type="text/css">
	.st0{fill:url(#SVGID_1_);}
	.st1{fill:#FFFFFF;}
</style>
<linearGradient id="SVGID_1_" gradientUnits="userSpaceOnUse" x1="77.5" y1="252" x2="77.5" y2="97" gradientTransform="matrix(1 0 0 -1 0 252)">
	<stop  offset="0" style="stop-color:#1269EA"/>
	<stop  offset="1" style="stop-color:#144EA5"/>
</linearGradient>
<circle class="st0" cx="77.5" cy="77.5" r="77.5"/>
<g>
	<path class="st1" d="M108.6,45H84.8l-3.4-6.8c0.5-0.7,0.9-1.7,0.9-2.6c0-1.2-0.5-2.4-1.4-3.3s-2-1.4-3.3-1.4
		c-1.2,0-2.4,0.5-3.3,1.4l-6.9,6.9c-1-0.7-2.2-1.1-3.6-1.1c-1.7,0-3.3,0.7-4.4,1.9c-1.4,1.4-2,3.2-1.8,5H46.3
		c-2.9,0-5.3,2.4-5.3,5.4v44.8c0,3,2.4,5.3,5.3,5.3h21.3l-2.3,6.5h0c-2.3,0-4.1,1.9-4.1,4.2v2.9c0,0.5,0.4,1,1,1h30.7
		c0.5,0,1-0.4,1-1v-2.9c0-2.3-1.9-4.2-4.2-4.2l-2.3-6.5h21.3c3,0,5.4-2.4,5.4-5.3V50.4C114,47.4,111.5,45,108.6,45z M91.8,113.2
		H63.1v-2c0-1.3,1-2.3,2.3-2.3h24.3c1.2,0,2.1,1,2.1,2.3V113.2z M67.5,107l2.3-6.5h15.4l2.3,6.5H67.5z M61.1,41.7
		c0.8-0.8,1.7-1.1,2.8-1.1c0.7,0,1.4,0.2,1.9,0.5l-5.4,5.4C59.6,44.8,59.8,42.9,61.1,41.7z M99.9,68l-2.7,2.7L90,63.4l2.8-2.8
		l5.7,5.7C99.1,66.9,99.5,67.4,99.9,68z M80.2,73.3l0.6-0.6l10.7,10.7H90L80.2,73.3z M79.3,37.3L57.2,59.4c-0.9,0.9-2.4,0.9-3.3,0
		c-0.9-0.9-0.9-2.4,0-3.3L76,34c0.5-0.5,1-0.7,1.6-0.7s1.1,0.2,1.6,0.7s0.7,1,0.7,1.7C80,36.2,79.8,36.8,79.3,37.3z M58.7,48
		l-6.6,6.6c-0.9,0.9-1.3,2-1.3,3.3c0,1.2,0.5,2.4,1.3,3.3c0.9,0.9,2,1.4,3.3,1.4c1.1,0,2.1-0.4,2.9-1.1l4.6,2.3
		c0.2,0.1,0.4,0.1,0.5,0.1c0.4,0,0.8-0.2,1-0.6c0.1-0.2,0.1-0.6,0-0.9s-0.3-0.5-0.6-0.7l-4-1.9l19.6-19.6l4.8,9.6l-4.9,4.9
		c-0.4,0.4-0.4,1.1,0,1.7c0.2,0.2,0.5,0.4,0.8,0.4c0.2,0,0.6-0.1,0.8-0.4l4.3-4.3l0.3,0.5l-2.9,2.9c-0.4,0.4-0.4,1.1,0,1.7
		c0.2,0.2,0.5,0.4,0.8,0.4c0.2,0,0.6-0.1,0.8-0.4l2.3-2.3l0.6,1.1l-4.5,4.7c-0.4,0.4-0.4,1.1,0,1.7c0.2,0.2,0.5,0.4,0.8,0.4
		c0.2,0,0.6-0.1,0.8-0.4l4.2-4.2l1.3,2.5l-9.4,9.3l-13.3-6.6c-0.5-0.3-1.3,0-1.5,0.5c-0.1,0.2-0.1,0.6,0,0.9
		c0.1,0.3,0.3,0.5,0.6,0.7l12.7,6.3l-1.1,1.1c-0.2,0.2-0.4,0.5-0.4,0.8c0,0.2,0.1,0.6,0.4,0.8l3.4,3.4c-0.6,0.5-1.9,1.5-4,2
		c-0.3,0.1-0.6,0.2-0.7,0.5c-0.2,0.2-0.2,0.5-0.1,0.8c0.1,0.5,0.6,0.9,1.1,0.9l0.2,0c2.8-0.5,4.5-1.9,5.1-2.5l3.1,3.1
		c-0.3,0.3-0.6,0.6-0.9,0.9c-0.1,0.1-0.2,0.2-0.2,0.2H69.1l0.3-2.6c1.6,0.6,3.1,1,4.6,1.1c0.6,0,1.1-0.4,1.3-1c0-0.6-0.4-1.2-1-1.3
		c-1.5-0.1-3.1-0.6-5.2-1.5c-0.4-0.1-0.7-0.1-1,0c-0.3,0.2-0.5,0.6-0.6,0.9l-0.6,4.4H45.4v0.1H43V54.4h3.2c0.5,0,0.9-0.4,0.9-1
		s-0.4-0.9-0.9-0.9H43v-2.1c0-1.8,1.5-3.4,3.4-3.4h11.8C58.3,47.4,58.5,47.7,58.7,48z M108.7,47c1.8,0,3.3,1.5,3.3,3.4v5.1H99.3
		c-0.5,0-1,0.4-1,1s0.4,1,1,1H112v25.9H98.2l1.9-1.9c1.4-1.4,2.4-3.1,3.1-5.1l0,0c0.1-0.7-0.2-1.3-0.8-1.4c-0.3-0.1-0.6,0-0.9,0.1
		c-0.3,0.1-0.5,0.4-0.5,0.7c-0.5,1.7-1.4,3.1-2.4,4.1L95,83.3h-0.3L82.4,71.1l6-6l3.5,3.5l-1,1c-0.4,0.4-0.4,1.1,0,1.7
		c0.2,0.2,0.5,0.4,0.8,0.4c0.2,0,0.6-0.1,0.8-0.4l1-1l0.7,0.7l-1,1c-0.4,0.4-0.4,1.1,0,1.7c0.2,0.2,0.5,0.4,0.8,0.4
		c0.2,0,0.6-0.1,0.8-0.4l1-1l0.5,0.5c0.2,0.2,0.5,0.4,0.8,0.4c0.2,0,0.6-0.1,0.8-0.4l2.8-2.8c0.2,0.8,0.4,1.7,0.5,2.5
		c0,0.6,0.5,1.1,1.1,1.1c0.6,0,1.2-0.5,1.2-1.2c-0.1-3-1.3-5.8-3.5-8l-6.4-6.7l0,0c-0.2-0.2-0.5-0.4-0.8-0.4c-0.2,0-0.6,0.1-0.8,0.4
		l-0.4,0.4L85.8,47H108.7z M54.6,90c0-0.5-0.4-1-0.9-1H43v-3.6h69v9.8c0,0.8-0.3,1.6-0.8,2.2c-0.6,0.7-1.5,1.1-2.4,1.1H46.3
		c-1.8,0-3.3-1.5-3.3-3.4V91h10.8C54.2,91,54.6,90.5,54.6,90z"/>
	<path class="st1" d="M77.5,95.2c2.1,0,3.8-1.7,3.8-3.9c0-2.1-1.8-3.8-3.8-3.8c-2.1,0-3.9,1.7-3.9,3.8S75.4,95.2,77.5,95.2z
		 M77.5,89.3c1.1,0,2,0.9,2,2c0,1.1-0.8,2-2,2c-1.1,0-2-0.9-2-2S76.4,89.3,77.5,89.3z"/>
	<path class="st1" d="M58.5,35.8h0.1c0.5,0,1-0.4,1.1-0.9l0.7-3.9c0.1-0.6-0.3-1.2-0.9-1.3c-0.6-0.1-1.2,0.3-1.3,0.9l-0.7,3.9
		C57.4,35.1,57.8,35.6,58.5,35.8z"/>
	<path class="st1" d="M54.2,36.6c0.1,0.4,0.4,0.5,0.8,0.5c0.3,0,0.5-0.1,0.8-0.3c0.2-0.2,0.4-0.5,0.4-0.8c0-0.3-0.1-0.6-0.3-0.8
		L53.2,32c-0.2-0.2-0.5-0.4-0.8-0.4c-0.3,0-0.6,0.1-0.8,0.3c-0.2,0.2-0.4,0.5-0.4,0.8c0,0.3,0.1,0.6,0.3,0.8L54.2,36.6z"/>
	<path class="st1" d="M49.4,40.1l3.9,0.3h0.1c0.7,0,1-0.5,1.1-1.1c0-0.6-0.4-1.1-1-1.2l-3.9-0.3c-0.6,0-1.1,0.4-1.2,1l0,0
		C48.4,39.5,48.7,40,49.4,40.1z"/>
</g>
</svg>
