<?xml version="1.0" encoding="utf-8"?>
<!-- Generator: Adobe Illustrator 21.0.2, SVG Export Plug-In . SVG Version: 6.00 Build 0)  -->
<svg version="1.1" id="Layer_1" xmlns="http://www.w3.org/2000/svg" xmlns:xlink="http://www.w3.org/1999/xlink" x="0px" y="0px"
	 width="155px" height="155px" viewBox="0 0 155 155" style="enable-background:new 0 0 155 155;" xml:space="preserve">
<style type="text/css">
	.st0{fill:url(#SVGID_1_);}
	.st1{fill:#FFFFFF;}
</style>
<linearGradient id="SVGID_1_" gradientUnits="userSpaceOnUse" x1="77.5" y1="252" x2="77.5" y2="97" gradientTransform="matrix(1 0 0 -1 0 252)">
	<stop  offset="0" style="stop-color:#1269EA"/>
	<stop  offset="1" style="stop-color:#144EA5"/>
</linearGradient>
<circle class="st0" cx="77.5" cy="77.5" r="77.5"/>
<g>
	<path class="st1" d="M77.5,95.2c2.1,0,3.8-1.7,3.8-3.9c0-2.1-1.8-3.8-3.8-3.8c-2.1,0-3.9,1.7-3.9,3.8S75.4,95.2,77.5,95.2z
		 M77.5,89.3c1.1,0,2,0.9,2,2c0,1.1-0.8,2-2,2c-1.1,0-2-0.9-2-2S76.4,89.3,77.5,89.3z"/>
	<path class="st1" d="M108.6,45H91.2c-0.3-2.2-2.2-3.8-4.5-3.8h-0.3V41c0-2.6-2-4.5-4.5-4.5h-0.3v-0.3c0-2.6-2-4.6-4.6-4.6
		c-1.3,0-2.4,0.5-3.2,1.4l-0.7-0.6l-3.5-3.6c-1.3-1.3-3.5-1.3-4.9,0L53,40.5c-1.2,1.3-1.3,3.2-0.3,4.5h-6.5c-2.9,0-5.3,2.4-5.3,5.4
		v44.8c0,3,2.4,5.3,5.3,5.3h21.3l-2.3,6.5h0c-2.3,0-4.1,1.9-4.1,4.2v2.9c0,0.5,0.4,1,1,1h30.7c0.5,0,1-0.4,1-1v-2.9
		c0-2.3-1.9-4.2-4.2-4.2l-2.3-6.5h21.3c3,0,5.4-2.4,5.4-5.3V50.4C114,47.4,111.5,45,108.6,45z M91.8,113.2H63.1v-2
		c0-1.3,1-2.3,2.3-2.3h24.3c1.2,0,2.1,1,2.1,2.3V113.2z M67.5,107l2.3-6.5h15.4l2.3,6.5H67.5z M64,38.4c0.2-0.2,0.3-0.5,0.3-0.8
		c0-0.3-0.1-0.6-0.4-0.9c-0.5-0.5-1.3-0.5-1.8,0l-1.9,1.9c-0.5,0.5-0.5,1.3,0,1.8c0.3,0.2,0.6,0.3,0.8,0.3c0.3,0,0.6-0.1,0.9-0.4
		l0.8-0.8l-6.1,6.2l-2-2.1l0,0c-0.4-0.4-0.4-1,0-1.4l11.8-11.8c0,0,0.1-0.1,0.2-0.1c0.1,0,0.1-0.1,0.2-0.1h0.7c0,0,0.1,0.1,0.2,0.1
		c0.1,0,0.1,0.1,0.2,0.1l2,2L64,38.4z M75.4,34.7c0.4-0.4,1-0.6,1.6-0.6c1.2,0,2.2,1,2.2,2.2c0,0.6-0.2,1.1-0.6,1.6L75.4,34.7z
		 M80.2,39.4c0.4-0.4,0.9-0.6,1.5-0.6c1.2,0.1,2.2,1,2.2,2.2c0,0.6-0.2,1.1-0.6,1.6L80.2,39.4z M85,44.2c0.4-0.4,0.9-0.6,1.6-0.6
		c1.2,0,2.2,1,2.2,2.2c0,0.6-0.2,1.1-0.6,1.6L85,44.2z M98.3,56.5c0,0.5,0.4,1,1,1H112v25.9H94.8V72.8H93v-2.5
		c1.8-1.6,2.9-3.9,2.9-6.3c0-1.7-0.5-3.3-1.4-4.6l0.3-0.3c0.8-0.8,1.2-1.6,1.2-2.5c0-0.9-0.3-1.7-1-2.4l-0.3-0.3
		c0.9-0.9,1.4-2,1.4-3.2c0-1.5-0.7-2.7-1.7-3.6h14.4c1.8,0,3.3,1.5,3.3,3.4v5.1H99.3C98.8,55.5,98.3,56,98.3,56.5z M85.8,60.5
		c0,0.9-0.7,1.6-1.6,1.6c-0.9,0-1.7-0.7-1.7-1.6s0.7-1.6,1.7-1.6C85.1,58.9,85.8,59.6,85.8,60.5z M81,80.2c0,0.5-0.5,1.1-1.1,1.1
		c-0.7,0-1.2-0.5-1.2-1.1c0-0.7,0.5-1.2,1.2-1.2C80.6,79,81,79.5,81,80.2z M83.5,80.1c0-1.9-1.6-3.5-3.5-3.5c-1.9,0-3.6,1.6-3.6,3.5
		c0,1.4,0.8,2.6,2,3.2H72v-8.1h7.9c2.8,0,5,2.3,5,5.1v3h-3.5C82.6,82.7,83.5,81.5,83.5,80.1z M91,68.7l-0.5,0.4v3.7H74v-2.5
		l-0.4-0.4c0,0-0.1-0.1-0.3-0.2l-8-8h4.2l8.9,8.9c0.6,0.6,1.5,1,2.4,1c0.9,0,1.8-0.3,2.4-1l9.6-9.7c0.5,0.9,0.7,1.9,0.7,2.9
		C93.5,65.8,92.6,67.5,91,68.7z M73.2,59.5h-9.6c-1.2,0-2.1-1-2.1-2.2c0-1.1,0.8-2,1.7-2.1h10.1c1.2,0,2.1,1,2.1,2.1
		S74.4,59.5,73.2,59.5z M92.5,83.3h-5.2v-3c0-1.9-0.7-3.7-2-5.1h7.2V83.3z M93.2,57.2l-5.6,5.6c0.4-0.6,0.7-1.4,0.7-2.2
		c0-2.2-1.8-4.1-4-4.1s-4,1.8-4,4.1c0,2.2,1.9,4,4,4c0.8,0,1.6-0.2,2.2-0.7l-5,4.9c-0.4,0.4-1,0.4-1.4,0l-7.2-7.2h0.4
		c2.6,0,4.5-2,4.5-4.5c0-2.6-2-4.6-4.5-4.6h-9.5l-5.2-5.2l13.2-13.1l21.5,21.5C93.6,56.2,93.6,56.8,93.2,57.2z M89.8,49
		c0.4-0.4,0.9-0.6,1.6-0.6c1.1,0,2,1,2,2.1c0,0.6-0.2,1.1-0.6,1.6L89.8,49z M59,57.2c0,1.5,0.7,2.9,2,3.8c0,0,0,0,0,0.1
		c0,0,0.1,0.1,0.2,0.2l10.2,10.1v1.4h-1.9v10.6H45.4v0.1H43V54.4h15.3c0.5,0,1-0.4,1-1s-0.4-0.9-1-0.9H43v-2.1
		c0-1.8,1.5-3.4,3.3-3.4h8.4l6.4,6.4C59.8,54.3,59,55.7,59,57.2z M54.6,90c0-0.5-0.4-1-0.9-1H43v-3.6h69v9.8c0,0.8-0.3,1.6-0.8,2.2
		c-0.6,0.7-1.5,1.1-2.4,1.1H46.3c-1.8,0-3.3-1.5-3.3-3.4V91h10.8C54.2,91,54.6,90.5,54.6,90z"/>
</g>
</svg>
