<?xml version="1.0" encoding="utf-8"?>
<!-- Generator: Adobe Illustrator 21.0.2, SVG Export Plug-In . SVG Version: 6.00 Build 0)  -->
<svg version="1.1" id="Layer_1" xmlns="http://www.w3.org/2000/svg" xmlns:xlink="http://www.w3.org/1999/xlink" x="0px" y="0px"
	 width="155px" height="155px" viewBox="0 0 155 155" style="enable-background:new 0 0 155 155;" xml:space="preserve">
<style type="text/css">
	.st0{fill:url(#SVGID_1_);}
	.st1{fill:#FFFFFF;}
</style>
<linearGradient id="SVGID_1_" gradientUnits="userSpaceOnUse" x1="77.5" y1="252" x2="77.5" y2="97" gradientTransform="matrix(1 0 0 -1 0 252)">
	<stop  offset="0" style="stop-color:#1269EA"/>
	<stop  offset="1" style="stop-color:#144EA5"/>
</linearGradient>
<circle class="st0" cx="77.5" cy="77.5" r="77.5"/>
<g>
	<path class="st1" d="M108.5,45.5H87.1l-0.1-0.6c-1.8-7.5-5.1-13-8.9-15.3c-0.3-0.1-0.7-0.1-0.9,0c-3.9,2.2-7.1,7.8-8.9,15.3
		L68,45.5H46.7c-2.9,0-5.3,2.4-5.3,5.3V95c0,2.9,2.4,5.3,5.3,5.3h21.1l-2.2,6.5h0c-2.3,0-4.1,1.9-4.1,4.2v2.9c0,0.5,0.4,1,0.9,1
		h30.4c0.5,0,1-0.4,1-1v-2.9c0-2.3-1.9-4.2-4.2-4.2l-2.3-6.5h21.2c2.9,0,5.3-2.4,5.3-5.3V50.8C113.8,47.9,111.4,45.5,108.5,45.5z
		 M63.3,110.9c0-1.2,1-2.2,2.1-2.2h24c1.3,0,2.3,0.9,2.3,2.2v1.9H63.3V110.9z M67.6,106.8l2.2-6.5h15.2l2.2,6.5H67.6z M55,89.9
		c0-0.5-0.4-1-1-1H43.4v-3.5h68.3V95c0,1.8-1.5,3.3-3.4,3.3H46.7c-1.8,0-3.4-1.5-3.4-3.3v-4.2H54C54.5,90.8,55,90.4,55,89.9z
		 M65.3,77.8h-4v-1.3c0-5.3,1.7-10.4,4.8-14.1c0.1,4.1,0.5,7.7,1.1,10.6C66.3,74.2,65.6,76.1,65.3,77.8z M93.8,76.7v1h-4.2
		c-0.3-1.4-0.9-3.4-1.9-4.8c0.6-3.3,0.9-7.1,1.1-10.6C92,66.4,93.8,71.4,93.8,76.7z M49.4,80.1c0.2-0.2,0.3-0.7,0.3-0.9
		c0-2.2,1.4-4.2,3.5-4.9c0.2-0.1,0.4-0.3,0.5-0.5c0.9-1.9,2.6-3,4.6-3c0.6,0,1.1,0.1,1.6,0.3c-0.4,1.8-0.6,3.5-0.6,5.4
		c0,0.6,0,1.5,0.1,2.2c0,0.5,0.4,1.3,0.9,1.3h5v0.8c0,0.3,0.2,0.8,1,0.8h22.6c0.5,0,1-0.4,1-1v-0.8h5c0.6,0,1-0.7,0.9-1.2
		c0.1-0.7,0.1-1.5,0.1-2c0-2-0.2-3.9-0.6-5.5c0.4-0.1,0.9-0.2,1.3-0.2c1.9,0,3.7,1.1,4.6,2.9c0.1,0.2,0.3,0.4,0.5,0.5
		c2.1,0.7,3.4,2.5,3.4,4.8c0,0.1,0.1,0.9,0.3,1.1c0.9,0.8,1.5,1.9,1.7,3.4H47.7C47.9,82,48.5,80.9,49.4,80.1z M77.7,69.4
		c5.4,0,10,4.6,10.1,9.8l0,0.2H67.5v-0.6C67.5,73.6,72.2,69.4,77.7,69.4z M85.9,70.8c-2.3-2.2-5.3-3.4-8.4-3.4
		c-3.2,0-6.1,1.2-8.4,3.4c-0.5-3.4-0.8-6.8-0.8-10.4c0-6.9,1-13.4,2.9-18.7l0,0c1.6-4.7,3.9-8.3,6.4-9.9c2.4,1.6,4.7,5.1,6.4,9.9
		c1.9,5.4,2.9,11.8,2.9,18.7C86.8,64,86.5,67.4,85.9,70.8z M108.4,47.5c1.8,0,3.3,1.5,3.3,3.4V56H99c-0.5,0-1,0.4-1,1s0.4,1,1,1
		h12.7v25.6h-1.5v-0.1h-1.3c-0.2-1.4-0.8-3.3-2-4.6c-0.1-2.8-1.9-5.3-4.4-6.2c-1.2-2.2-3.6-3.7-6.2-3.7c-0.6,0-1.2,0.1-1.8,0.2
		c-1.1-3.6-3.1-6.9-5.9-9.7c-0.1-4.1-0.5-8.1-1.2-11.9H108.4z M66.4,59.5c-2.8,2.8-4.8,6.2-5.9,9.8c-0.8-0.3-1.6-0.4-2.2-0.4
		c-2.6,0-4.9,1.4-6.2,3.7c-2.4,1-4.2,3.7-4.4,6.4c-1.1,1.2-1.8,2.9-2,4.6h-1.2v0.1h-1.1V54.8h15c0.5,0,1-0.4,1-1s-0.4-0.9-1-0.9h-15
		v-2.1c0-1.8,1.5-3.3,3.4-3.3h20.9C66.8,51.3,66.4,55.3,66.4,59.5z"/>
	<path class="st1" d="M77.5,95.2c2.1,0,3.8-1.7,3.8-3.9c0-2.1-1.8-3.8-3.8-3.8c-2.1,0-3.9,1.7-3.9,3.8S75.4,95.2,77.5,95.2z
		 M77.5,89.5c1,0,1.8,0.8,1.8,1.9c0,1-0.8,1.8-1.8,1.8c-1,0-1.9-0.8-1.9-1.8C75.6,90.4,76.5,89.5,77.5,89.5z"/>
	<path class="st1" d="M77.5,40.6c-2.4,0-4.4,1.9-4.4,4.4s1.9,4.4,4.4,4.4s4.3-1.9,4.3-4.4S79.9,40.6,77.5,40.6z M77.5,47.5
		c-1.4,0-2.5-1.1-2.5-2.5s1.1-2.5,2.5-2.5c1.4,0,2.5,1.1,2.5,2.5S78.9,47.5,77.5,47.5z"/>
</g>
</svg>
