<?xml version="1.0" encoding="utf-8"?>
<!-- Generator: Adobe Illustrator 21.0.2, SVG Export Plug-In . SVG Version: 6.00 Build 0)  -->
<svg version="1.1" id="Layer_1" xmlns="http://www.w3.org/2000/svg" xmlns:xlink="http://www.w3.org/1999/xlink" x="0px" y="0px"
	 width="35px" height="35px" viewBox="44 -2.5 35 35" enable-background="new 44 -2.5 35 35" xml:space="preserve">
<g>
	<g>
		<path fill="#6E8999" d="M71.495,10.735c-0.072-5.468-4.326-9.893-9.544-9.893c-2.322,0-4.558,0.887-6.298,2.499
			c-1.553,1.438-2.614,3.36-3.035,5.471c-0.031,0-0.061-0.001-0.092-0.001c-4.459,0-8.086,3.813-8.086,8.499
			c0,4.686,3.628,8.499,8.086,8.499h5.648c0.402,0,0.728-0.342,0.728-0.765c0-0.422-0.326-0.765-0.728-0.765h-5.648
			c-3.656,0-6.631-3.126-6.631-6.969c0-3.843,2.975-6.969,6.631-6.969c0.195,0,0.401,0.011,0.63,0.034
			c0.388,0.038,0.737-0.252,0.789-0.658c0.262-2.018,1.21-3.875,2.67-5.228c1.473-1.365,3.368-2.117,5.335-2.117
			c4.461,0,8.09,3.814,8.09,8.502c0,0.169-0.012,0.343-0.024,0.527l-0.006,0.078c-0.015,0.225,0.065,0.446,0.219,0.603
			c0.154,0.157,0.366,0.235,0.58,0.212c0.194-0.02,0.389-0.031,0.58-0.031c3.152,0,5.716,2.695,5.716,6.008
			c0,3.313-2.564,6.008-5.716,6.008H65.45c-0.402,0-0.728,0.343-0.728,0.765c0,0.422,0.326,0.765,0.728,0.765h5.939
			c3.955,0,7.172-3.381,7.172-7.538C78.561,14.153,75.4,10.795,71.495,10.735L71.495,10.735z M71.495,10.735"/>
	</g>
	<g>
		<path fill="#6E8999" d="M61.95,4.437c-3.043,0-5.648,2.39-6.059,5.559c-0.054,0.419,0.225,0.804,0.623,0.861
			c0.034,0.005,0.067,0.007,0.099,0.007c0.358,0,0.671-0.278,0.72-0.662c0.313-2.415,2.298-4.236,4.617-4.236
			c0.402,0,0.728-0.343,0.728-0.765C62.678,4.779,62.352,4.437,61.95,4.437L61.95,4.437z M61.95,4.437"/>
	</g>
	<g>
		<path fill="#6E8999" d="M65.26,19.486l-2.647-2.485c-0.456-0.429-1.145-0.429-1.601,0l-2.647,2.485
			c-0.3,0.281-0.326,0.765-0.058,1.08c0.268,0.315,0.727,0.343,1.027,0.061l1.75-1.643v9.409c0,0.422,0.326,0.765,0.728,0.765
			c0.402,0,0.728-0.343,0.728-0.765v-9.409l1.75,1.643c0.139,0.13,0.312,0.194,0.485,0.194c0.2,0,0.399-0.086,0.543-0.255
			C65.585,20.251,65.559,19.767,65.26,19.486L65.26,19.486z M65.26,19.486"/>
	</g>
</g>
</svg>
