<?xml version="1.0" encoding="utf-8"?>
<!-- Generator: Adobe Illustrator 21.0.2, SVG Export Plug-In . SVG Version: 6.00 Build 0)  -->
<svg version="1.1" id="Layer_1" xmlns="http://www.w3.org/2000/svg" xmlns:xlink="http://www.w3.org/1999/xlink" x="0px" y="0px"
	 width="35px" height="35px" viewBox="86.5 -2.5 35 35" enable-background="new 86.5 -2.5 35 35" xml:space="preserve">
<g>
	<path fill="#6E8999" d="M109.849,17.934v-5.211c0-0.072-0.01-0.142-0.029-0.208c-0.001-0.001-0.02-0.048-0.02-0.049
		c-0.012-0.04-0.028-0.079-0.046-0.115c-0.005-0.011-0.048-0.07-0.055-0.08c-0.021-0.032-0.045-0.062-0.082-0.101
		c-0.002-0.002-0.052-0.042-0.054-0.044c-0.023-0.021-0.046-0.04-0.089-0.07l-5.211-3.127c-0.248-0.148-0.555-0.149-0.801,0
		l-5.219,3.132c-0.033,0.022-0.062,0.044-0.058,0.045c-0.018,0.012-0.083,0.065-0.097,0.081c-0.023,0.026-0.045,0.054-0.05,0.064
		c-0.011,0.013-0.057,0.076-0.065,0.091c-0.021,0.039-0.037,0.079-0.035,0.082c-0.008,0.016-0.034,0.081-0.038,0.097
		c-0.018,0.066-0.027,0.134-0.027,0.202v5.211c0,0.272,0.144,0.528,0.377,0.667l5.231,3.137c0.039,0.022,0.083,0.04,0.117,0.05
		c0.013,0.006,0.046,0.019,0.061,0.023c0.06,0.016,0.121,0.025,0.186,0.025c0.08,0,0.165-0.013,0.261-0.042
		c0.051-0.015,0.096-0.034,0.155-0.066l5.211-3.127C109.704,18.46,109.849,18.205,109.849,17.934z M108.294,14.095v3.399
		l-3.656,2.194v-3.399L108.294,14.095z M107.56,12.722l-3.7,2.221l-1.095-0.657l3.7-2.221L107.56,12.722z M100.159,12.722l3.7-2.22
		l1.095,0.657l-3.7,2.22L100.159,12.722z M103.082,16.289v3.398l-3.657-2.194v-3.398L103.082,16.289z M109.519,12.459
		C109.519,12.459,109.519,12.459,109.519,12.459L109.519,12.459L109.519,12.459z"/>
	<path fill="#6E8999" d="M102.559,2.817c0.114,0.085,0.273,0.062,0.36-0.052l0.164-0.219v3.4c0,0.142,0.115,0.256,0.256,0.256h1.042
		c0.141,0,0.256-0.115,0.256-0.256V2.548l0.163,0.218c0.041,0.055,0.102,0.091,0.169,0.1c0.067,0.009,0.135-0.008,0.19-0.049
		l0.834-0.625c0.054-0.041,0.09-0.102,0.099-0.169c0.01-0.068-0.007-0.136-0.048-0.19l-1.563-2.085
		c-0.003-0.004-0.005-0.007-0.008-0.01c-0.279-0.336-0.779-0.387-1.116-0.111c-0.04,0.032-0.077,0.068-0.121,0.121l-1.564,2.085
		c-0.041,0.054-0.058,0.123-0.048,0.19c0.009,0.068,0.045,0.128,0.099,0.169L102.559,2.817z"/>
	<path fill="#6E8999" d="M105.16,27.839c-0.055-0.04-0.123-0.057-0.19-0.048c-0.067,0.009-0.128,0.045-0.169,0.1l-0.163,0.217
		v-3.399c0-0.141-0.115-0.256-0.256-0.256h-1.042c-0.141,0-0.256,0.115-0.256,0.256v3.4l-0.164-0.219
		c-0.086-0.113-0.245-0.133-0.36-0.051l-0.834,0.626c-0.113,0.085-0.136,0.246-0.051,0.36l1.564,2.085
		c0.152,0.202,0.386,0.309,0.622,0.309c0.163,0,0.328-0.051,0.47-0.156c0.057-0.044,0.107-0.094,0.153-0.153l1.563-2.085
		c0.085-0.114,0.062-0.274-0.051-0.36L105.16,27.839z"/>
	<path fill="#6E8999" d="M104.381,8.289c0.141,0,0.256-0.115,0.256-0.256V6.99c0-0.142-0.115-0.256-0.256-0.256h-1.042
		c-0.141,0-0.256,0.115-0.256,0.256v1.042c0,0.142,0.115,0.256,0.256,0.256H104.381z"/>
	<path fill="#6E8999" d="M103.339,22.368c-0.141,0-0.256,0.115-0.256,0.256v1.042c0,0.141,0.115,0.256,0.256,0.256h1.042
		c0.141,0,0.256-0.115,0.256-0.256v-1.042c0-0.141-0.115-0.256-0.256-0.256H103.339z"/>
	<path fill="#6E8999" d="M91.079,16.106h3.4c0.141,0,0.256-0.115,0.256-0.256v-1.042c0-0.142-0.115-0.256-0.256-0.256h-3.401
		l0.219-0.164c0.054-0.041,0.09-0.102,0.099-0.169c0.01-0.067-0.007-0.136-0.048-0.19l-0.626-0.834
		c-0.041-0.055-0.102-0.091-0.169-0.1c-0.065-0.007-0.135,0.009-0.19,0.049l-2.083,1.564c-0.166,0.124-0.274,0.306-0.304,0.512
		c-0.029,0.206,0.023,0.411,0.148,0.577c0.043,0.059,0.096,0.111,0.155,0.156l2.084,1.563c0.046,0.034,0.1,0.051,0.154,0.051
		c0.078,0,0.154-0.035,0.205-0.102l0.626-0.834c0.041-0.055,0.058-0.123,0.048-0.19c-0.009-0.067-0.045-0.128-0.1-0.169
		L91.079,16.106z"/>
	<path fill="#6E8999" d="M119.596,14.862c0-0.001-0.001-0.001-0.001-0.002c-0.044-0.058-0.096-0.11-0.154-0.154l-2.085-1.564
		c-0.112-0.084-0.272-0.062-0.36,0.052l-0.626,0.834c-0.041,0.054-0.058,0.123-0.048,0.19c0.009,0.068,0.045,0.128,0.099,0.169
		l0.219,0.164h-3.4c-0.141,0-0.256,0.115-0.256,0.256v1.042c0,0.141,0.115,0.256,0.256,0.256h3.399l-0.217,0.163
		c-0.055,0.041-0.091,0.102-0.1,0.169c-0.01,0.067,0.007,0.135,0.048,0.19l0.626,0.834c0.051,0.067,0.127,0.102,0.205,0.102
		c0.054,0,0.108-0.017,0.154-0.051l2.085-1.564C119.782,15.692,119.852,15.204,119.596,14.862z"/>
	<path fill="#6E8999" d="M95.521,14.551c-0.141,0-0.256,0.115-0.256,0.256v1.042c0,0.141,0.115,0.256,0.256,0.256h1.042
		c0.141,0,0.256-0.115,0.256-0.256v-1.042c0-0.142-0.115-0.256-0.256-0.256H95.521z"/>
	<path fill="#6E8999" d="M111.156,14.551c-0.141,0-0.256,0.115-0.256,0.256v1.042c0,0.141,0.115,0.256,0.256,0.256h1.042
		c0.141,0,0.256-0.115,0.256-0.256v-1.042c0-0.142-0.115-0.256-0.256-0.256H111.156z"/>
	<path fill="#6E8999" d="M92.77,7.331c0.009,0.068,0.045,0.128,0.099,0.169c0.055,0.041,0.125,0.058,0.19,0.049l1.031-0.148
		c0.14-0.02,0.237-0.15,0.217-0.29L94.27,6.84l2.404,2.405c0.05,0.05,0.115,0.075,0.181,0.075c0.065,0,0.131-0.025,0.181-0.075
		l0.739-0.737c0.048-0.048,0.075-0.114,0.075-0.182c0-0.068-0.027-0.133-0.075-0.181l-2.404-2.404l0.271,0.039
		c0.139,0.015,0.269-0.078,0.289-0.218l0.147-1.032c0.02-0.14-0.077-0.27-0.217-0.29l-2.578-0.37
		c-0.425-0.067-0.819,0.23-0.884,0.657c-0.01,0.074-0.01,0.149,0.001,0.224L92.77,7.331z"/>
	<path fill="#6E8999" d="M115.316,25.905l-0.369-2.58c-0.009-0.067-0.045-0.128-0.1-0.169c-0.053-0.04-0.115-0.057-0.19-0.048
		l-1.032,0.149c-0.139,0.02-0.236,0.149-0.216,0.289l0.038,0.271l-2.404-2.405c-0.048-0.048-0.113-0.075-0.181-0.075
		c-0.068,0-0.133,0.027-0.181,0.075l-0.737,0.737c-0.1,0.1-0.1,0.262,0,0.363l2.403,2.403l-0.268-0.038
		c-0.066-0.01-0.135,0.008-0.19,0.048c-0.054,0.041-0.09,0.102-0.099,0.169l-0.147,1.031c-0.02,0.14,0.077,0.269,0.217,0.289
		l2.583,0.37c0.035,0.004,0.07,0.007,0.106,0.007c0.429,0,0.777-0.348,0.777-0.777c0-0.036-0.003-0.071-0.007-0.106
		C115.317,25.908,115.317,25.906,115.316,25.905z"/>
	<path fill="#6E8999" d="M97.338,9.801c0,0.068,0.027,0.133,0.075,0.181l0.738,0.737c0.048,0.048,0.113,0.075,0.181,0.075
		c0.068,0,0.133-0.027,0.181-0.075l0.736-0.737c0.1-0.1,0.1-0.262,0-0.363l-0.736-0.737c-0.048-0.048-0.113-0.075-0.181-0.075
		c-0.068,0-0.133,0.027-0.181,0.075l-0.738,0.737C97.365,9.668,97.338,9.733,97.338,9.801z"/>
	<path fill="#6E8999" d="M110.305,20.674l-0.737-0.737c-0.1-0.1-0.262-0.1-0.363,0l-0.737,0.737c-0.1,0.1-0.1,0.262,0,0.363
		l0.737,0.737c0.05,0.05,0.115,0.075,0.181,0.075s0.131-0.025,0.181-0.075l0.737-0.737
		C110.406,20.937,110.406,20.775,110.305,20.674z"/>
	<path fill="#6E8999" d="M97.039,21.412c-0.048-0.048-0.113-0.075-0.181-0.075c-0.068,0-0.133,0.027-0.181,0.075l-2.403,2.404
		l0.038-0.27c0.02-0.14-0.077-0.269-0.217-0.289l-1.032-0.148c-0.141-0.022-0.269,0.076-0.289,0.217l-0.372,2.58
		c-0.059,0.425,0.236,0.818,0.665,0.88c0.036,0.004,0.071,0.007,0.105,0.007c0.036,0,0.071-0.003,0.11-0.008l2.58-0.369
		c0.14-0.02,0.237-0.149,0.217-0.289l-0.147-1.031c-0.02-0.14-0.154-0.241-0.289-0.217l-0.27,0.038l2.403-2.404
		c0.1-0.1,0.1-0.262,0-0.363L97.039,21.412z"/>
	<path fill="#6E8999" d="M110.68,9.245c0.048,0.048,0.113,0.075,0.181,0.075c0.068,0,0.133-0.027,0.181-0.075l2.404-2.405
		l-0.038,0.27c-0.02,0.14,0.077,0.27,0.217,0.29l1.031,0.148c0.069,0.009,0.136-0.009,0.19-0.049
		c0.054-0.041,0.09-0.102,0.099-0.169l0.369-2.579c0.035-0.241-0.047-0.488-0.219-0.659c-0.173-0.175-0.425-0.252-0.66-0.22
		l-2.58,0.368c-0.067,0.01-0.128,0.046-0.169,0.1c-0.041,0.055-0.058,0.123-0.048,0.19l0.148,1.032
		c0.019,0.14,0.151,0.232,0.289,0.217l0.269-0.039l-2.403,2.404c-0.1,0.1-0.1,0.262,0,0.363L110.68,9.245z"/>
	<path fill="#6E8999" d="M98.514,19.937c-0.1-0.1-0.262-0.1-0.363,0l-0.737,0.737c-0.1,0.1-0.1,0.262,0,0.363l0.737,0.737
		c0.05,0.05,0.115,0.075,0.181,0.075s0.131-0.025,0.181-0.075l0.737-0.737c0.1-0.1,0.1-0.262,0-0.363L98.514,19.937z"/>
	<path fill="#6E8999" d="M109.206,10.717c0.05,0.05,0.115,0.075,0.181,0.075s0.131-0.025,0.181-0.075l0.737-0.737
		c0.1-0.1,0.1-0.262,0-0.363l-0.737-0.738c-0.096-0.096-0.266-0.096-0.363,0l-0.737,0.738c-0.1,0.1-0.1,0.262,0,0.363
		L109.206,10.717z"/>
</g>
</svg>
