<?xml version="1.0" encoding="utf-8"?>
<!-- Generator: Adobe Illustrator 21.0.2, SVG Export Plug-In . SVG Version: 6.00 Build 0)  -->
<svg version="1.1" id="Layer_1" xmlns="http://www.w3.org/2000/svg" xmlns:xlink="http://www.w3.org/1999/xlink" x="0px" y="0px"
	 width="35px" height="35px" viewBox="-0.5 37.5 35 35" enable-background="new -0.5 37.5 35 35" xml:space="preserve">
<g>
	<g>
		<g>
			<path fill="#6E8999" d="M27.463,41.009c0-1.495-1.283-2.707-2.865-2.707H9.402c-1.582,0-2.865,1.212-2.865,2.707v27.982
				c0,1.495,1.283,2.707,2.865,2.707h15.196c1.582,0,2.865-1.212,2.865-2.707V41.009z M17.934,67.961
				c0,0.488-0.418,0.883-0.934,0.883c-0.516,0-0.934-0.395-0.934-0.883c0-0.488,0.418-0.883,0.934-0.883
				C17.516,67.078,17.934,67.473,17.934,67.961L17.934,67.961z M18.167,65.083l-0.363-0.616c-0.001-0.001-0.001-0.002-0.001-0.002
				l-2.057-3.49c0.334-0.193,0.767-0.132,1.027,0.145l0.747,0.809c0.16,0.174,0.418,0.235,0.647,0.154
				c0.229-0.081,0.38-0.288,0.38-0.518c-0.001-1.982-0.002-4.569,0.002-5.897c0-0.12,0.121-0.147,0.193-0.147h0.287
				c0.096,0,0.193,0.042,0.193,0.148c0,0.32-0.021,4.63-0.021,4.674c0,0.024-0.004,0.046-0.004,0.069v0.227
				c0,0.305,0.262,0.553,0.585,0.553s0.585-0.248,0.585-0.553v-1.33c0-0.036,0.048-0.055,0.086-0.055h0.583
				c0.017-0.002,0.033,0.003,0.045,0.013c0.012,0.011,0.018,0.026,0.017,0.041v1.762c0,0.305,0.262,0.553,0.585,0.553
				s0.585-0.248,0.585-0.553V59.74c0.005-0.04,0.039-0.07,0.081-0.073h0.578c0.04,0.004,0.071,0.035,0.072,0.073v1.329
				c0,0.305,0.262,0.553,0.585,0.553c0.324,0,0.585-0.248,0.585-0.553V60.87c-0.004-0.052,0.012-0.103,0.045-0.144
				c0.021-0.019,0.051-0.028,0.08-0.024l0.307,0.001c0.05-0.002,0.099,0.015,0.135,0.047c0.036,0.032,0.057,0.077,0.057,0.125
				c0.003,1.139,0.003,1.16,0.002,1.719c-0.001,0.297-0.001,0.748-0.002,1.596c-0.001,1.013-0.868,1.835-1.94,1.839h-2.992
				C19.157,66.027,18.509,65.665,18.167,65.083L18.167,65.083z M13.762,57.87c-0.31-0.003-0.605-0.13-0.81-0.349
				c-0.176-0.185-0.26-0.431-0.23-0.678l0.741-6.095h0.611v1.437c0,0.306,0.262,0.553,0.585,0.553c0.323,0,0.585-0.247,0.585-0.553
				v-1.437h3.658v1.437c0,0.306,0.262,0.553,0.585,0.553s0.585-0.247,0.585-0.553v-1.437h0.504l0.741,6.087
				c0.029,0.244-0.055,0.488-0.23,0.67c-0.182,0.189-0.433,0.307-0.702,0.329c0.003-1.032,0.005-2.018,0.005-2.168
				c-0.001-0.705-0.6-1.253-1.364-1.253H18.74c-0.359-0.005-0.705,0.126-0.962,0.364c-0.256,0.238-0.401,0.563-0.402,0.902
				c-0.001,0.553-0.002,1.292-0.002,2.191H13.762z M18.902,49.641h-3.658v-0.537c0-0.885,0.822-1.605,1.829-1.605
				c1.007,0,1.829,0.72,1.829,1.605V49.641z M25.965,60.872c-0.006-0.707-0.615-1.277-1.363-1.275l-0.307-0.001
				c-0.046,0-0.091-0.002-0.136,0.002c-0.075-0.59-0.602-1.035-1.231-1.037h-0.578c-0.108,0.001-0.215,0.016-0.32,0.043
				c-0.064-0.081-0.14-0.153-0.224-0.216c0.055-0.047,0.107-0.096,0.156-0.148c0.396-0.417,0.585-0.974,0.52-1.53l-0.8-6.577
				c-0.034-0.28-0.284-0.491-0.582-0.492h-1.026v-0.537c0-1.495-1.347-2.711-3-2.711s-3,1.216-3,2.711v0.537H12.94
				c-0.298,0.001-0.548,0.213-0.582,0.492l-0.801,6.576c-0.065,0.562,0.123,1.124,0.52,1.547c0.428,0.455,1.04,0.716,1.684,0.72
				h3.612v1.183c-0.734-0.535-1.762-0.518-2.476,0.041l-0.267,0.19c-0.23,0.163-0.296,0.462-0.155,0.699l1.817,3.073H7.708V44.801
				h18.585v19.361h-0.328c0.001-0.83,0.002-1.277,0.003-1.573C25.968,62.028,25.968,62.014,25.965,60.872L25.965,60.872z
				 M9.401,39.408h15.198c0.934,0,1.693,0.741,1.693,1.624v2.663H7.708v-2.663C7.708,40.149,8.467,39.408,9.401,39.408L9.401,39.408
				z M24.599,70.662H9.401c-0.934,0-1.693-0.741-1.693-1.624v-3.77h9.237l0.199,0.345c0.081,0.138,0.174,0.27,0.278,0.395
				c-0.873-0.17-1.764,0.198-2.226,0.918c-0.462,0.72-0.394,1.637,0.168,2.29c0.563,0.653,1.499,0.901,2.339,0.619
				c0.84-0.282,1.401-1.032,1.402-1.874c0-0.351-0.098-0.695-0.286-0.998c0.334,0.114,0.687,0.172,1.042,0.173h2.992
				c1.278,0,2.425-0.741,2.887-1.867h0.552v3.77C26.292,69.921,25.533,70.662,24.599,70.662L24.599,70.662z M24.599,70.662"/>
		</g>
	</g>
	<g>
		<path fill="#6E8999" d="M14.53,41.966h4.939c0.323,0,0.585-0.248,0.585-0.553c0-0.305-0.262-0.553-0.585-0.553H14.53
			c-0.323,0-0.585,0.248-0.585,0.553C13.945,41.718,14.207,41.966,14.53,41.966L14.53,41.966z M14.53,41.966"/>
	</g>
</g>
</svg>
