<?xml version="1.0" encoding="utf-8"?>
<!-- Generator: Adobe Illustrator 21.0.2, SVG Export Plug-In . SVG Version: 6.00 Build 0)  -->
<svg version="1.1" id="Layer_1" xmlns="http://www.w3.org/2000/svg" xmlns:xlink="http://www.w3.org/1999/xlink" x="0px" y="0px"
	 width="35px" height="35px" viewBox="44.75 37.5 35 35" enable-background="new 44.75 37.5 35 35" xml:space="preserve">
<g>
	<g>
		<g>
			<path fill="#6E8999" d="M68.786,43.068c-4.676-5.168-12.642-5.566-17.81-0.89c-5.168,4.675-5.567,12.641-0.891,17.81
				c4.121,4.555,10.725,5.353,15.705,2.435l1.924,2.127c-0.39,0.598-0.346,1.407,0.155,1.961l3.434,3.796
				c1.095,1.21,2.797,1.55,4.231,0.977c2.436-0.975,3.185-4.102,1.402-6.073l-3.434-3.796C73,60.86,72.2,60.736,71.566,61.064
				l-1.924-2.126C73.015,54.31,72.936,47.656,68.786,43.068L68.786,43.068z M51.155,59.019c-2.001-2.212-3.021-5.07-2.872-8.049
				c0.309-6.179,5.562-10.902,11.71-10.595c9.206,0.46,13.772,11.17,8.149,18.147C63.848,63.852,55.784,64.136,51.155,59.019
				L51.155,59.019z M75.866,66.177c0.873,0.966,0.799,2.453-0.167,3.327c-0.962,0.871-2.455,0.797-3.327-0.166l-3.435-3.796
				c-0.062-0.069-0.057-0.175,0.012-0.237c0.006-0.005,3.252-2.95,3.294-2.967C72.454,62.254,72.334,62.348,75.866,66.177
				L75.866,66.177z M70.46,61.992c-0.428,0.387-1.066,0.965-1.713,1.55l-1.744-1.928c0.614-0.462,1.18-0.974,1.712-1.55
				L70.46,61.992z M70.46,61.992"/>
		</g>
	</g>
	<g>
		<path fill="#6E8999" d="M59.51,55.452c0.398-0.005,0.718-0.331,0.713-0.729l-0.014-1.193c-0.005-0.399-0.331-0.718-0.729-0.713
			c-0.399,0.005-0.718,0.331-0.713,0.73l0.014,1.193C58.785,55.138,59.112,55.457,59.51,55.452L59.51,55.452z M60.901,55.176"/>
	</g>
	<g>
		<path fill="#6E8999" d="M56.627,55.033c0.044,0.399,0.403,0.682,0.796,0.638c0.396-0.043,0.682-0.4,0.638-0.796l-0.19-1.732
			c-0.043-0.396-0.4-0.682-0.796-0.638c-0.396,0.043-0.682,0.4-0.638,0.796L56.627,55.033z M58.061,55.826"/>
	</g>
	<g>
		<path fill="#6E8999" d="M61.734,55.626c0.367-0.004,0.677-0.286,0.71-0.659l0.151-1.735c0.034-0.397-0.259-0.747-0.657-0.781
			c-0.397-0.035-0.746,0.259-0.781,0.656l-0.151,1.736C60.969,55.268,61.307,55.631,61.734,55.626L61.734,55.626z M61.734,55.626"/>
	</g>
	<g>
		<path fill="#6E8999" d="M57.724,45.819c-0.276-0.287-0.733-0.296-1.02-0.02l-2.212,2.128l-0.338,0.004
			c-0.83,0.009-1.498,0.692-1.488,1.522l0.009,0.789c0.009,0.793,0.587,1.448,1.341,1.582l0.287,3.709
			c0.092,1.196,1.104,2.121,2.303,2.108l5.858-0.067c1.199-0.014,2.189-0.962,2.254-2.159L64.92,51.7
			c0.751-0.151,1.314-0.819,1.305-1.612l-0.009-0.789c-0.009-0.83-0.693-1.497-1.522-1.488l-0.338,0.004l-2.26-2.078
			c-0.293-0.269-0.75-0.25-1.019,0.043c-0.27,0.293-0.25,0.75,0.043,1.019l1.13,1.039l-5.653,0.064l1.106-1.065
			C57.991,46.562,58,46.106,57.724,45.819L57.724,45.819z M64.773,49.316l0.009,0.789c0.001,0.1-0.08,0.184-0.18,0.185
			c-2.915,0.033-7.384,0.084-10.299,0.117c-0.101,0.001-0.184-0.08-0.185-0.181c0.015-0.699-0.062-0.851,0.053-0.852
			C65.303,49.277,64.772,49.191,64.773,49.316L64.773,49.316z M63.277,55.337c-0.023,0.441-0.389,0.79-0.83,0.795l-5.858,0.067
			c-0.442,0.005-0.814-0.336-0.848-0.776l-0.277-3.586l8.009-0.091L63.277,55.337z M63.277,55.337"/>
	</g>
	<g>
		<path fill="#6E8999" d="M68.386,47.947c-1.974-4.936-7.596-7.345-12.532-5.371c-4.936,1.974-7.345,7.596-5.37,12.532
			c0.148,0.37,0.568,0.55,0.938,0.402c0.37-0.148,0.55-0.568,0.402-0.938c-1.679-4.197,0.37-8.978,4.567-10.656
			c4.197-1.679,8.977,0.37,10.656,4.567c1.679,4.197-0.37,8.977-4.567,10.656c-2.565,1.026-5.454,0.697-7.726-0.881
			c-0.327-0.227-0.777-0.146-1.004,0.181c-0.227,0.327-0.146,0.777,0.181,1.004c2.672,1.855,6.068,2.241,9.085,1.035
			C67.952,58.504,70.361,52.883,68.386,47.947L68.386,47.947z M68.386,47.947"/>
	</g>
	<g>
		<path fill="#6E8999" d="M53.115,56.795c-0.105-0.262-0.364-0.451-0.662-0.453c-0.511-0.007-0.869,0.511-0.678,0.989
			C52.139,58.239,53.462,57.661,53.115,56.795L53.115,56.795z M53.115,56.795"/>
	</g>
</g>
</svg>
