<?xml version="1.0" encoding="utf-8"?>
<!-- Generator: Adobe Illustrator 21.0.2, SVG Export Plug-In . SVG Version: 6.00 Build 0)  -->
<svg version="1.1" id="Layer_1" xmlns="http://www.w3.org/2000/svg" xmlns:xlink="http://www.w3.org/1999/xlink" x="0px" y="0px"
	 width="35px" height="35px" viewBox="128 -2.5 35 35" enable-background="new 128 -2.5 35 35" xml:space="preserve">
<g>
	<g>
		<path fill="#6E8999" d="M145.5,1.374c-0.349,0-0.63,0.281-0.63,0.63c0,0.325,0.244,0.595,0.567,0.627
			c0.374,0.037,0.693-0.254,0.693-0.627C146.13,1.655,145.849,1.374,145.5,1.374L145.5,1.374z M145.5,1.374"/>
	</g>
	<g>
		<path fill="#6E8999" d="M158.117,2.635c-1.739,0-3.154-1.415-3.154-3.154c0-0.348-0.283-0.631-0.631-0.631h-17.664
			c-0.348,0-0.631,0.283-0.631,0.631c0,1.739-1.415,3.154-3.154,3.154c-0.348,0-0.631,0.283-0.631,0.631v10.295
			c0,8.023,5.23,15.213,13.067,17.563c0.059,0.018,0.12,0.027,0.181,0.027s0.122-0.009,0.181-0.027
			c7.668-2.3,13.067-9.364,13.067-17.563V3.266C158.748,2.917,158.466,2.635,158.117,2.635L158.117,2.635z M157.487,13.561
			c0,7.536-4.808,14.062-11.987,16.299c-7.121-2.219-11.987-8.804-11.987-16.299V3.852c1.931-0.277,3.463-1.809,3.74-3.74h16.493
			c0.277,1.931,1.809,3.463,3.74,3.74V13.561z M157.487,13.561"/>
	</g>
	<g>
		<path fill="#6E8999" d="M155.847,4.685c-1.316-0.576-2.358-1.618-2.934-2.934c-0.101-0.23-0.327-0.378-0.578-0.378h-4.313
			c-0.348,0-0.631,0.283-0.631,0.631c0,0.348,0.283,0.631,0.631,0.631h3.914c0.667,1.305,1.722,2.36,3.027,3.027v7.899
			c0,6.174-3.706,11.501-9.463,13.633c-5.757-2.133-9.463-7.459-9.463-13.633V5.661c1.305-0.667,2.36-1.722,3.027-3.027h3.914
			c0.348,0,0.631-0.283,0.631-0.631c0-0.348-0.283-0.631-0.631-0.631h-4.313c-0.251,0-0.477,0.148-0.578,0.378
			c-0.576,1.316-1.618,2.358-2.934,2.934c-0.23,0.101-0.378,0.327-0.378,0.578v8.298c0,6.764,4.183,12.659,10.514,14.899
			c0.068,0.024,0.139,0.036,0.211,0.036s0.142-0.012,0.211-0.036c6.325-2.238,10.514-8.13,10.514-14.899V5.263
			C156.225,5.012,156.077,4.785,155.847,4.685L155.847,4.685z M155.847,4.685"/>
	</g>
	<g>
		<path fill="#6E8999" d="M145.5,8.06c-3.131,0-5.678,2.547-5.678,5.678s2.547,5.678,5.678,5.678s5.678-2.547,5.678-5.678
			S148.631,8.06,145.5,8.06L145.5,8.06z M145.5,18.154c-2.435,0-4.416-1.981-4.416-4.416s1.981-4.416,4.416-4.416
			s4.416,1.981,4.416,4.416S147.935,18.154,145.5,18.154L145.5,18.154z M145.5,18.154"/>
	</g>
	<g>
		<path fill="#6E8999" d="M148.47,12.03c-0.246-0.246-0.646-0.246-0.892,0l-2.708,2.709l-0.816-0.816
			c-0.246-0.246-0.646-0.246-0.892,0c-0.246,0.246-0.246,0.646,0,0.892l1.262,1.262c0.123,0.123,0.285,0.185,0.446,0.185
			s0.323-0.062,0.446-0.185l3.154-3.154C148.716,12.676,148.716,12.277,148.47,12.03L148.47,12.03z M148.47,12.03"/>
	</g>
</g>
</svg>
