<?xml version="1.0" encoding="utf-8"?>
<!-- Generator: Adobe Illustrator 21.0.2, SVG Export Plug-In . SVG Version: 6.00 Build 0)  -->
<svg version="1.1" id="Layer_1" xmlns="http://www.w3.org/2000/svg" xmlns:xlink="http://www.w3.org/1999/xlink" x="0px" y="0px"
	 width="35px" height="35px" viewBox="169.75 -2.5 35 35" enable-background="new 169.75 -2.5 35 35" xml:space="preserve">
<g>
	<g>
		<g>
			<path fill="#6E8999" d="M172.027,12.311c-0.616,0-1.189,0.313-1.522,0.831c-0.333,0.518-0.38,1.169-0.125,1.729l2.226,4.896
				c0.3,0.663,0.718,1.266,1.233,1.78l3.5,3.501c-0.198,0.209-0.308,0.485-0.309,0.772v4.544c0,0.627,0.508,1.136,1.136,1.136h6.247
				c0.627,0,1.136-0.508,1.136-1.136V25.82c0-0.627-0.509-1.136-1.136-1.136v-1.057c0.017-1.345-0.422-2.656-1.245-3.72
				c-0.483-0.635-1.141-1.115-1.893-1.381c-1.196-0.503-2.296-1.209-3.252-2.087c-0.887-0.73-2.146-0.796-3.104-0.161l-1.228-2.871
				C173.407,12.742,172.751,12.311,172.027,12.311L172.027,12.311z M184.413,30.364h-6.247V25.82h6.247V30.364z M175.35,18.935
				l2.595,2.595c0.143,0.148,0.354,0.207,0.552,0.155c0.199-0.052,0.354-0.207,0.406-0.406c0.052-0.199-0.007-0.41-0.155-0.553
				l-2.594-2.595c-0.261-0.26-0.495-0.546-0.7-0.852c0.545-0.42,1.309-0.407,1.84,0.031c1.061,0.974,2.289,1.752,3.624,2.294
				c0.544,0.198,1.018,0.55,1.366,1.013c0.662,0.862,1.013,1.923,0.996,3.01v1.057h-4.696l-3.94-3.94
				c-0.418-0.418-0.758-0.908-1.003-1.447l-2.226-4.896c-0.095-0.209-0.077-0.452,0.047-0.645c0.124-0.193,0.338-0.31,0.568-0.31
				c0.27,0,0.514,0.161,0.62,0.409l1.271,2.963C174.255,17.609,174.741,18.328,175.35,18.935L175.35,18.935z M175.35,18.935"/>
		</g>
		<g>
			<path fill="#6E8999" d="M182.71,27.524h-0.568c-0.313,0-0.568,0.254-0.568,0.568c0,0.313,0.254,0.568,0.568,0.568h0.568
				c0.314,0,0.568-0.254,0.568-0.568C183.278,27.779,183.023,27.524,182.71,27.524L182.71,27.524z M182.71,27.524"/>
		</g>
		<g>
			<path fill="#6E8999" d="M201.902,19.768l2.226-4.897c0.404-0.915-0.01-1.984-0.925-2.388c-0.915-0.404-1.984,0.01-2.388,0.925
				l-1.225,2.86c-0.961-0.632-2.221-0.563-3.107,0.17c-0.955,0.878-2.055,1.584-3.252,2.087c-0.752,0.266-1.41,0.746-1.893,1.381
				c-0.824,1.064-1.262,2.376-1.245,3.722v1.057c-0.627,0-1.136,0.509-1.136,1.136v4.544c0,0.627,0.509,1.136,1.136,1.136h6.247
				c0.627,0,1.136-0.508,1.136-1.136V25.82c-0.001-0.287-0.111-0.564-0.308-0.772l3.501-3.501
				C201.183,21.033,201.601,20.43,201.902,19.768L201.902,19.768z M196.34,30.364h-6.247V25.82h6.247V30.364z M195.925,24.684
				h-4.696v-1.057c-0.017-1.087,0.334-2.148,0.996-3.01c0.347-0.462,0.82-0.814,1.363-1.013c1.335-0.543,2.562-1.32,3.624-2.295
				c0.531-0.437,1.294-0.449,1.839-0.03c-0.204,0.306-0.438,0.592-0.699,0.852l-2.595,2.595c-0.215,0.223-0.212,0.577,0.007,0.796
				c0.219,0.219,0.573,0.222,0.796,0.007l2.595-2.595c0.608-0.607,1.094-1.326,1.432-2.116l1.27-2.964
				c0.106-0.248,0.351-0.409,0.621-0.409c0.229,0,0.443,0.117,0.567,0.31c0.125,0.193,0.142,0.436,0.047,0.644l-2.226,4.897
				c-0.244,0.538-0.584,1.029-1.003,1.447L195.925,24.684z M195.925,24.684"/>
		</g>
		<g>
			<path fill="#6E8999" d="M192.365,27.524h-0.568c-0.314,0-0.568,0.254-0.568,0.568c0,0.313,0.254,0.568,0.568,0.568h0.568
				c0.313,0,0.568-0.254,0.568-0.568C192.933,27.779,192.678,27.524,192.365,27.524L192.365,27.524z M192.365,27.524"/>
		</g>
	</g>
</g>
<g>
	<g>
		<g>
			<path fill="#6E8999" d="M184.933,12.929c0.518,0.265,1.313,0.53,2.134,0.53c0.884,0,1.351-0.366,1.351-0.922
				c0-0.53-0.404-0.833-1.427-1.2c-1.414-0.492-2.336-1.275-2.336-2.513c0-1.452,1.212-2.563,3.22-2.563
				c0.96,0,1.667,0.202,2.172,0.429l-0.429,1.553c-0.341-0.164-0.947-0.404-1.781-0.404S186.6,8.218,186.6,8.66
				c0,0.543,0.48,0.783,1.579,1.2c1.503,0.556,2.21,1.339,2.21,2.538c0,1.427-1.099,2.639-3.435,2.639
				c-0.972,0-1.932-0.253-2.412-0.518L184.933,12.929z"/>
		</g>
	</g>
	<g>
		<path fill="#6E8999" d="M193.003,4.632l1.557,12.035h-14.62l1.557-12.035H193.003 M194.102,3.382h-13.703l-1.881,14.535h17.465
			L194.102,3.382L194.102,3.382z"/>
	</g>
	<g>
		<path fill="#6E8999" d="M192.407,3.381h-1.25c0-2.154-1.753-3.907-3.907-3.907s-3.907,1.752-3.907,3.907h-1.25
			c0-2.843,2.313-5.157,5.157-5.157S192.407,0.538,192.407,3.381z"/>
	</g>
</g>
</svg>
