<?xml version="1.0" encoding="utf-8"?>
<!-- Generator: Adobe Illustrator 21.0.2, SVG Export Plug-In . SVG Version: 6.00 Build 0)  -->
<svg version="1.1" id="Layer_1" xmlns="http://www.w3.org/2000/svg" xmlns:xlink="http://www.w3.org/1999/xlink" x="0px" y="0px"
	 width="35px" height="35px" viewBox="-0.5 -2.5 35 35" enable-background="new -0.5 -2.5 35 35" xml:space="preserve">
<g>
	<g>
		<path fill="#6E8999" d="M29.984,5.12h0.487c0.491,0,0.89-0.4,0.89-0.891c0-0.491-0.399-0.891-0.89-0.891h-2.41
			c-0.492,0-0.891,0.4-0.891,0.891v2.41c0,0.491,0.399,0.891,0.891,0.891c0.456,0,0.834-0.346,0.885-0.789
			c1.613,2.416,2.462,5.217,2.462,8.151c0,8.116-6.602,14.719-14.718,14.719S1.97,23.008,1.97,14.892
			c0-8.116,6.603-14.719,14.719-14.719c0.598,0,1.202,0.037,1.796,0.109c0.485,0.06,0.933-0.296,0.991-0.777
			c0.059-0.488-0.289-0.933-0.777-0.992c-0.664-0.08-1.34-0.121-2.011-0.121c-4.407,0-8.551,1.716-11.667,4.833
			s-4.833,7.26-4.833,11.667c0,4.406,1.716,8.551,4.833,11.668c3.118,3.116,7.261,4.833,11.667,4.833
			c4.407,0,8.55-1.717,11.667-4.833c3.116-3.117,4.833-7.261,4.833-11.668C33.189,11.385,32.054,7.935,29.984,5.12z"/>
	</g>
	<g>
		<path fill="#6E8999" d="M6.232,8.283c-1.478,2.335-2.132,5.143-1.842,7.907c0.294,2.804,1.557,5.449,3.555,7.447
			c2.331,2.333,5.437,3.617,8.745,3.617s6.413-1.284,8.745-3.617c2.333-2.333,3.617-5.439,3.617-8.745
			c0-3.307-1.284-6.413-3.617-8.745c-1.995-1.995-4.635-3.257-7.435-3.553c-2.761-0.294-5.567,0.359-7.897,1.828
			C9.9,4.548,9.76,4.746,9.708,4.978C9.655,5.21,9.696,5.449,9.823,5.65c0.255,0.402,0.827,0.533,1.229,0.278
			c1.704-1.074,3.656-1.641,5.645-1.641c2.811,0,5.466,1.108,7.478,3.12c4.126,4.127,4.126,10.843,0,14.97
			c-1.996,1.996-4.655,3.095-7.486,3.095c-2.831,0-5.489-1.099-7.485-3.095c-3.472-3.472-4.089-8.999-1.466-13.14
			C8,8.821,7.876,8.27,7.461,8.007C7.056,7.75,6.485,7.882,6.232,8.283z"/>
	</g>
	<g>
		<path fill="#6E8999" d="M24.932,15.793h0.782c0.492,0,0.891-0.399,0.891-0.891c0-0.491-0.399-0.891-0.891-0.891h-0.782
			c-0.492,0-0.891,0.4-0.891,0.891C24.041,15.393,24.441,15.793,24.932,15.793z"/>
	</g>
	<g>
		<path fill="#6E8999" d="M8.446,13.99H7.664c-0.491,0-0.891,0.4-0.891,0.891c0,0.492,0.4,0.891,0.891,0.891h0.782
			c0.491,0,0.891-0.399,0.891-0.891C9.337,14.39,8.937,13.99,8.446,13.99z"/>
	</g>
	<g>
		<path fill="#6E8999" d="M17.59,6.649V5.867c0-0.491-0.4-0.891-0.891-0.891s-0.891,0.4-0.891,0.891v0.782
			c0,0.491,0.4,0.891,0.891,0.891S17.59,7.14,17.59,6.649z"/>
	</g>
	<g>
		<path fill="#6E8999" d="M15.788,23.135v0.782c0,0.492,0.4,0.891,0.891,0.891c0.492,0,0.892-0.399,0.892-0.891v-0.782
			c0-0.492-0.4-0.892-0.892-0.892C16.187,22.244,15.788,22.644,15.788,23.135z"/>
	</g>
	<g>
		<path fill="#6E8999" d="M13.692,10.635c-0.337-0.336-0.923-0.336-1.26,0c-0.347,0.348-0.347,0.912,0,1.26l2.02,2.02
			c-0.134,0.307-0.205,0.641-0.205,0.977c0,1.346,1.095,2.441,2.441,2.441c1.346,0,2.441-1.095,2.441-2.441
			c0-0.335-0.07-0.67-0.205-0.977l4.207-4.207c0.347-0.348,0.347-0.912,0-1.26c-0.337-0.336-0.924-0.336-1.259,0l-4.208,4.207
			c-0.613-0.268-1.339-0.269-1.953,0.001L13.692,10.635z M16.029,14.892c0-0.364,0.296-0.66,0.66-0.66c0.364,0,0.66,0.296,0.66,0.66
			c0,0.363-0.296,0.659-0.66,0.659C16.325,15.551,16.029,15.255,16.029,14.892z"/>
	</g>
	<g>
		<path fill="#6E8999" d="M9.203,6.146c-0.332-0.331-0.926-0.332-1.26,0.001c-0.166,0.166-0.26,0.396-0.26,0.63
			c0,0.234,0.095,0.463,0.261,0.63c0.166,0.166,0.395,0.261,0.63,0.261s0.465-0.095,0.63-0.26c0.167-0.166,0.262-0.396,0.262-0.631
			C9.465,6.543,9.37,6.313,9.203,6.146z"/>
	</g>
	<g>
		<path fill="#6E8999" d="M21.081,0.8c0.235,0,0.465-0.095,0.631-0.262c0.166-0.166,0.261-0.396,0.261-0.63
			c0-0.236-0.095-0.466-0.261-0.63c-0.333-0.331-0.93-0.331-1.259-0.001c-0.168,0.166-0.263,0.395-0.263,0.631
			c0,0.235,0.095,0.464,0.261,0.629C20.616,0.705,20.846,0.8,21.081,0.8z"/>
	</g>
</g>
</svg>
