<?xml version="1.0" encoding="utf-8"?>
<!-- Generator: Adobe Illustrator 21.0.2, SVG Export Plug-In . SVG Version: 6.00 Build 0)  -->
<svg version="1.1" id="Layer_1" xmlns="http://www.w3.org/2000/svg" xmlns:xlink="http://www.w3.org/1999/xlink" x="0px" y="0px"
	 width="35px" height="35px" viewBox="175.25 37.5 35 35" enable-background="new 175.25 37.5 35 35" xml:space="preserve">
<g>
	<circle fill="#6E8999" cx="192.759" cy="46.588" r="0.912"/>
	<circle fill="#6E8999" cx="182.108" cy="56.855" r="0.913"/>
	<path fill="#6E8999" d="M206.93,55.423c1.63-1.762,2.526-3.985,2.526-6.267c0-5.92-5.979-9.896-11.564-9.896
		c-5.787,0-10.626,3.94-11.134,9.014c-5.19,0.365-10.696,4.188-10.696,9.864c0,2.284,0.896,4.506,2.525,6.268
		c0.267,1.201-0.104,2.481-0.974,3.352c-0.262,0.261-0.341,0.651-0.199,0.996c0.142,0.342,0.473,0.563,0.843,0.563
		c1.826,0,3.628-0.707,4.971-1.945c1.288,0.416,2.917,0.661,4.397,0.661c5.784,0,10.623-3.938,11.133-9.009
		c1.233-0.075,2.498-0.303,3.528-0.635c1.36,1.255,3.119,1.945,4.973,1.945c0.369,0,0.701-0.221,0.843-0.563
		c0.142-0.343,0.063-0.733-0.199-0.995C207.033,57.904,206.663,56.625,206.93,55.423z M205.449,54.333
		c-0.104,0.107-0.181,0.239-0.223,0.385c-0.327,1.151-0.268,2.359,0.159,3.462c-0.835-0.303-1.582-0.8-2.186-1.46
		c-0.176-0.192-0.423-0.295-0.676-0.295c-0.113,0-0.226,0.02-0.335,0.063c-0.908,0.362-2.175,0.621-3.434,0.707
		c-0.236-2.199-1.286-4.243-2.993-5.844h7.65c0.503,0,0.912-0.41,0.912-0.912c0-0.503-0.41-0.912-0.912-0.912h-10.277
		c-1.383-0.694-2.946-1.123-4.541-1.246c0.51-4.056,4.534-7.195,9.3-7.195c5.279,0,9.738,3.695,9.738,8.07
		C207.631,51.045,206.856,52.883,205.449,54.333z M182.319,65.701c-0.603,0.66-1.35,1.158-2.186,1.46
		c0.426-1.102,0.486-2.31,0.159-3.464c-0.042-0.144-0.12-0.276-0.223-0.383c-1.406-1.45-2.181-3.288-2.181-5.177
		c0-4.375,4.46-8.07,9.739-8.07c5.157,0,9.353,3.62,9.353,8.07s-4.196,8.07-9.353,8.07c-1.484,0-3.169-0.29-4.296-0.739
		C182.975,65.329,182.573,65.424,182.319,65.701z"/>
	<path fill="#6E8999" d="M184.675,57.768h8.084c0.503,0,0.912-0.41,0.912-0.913c0-0.503-0.41-0.912-0.912-0.912h-8.084
		c-0.504,0-0.913,0.41-0.913,0.912C183.761,57.358,184.171,57.768,184.675,57.768z"/>
	<path fill="#6E8999" d="M193.671,60.704c0-0.503-0.41-0.912-0.912-0.912h-10.651c-0.503,0-0.912,0.41-0.912,0.912
		c0,0.503,0.41,0.912,0.912,0.912h10.651C193.261,61.617,193.671,61.207,193.671,60.704z"/>
	<path fill="#6E8999" d="M203.41,45.676h-8.085c-0.503,0-0.912,0.41-0.912,0.912c0,0.504,0.41,0.913,0.912,0.913h8.085
		c0.503,0,0.912-0.41,0.912-0.913C204.322,46.085,203.913,45.676,203.41,45.676z"/>
</g>
</svg>
