<?xml version="1.0" encoding="utf-8"?>
<!-- Generator: Adobe Illustrator 21.0.2, SVG Export Plug-In . SVG Version: 6.00 Build 0)  -->
<svg version="1.1" id="Layer_1" xmlns="http://www.w3.org/2000/svg" xmlns:xlink="http://www.w3.org/1999/xlink" x="0px" y="0px"
	 width="35px" height="35px" viewBox="86.5 -2.5 35 35" enable-background="new 86.5 -2.5 35 35" xml:space="preserve">
<g>
	<g>
		<path fill="#6E8999" d="M116.469,1.563H91.531c-1.811,0.002-3.279,1.47-3.281,3.281v17.719c0.002,1.811,1.47,3.279,3.281,3.281
			h8.973l-0.937,3.281h-2.13v1.313h13.125v-1.313h-2.13l-0.937-3.281h8.973c1.811-0.002,3.279-1.47,3.281-3.281V4.844
			C119.748,3.033,118.28,1.565,116.469,1.563L116.469,1.563z M100.933,29.125l0.937-3.281h4.261l0.937,3.281H100.933z
			 M118.438,22.563c0,1.087-0.881,1.969-1.969,1.969H91.531c-1.087,0-1.969-0.881-1.969-1.969V21.25h28.875V22.563z M118.438,19.938
			H89.563V4.844c0-1.087,0.881-1.969,1.969-1.969h24.938c1.087,0,1.969,0.881,1.969,1.969V19.938z M118.438,19.938"/>
	</g>
	<g>
		<path fill="#6E8999" d="M102.051,16.485l2.627-9.182l1.262,0.361l-2.628,9.182L102.051,16.485z M102.051,16.485"/>
	</g>
	<g>
		<path fill="#6E8999" d="M100.483,9.285l-0.84-1.008l-3.938,3.281c-0.278,0.232-0.316,0.646-0.084,0.925
			c0.025,0.03,0.053,0.059,0.084,0.084l3.938,3.281l0.84-1.008l-3.333-2.777L100.483,9.285z M100.483,9.285"/>
	</g>
	<g>
		<path fill="#6E8999" d="M112.379,11.642c-0.025-0.03-0.053-0.059-0.084-0.084l-3.938-3.281l-0.84,1.008l3.333,2.777l-3.333,2.777
			l0.84,1.008l3.938-3.281C112.573,12.334,112.611,11.921,112.379,11.642L112.379,11.642z M112.379,11.642"/>
	</g>
</g>
</svg>
