<?xml version="1.0" encoding="utf-8"?>
<!-- Generator: Adobe Illustrator 21.0.2, SVG Export Plug-In . SVG Version: 6.00 Build 0)  -->
<svg version="1.1" id="Layer_1" xmlns="http://www.w3.org/2000/svg" xmlns:xlink="http://www.w3.org/1999/xlink" x="0px" y="0px"
	 width="35px" height="35px" viewBox="131 37.5 35 35" enable-background="new 131 37.5 35 35" xml:space="preserve">
<g>
	<g>
		<g>
			<path fill="#6E8999" d="M165.583,47.964c-0.443-0.826-1.181-1.43-2.078-1.702c-0.897-0.272-1.846-0.178-2.673,0.266
				c-0.827,0.442-1.431,1.18-1.702,2.078c-0.181,0.597-0.196,1.217-0.057,1.809l-3.79,2.029c-1.152-1.618-2.949-2.746-5.013-3.005
				v-3.234c1.494-0.402,2.596-1.769,2.596-3.388c0-1.934-1.575-3.509-3.509-3.509c-1.935,0-3.51,1.575-3.51,3.51
				c0,1.619,1.102,2.985,2.596,3.388v3.233c-2.636,0.332-4.837,2.079-5.815,4.456l-4.148-1.117c0.001-0.608-0.154-1.208-0.465-1.75
				c-0.468-0.813-1.223-1.395-2.128-1.639c-1.869-0.503-3.798,0.608-4.302,2.476c-0.243,0.906-0.12,1.851,0.347,2.663
				c0.468,0.812,1.224,1.395,2.129,1.639c0.304,0.082,0.612,0.122,0.919,0.122c0.606,0,1.204-0.158,1.744-0.469
				c0.541-0.311,0.977-0.753,1.282-1.279l4.147,1.117c-0.044,0.326-0.07,0.658-0.07,0.995c0,1.677,0.572,3.222,1.529,4.454
				l-3.042,3.041c-1.341-0.77-3.084-0.587-4.229,0.557c-1.368,1.369-1.368,3.595,0,4.963c0.685,0.685,1.583,1.026,2.482,1.026
				s1.797-0.342,2.481-1.026c1.145-1.144,1.328-2.888,0.558-4.229l3.041-3.041c1.231,0.957,2.776,1.529,4.454,1.529
				c1.677,0,3.221-0.572,4.453-1.529l3.041,3.041c-0.771,1.342-0.588,3.085,0.557,4.229c0.684,0.685,1.582,1.026,2.481,1.026
				s1.797-0.342,2.482-1.026c1.368-1.368,1.368-3.594,0-4.963c-1.145-1.144-2.888-1.327-4.229-0.557l-3.041-3.041
				c0.957-1.231,1.529-2.777,1.529-4.454c0-0.916-0.172-1.793-0.483-2.601l3.787-2.027c0.416,0.443,0.94,0.775,1.538,0.956
				c0.335,0.101,0.679,0.152,1.021,0.152c0.57,0,1.135-0.141,1.652-0.418c0.826-0.442,1.431-1.18,1.703-2.078
				C166.119,49.74,166.025,48.79,165.583,47.964L165.583,47.964z M163.283,51.105c-0.396,0.212-0.852,0.258-1.282,0.127
				c-0.43-0.13-0.784-0.42-0.996-0.816c-0.212-0.397-0.257-0.853-0.128-1.283c0.13-0.43,0.421-0.784,0.817-0.996
				c0.248-0.133,0.519-0.201,0.792-0.201c0.164,0,0.329,0.025,0.49,0.073c0.43,0.13,0.784,0.42,0.996,0.817
				c0.212,0.396,0.258,0.851,0.128,1.282C163.97,50.538,163.68,50.893,163.283,51.105L163.283,51.105z M154.805,56.652
				c0,3.003-2.444,5.447-5.448,5.447c-3.003,0-5.447-2.444-5.447-5.447c0-3.003,2.444-5.447,5.447-5.447
				C152.361,51.205,154.805,53.649,154.805,56.652L154.805,56.652z M147.673,42.817c0-0.929,0.755-1.684,1.683-1.684
				c0.929,0,1.684,0.755,1.684,1.684c0,0.928-0.755,1.683-1.684,1.683C148.429,44.5,147.673,43.745,147.673,42.817L147.673,42.817z
				 M134.536,54.402c-0.434-0.117-0.797-0.396-1.021-0.786c-0.224-0.39-0.284-0.843-0.166-1.277
				c0.242-0.896,1.167-1.429,2.064-1.188c0.434,0.117,0.797,0.396,1.021,0.786c0.224,0.39,0.283,0.843,0.166,1.277
				C136.358,54.111,135.433,54.644,134.536,54.402L134.536,54.402z M140.014,68.376c-0.656,0.656-1.724,0.656-2.381,0
				c-0.656-0.656-0.656-1.724,0-2.381c0.329-0.328,0.76-0.492,1.191-0.492s0.862,0.164,1.19,0.492
				C140.671,66.651,140.671,67.72,140.014,68.376L140.014,68.376z M161.08,65.994c0.657,0.657,0.657,1.724,0,2.381
				c-0.656,0.656-1.724,0.656-2.38,0c-0.657-0.656-0.657-1.724,0-2.381c0.328-0.328,0.759-0.492,1.19-0.492
				C160.321,65.502,160.752,65.666,161.08,65.994L161.08,65.994z M161.08,65.994"/>
		</g>
	</g>
</g>
</svg>
