<?xml version="1.0" encoding="utf-8"?>
<!-- Generator: Adobe Illustrator 21.0.2, SVG Export Plug-In . SVG Version: 6.00 Build 0)  -->
<svg version="1.1" id="Layer_1" xmlns="http://www.w3.org/2000/svg" xmlns:xlink="http://www.w3.org/1999/xlink" x="0px" y="0px"
	 width="35px" height="35px" viewBox="169.75 -2.5 35 35" enable-background="new 169.75 -2.5 35 35" xml:space="preserve">
<g>
	<path fill="#6E8999" d="M195.788,11.261c-0.385,0-0.757,0.107-1.088,0.312c-0.685-0.811-1.921-1.067-2.866-0.593
		c-0.401-0.788-1.212-1.299-2.104-1.299c-0.556,0-1.082,0.193-1.506,0.547c-0.437-0.427-1.013-0.667-1.622-0.667h-0.109
		c-1.287,0-2.336,1.048-2.336,2.337v0.794l-1.76,1.089c-0.127,0.079-0.228,0.191-0.292,0.322l-1.349,2.735
		c-0.449,0.91-0.588,1.961-0.392,2.959c0.181,0.914,0.621,1.738,1.267,2.376l4.15,4.319v3.471c0,0.435,0.354,0.788,0.788,0.788
		h10.01c0.435,0,0.788-0.354,0.788-0.788v-2.145c0-0.406,0.028-0.816,0.083-1.219l0.284-2.115c0.105-0.782,0.16-1.584,0.16-2.384
		v-8.996c0-0.132-0.037-0.259-0.111-0.388C197.497,11.844,196.7,11.261,195.788,11.261z M185.734,12.877v-0.981
		c0-0.419,0.341-0.759,0.759-0.759h0.109c0.418,0,0.759,0.341,0.759,0.759v2.274l-1.606-0.92
		C185.778,13.126,185.771,13,185.734,12.877z M190.522,15.737c0,0.14-0.039,0.276-0.107,0.394c-0.061-0.168-0.181-0.315-0.348-0.411
		l-1.129-0.646v-3.024c0-0.437,0.355-0.792,0.791-0.792s0.792,0.355,0.792,0.792V15.737z M183.399,15.04
		c0.019-0.008,0.039-0.016,0.058-0.028l1.1-0.63l4.06,2.325c-0.548,0.861-1.601,1.285-2.526,0.982
		c-0.397-0.128-0.662-0.342-0.834-0.674c-0.098-0.187-0.263-0.324-0.465-0.388c-0.198-0.061-0.414-0.043-0.599,0.055
		c-0.186,0.097-0.324,0.261-0.387,0.461c-0.063,0.201-0.045,0.416,0.053,0.603c0.367,0.7,0.955,1.186,1.747,1.443
		c0.97,0.314,2.067,0.184,2.982-0.343c1.104,0.169,1.935,1.073,1.935,2.113v2.931c0,0.436,0.354,0.789,0.788,0.789
		s0.788-0.354,0.788-0.789V20.96c0-1.183-0.606-2.296-1.591-2.991c0.293-0.104,0.568-0.267,0.803-0.48
		c0.849,0.771,2.217,0.796,3.084,0.074c0.519,0.463,1.248,0.651,1.922,0.468v4.067c0,0.722-0.049,1.454-0.146,2.174l-0.285,2.115
		c-0.063,0.473-0.095,0.954-0.095,1.43v1.357h-8.433v-2.999c0-0.205-0.078-0.399-0.219-0.546l-4.384-4.563
		c-0.433-0.428-0.725-0.973-0.844-1.576c-0.13-0.659-0.038-1.354,0.26-1.957L183.399,15.04z M195.26,15.997v-2.63
		c0-0.291,0.237-0.529,0.529-0.529s0.529,0.237,0.529,0.529v2.63c0,0.291-0.237,0.528-0.529,0.528S195.26,16.288,195.26,15.997z
		 M193.683,15.737c0,0.437-0.356,0.792-0.792,0.792s-0.791-0.356-0.791-0.792v-2.638c0-0.437,0.355-0.792,0.791-0.792
		s0.792,0.355,0.792,0.792V15.737z M183.295,14.796l0.001,0.003L183.295,14.796C183.294,14.797,183.294,14.797,183.295,14.796z"/>
	<path fill="#6E8999" d="M181.027,13.507c-0.033-0.208-0.145-0.391-0.315-0.515l-5.797-4.215c-0.17-0.123-0.375-0.174-0.586-0.141
		c-0.209,0.033-0.391,0.145-0.514,0.314c-0.124,0.17-0.175,0.379-0.142,0.587c0.033,0.208,0.145,0.391,0.315,0.515l5.795,4.214
		c0.136,0.099,0.297,0.151,0.464,0.151c0.252,0,0.49-0.121,0.638-0.324C181.008,13.924,181.06,13.715,181.027,13.507z"/>
	<path fill="#6E8999" d="M181.729,11.477c0,0.001,0.001,0.001,0.001,0.001c0.15,0.195,0.378,0.306,0.625,0.306
		c0.173,0,0.344-0.058,0.481-0.164c0.344-0.265,0.409-0.761,0.144-1.105l-5.268-6.849c-0.267-0.345-0.763-0.408-1.106-0.144
		s-0.408,0.76-0.144,1.105L181.729,11.477z"/>
	<path fill="#6E8999" d="M184.227,8.569C184.227,8.569,184.227,8.569,184.227,8.569c0.094,0.343,0.407,0.581,0.761,0.581
		c0.07,0,0.139-0.009,0.208-0.028c0.419-0.114,0.668-0.549,0.554-0.969l-2.296-8.397c-0.056-0.205-0.188-0.374-0.371-0.479
		c-0.183-0.103-0.396-0.129-0.598-0.074c-0.419,0.115-0.667,0.55-0.552,0.969L184.227,8.569z"/>
	<path fill="#6E8999" d="M188.626,8.622c0.005,0.001,0.045,0.002,0.05,0.002c0.415,0,0.761-0.325,0.787-0.739l0.526-8.429
		c0.014-0.21-0.055-0.413-0.195-0.571c-0.139-0.158-0.331-0.252-0.54-0.265c-0.211-0.014-0.411,0.053-0.569,0.191
		c-0.161,0.14-0.256,0.334-0.269,0.547l-0.527,8.428c-0.014,0.21,0.054,0.413,0.193,0.571
		C188.224,8.515,188.416,8.609,188.626,8.622z"/>
	<path fill="#6E8999" d="M192.034,9.077c0,0,0,0,0.001,0.001c0.104,0.048,0.216,0.072,0.329,0.072c0.307,0,0.587-0.179,0.716-0.457
		l3.35-7.235c0.089-0.191,0.098-0.405,0.026-0.603c-0.073-0.198-0.218-0.356-0.41-0.444c-0.395-0.182-0.864-0.008-1.046,0.384
		l-3.35,7.234c-0.089,0.192-0.098,0.406-0.026,0.604S191.841,8.989,192.034,9.077z"/>
	<path fill="#6E8999" d="M200.236,4.117l-4.741,4.741c-0.149,0.149-0.232,0.347-0.232,0.558s0.083,0.409,0.232,0.557
		c0.147,0.149,0.346,0.231,0.557,0.231c0.21,0,0.408-0.082,0.557-0.231l4.742-4.742c0.308-0.307,0.308-0.807,0-1.115
		C201.056,3.82,200.535,3.817,200.236,4.117z"/>
	<path fill="#6E8999" d="M175.522,23.049c0.13-0.036,0.253-0.093,0.35-0.19c0.095-0.094,0.151-0.212,0.188-0.337
		c0.037,0.125,0.093,0.242,0.188,0.337c0.149,0.149,0.347,0.231,0.557,0.231c0.212,0,0.41-0.083,0.557-0.231l1.119-1.118
		c0.308-0.308,0.308-0.807,0-1.115c-0.297-0.298-0.816-0.299-1.116,0l-1.118,1.118c-0.095,0.095-0.151,0.212-0.188,0.337
		c-0.037-0.125-0.093-0.243-0.188-0.337l-1.117-1.118c-0.149-0.149-0.348-0.232-0.558-0.232h-0.001
		c-0.211,0.001-0.408,0.083-0.556,0.232c-0.308,0.308-0.308,0.807,0,1.115l1.118,1.118c0.098,0.098,0.22,0.154,0.35,0.19
		c-0.129,0.034-0.253,0.088-0.35,0.185l-1.118,1.118c-0.149,0.149-0.231,0.347-0.231,0.557c0,0.211,0.082,0.408,0.231,0.557
		s0.347,0.231,0.557,0.231s0.409-0.082,0.558-0.231l1.117-1.118c0.149-0.148,0.231-0.347,0.231-0.557
		c0-0.211-0.082-0.409-0.231-0.557C175.775,23.137,175.652,23.083,175.522,23.049z"/>
	<path fill="#6E8999" d="M177.487,23.357c-0.31-0.307-0.81-0.307-1.116,0c-0.307,0.309-0.307,0.809,0,1.116l1.127,1.127
		c0.149,0.149,0.347,0.231,0.557,0.231s0.409-0.082,0.558-0.231s0.231-0.347,0.231-0.557c0-0.211-0.082-0.408-0.231-0.557
		L177.487,23.357z"/>
	<path fill="#6E8999" d="M200.872,2.655c0.183,0,0.367-0.027,0.546-0.081c0.996-0.302,1.56-1.358,1.259-2.352
		c-0.146-0.482-0.471-0.878-0.916-1.117c-0.444-0.237-0.955-0.289-1.437-0.143c-0.483,0.146-0.879,0.471-1.116,0.916
		c-0.239,0.443-0.289,0.954-0.143,1.438C199.304,2.104,200.047,2.655,200.872,2.655z M200.574,0.859
		c-0.025-0.081-0.016-0.163,0.024-0.236c0.001-0.001,0.001-0.001,0.001-0.001c0.039-0.073,0.103-0.126,0.183-0.15
		c0.03-0.009,0.059-0.014,0.089-0.014c0.135,0,0.257,0.091,0.297,0.22c0.049,0.164-0.043,0.337-0.208,0.386
		c-0.08,0.025-0.162,0.016-0.234-0.023C200.652,1.002,200.598,0.937,200.574,0.859z"/>
	<path fill="#6E8999" d="M202.46,17.453l0.22-0.219c0.308-0.308,0.308-0.807,0-1.115c-0.149-0.149-0.348-0.231-0.558-0.231h-0.001
		c-0.211,0-0.408,0.082-0.556,0.231l-0.219,0.219l-0.219-0.219c-0.148-0.149-0.346-0.231-0.556-0.231h-0.001
		c-0.211,0-0.409,0.082-0.558,0.231c-0.308,0.308-0.308,0.807,0,1.115l0.219,0.219l-0.219,0.22
		c-0.308,0.308-0.308,0.807,0.001,1.116c0.299,0.297,0.814,0.298,1.115-0.001l0.219-0.219l0.219,0.219
		c0.147,0.147,0.35,0.231,0.557,0.231c0.21,0,0.408-0.082,0.558-0.231c0.308-0.308,0.308-0.807,0-1.115L202.46,17.453z"/>
</g>
</svg>
