<?xml version="1.0" encoding="utf-8"?>
<!-- Generator: Adobe Illustrator 21.0.2, SVG Export Plug-In . SVG Version: 6.00 Build 0)  -->
<svg version="1.1" id="Layer_1" xmlns="http://www.w3.org/2000/svg" xmlns:xlink="http://www.w3.org/1999/xlink" x="0px" y="0px"
	 width="35px" height="35px" viewBox="44 -2.5 35 35" enable-background="new 44 -2.5 35 35" xml:space="preserve">
<g>
	<g>
		<path fill="#6E8999" d="M62.029,14.224c-0.255-0.254-0.666-0.254-0.921,0c-0.253,0.254-0.253,0.666,0,0.92
			c0.254,0.254,0.666,0.254,0.921,0C62.283,14.89,62.283,14.478,62.029,14.224L62.029,14.224z M62.029,14.224"/>
	</g>
	<g>
		<g>
			<path fill="#6E8999" d="M70.309,5.943c-1.271-1.271-3.329-1.271-4.6,0c-1.268,1.268-1.268,3.332,0,4.601
				c1.268,1.267,3.332,1.268,4.6,0C71.58,9.273,71.58,7.215,70.309,5.943L70.309,5.943z M69.389,9.624
				c-0.761,0.761-1.999,0.761-2.76,0c-0.761-0.761-0.761-2,0-2.76c0.763-0.763,1.998-0.763,2.76,0
				C70.152,7.626,70.152,8.861,69.389,9.624L69.389,9.624z M69.389,9.624"/>
		</g>
		<g>
			<path fill="#6E8999" d="M77.669-1.417c-0.128-0.128-0.302-0.197-0.483-0.19c-0.147,0.005-3.65,0.146-7.813,1.618
				c-3.336,1.178-6.117,2.864-8.265,5.013c-0.481,0.481-0.95,0.992-1.398,1.522c-2.124-1.25-3.826-0.858-4.902-0.283
				c-2.478,1.326-4.011,4.926-4.011,7.501c0,0.263,0.159,0.501,0.402,0.601c0.081,0.033,0.165,0.049,0.249,0.049
				c0.169,0,0.335-0.066,0.46-0.19c1.307-1.307,2.918-1.225,3.444-1.156l0.228,0.228c-0.449,1.067-0.81,2.128-1.074,3.16
				c-0.096,0.373-0.063,0.768,0.079,1.13c-0.626,0.289-1.231,0.713-1.757,1.239c-1.675,1.675-2.015,5.756-2.028,5.929
				c-0.015,0.19,0.054,0.377,0.188,0.511c0.123,0.122,0.288,0.19,0.46,0.19c0.017,0,0.034-0.001,0.051-0.002
				c0.173-0.014,4.254-0.353,5.929-2.028c0.526-0.526,0.95-1.13,1.238-1.756c0.383,0.15,0.776,0.169,1.131,0.078
				c1.031-0.265,2.092-0.626,3.159-1.074l0.228,0.228c0.069,0.527,0.151,2.138-1.155,3.445c-0.186,0.186-0.242,0.466-0.141,0.709
				c0.101,0.243,0.338,0.402,0.601,0.402c2.575,0,6.175-1.533,7.501-4.011c0.576-1.076,0.968-2.778-0.283-4.902
				c0.53-0.448,1.041-0.916,1.522-1.398c2.148-2.148,3.835-4.929,5.013-8.265c1.471-4.164,1.612-7.666,1.617-7.813
				C77.866-1.114,77.797-1.29,77.669-1.417L77.669-1.417z M52.252,12.364c0.404-1.956,1.578-4.102,3.171-4.954
				c1.064-0.57,2.228-0.514,3.465,0.163c-1.054,1.386-1.97,2.879-2.733,4.455c-0.01-0.006-0.127-0.153-0.344-0.202
				C55.72,11.806,53.998,11.436,52.252,12.364L52.252,12.364z M56.508,22.504c-0.895,0.894-2.993,1.366-4.32,1.559
				c0.193-1.327,0.665-3.425,1.559-4.319c0.501-0.501,1.082-0.881,1.666-1.095l2.189,2.189
				C57.389,21.422,57.009,22.003,56.508,22.504L56.508,22.504z M59.474,20.486c-0.188,0.048-0.406-0.023-0.569-0.185
				c-0.842-0.841-1.171-1.171-1.274-1.274c-0.189-0.189-0.654-0.654-1.68-1.68c-0.162-0.162-0.233-0.381-0.185-0.569
				c0.208-0.811,0.481-1.644,0.813-2.485l5.38,5.38C61.118,20.005,60.285,20.277,59.474,20.486L59.474,20.486z M68.843,20.83
				c-0.853,1.593-2.999,2.766-4.954,3.171c0.624-1.173,0.761-2.667,0.533-3.573c-0.053-0.21-0.19-0.316-0.198-0.329
				c1.577-0.763,3.07-1.68,4.456-2.733C69.356,18.602,69.412,19.766,68.843,20.83L68.843,20.83z M70.309,14.224
				c-0.586,0.586-1.217,1.152-1.876,1.683c-1.583,1.275-3.327,2.355-5.186,3.215l-6.116-6.117c0.86-1.859,1.94-3.602,3.215-5.186
				c0.531-0.659,1.097-1.291,1.683-1.876c1.927-1.927,4.415-3.461,7.395-4.566l5.451,5.451
				C73.771,9.809,72.237,12.296,70.309,14.224L70.309,14.224z M75.343,5.457l-4.547-4.547c2.477-0.769,4.633-1.058,5.708-1.161
				C76.4,0.824,76.112,2.979,75.343,5.457L75.343,5.457z M75.343,5.457"/>
		</g>
	</g>
	<g>
		<path fill="#6E8999" d="M60.188,25.264c-0.254-0.254-0.666-0.254-0.92,0l-1.84,1.84c-0.254,0.254-0.254,0.666,0,0.92
			c0.255,0.254,0.666,0.254,0.92,0l1.84-1.84C60.443,25.93,60.443,25.518,60.188,25.264L60.188,25.264z M60.188,25.264"/>
	</g>
	<g>
		<g>
			<path fill="#6E8999" d="M50.988,16.064c-0.254-0.254-0.666-0.254-0.92,0l-1.84,1.84c-0.254,0.254-0.254,0.666,0,0.92
				c0.254,0.254,0.666,0.254,0.92,0l1.841-1.84C51.243,16.73,51.243,16.318,50.988,16.064L50.988,16.064z M50.988,16.064"/>
		</g>
		<g>
			<path fill="#6E8999" d="M55.588,26.184c-0.254-0.254-0.666-0.254-0.92,0l-4.407,4.406c-0.254,0.254-0.254,0.666,0,0.92
				c0.254,0.254,0.666,0.254,0.92,0l4.407-4.406C55.843,26.85,55.843,26.438,55.588,26.184L55.588,26.184z M55.588,26.184"/>
		</g>
		<g>
			<path fill="#6E8999" d="M50.384,26.184c-0.254-0.254-0.666-0.254-0.92,0l-4.407,4.406c-0.254,0.254-0.254,0.666,0,0.92
				c0.254,0.254,0.666,0.254,0.92,0l4.407-4.406C50.638,26.85,50.638,26.438,50.384,26.184L50.384,26.184z M50.384,26.184"/>
		</g>
		<g>
			<path fill="#6E8999" d="M50.068,20.664c-0.254-0.254-0.666-0.254-0.92,0l-4.406,4.407c-0.254,0.254-0.254,0.666,0,0.92
				c0.254,0.254,0.666,0.254,0.92,0l4.406-4.407C50.322,21.329,50.322,20.918,50.068,20.664L50.068,20.664z M50.068,20.664"/>
		</g>
	</g>
	<g>
		<path fill="#6E8999" d="M64.789,11.463c-0.254-0.254-0.666-0.254-0.92,0l-0.92,0.92c-0.254,0.254-0.254,0.666,0,0.92
			c0.254,0.254,0.666,0.254,0.92,0l0.92-0.92C65.043,12.129,65.043,11.717,64.789,11.463L64.789,11.463z M64.789,11.463"/>
	</g>
</g>
</svg>
