<?xml version="1.0" encoding="utf-8"?>
<!-- Generator: Adobe Illustrator 21.0.2, SVG Export Plug-In . SVG Version: 6.00 Build 0)  -->
<svg version="1.1" id="Layer_1" xmlns="http://www.w3.org/2000/svg" xmlns:xlink="http://www.w3.org/1999/xlink" x="0px" y="0px"
	 width="35px" height="35px" viewBox="87.75 37.5 35 35" enable-background="new 87.75 37.5 35 35" xml:space="preserve">
<g>
	<g>
		<path fill="#6E8999" d="M112.666,60.03c0,0.587-0.476,1.062-1.062,1.062s-1.062-0.476-1.062-1.062
			c0-0.587,0.476-1.062,1.062-1.062S112.666,59.443,112.666,60.03L112.666,60.03z M112.666,60.03"/>
	</g>
	<g>
		<g>
			<path fill="#6E8999" d="M106.292,66.723H95.094c-1.172,0-2.125-0.953-2.125-2.125v-8.712c0-1.172,0.953-2.125,2.125-2.125h21.503
				c1.172,0,2.125,0.953,2.125,2.125v0.603c0,0.587,0.476,1.062,1.062,1.062s1.062-0.476,1.062-1.062v-0.603
				c0-2.343-1.906-4.25-4.25-4.25h-4.677v-5.881c0-3.441-2.86-6.24-6.374-6.24s-6.374,2.799-6.374,6.24v5.881h-4.078
				c-2.343,0-4.25,1.907-4.25,4.25v8.712c0,2.343,1.906,4.25,4.25,4.25h11.198c0.587,0,1.062-0.476,1.062-1.062
				C107.354,67.198,106.879,66.723,106.292,66.723L106.292,66.723z M101.297,45.756c0-2.269,1.906-4.115,4.25-4.115
				c2.343,0,4.25,1.846,4.25,4.115v5.881h-8.499V45.756z M101.297,45.756"/>
		</g>
		<g>
			<path fill="#6E8999" d="M121.056,59.166c-0.477-0.342-1.141-0.232-1.482,0.245l-5.237,7.314
				c-0.143,0.166-0.322,0.202-0.418,0.208c-0.099,0.007-0.288-0.006-0.455-0.163l-3.384-3.302c-0.42-0.41-1.093-0.402-1.502,0.018
				c-0.41,0.42-0.402,1.093,0.018,1.502l3.39,3.308c0.003,0.003,0.006,0.006,0.01,0.009c0.508,0.484,1.187,0.753,1.885,0.753
				c0.06,0,0.12-0.002,0.18-0.006c0.76-0.051,1.47-0.42,1.948-1.014c0.012-0.016,0.024-0.031,0.036-0.047l5.258-7.344
				C121.643,60.171,121.533,59.507,121.056,59.166L121.056,59.166z M121.056,59.166"/>
		</g>
	</g>
	<g>
		<path fill="#6E8999" d="M108.629,60.03c0,0.587-0.476,1.062-1.062,1.062s-1.062-0.476-1.062-1.062
			c0-0.587,0.476-1.062,1.062-1.062S108.629,59.443,108.629,60.03L108.629,60.03z M108.629,60.03"/>
	</g>
	<g>
		<path fill="#6E8999" d="M100.661,60.03c0,0.587-0.476,1.062-1.062,1.062s-1.062-0.476-1.062-1.062
			c0-0.587,0.476-1.062,1.062-1.062S100.661,59.443,100.661,60.03L100.661,60.03z M100.661,60.03"/>
	</g>
	<g>
		<path fill="#6E8999" d="M104.645,60.03c0,0.587-0.476,1.062-1.062,1.062s-1.062-0.476-1.062-1.062
			c0-0.587,0.476-1.062,1.062-1.062S104.645,59.443,104.645,60.03L104.645,60.03z M104.645,60.03"/>
	</g>
</g>
</svg>
