<?xml version="1.0" encoding="utf-8"?>
<!-- Generator: Adobe Illustrator 21.0.2, SVG Export Plug-In . SVG Version: 6.00 Build 0)  -->
<svg version="1.1" id="Layer_1" xmlns="http://www.w3.org/2000/svg" xmlns:xlink="http://www.w3.org/1999/xlink" x="0px" y="0px"
	 width="35px" height="35px" viewBox="128 -2.5 35 35" enable-background="new 128 -2.5 35 35" xml:space="preserve">
<g>
	<g>
		<path fill="#6E8999" d="M157.174,1.818h-23.348c-1.373,0-2.49,1.117-2.49,2.49v16.598c0,1.373,1.117,2.49,2.49,2.49h7.203
			l-1.107,5.097h-2.721c-0.458,0-0.83,0.371-0.83,0.83s0.371,0.83,0.83,0.83h16.598c0.458,0,0.83-0.371,0.83-0.83
			s-0.371-0.83-0.83-0.83h-2.721l-1.107-5.097h7.203c1.373,0,2.49-1.117,2.49-2.49V4.307C159.663,2.934,158.547,1.818,157.174,1.818
			L157.174,1.818z M141.672,28.492l1.107-5.097h5.443l1.107,5.097H141.672z M158.004,20.905c0,0.458-0.372,0.83-0.83,0.83
			c-2.411,0-20.911,0-23.348,0c-0.458,0-0.83-0.372-0.83-0.83v-0.83h25.007V20.905z M140.387,13.646l-0.755-0.754l1.174-1.174
			l0.755,0.755c0.268,0.267,0.682,0.32,1.009,0.128c0.466-0.275,0.964-0.482,1.48-0.616c0.366-0.094,0.622-0.425,0.622-0.803v-1.065
			h1.66v1.065c0,0.378,0.256,0.709,0.622,0.803c0.515,0.134,1.013,0.341,1.479,0.616c0.326,0.192,0.741,0.139,1.009-0.128
			l0.755-0.755l1.174,1.174l-0.755,0.755c-0.267,0.268-0.32,0.682-0.128,1.008c0.275,0.467,0.482,0.964,0.616,1.48
			c0.094,0.366,0.425,0.622,0.803,0.622h1.065v1.66h-3.403c0.055-0.272,0.084-0.55,0.084-0.83c0-2.288-1.861-4.149-4.149-4.149
			s-4.149,1.861-4.149,4.149c0,0.28,0.029,0.558,0.084,0.83h-3.403v-1.66h1.065c0.378,0,0.709-0.256,0.803-0.622
			c0.133-0.515,0.341-1.013,0.616-1.48C140.707,14.328,140.654,13.914,140.387,13.646L140.387,13.646z M147.99,17.585
			c0,0.284-0.049,0.565-0.143,0.83h-4.694c-0.093-0.265-0.143-0.546-0.143-0.83c0-1.373,1.117-2.49,2.49-2.49
			C146.873,15.096,147.99,16.213,147.99,17.585L147.99,17.585z M158.004,18.415h-3.375v-2.49c0-0.458-0.371-0.83-0.83-0.83h-1.282
			c-0.086-0.241-0.185-0.478-0.296-0.711l0.908-0.907c0.324-0.324,0.324-0.849,0-1.174l-2.347-2.347
			c-0.156-0.156-0.367-0.243-0.587-0.243c-0.22,0-0.431,0.087-0.587,0.243l-0.907,0.908c-0.232-0.111-0.469-0.21-0.711-0.296V9.287
			c0-0.458-0.371-0.83-0.83-0.83h-3.32c-0.458,0-0.83,0.371-0.83,0.83v1.282c-0.241,0.086-0.478,0.184-0.711,0.296l-0.907-0.908
			c-0.156-0.156-0.367-0.243-0.587-0.243c-0.22,0-0.431,0.087-0.587,0.243l-2.347,2.347c-0.325,0.325-0.325,0.85,0,1.174
			l0.907,0.908c-0.111,0.232-0.21,0.469-0.296,0.71h-1.282c-0.458,0-0.83,0.372-0.83,0.83v2.49h-3.375V4.307
			c0-0.458,0.372-0.83,0.83-0.83h23.348c0.458,0,0.83,0.372,0.83,0.83V18.415z M158.004,18.415"/>
	</g>
	<g>
		<path fill="#6E8999" d="M153.799,5.137c-1.373,0-2.49,1.117-2.49,2.49c0,1.373,1.117,2.49,2.49,2.49c1.373,0,2.49-1.117,2.49-2.49
			C156.289,6.254,155.172,5.137,153.799,5.137L153.799,5.137z M153.799,8.457c-0.458,0-0.83-0.372-0.83-0.83
			c0-0.458,0.372-0.83,0.83-0.83s0.83,0.372,0.83,0.83C154.629,8.084,154.257,8.457,153.799,8.457L153.799,8.457z M153.799,8.457"/>
	</g>
</g>
</svg>
