<?xml version="1.0" encoding="utf-8"?>
<!-- Generator: Adobe Illustrator 21.0.2, SVG Export Plug-In . SVG Version: 6.00 Build 0)  -->
<svg version="1.1" id="Layer_1" xmlns="http://www.w3.org/2000/svg" xmlns:xlink="http://www.w3.org/1999/xlink" x="0px" y="0px"
	 width="155px" height="155px" viewBox="0 0 155 155" style="enable-background:new 0 0 155 155;" xml:space="preserve">
<style type="text/css">
	.st0{fill:url(#SVGID_1_);}
	.st1{fill:url(#SVGID_2_);}
	.st2{fill:url(#SVGID_3_);}
	.st3{fill:url(#SVGID_4_);}
	.st4{fill:#FFFFFF;}
	.st5{fill:url(#SVGID_5_);}
	.st6{fill:url(#SVGID_6_);}
	.st7{fill:#A6D6EF;}
	.st8{fill:#C7E5EF;}
	.st9{fill:#EEF6FF;}
	.st10{fill:#D9EAFC;}
	.st11{fill:#293D7C;}
	.st12{fill:#AEC1ED;}
	.st13{fill:#FF9518;}
	.st14{fill:#52BBEF;}
	.st15{fill:#1E99D6;}
	.st16{fill:#02AF8E;}
	.st17{fill:#0F9390;}
	.st18{fill:#EF8318;}
	.st19{fill:#91E0E8;}
	.st20{fill:#5DC1D8;}
	.st21{fill:#1A2B63;}
	.st22{fill:#37C47A;}
	.st23{fill:url(#SVGID_7_);}
	.st24{fill:url(#SVGID_8_);}
	.st25{fill:#40AC1F;}
	.st26{fill:#34A1D7;}
	.st27{fill:#EF5A50;}
	.st28{fill:#2B6483;}
	.st29{fill:#F2B877;}
	.st30{fill:#E9BE9D;}
	.st31{fill:#3EAF91;}
	.st32{fill:url(#SVGID_9_);}
	.st33{fill:url(#SVGID_10_);}
	.st34{fill:#E6E7E8;}
	.st35{fill:#4482C3;}
	.st36{fill:#BDC3C7;}
	.st37{fill:url(#SVGID_11_);}
	.st38{fill:url(#SVGID_12_);}
	.st39{fill:url(#SVGID_13_);}
	.st40{fill:url(#SVGID_14_);}
	.st41{fill:url(#SVGID_15_);}
	.st42{fill:url(#SVGID_16_);}
	.st43{fill:url(#SVGID_17_);}
	.st44{fill:url(#SVGID_18_);}
</style>
<linearGradient id="SVGID_1_" gradientUnits="userSpaceOnUse" x1="35.6934" y1="6.1071" x2="119.6517" y2="149.4821">
	<stop  offset="0" style="stop-color:#2D82F6"/>
	<stop  offset="0.3428" style="stop-color:#2861F6"/>
	<stop  offset="0.5408" style="stop-color:#2653F6"/>
	<stop  offset="0.6113" style="stop-color:#275BF6"/>
	<stop  offset="0.7235" style="stop-color:#2B72F5"/>
	<stop  offset="0.8623" style="stop-color:#3298F5"/>
	<stop  offset="0.9745" style="stop-color:#38BBF4"/>
</linearGradient>
<circle class="st0" cx="77.5" cy="77.5" r="77.5"/>
<path class="st4" d="M91.8,78.2c-1.1,7.6-7.7,13.1-15.5,13.1c-8.6,0-15.6-7-15.7-15.5c-0.1-8.7,6.9-15.8,15.6-15.9
	c8-0.1,14.7,5.9,15.7,13.6c0.1,0.5-0.3,1-0.9,1c-0.4,0-0.8-0.3-0.8-0.7c-0.9-6.9-6.8-12.1-13.9-12.1c-7.9,0-14.3,6.6-14,14.6
	c0.3,7.4,6.3,13.3,13.7,13.5c7.1,0.1,13.1-4.9,14.1-11.7c0.1-0.4,0.4-0.4,0.8-0.4h0C91.5,77.5,91.9,77.7,91.8,78.2z M102,95.2
	c1.7,1.7,1.7,4.4,0,6.1c-0.8,0.8-1.9,1.3-3,1.3s-2.2-0.4-3-1.3l-8.6-8.6c-3.2,2-6.9,3.2-11,3.2C65.1,95.9,56,86.8,56,75.6
	s9.1-20.3,20.3-20.3s20.3,9.1,20.3,20.3c0,4-1.2,7.8-3.2,11L102,95.2z M94.9,75.6c0-10.2-8.3-18.6-18.6-18.6s-18.6,8.3-18.6,18.6
	s8.3,18.6,18.6,18.6S94.9,85.9,94.9,75.6z M100.7,96.4L92.3,88c-1.1,1.4-2.3,2.6-3.6,3.6l8.4,8.4c0.5,0.5,1.1,0.8,1.8,0.8
	c0.7,0,1.3-0.3,1.8-0.8C101.7,99,101.7,97.4,100.7,96.4z M40,69.9l13.7-0.1c0.5,0,0.9-0.7,0.9-1.2c0-0.5-0.4-1.2-0.9-1.2L40,67.6
	c-0.5,0-0.9,0.7-0.9,1.2C39.1,69.2,39.5,69.9,40,69.9z M87.4,68.7c0,0.5-0.4,1.2-0.9,1.2h-5c-0.4,1.5-1.6,2.3-3,2.3
	c-1.4,0-2.6-0.7-3-2.3H66c-0.5,0-0.9-0.7-0.9-1.2c0-0.5,0.4-1.2,0.9-1.2h9.5c0.4-0.8,1.6-2.3,3-2.3c1.4,0,2.6,1.5,3,2.3h5
	C87.1,67.5,87.4,68.2,87.4,68.7z M80,68.8c0-0.8-0.6-1.4-1.4-1.4c-0.8,0-1.4,0.6-1.4,1.4c0,0.8,0.6,1.4,1.4,1.4
	C79.4,70.2,80,69.5,80,68.8z M110.4,68.7c0-0.5-0.4-1.2-0.9-1.2H97.9c-0.5,0-0.9,0.7-0.9,1.2c0,0.5,0.4,1.2,0.9,1.2h11.7
	C110.1,69.8,110.4,69.1,110.4,68.7z M87.4,82.6c0,0.5-0.4,1.2-0.9,1.2H74.8c-0.4,0.8-1.6,2.1-3,2.1c-1.7,0-3.1-1.6-3.1-3.3
	c0-1.7,1.4-3.2,3.1-3.2c1.4,0,2.6,0.6,3,2.1h11.8C87.1,81.4,87.4,82.1,87.4,82.6z M73.2,82.5c0-0.8-0.6-1.4-1.4-1.4
	c-0.8,0-1.4,0.6-1.4,1.4s0.6,1.4,1.4,1.4C72.5,83.9,73.2,83.3,73.2,82.5z M98.9,81.4c-0.5,0-0.9,0.7-0.9,1.2s0.4,1.2,0.9,1.2h17.7
	c0.5,0,0.9-0.7,0.9-1.2s-0.4-1.2-0.9-1.2H98.9z M70.3,99.6c0,0.5-0.4,1.2-0.9,1.2H55.3c-0.4,0.8-1.6,2.1-3,2.1
	c-1.7,0-3.1-1.5-3.1-3.2c0-1.7,1.4-3.3,3.1-3.3c1.4,0,2.6,1.3,3,2.1h14.1C69.9,98.4,70.3,99.1,70.3,99.6z M53.8,99.6
	c0-0.8-0.6-1.4-1.4-1.4c-0.8,0-1.4,0.6-1.4,1.4c0,0.8,0.6,1.4,1.4,1.4C53.1,101,53.8,100.4,53.8,99.6z M84.6,52.8
	c0-0.5,0.4-0.8,0.9-0.8H95c0.4-2.3,2.1-3.5,4.2-3.5c2.4,0,4.3,1.8,4.3,4.2c0,2.4-1.9,4.3-4.3,4.3c-2.1,0-3.8-1.9-4.2-3.4h-9.5
	C85,53.6,84.6,53.3,84.6,52.8z M96.6,52.8c0,1.4,1.2,2.6,2.6,2.6c1.4,0,2.6-1.2,2.6-2.6c0-1.4-1.2-2.6-2.6-2.6
	C97.7,50.2,96.6,51.4,96.6,52.8z"/>
</svg>
