<?xml version="1.0" encoding="utf-8"?>
<!-- Generator: Adobe Illustrator 21.0.2, SVG Export Plug-In . SVG Version: 6.00 Build 0)  -->
<svg version="1.1" id="Layer_1" xmlns="http://www.w3.org/2000/svg" xmlns:xlink="http://www.w3.org/1999/xlink" x="0px" y="0px"
	 width="155px" height="155px" viewBox="0 0 155 155" style="enable-background:new 0 0 155 155;" xml:space="preserve">
<style type="text/css">
	.st0{fill:url(#SVGID_1_);}
	.st1{fill:url(#SVGID_2_);}
	.st2{fill:url(#SVGID_3_);}
	.st3{fill:url(#SVGID_4_);}
	.st4{fill:#FFFFFF;}
	.st5{fill:url(#SVGID_5_);}
	.st6{fill:url(#SVGID_6_);}
	.st7{fill:#A6D6EF;}
	.st8{fill:#C7E5EF;}
	.st9{fill:#EEF6FF;}
	.st10{fill:#D9EAFC;}
	.st11{fill:#293D7C;}
	.st12{fill:#AEC1ED;}
	.st13{fill:#FF9518;}
	.st14{fill:#52BBEF;}
	.st15{fill:#1E99D6;}
	.st16{fill:#02AF8E;}
	.st17{fill:#0F9390;}
	.st18{fill:#EF8318;}
	.st19{fill:#91E0E8;}
	.st20{fill:#5DC1D8;}
	.st21{fill:#1A2B63;}
	.st22{fill:#37C47A;}
	.st23{fill:url(#SVGID_7_);}
	.st24{fill:url(#SVGID_8_);}
	.st25{fill:#40AC1F;}
	.st26{fill:#34A1D7;}
	.st27{fill:#EF5A50;}
	.st28{fill:#2B6483;}
	.st29{fill:#F2B877;}
	.st30{fill:#E9BE9D;}
	.st31{fill:#3EAF91;}
	.st32{fill:url(#SVGID_9_);}
	.st33{fill:url(#SVGID_10_);}
	.st34{fill:#E6E7E8;}
	.st35{fill:#4482C3;}
	.st36{fill:#BDC3C7;}
	.st37{fill:url(#SVGID_11_);}
	.st38{fill:url(#SVGID_12_);}
	.st39{fill:url(#SVGID_13_);}
	.st40{fill:url(#SVGID_14_);}
	.st41{fill:url(#SVGID_15_);}
	.st42{fill:url(#SVGID_16_);}
	.st43{fill:url(#SVGID_17_);}
	.st44{fill:url(#SVGID_18_);}
</style>
<linearGradient id="SVGID_1_" gradientUnits="userSpaceOnUse" x1="35.6934" y1="6.1071" x2="119.6517" y2="149.4821">
	<stop  offset="0" style="stop-color:#2D82F6"/>
	<stop  offset="0.3428" style="stop-color:#2861F6"/>
	<stop  offset="0.5408" style="stop-color:#2653F6"/>
	<stop  offset="0.6113" style="stop-color:#275BF6"/>
	<stop  offset="0.7235" style="stop-color:#2B72F5"/>
	<stop  offset="0.8623" style="stop-color:#3298F5"/>
	<stop  offset="0.9745" style="stop-color:#38BBF4"/>
</linearGradient>
<circle class="st0" cx="77.5" cy="77.5" r="77.5"/>
<g>
	<g>
		<path class="st4" d="M103.2,101.1l0.9,3.5h-3.6c-0.4-1.7-1.4-3.2-2.9-4.1l8.1-2.6v-17c3.4-4.7,5.3-10.5,5-16.5
			C110.2,50.3,98,38.8,83.5,38.8H75c-4.4,0-8.5,0.9-12.1,2.6c-9.6,4.6-15.5,14-15.5,24.6c0,3.2-1.5,6.3-4,8.3l-2.8,2.2l0.6,1
			c4.2,6.6,7.4,13.8,9.3,21.4l0.4,1.5c0.7,2.6,2.4,4.8,4.6,5.9c1.2,0.6,2.5,0.9,3.8,0.9c1.4,0,2.8-0.3,4.1-1l19-10.3
			c3.3-1.8,6.7-3.4,10-5c1.1-0.5,2.1-1,3.2-1.5c2.8-1.4,5.3-3.2,7.4-5.3v12.2l-25.3,8.1V102h-2.5v15.2h34.5l-4.2-16.8L103.2,101.1z
			 M94.7,87c-1.1,0.5-2.1,1-3.2,1.5c-1.2,0.6-2.4,1.2-3.6,1.7v-4.6h-2.5v5.9c-0.8,0.4-1.7,0.9-2.5,1.3v-7.2h-2.5v8.5l-2.5,1.4v-9.9
			h-2.5v11.3l-12.9,7c-1.7,0.9-3.8,1-5.6,0.1c-1.6-0.8-2.8-2.3-3.3-4.2l-0.4-1.5c-0.1-0.4-0.2-0.8-0.3-1.2h3.5v-2.5H52
			c-1.9-6.1-4.6-12-8-17.4l1-0.8C48.2,73.7,50,70,50,65.9c0-9.6,5.4-18.1,14.1-22.3c3.3-1.6,7-2.4,11-2.4h0.3v8.1
			c-6,2.9-10.1,8.9-10.1,16c0,9.8,7.9,17.7,17.7,17.7c9.8,0,17.7-7.9,17.7-17.7c0-9.8-7.9-17.7-17.7-17.7c-1.8,0-3.5,0.3-5.1,0.7
			v-7.1h5.7c13.2,0,24.3,10.4,24.7,23.2C108.5,74,103.2,82.8,94.7,87L94.7,87z M74,72.4l-2.7,2.7c-2.2-2.6-3.6-6.1-3.6-9.8
			c0-3.7,1.4-7.2,3.6-9.8l2.7,2.7c-1.6,2-2.5,4.4-2.5,7.1C71.5,68,72.4,70.5,74,72.4L74,72.4z M75.8,74.2c1.9,1.6,4.4,2.5,7.1,2.5
			s5.2-0.9,7.1-2.5l2.7,2.7c-2.6,2.2-6.1,3.6-9.8,3.6c-3.7,0-7.2-1.4-9.8-3.6L75.8,74.2z M74,65.3c0-4.9,4-8.9,8.9-8.9
			c4.9,0,8.9,4,8.9,8.9c0,4.9-4,8.9-8.9,8.9C78,74.2,74,70.2,74,65.3L74,65.3z M91.8,72.4c1.6-2,2.5-4.4,2.5-7.1
			c0-2.7-0.9-5.2-2.5-7.1l2.7-2.7c2.2,2.6,3.6,6.1,3.6,9.8c0,3.7-1.4,7.2-3.6,9.8L91.8,72.4z M90,56.4c-1.9-1.6-4.4-2.5-7.1-2.5
			s-5.2,0.9-7.1,2.5l-2.7-2.7c2.6-2.2,6.1-3.6,9.8-3.6c3.7,0,7.2,1.4,9.8,3.6L90,56.4z M77.8,106.8l10.6-3.4
			c-0.3,0.8-0.5,1.6-0.5,2.5c0,1.9,0.8,3.5,2.1,4.7l-12.2,3.7V106.8z M85.1,114.7l8.5-2.6l0,0c0.2,0,0.5,0.1,0.7,0.1
			c0.2,0,0.3,0,0.5,0l1.3,2.6H85.1z M94.3,109.6c-2.1,0-3.8-1.7-3.8-3.8c0-2.1,1.7-3.8,3.8-3.8c2.1,0,3.8,1.7,3.8,3.8
			C98.1,107.9,96.4,109.6,94.3,109.6L94.3,109.6z M98.9,114.7l-1.6-3.3c0.5-0.3,1-0.6,1.4-1l5.7,4.3H98.9z M100.1,108.3
			c0.2-0.4,0.3-0.8,0.4-1.2h4.2l1.4,5.7L100.1,108.3z M100.1,108.3"/>
	</g>
	<path class="st4" d="M82.9,71.7c3.5,0,6.3-2.8,6.3-6.3c0-3.5-2.8-6.3-6.3-6.3c-3.5,0-6.3,2.8-6.3,6.3
		C76.6,68.8,79.4,71.7,82.9,71.7L82.9,71.7z M82.9,61.5c2.1,0,3.8,1.7,3.8,3.8c0,2.1-1.7,3.8-3.8,3.8s-3.8-1.7-3.8-3.8
		C79.1,63.2,80.8,61.5,82.9,61.5L82.9,61.5z M82.9,61.5"/>
	<rect x="52.5" y="70.4" class="st4" width="8.9" height="2.5"/>
	<rect x="93" y="104.6" class="st4" width="2.5" height="2.5"/>
	<rect x="103.1" y="64.1" class="st4" width="2.5" height="2.5"/>
	<path class="st4" d="M102,52.8l1.3,2.2l-2.2,1.3l-1.3-2.2L102,52.8z M102,52.8"/>
	<path class="st4" d="M94.1,48.4l-2.2-1.3l1.3-2.2l2.2,1.3L94.1,48.4z M94.1,48.4"/>
	<rect x="81.6" y="42.5" class="st4" width="2.5" height="2.5"/>
	<path class="st4" d="M93.2,85.7l-1.3-2.2l2.2-1.3l1.3,2.2L93.2,85.7z M93.2,85.7"/>
	<path class="st4" d="M102,77.8l-2.2-1.3l1.3-2.2l2.2,1.3L102,77.8z M102,77.8"/>
</g>
</svg>
