<?xml version="1.0" encoding="utf-8"?>
<!-- Generator: Adobe Illustrator 21.0.2, SVG Export Plug-In . SVG Version: 6.00 Build 0)  -->
<svg version="1.1" id="Layer_1" xmlns="http://www.w3.org/2000/svg" xmlns:xlink="http://www.w3.org/1999/xlink" x="0px" y="0px"
	 width="155px" height="155px" viewBox="0 0 155 155" style="enable-background:new 0 0 155 155;" xml:space="preserve">
<style type="text/css">
	.st0{fill:url(#SVGID_1_);}
	.st1{fill:url(#SVGID_2_);}
	.st2{fill:url(#SVGID_3_);}
	.st3{fill:url(#SVGID_4_);}
	.st4{fill:#FFFFFF;}
	.st5{fill:url(#SVGID_5_);}
	.st6{fill:url(#SVGID_6_);}
	.st7{fill:#A6D6EF;}
	.st8{fill:#C7E5EF;}
	.st9{fill:#EEF6FF;}
	.st10{fill:#D9EAFC;}
	.st11{fill:#293D7C;}
	.st12{fill:#AEC1ED;}
	.st13{fill:#FF9518;}
	.st14{fill:#52BBEF;}
	.st15{fill:#1E99D6;}
	.st16{fill:#02AF8E;}
	.st17{fill:#0F9390;}
	.st18{fill:#EF8318;}
	.st19{fill:#91E0E8;}
	.st20{fill:#5DC1D8;}
	.st21{fill:#1A2B63;}
	.st22{fill:#37C47A;}
	.st23{fill:url(#SVGID_7_);}
	.st24{fill:url(#SVGID_8_);}
	.st25{fill:#40AC1F;}
	.st26{fill:#34A1D7;}
	.st27{fill:#EF5A50;}
	.st28{fill:#2B6483;}
	.st29{fill:#F2B877;}
	.st30{fill:#E9BE9D;}
	.st31{fill:#3EAF91;}
	.st32{fill:url(#SVGID_9_);}
	.st33{fill:url(#SVGID_10_);}
	.st34{fill:#E6E7E8;}
	.st35{fill:#4482C3;}
	.st36{fill:#BDC3C7;}
	.st37{fill:url(#SVGID_11_);}
	.st38{fill:url(#SVGID_12_);}
	.st39{fill:url(#SVGID_13_);}
	.st40{fill:url(#SVGID_14_);}
	.st41{fill:url(#SVGID_15_);}
	.st42{fill:url(#SVGID_16_);}
	.st43{fill:url(#SVGID_17_);}
	.st44{fill:url(#SVGID_18_);}
</style>
<linearGradient id="SVGID_1_" gradientUnits="userSpaceOnUse" x1="33.7105" y1="33.7105" x2="150.3576" y2="150.3576">
	<stop  offset="0" style="stop-color:#2D82F6"/>
	<stop  offset="0.3428" style="stop-color:#2861F6"/>
	<stop  offset="0.5408" style="stop-color:#2653F6"/>
	<stop  offset="0.6113" style="stop-color:#275BF6"/>
	<stop  offset="0.7235" style="stop-color:#2B72F5"/>
	<stop  offset="0.8623" style="stop-color:#3298F5"/>
	<stop  offset="0.9745" style="stop-color:#38BBF4"/>
</linearGradient>
<circle class="st0" cx="77.5" cy="77.5" r="77.5"/>
<g>
	<path class="st4" d="M75,73.6h-2.5v-3H75v-2.4c0-1.3,0.4-2.2,1.1-2.9c0.7-0.7,1.6-1,2.8-1c0.9,0,1.7,0,2.3,0.1V67h-1.6
		c-0.6,0-1,0.1-1.2,0.4c-0.2,0.2-0.3,0.6-0.3,1.1v2.1h2.8l-0.4,3h-2.4v7.5H75V73.6z"/>
	<g>
		<path class="st4" d="M92.5,46.2c-2.7,0-4.9,2.2-4.9,4.9V52L59,63.4c-0.5,0.2-0.8,0.6-0.8,1.1v17.1c0,0.5,0.3,1,0.8,1.1l28.6,11.5
			v0.9c0,2.7,2.2,4.9,4.9,4.9c2.7,0,4.9-2.2,4.9-4.9V51.1C97.4,48.4,95.2,46.2,92.5,46.2L92.5,46.2z M95,95.2c0,1.4-1.1,2.4-2.5,2.4
			c-1.4,0-2.4-1.1-2.4-2.4v-1.7c0-0.5-0.3-1-0.8-1.1L60.7,80.9V65.4l28.6-11.5c0.5-0.2,0.8-0.6,0.8-1.1v-1.7c0-1.4,1.1-2.4,2.4-2.4
			c1.4,0,2.5,1.1,2.5,2.4V95.2z M95,95.2"/>
		<path class="st4" d="M59.4,63.3h-8.6c-5.4,0-9.8,4.4-9.8,9.8c0,5.4,4.4,9.8,9.8,9.8h8.6c0.7,0,1.2-0.5,1.2-1.2V64.6
			C60.7,63.9,60.1,63.3,59.4,63.3L59.4,63.3z M58.2,80.5h-7.3c-4.1,0-7.3-3.3-7.3-7.3c0-4.1,3.3-7.3,7.3-7.3h7.3V80.5z M58.2,80.5"
			/>
		<path class="st4" d="M103.9,68.3l-7.3-2.4c-0.4-0.1-0.8-0.1-1.1,0.2c-0.3,0.2-0.5,0.6-0.5,1v12.2c0,0.4,0.2,0.8,0.5,1
			c0.2,0.2,0.5,0.2,0.7,0.2c0.1,0,0.3,0,0.4-0.1l7.3-2.4c0.5-0.2,0.8-0.6,0.8-1.2v-7.3C104.8,68.9,104.4,68.5,103.9,68.3L103.9,68.3
			z M102.3,75.9l-4.9,1.6v-8.9l4.9,1.6V75.9z M102.3,75.9"/>
		<path class="st4" d="M65.5,97l-1.2-1.2l-3.6-14.4c-0.1-0.5-0.6-0.9-1.2-0.9h-9.8c-0.4,0-0.7,0.2-1,0.5c-0.2,0.3-0.3,0.7-0.2,1
			l4.9,20.8c0.1,0.6,0.6,0.9,1.2,0.9c0.1,0,0.2,0,0.2,0L64,102c0,0,0,0,0,0c0.5-0.1,1-0.4,1.4-0.8c0.6-0.6,0.9-1.3,0.9-2.1
			C66.3,98.3,66,97.6,65.5,97L65.5,97z M63.7,99.4c-0.1,0.1-0.1,0.1-0.2,0.1l-8,1.5l-4.3-18.2h7.3l3.4,13.8c0.1,0.2,0.2,0.4,0.3,0.6
			l1.5,1.5c0.1,0.1,0.1,0.3,0.1,0.3C63.9,99.2,63.8,99.3,63.7,99.4L63.7,99.4z M63.7,99.4"/>
		<rect x="107.2" y="71.9" class="st4" width="7.3" height="2.4"/>
		<path class="st4" d="M106.6,61.1l6.1-3.7l1.3,2.1l-6.1,3.7L106.6,61.1z M106.6,61.1"/>
		<path class="st4" d="M106.6,85.2l1.3-2.1l6.1,3.7l-1.3,2.1L106.6,85.2z M106.6,85.2"/>
		<rect x="87.6" y="52.3" class="st4" width="2.4" height="41.6"/>
		<rect x="53.3" y="68.2" class="st4" width="2.5" height="4.9"/>
		<rect x="48.4" y="68.2" class="st4" width="2.4" height="4.9"/>
	</g>
</g>
</svg>
