<?xml version="1.0" encoding="utf-8"?>
<!-- Generator: Adobe Illustrator 21.0.2, SVG Export Plug-In . SVG Version: 6.00 Build 0)  -->
<svg version="1.1" id="Layer_1" xmlns="http://www.w3.org/2000/svg" xmlns:xlink="http://www.w3.org/1999/xlink" x="0px" y="0px"
	 width="155px" height="155px" viewBox="0 0 155 155" style="enable-background:new 0 0 155 155;" xml:space="preserve">
<style type="text/css">
	.st0{fill:url(#SVGID_1_);}
	.st1{fill:url(#SVGID_2_);}
	.st2{fill:url(#SVGID_3_);}
	.st3{fill:url(#SVGID_4_);}
	.st4{fill:#FFFFFF;}
	.st5{fill:url(#SVGID_5_);}
	.st6{fill:url(#SVGID_6_);}
	.st7{fill:#A6D6EF;}
	.st8{fill:#C7E5EF;}
	.st9{fill:#EEF6FF;}
	.st10{fill:#D9EAFC;}
	.st11{fill:#293D7C;}
	.st12{fill:#AEC1ED;}
	.st13{fill:#FF9518;}
	.st14{fill:#52BBEF;}
	.st15{fill:#1E99D6;}
	.st16{fill:#02AF8E;}
	.st17{fill:#0F9390;}
	.st18{fill:#EF8318;}
	.st19{fill:#91E0E8;}
	.st20{fill:#5DC1D8;}
	.st21{fill:#1A2B63;}
	.st22{fill:#37C47A;}
	.st23{fill:url(#SVGID_7_);}
	.st24{fill:url(#SVGID_8_);}
	.st25{fill:#40AC1F;}
	.st26{fill:#34A1D7;}
	.st27{fill:#EF5A50;}
	.st28{fill:#2B6483;}
	.st29{fill:#F2B877;}
	.st30{fill:#E9BE9D;}
	.st31{fill:#3EAF91;}
	.st32{fill:url(#SVGID_9_);}
	.st33{fill:url(#SVGID_10_);}
	.st34{fill:#E6E7E8;}
	.st35{fill:#4482C3;}
	.st36{fill:#BDC3C7;}
	.st37{fill:url(#SVGID_11_);}
	.st38{fill:url(#SVGID_12_);}
	.st39{fill:url(#SVGID_13_);}
	.st40{fill:url(#SVGID_14_);}
	.st41{fill:url(#SVGID_15_);}
	.st42{fill:url(#SVGID_16_);}
	.st43{fill:url(#SVGID_17_);}
	.st44{fill:url(#SVGID_18_);}
</style>
<linearGradient id="SVGID_1_" gradientUnits="userSpaceOnUse" x1="33.7105" y1="33.7105" x2="150.3576" y2="150.3576">
	<stop  offset="0" style="stop-color:#2D82F6"/>
	<stop  offset="0.3428" style="stop-color:#2861F6"/>
	<stop  offset="0.5408" style="stop-color:#2653F6"/>
	<stop  offset="0.6113" style="stop-color:#275BF6"/>
	<stop  offset="0.7235" style="stop-color:#2B72F5"/>
	<stop  offset="0.8623" style="stop-color:#3298F5"/>
	<stop  offset="0.9745" style="stop-color:#38BBF4"/>
</linearGradient>
<circle class="st0" cx="77.5" cy="77.5" r="77.5"/>
<g>
	<g>
		<path class="st4" d="M106.7,53.4v-4.1h-4.1v-4.1H46.9v55.7H51v4.1h4.1v4.1h55.7V53.4H106.7z M51,98.8h-2.1V47.2h51.6v2.1H51V98.8z
			 M55.1,102.9H53V51.4h51.6v2.1H55.1V102.9z M108.7,107H57.2V63.7h51.6V107z M108.7,61.7H57.2v-6.2h51.6V61.7z M108.7,61.7"/>
		<rect x="59.2" y="57.5" class="st4" width="2.1" height="2.1"/>
		<rect x="63.4" y="57.5" class="st4" width="2.1" height="2.1"/>
		<rect x="67.5" y="57.5" class="st4" width="2.1" height="2.1"/>
		<path class="st4" d="M63.4,90.5h3.9c0.3,0.8,0.6,1.5,0.9,2.3l-2.8,2.8l7.3,7.3l2.8-2.8c0.7,0.4,1.5,0.7,2.3,0.9v3.9h10.3V101
			c0.8-0.3,1.5-0.6,2.3-0.9l2.8,2.8l7.3-7.3l-2.8-2.8c0.4-0.7,0.7-1.5,0.9-2.3h3.9v-4.1h4.1v-2.1H59.2v2.1h4.1V90.5z M90.1,86.4
			c-0.5,3.5-3.5,6.2-7.1,6.2c-3.6,0-6.6-2.7-7.1-6.2H90.1z M65.4,86.4h8.3c0.5,4.6,4.5,8.3,9.2,8.3c4.8,0,8.7-3.6,9.2-8.3h8.3v2.1
			h-3.4l-0.2,0.8c-0.3,1.2-0.8,2.2-1.3,3.3l-0.4,0.7l2.4,2.4l-4.4,4.4l-2.4-2.4l-0.7,0.4c-1,0.6-2.1,1-3.3,1.3L86,99.5v3.4h-6.2
			v-3.4l-0.8-0.2c-1.2-0.3-2.2-0.8-3.3-1.3l-0.7-0.4l-2.4,2.4l-4.4-4.4l2.4-2.4l-0.4-0.7c-0.6-1-1-2.1-1.3-3.3l-0.2-0.8h-3.4V86.4z
			 M65.4,86.4"/>
		<path class="st4" d="M75.4,80.5L68.9,74l6.5-6.5L74,66.1L66,74L74,82L75.4,80.5z M75.4,80.5"/>
		<path class="st4" d="M91.9,82l7.9-7.9l-7.9-7.9l-1.5,1.5L97,74l-6.5,6.5L91.9,82z M91.9,82"/>
		<path class="st4" d="M87.3,66.2l1.7,1.2L78.6,81.9L77,80.7L87.3,66.2z M87.3,66.2"/>
	</g>
</g>
</svg>
