<?xml version="1.0" encoding="utf-8"?>
<!-- Generator: Adobe Illustrator 21.0.2, SVG Export Plug-In . SVG Version: 6.00 Build 0)  -->
<svg version="1.1" id="Layer_1" xmlns="http://www.w3.org/2000/svg" xmlns:xlink="http://www.w3.org/1999/xlink" x="0px" y="0px"
	 width="155px" height="155px" viewBox="0 0 155 155" style="enable-background:new 0 0 155 155;" xml:space="preserve">
<style type="text/css">
	.st0{fill:url(#SVGID_1_);}
	.st1{fill:url(#SVGID_2_);}
	.st2{fill:url(#SVGID_3_);}
	.st3{fill:url(#SVGID_4_);}
	.st4{fill:#FFFFFF;}
	.st5{fill:url(#SVGID_5_);}
	.st6{fill:url(#SVGID_6_);}
	.st7{fill:#A6D6EF;}
	.st8{fill:#C7E5EF;}
	.st9{fill:#EEF6FF;}
	.st10{fill:#D9EAFC;}
	.st11{fill:#293D7C;}
	.st12{fill:#AEC1ED;}
	.st13{fill:#FF9518;}
	.st14{fill:#52BBEF;}
	.st15{fill:#1E99D6;}
	.st16{fill:#02AF8E;}
	.st17{fill:#0F9390;}
	.st18{fill:#EF8318;}
	.st19{fill:#91E0E8;}
	.st20{fill:#5DC1D8;}
	.st21{fill:#1A2B63;}
	.st22{fill:#37C47A;}
	.st23{fill:url(#SVGID_7_);}
	.st24{fill:url(#SVGID_8_);}
	.st25{fill:#40AC1F;}
	.st26{fill:#34A1D7;}
	.st27{fill:#EF5A50;}
	.st28{fill:#2B6483;}
	.st29{fill:#F2B877;}
	.st30{fill:#E9BE9D;}
	.st31{fill:#3EAF91;}
	.st32{fill:url(#SVGID_9_);}
	.st33{fill:url(#SVGID_10_);}
	.st34{fill:#E6E7E8;}
	.st35{fill:#4482C3;}
	.st36{fill:#BDC3C7;}
	.st37{fill:url(#SVGID_11_);}
	.st38{fill:url(#SVGID_12_);}
	.st39{fill:url(#SVGID_13_);}
	.st40{fill:url(#SVGID_14_);}
	.st41{fill:url(#SVGID_15_);}
	.st42{fill:url(#SVGID_16_);}
	.st43{fill:url(#SVGID_17_);}
	.st44{fill:url(#SVGID_18_);}
</style>
<linearGradient id="SVGID_1_" gradientUnits="userSpaceOnUse" x1="35.6934" y1="6.1071" x2="119.6517" y2="149.4821">
	<stop  offset="0" style="stop-color:#2D82F6"/>
	<stop  offset="0.3428" style="stop-color:#2861F6"/>
	<stop  offset="0.5408" style="stop-color:#2653F6"/>
	<stop  offset="0.6113" style="stop-color:#275BF6"/>
	<stop  offset="0.7235" style="stop-color:#2B72F5"/>
	<stop  offset="0.8623" style="stop-color:#3298F5"/>
	<stop  offset="0.9745" style="stop-color:#38BBF4"/>
</linearGradient>
<circle class="st0" cx="77.5" cy="77.5" r="77.5"/>
<g>
	<path class="st4" d="M60,48.5c0.2,0,0.4-0.1,0.6-0.2c1.1-0.7,2.3-1.2,3.5-1.8c0.6-0.3,0.9-0.9,0.6-1.5c-0.3-0.6-0.9-0.9-1.5-0.6
		c-1.3,0.6-2.5,1.2-3.7,1.9c-0.6,0.3-0.8,1-0.4,1.6C59.2,48.3,59.6,48.5,60,48.5z"/>
	<path class="st4" d="M83.3,44.3c1.3,0.2,2.6,0.5,3.8,0.9c0.1,0,0.2,0,0.3,0c0.5,0,1-0.3,1.1-0.8c0.2-0.6-0.2-1.3-0.8-1.5
		c-1.3-0.4-2.7-0.7-4.1-1c-0.6-0.1-1.2,0.3-1.4,1C82.2,43.6,82.7,44.2,83.3,44.3z"/>
	<path class="st4" d="M75.4,43.8C75.4,43.8,75.5,43.8,75.4,43.8c0.7,0,1.4-0.1,2.1-0.1c0,0,0,0,0,0c0.6,0,1.3,0,1.9,0.1
		c0.7,0,1.2-0.5,1.2-1.1c0-0.6-0.5-1.2-1.1-1.2c-0.7,0-1.4-0.1-2-0.1c0,0,0,0,0,0c-0.7,0-1.4,0-2.2,0.1c-0.6,0-1.1,0.6-1.1,1.2
		C74.3,43.4,74.8,43.8,75.4,43.8z"/>
	<path class="st4" d="M111.2,68.3c-0.6,0.2-1,0.8-0.9,1.4c0.3,1.3,0.5,2.6,0.7,3.9c0.1,0.6,0.6,1,1.2,1c0,0,0.1,0,0.1,0
		c0.6-0.1,1.1-0.7,1-1.3c-0.2-1.4-0.4-2.8-0.7-4.1C112.5,68.5,111.8,68.1,111.2,68.3z"/>
	<path class="st4" d="M109.2,89.1c-0.2,0.6,0.1,1.3,0.7,1.5c0.1,0,0.3,0.1,0.4,0.1c0.5,0,0.9-0.3,1.1-0.8c0.5-1.3,0.9-2.7,1.2-4
		c0.1-0.6-0.2-1.3-0.9-1.4c-0.6-0.1-1.3,0.2-1.4,0.9C110.1,86.6,109.7,87.8,109.2,89.1z"/>
	<path class="st4" d="M90.8,46.5c1.2,0.5,2.4,1.1,3.5,1.8c0.2,0.1,0.4,0.2,0.6,0.2c0.4,0,0.8-0.2,1-0.6c0.3-0.6,0.1-1.3-0.4-1.6
		c-1.2-0.7-2.5-1.3-3.8-1.9c-0.6-0.3-1.3,0-1.5,0.6C89.9,45.6,90.2,46.2,90.8,46.5z"/>
	<path class="st4" d="M43.2,84.5c-0.6,0.1-1,0.8-0.9,1.4c0.3,1.4,0.7,2.7,1.2,4c0.2,0.5,0.6,0.8,1.1,0.8c0.1,0,0.3,0,0.4-0.1
		c0.6-0.2,0.9-0.9,0.7-1.5c-0.4-1.2-0.8-2.5-1.1-3.8C44.5,84.7,43.9,84.3,43.2,84.5z"/>
	<path class="st4" d="M67.4,45.2c0.1,0,0.2,0,0.3-0.1c1.2-0.4,2.5-0.7,3.8-0.9c0.6-0.1,1.1-0.7,1-1.4c-0.1-0.6-0.7-1.1-1.4-1
		c-1.4,0.2-2.7,0.6-4.1,1c-0.6,0.2-1,0.8-0.8,1.5C66.5,44.9,66.9,45.2,67.4,45.2z"/>
	<path class="st4" d="M112.4,76.3c-0.6,0-1.2,0.5-1.2,1.2v0.1c0,1.3-0.1,2.6-0.2,3.9c-0.1,0.6,0.4,1.2,1,1.3c0,0,0.1,0,0.1,0
		c0.6,0,1.1-0.4,1.2-1c0.2-1.4,0.2-2.8,0.2-4.2v-0.1C113.6,76.8,113.1,76.3,112.4,76.3z"/>
	<path class="st4" d="M83.4,110.8c-1.3,0.2-2.6,0.4-3.9,0.5c-0.6,0-1.1,0.6-1.1,1.2c0,0.6,0.6,1.1,1.2,1.1c0,0,0,0,0.1,0
		c1.4-0.1,2.8-0.2,4.2-0.5c0.6-0.1,1.1-0.7,1-1.4C84.6,111.1,84,110.7,83.4,110.8z"/>
	<path class="st4" d="M75.6,111.2c-1.3-0.1-2.6-0.2-3.9-0.4c-0.6-0.1-1.2,0.3-1.4,1c-0.1,0.6,0.3,1.2,1,1.4c1.4,0.2,2.8,0.4,4.2,0.5
		c0,0,0,0,0.1,0c0.6,0,1.1-0.5,1.2-1.1C76.7,111.8,76.2,111.3,75.6,111.2z"/>
	<path class="st4" d="M67.8,109.9c-1.2-0.4-2.5-0.8-3.7-1.3c-0.6-0.3-1.3,0-1.5,0.6c-0.3,0.6,0,1.3,0.6,1.5c1.3,0.6,2.6,1,3.9,1.4
		c0.1,0,0.2,0,0.3,0c0.5,0,1-0.3,1.1-0.8C68.8,110.7,68.5,110.1,67.8,109.9z"/>
	<path class="st4" d="M42.7,74.7c0,0,0.1,0,0.1,0c0.6,0,1.1-0.4,1.2-1c0.1-1.3,0.4-2.6,0.7-3.9c0.1-0.6-0.2-1.3-0.9-1.4
		c-0.6-0.1-1.3,0.2-1.4,0.9c-0.3,1.4-0.6,2.7-0.7,4.1C41.6,74,42,74.6,42.7,74.7z"/>
	<path class="st4" d="M90.9,108.5c-1.2,0.5-2.4,1-3.7,1.3c-0.6,0.2-1,0.8-0.8,1.5c0.2,0.5,0.6,0.8,1.1,0.8c0.1,0,0.2,0,0.3,0
		c1.3-0.4,2.7-0.9,3.9-1.4c0.6-0.3,0.9-0.9,0.6-1.5C92.2,108.5,91.5,108.3,90.9,108.5z"/>
	<path class="st4" d="M42.9,82.8c0.6-0.1,1.1-0.7,1-1.3c-0.2-1.3-0.2-2.6-0.2-3.9c0-0.6-0.5-1.2-1.2-1.2h0c-0.6,0-1.2,0.5-1.2,1.2
		c0,1.4,0.1,2.8,0.2,4.2c0.1,0.6,0.6,1,1.2,1C42.9,82.8,42.9,82.8,42.9,82.8z"/>
	<path class="st4" d="M44.6,66h13.6c1.4,0,2.5-1.1,2.5-2.5v-2.8c0-0.9-0.2-1.9-0.5-2.7c-0.2-0.6-0.8-0.8-1.3-0.7
		c-0.6,0.2-0.8,0.8-0.7,1.3c0.2,0.7,0.3,1.4,0.3,2.1v2.8c0,0.2-0.2,0.4-0.4,0.4H44.6c-0.2,0-0.4-0.2-0.4-0.4v-2.8
		c0-1.8,0.8-3.6,2.1-4.8c1.1,1.5,2.9,2.5,5,2.5c3.4,0,6.2-2.8,6.2-6.2S54.7,46,51.3,46s-6.2,2.8-6.2,6.2c0,0.6,0.1,1.2,0.3,1.8
		c-2,1.6-3.3,4.1-3.3,6.7v2.8C42.1,64.9,43.2,66,44.6,66z M51.3,48.1c2.3,0,4.1,1.8,4.1,4.1s-1.8,4.1-4.1,4.1
		c-2.3,0-4.1-1.8-4.1-4.1S49,48.1,51.3,48.1z"/>
	<path class="st4" d="M94.4,60.7v2.8c0,1.4,1.1,2.5,2.5,2.5h13.6c1.4,0,2.5-1.1,2.5-2.5v-2.8c0-0.9-0.2-1.9-0.5-2.7
		c-0.2-0.6-0.8-0.8-1.3-0.7c-0.6,0.2-0.8,0.8-0.7,1.3c0.2,0.7,0.3,1.4,0.3,2.1v2.8c0,0.2-0.2,0.4-0.4,0.4H96.9
		c-0.2,0-0.4-0.2-0.4-0.4v-2.8c0-1.8,0.8-3.6,2.1-4.8c1.1,1.5,2.9,2.5,5,2.5c3.4,0,6.2-2.8,6.2-6.2S107,46,103.6,46
		s-6.2,2.8-6.2,6.2c0,0.6,0.1,1.2,0.3,1.8C95.6,55.6,94.4,58.1,94.4,60.7z M103.6,48.1c2.3,0,4.1,1.8,4.1,4.1s-1.8,4.1-4.1,4.1
		c-2.3,0-4.1-1.8-4.1-4.1S101.3,48.1,103.6,48.1z"/>
	<path class="st4" d="M111.1,100.3c-0.6,0.2-0.8,0.8-0.7,1.3c0.2,0.7,0.3,1.4,0.3,2.1v2.8c0,0.2-0.2,0.4-0.4,0.4H96.9
		c-0.2,0-0.4-0.2-0.4-0.4v-2.8c0-1.8,0.8-3.6,2.1-4.8c1.1,1.5,2.9,2.5,5,2.5c3.4,0,6.2-2.8,6.2-6.2S107,89,103.6,89
		s-6.2,2.8-6.2,6.2c0,0.6,0.1,1.2,0.3,1.8c-2,1.6-3.3,4.1-3.3,6.7v2.8c0,1.4,1.1,2.5,2.5,2.5h13.6c1.4,0,2.5-1.1,2.5-2.5v-2.8
		c0-0.9-0.2-1.9-0.5-2.7C112.3,100.4,111.7,100.1,111.1,100.3z M103.6,91.1c2.3,0,4.1,1.8,4.1,4.1c0,2.3-1.8,4.1-4.1,4.1
		c-2.3,0-4.1-1.8-4.1-4.1C99.5,93,101.3,91.1,103.6,91.1z"/>
	<path class="st4" d="M58.8,100.3c-0.6,0.2-0.8,0.8-0.7,1.3c0.2,0.7,0.3,1.4,0.3,2.1v2.8c0,0.2-0.2,0.4-0.4,0.4H44.6
		c-0.2,0-0.4-0.2-0.4-0.4v-2.8c0-1.8,0.8-3.6,2.1-4.8c1.1,1.5,2.9,2.5,5,2.5c3.4,0,6.2-2.8,6.2-6.2S54.7,89,51.3,89
		s-6.2,2.8-6.2,6.2c0,0.6,0.1,1.2,0.3,1.8c-2,1.6-3.3,4.1-3.3,6.7v2.8c0,1.4,1.1,2.5,2.5,2.5h13.6c1.4,0,2.5-1.1,2.5-2.5v-2.8
		c0-0.9-0.2-1.9-0.5-2.7C60,100.4,59.4,100.1,58.8,100.3z M51.3,91.1c2.3,0,4.1,1.8,4.1,4.1c0,2.3-1.8,4.1-4.1,4.1
		c-2.3,0-4.1-1.8-4.1-4.1C47.2,93,49,91.1,51.3,91.1z"/>
	<path class="st4" d="M87.5,65.8H76.2c-4.9,0-8.9,3.6-9.7,8.2h-0.4c-4.4,0-8,3.7-8,8.2c0,3.2,1.8,6,4.5,7.4c1.4,3.3,5.6,4.9,5.8,4.9
		c0.1,0,0.2,0.1,0.4,0.1c0.3,0,0.6-0.1,0.8-0.3c0.3-0.3,0.4-0.8,0.2-1.2c-0.4-0.9-0.7-1.8-0.7-2.7h5.9c3.3,0,6.1-2,7.3-5h1.7
		c0,1.2-0.3,2.4-0.9,3.7c-0.2,0.4-0.1,0.8,0.2,1.2c0.2,0.2,0.5,0.3,0.8,0.3c0.1,0,0.2,0,0.4-0.1c0.2-0.1,5.6-2,7.2-6
		c3.5-1.6,5.7-5.1,5.7-8.9C97.4,70.2,92.9,65.8,87.5,65.8z M90.4,82.8c-0.3,0.1-0.5,0.3-0.6,0.6c-0.6,1.9-2.4,3.2-3.9,4.1
		c0.3-1.1,0.3-2.2,0.2-3.2c-0.1-0.5-0.5-0.9-1.1-0.9h-8.8c-1,0-2-0.2-2.9-0.6c-0.4-0.2-0.8-0.1-1.1,0.2l0,0
		c-0.5,0.5-0.3,1.4,0.4,1.7c1.1,0.5,2.4,0.7,3.7,0.7H80c-1,1.7-2.9,2.8-4.9,2.8h-7c-0.5,0-1,0.4-1.1,0.9C67,90,67,90.7,67.1,91.5
		c-1-0.7-2.1-1.7-2.5-2.9c-0.1-0.3-0.3-0.6-0.6-0.7c-2.2-0.9-3.7-3.1-3.7-5.6c0-3.4,2.6-6.1,5.9-6.1h0.3c0.1,1.1,0.3,2.2,0.7,3.1
		c0.3,0.7,1.2,0.9,1.7,0.4c0,0,0,0,0,0c0.3-0.3,0.4-0.7,0.2-1.1c-0.4-0.9-0.6-2-0.6-3c0.1-4.2,3.6-7.5,7.8-7.5h11
		c4.3,0,7.9,3.5,7.8,7.7C95.2,78.8,93.3,81.6,90.4,82.8z"/>
</g>
</svg>
