<?xml version="1.0" encoding="utf-8"?>
<!-- Generator: Adobe Illustrator 21.0.2, SVG Export Plug-In . SVG Version: 6.00 Build 0)  -->
<svg version="1.1" id="Layer_1" xmlns="http://www.w3.org/2000/svg" xmlns:xlink="http://www.w3.org/1999/xlink" x="0px" y="0px"
	 width="155px" height="155px" viewBox="0 0 155 155" style="enable-background:new 0 0 155 155;" xml:space="preserve">
<style type="text/css">
	.st0{fill:url(#SVGID_1_);}
	.st1{fill:url(#SVGID_2_);}
	.st2{fill:url(#SVGID_3_);}
	.st3{fill:url(#SVGID_4_);}
	.st4{fill:#FFFFFF;}
	.st5{fill:url(#SVGID_5_);}
	.st6{fill:url(#SVGID_6_);}
	.st7{fill:#A6D6EF;}
	.st8{fill:#C7E5EF;}
	.st9{fill:#EEF6FF;}
	.st10{fill:#D9EAFC;}
	.st11{fill:#293D7C;}
	.st12{fill:#AEC1ED;}
	.st13{fill:#FF9518;}
	.st14{fill:#52BBEF;}
	.st15{fill:#1E99D6;}
	.st16{fill:#02AF8E;}
	.st17{fill:#0F9390;}
	.st18{fill:#EF8318;}
	.st19{fill:#91E0E8;}
	.st20{fill:#5DC1D8;}
	.st21{fill:#1A2B63;}
	.st22{fill:#37C47A;}
	.st23{fill:url(#SVGID_7_);}
	.st24{fill:url(#SVGID_8_);}
	.st25{fill:#40AC1F;}
	.st26{fill:#34A1D7;}
	.st27{fill:#EF5A50;}
	.st28{fill:#2B6483;}
	.st29{fill:#F2B877;}
	.st30{fill:#E9BE9D;}
	.st31{fill:#3EAF91;}
	.st32{fill:url(#SVGID_9_);}
	.st33{fill:url(#SVGID_10_);}
	.st34{fill:#E6E7E8;}
	.st35{fill:#4482C3;}
	.st36{fill:#BDC3C7;}
	.st37{fill:url(#SVGID_11_);}
	.st38{fill:url(#SVGID_12_);}
	.st39{fill:url(#SVGID_13_);}
	.st40{fill:url(#SVGID_14_);}
	.st41{fill:url(#SVGID_15_);}
	.st42{fill:url(#SVGID_16_);}
	.st43{fill:url(#SVGID_17_);}
	.st44{fill:url(#SVGID_18_);}
</style>
<linearGradient id="SVGID_1_" gradientUnits="userSpaceOnUse" x1="35.6934" y1="6.1071" x2="119.6517" y2="149.4821">
	<stop  offset="0" style="stop-color:#2D82F6"/>
	<stop  offset="0.3428" style="stop-color:#2861F6"/>
	<stop  offset="0.5408" style="stop-color:#2653F6"/>
	<stop  offset="0.6113" style="stop-color:#275BF6"/>
	<stop  offset="0.7235" style="stop-color:#2B72F5"/>
	<stop  offset="0.8623" style="stop-color:#3298F5"/>
	<stop  offset="0.9745" style="stop-color:#38BBF4"/>
</linearGradient>
<circle class="st0" cx="77.5" cy="77.5" r="77.5"/>
<g>
	<path class="st4" d="M101.8,36.8c-0.4,0-0.8-0.3-0.8-0.8s0.3-0.8,0.7-0.8h0c0.4,0,0.8,0.3,0.8,0.8S102.2,36.8,101.8,36.8z"/>
	<path class="st4" d="M98.8,36.8c-0.4,0-0.8-0.3-0.8-0.8s0.3-0.8,0.7-0.8h0c0.4,0,0.8,0.3,0.8,0.8S99.2,36.8,98.8,36.8z"/>
	<path class="st4" d="M95.7,36.8c-0.4,0-0.8-0.3-0.8-0.8s0.3-0.8,0.7-0.8h0c0.4,0,0.8,0.3,0.8,0.8S96.2,36.8,95.7,36.8z"/>
	<path class="st4" d="M48.7,46c-0.4,0-0.8-0.3-0.8-0.8V33.1c0-0.4,0.3-0.8,0.8-0.8s0.8,0.3,0.8,0.8v12.2C49.4,45.7,49.1,46,48.7,46z
		"/>
	<path class="st4" d="M106.3,33.8H48.7c-0.4,0-0.8-0.3-0.8-0.8s0.3-0.8,0.8-0.8h57.7c0.4,0,0.8,0.3,0.8,0.8S106.7,33.8,106.3,33.8z"
		/>
	<path class="st4" d="M106.3,46c-0.4,0-0.8-0.3-0.8-0.8V33.1c0-0.4,0.3-0.8,0.8-0.8c0.4,0,0.8,0.3,0.8,0.8v12.2
		C107.1,45.7,106.7,46,106.3,46z"/>
	<path class="st4" d="M106.3,120.4c-0.4,0-0.8-0.3-0.8-0.8V98.4c0-0.4,0.3-0.8,0.8-0.8c0.4,0,0.8,0.3,0.8,0.8v21.2
		C107.1,120,106.7,120.4,106.3,120.4z"/>
	<path class="st4" d="M106.3,120.4H48.7c-0.4,0-0.8-0.3-0.8-0.8c0-0.4,0.3-0.8,0.8-0.8h57.7c0.4,0,0.8,0.3,0.8,0.8
		C107.1,120,106.7,120.4,106.3,120.4z"/>
	<path class="st4" d="M48.7,120.4c-0.4,0-0.8-0.3-0.8-0.8V98.4c0-0.4,0.3-0.8,0.8-0.8s0.8,0.3,0.8,0.8v21.2
		C49.4,120,49.1,120.4,48.7,120.4z"/>
	<path class="st4" d="M77.5,50.6c-0.4,0-0.8-0.3-0.8-0.8c0-0.4,0.3-0.8,0.8-0.8h0c0.4,0,0.8,0.3,0.8,0.8
		C78.3,50.2,78,50.6,77.5,50.6z"/>
	<path class="st4" d="M109.4,91.5H45.6c-0.4,0-0.8-0.3-0.8-0.8v-41c0-1.3,1-2.3,2.3-2.3h60.7c1.3,0,2.3,1,2.3,2.3v41
		C110.1,91.2,109.8,91.5,109.4,91.5z M46.4,90h62.2V49.8c0-0.4-0.3-0.8-0.8-0.8H47.1c-0.4,0-0.8,0.3-0.8,0.8V90z"/>
	<path class="st4" d="M113.9,96.1H41.1c-1.3,0-2.3-1-2.3-2.3v-3c0-0.4,0.3-0.8,0.8-0.8h75.9c0.4,0,0.8,0.3,0.8,0.8v3
		C116.2,95.1,115.2,96.1,113.9,96.1z M40.3,91.5v2.3c0,0.4,0.3,0.8,0.8,0.8h72.8c0.4,0,0.8-0.3,0.8-0.8v-2.3H40.3z"/>
	<path class="st4" d="M106.3,88.5H48.7c-0.4,0-0.8-0.3-0.8-0.8V51.3c0-0.4,0.3-0.8,0.8-0.8h57.7c0.4,0,0.8,0.3,0.8,0.8v36.4
		C107.1,88.2,106.7,88.5,106.3,88.5z M49.4,87h56.1V52.1H49.4V87z"/>
	<path class="st4" d="M84.3,93.1H70.7c-0.4,0-0.8-0.3-0.8-0.8c0-0.4,0.3-0.8,0.8-0.8h13.7c0.4,0,0.8,0.3,0.8,0.8
		C85.1,92.7,84.7,93.1,84.3,93.1z"/>
	<path class="st4" d="M101.8,65.7c-1.3,0-2.3-1-2.3-2.3s1-2.3,2.3-2.3s2.3,1,2.3,2.3S103,65.7,101.8,65.7z M101.8,62.7
		c-0.4,0-0.8,0.3-0.8,0.8c0,0.4,0.3,0.8,0.8,0.8c0.4,0,0.8-0.3,0.8-0.8C102.5,63.1,102.2,62.7,101.8,62.7z"/>
	<path class="st4" d="M101.8,62.7c-0.4,0-0.8-0.3-0.8-0.8v-2.3c0-0.4,0.3-0.8,0.8-0.8c0.4,0,0.8,0.3,0.8,0.8V62
		C102.5,62.4,102.2,62.7,101.8,62.7z"/>
	<path class="st4" d="M101.8,80.2c-0.4,0-0.8-0.3-0.8-0.8v-2.3c0-0.4,0.3-0.8,0.8-0.8c0.4,0,0.8,0.3,0.8,0.8v2.3
		C102.5,79.8,102.2,80.2,101.8,80.2z"/>
	<path class="st4" d="M101.8,71.8c-1.3,0-2.3-1-2.3-2.3s1-2.3,2.3-2.3s2.3,1,2.3,2.3S103,71.8,101.8,71.8z M101.8,68.8
		c-0.4,0-0.8,0.3-0.8,0.8c0,0.4,0.3,0.8,0.8,0.8c0.4,0,0.8-0.3,0.8-0.8C102.5,69.1,102.2,68.8,101.8,68.8z"/>
	<path class="st4" d="M101.8,68.8c-0.4,0-0.8-0.3-0.8-0.8v-3c0-0.4,0.3-0.8,0.8-0.8c0.4,0,0.8,0.3,0.8,0.8v3
		C102.5,68.4,102.2,68.8,101.8,68.8z"/>
	<path class="st4" d="M101.8,77.9c-1.3,0-2.3-1-2.3-2.3s1-2.3,2.3-2.3s2.3,1,2.3,2.3S103,77.9,101.8,77.9z M101.8,74.9
		c-0.4,0-0.8,0.3-0.8,0.8c0,0.4,0.3,0.8,0.8,0.8c0.4,0,0.8-0.3,0.8-0.8C102.5,75.2,102.2,74.9,101.8,74.9z"/>
	<path class="st4" d="M101.8,74.9c-0.4,0-0.8-0.3-0.8-0.8v-3c0-0.4,0.3-0.8,0.8-0.8c0.4,0,0.8,0.3,0.8,0.8v3
		C102.5,74.5,102.2,74.9,101.8,74.9z"/>
	<path class="st4" d="M98.7,88.5c-0.3,0-0.5-0.1-0.7-0.4L85,65L70.5,88.2c-0.2,0.4-0.7,0.5-1,0.2c-0.4-0.2-0.5-0.7-0.2-1l15.2-24.3
		c0.1-0.2,0.4-0.4,0.7-0.4c0.3,0,0.5,0.2,0.6,0.4l13.7,24.3c0.2,0.4,0.1,0.8-0.3,1C99,88.5,98.9,88.5,98.7,88.5z"/>
	<path class="st4" d="M60.8,88.5c-0.1,0-0.3,0-0.4-0.1c-0.4-0.2-0.5-0.7-0.2-1L70,72.2c0.1-0.2,0.4-0.3,0.7-0.3
		c0.3,0,0.5,0.2,0.6,0.4l4.1,7.4c0.2,0.4,0.1,0.8-0.3,1c-0.4,0.2-0.8,0.1-1-0.3l-3.5-6.3l-9.2,14.1C61.3,88.4,61,88.5,60.8,88.5z"/>
	<path class="st4" d="M69.9,56.6H53.2c-0.4,0-0.8-0.3-0.8-0.8c0-0.4,0.3-0.8,0.8-0.8h16.7c0.4,0,0.8,0.3,0.8,0.8
		C70.7,56.3,70.3,56.6,69.9,56.6z"/>
	<path class="st4" d="M69.9,59.7H53.2c-0.4,0-0.8-0.3-0.8-0.8c0-0.4,0.3-0.8,0.8-0.8h16.7c0.4,0,0.8,0.3,0.8,0.8
		C70.7,59.3,70.3,59.7,69.9,59.7z"/>
	<path class="st4" d="M60.8,62.7h-7.6c-0.4,0-0.8-0.3-0.8-0.8c0-0.4,0.3-0.8,0.8-0.8h7.6c0.4,0,0.8,0.3,0.8,0.8
		C61.6,62.4,61.2,62.7,60.8,62.7z"/>
	<path class="st4" d="M55.5,71.8c-1.7,0-3-1.4-3-3s1.4-3,3-3s3,1.4,3,3S57.2,71.8,55.5,71.8z M55.5,67.3c-0.8,0-1.5,0.7-1.5,1.5
		s0.7,1.5,1.5,1.5c0.8,0,1.5-0.7,1.5-1.5S56.3,67.3,55.5,67.3z"/>
	<path class="st4" d="M59.3,109c-1.3,0-3-1.7-3-3.6c0-1.8,1.3-3.2,3-3.2c1.7,0,3,1.4,3,3.2C62.3,107.2,60.6,109,59.3,109z
		 M59.3,103.7c-0.9,0-1.5,0.7-1.5,1.7c0,1.1,1.1,2.1,1.5,2.1c0.4,0,1.5-0.9,1.5-2.1C60.8,104.4,60.2,103.7,59.3,103.7z"/>
	<path class="st4" d="M63.6,110.6c-0.1,0-0.1,0-0.2,0c-3.3-0.7-3.4-1-3.4-1.6c0-0.4,0.3-0.8,0.8-0.8c0.2,0,0.4,0.1,0.6,0.3
		c0.4,0.2,1.5,0.4,2.4,0.6c0.4,0.1,0.7,0.5,0.6,0.9C64.3,110.4,64,110.6,63.6,110.6z"/>
	<path class="st4" d="M60.8,109.8c-0.4,0-0.8-0.3-0.8-0.8v-1.7c0-0.4,0.3-0.8,0.8-0.8c0.4,0,0.8,0.3,0.8,0.8v1.7
		C61.6,109.4,61.2,109.8,60.8,109.8z"/>
	<path class="st4" d="M54.9,110.6c-0.4,0-0.7-0.2-0.7-0.6c-0.1-0.4,0.2-0.8,0.6-0.9c0.9-0.2,2-0.5,2.4-0.6c0.1-0.2,0.3-0.3,0.6-0.3
		c0.4,0,0.8,0.3,0.8,0.8c0,0.6-0.2,0.9-3.4,1.6C55.1,110.6,55,110.6,54.9,110.6z"/>
	<path class="st4" d="M57.8,109.8c-0.4,0-0.8-0.3-0.8-0.8v-1.7c0-0.4,0.3-0.8,0.8-0.8c0.4,0,0.8,0.3,0.8,0.8v1.7
		C58.5,109.4,58.2,109.8,57.8,109.8z"/>
	<path class="st4" d="M59.3,112.8c-3.8,0-6.8-3.1-6.8-6.8c0-3.8,3.1-6.8,6.8-6.8s6.8,3.1,6.8,6.8C66.1,109.7,63,112.8,59.3,112.8z
		 M59.3,100.6c-2.9,0-5.3,2.4-5.3,5.3c0,2.9,2.4,5.3,5.3,5.3s5.3-2.4,5.3-5.3C64.6,103,62.2,100.6,59.3,100.6z"/>
	<path class="st4" d="M77.5,109c-1.3,0-3-1.7-3-3.6c0-1.8,1.3-3.2,3-3.2c1.7,0,3,1.4,3,3.2C80.5,107.2,78.8,109,77.5,109z
		 M77.5,103.7c-0.9,0-1.5,0.7-1.5,1.7c0,1.1,1.1,2.1,1.5,2.1c0.4,0,1.5-0.9,1.5-2.1C79,104.4,78.4,103.7,77.5,103.7z"/>
	<path class="st4" d="M81.8,110.6c-0.1,0-0.1,0-0.2,0c-3.3-0.7-3.4-1-3.4-1.6c0-0.4,0.3-0.8,0.8-0.8c0.2,0,0.4,0.1,0.6,0.3
		c0.4,0.2,1.5,0.4,2.4,0.6c0.4,0.1,0.7,0.5,0.6,0.9C82.5,110.4,82.2,110.6,81.8,110.6z"/>
	<path class="st4" d="M79,109.8c-0.4,0-0.8-0.3-0.8-0.8v-1.7c0-0.4,0.3-0.8,0.8-0.8c0.4,0,0.8,0.3,0.8,0.8v1.7
		C79.8,109.4,79.4,109.8,79,109.8z"/>
	<path class="st4" d="M73.2,110.6c-0.4,0-0.7-0.2-0.7-0.6c-0.1-0.4,0.2-0.8,0.6-0.9c0.9-0.2,2-0.5,2.4-0.6c0.1-0.2,0.3-0.3,0.6-0.3
		c0.4,0,0.8,0.3,0.8,0.8c0,0.6-0.2,0.9-3.4,1.6C73.3,110.6,73.2,110.6,73.2,110.6z"/>
	<path class="st4" d="M76,109.8c-0.4,0-0.8-0.3-0.8-0.8v-1.7c0-0.4,0.3-0.8,0.8-0.8s0.8,0.3,0.8,0.8v1.7
		C76.7,109.4,76.4,109.8,76,109.8z"/>
	<path class="st4" d="M77.5,112.8c-3.8,0-6.8-3.1-6.8-6.8c0-3.8,3.1-6.8,6.8-6.8c3.8,0,6.8,3.1,6.8,6.8
		C84.3,109.7,81.3,112.8,77.5,112.8z M77.5,100.6c-2.9,0-5.3,2.4-5.3,5.3c0,2.9,2.4,5.3,5.3,5.3c2.9,0,5.3-2.4,5.3-5.3
		C82.8,103,80.4,100.6,77.5,100.6z"/>
	<path class="st4" d="M95.7,109c-1.3,0-3-1.7-3-3.6c0-1.8,1.3-3.2,3-3.2c1.7,0,3,1.4,3,3.2C98.7,107.2,97,109,95.7,109z M95.7,103.7
		c-0.9,0-1.5,0.7-1.5,1.7c0,1.1,1.1,2.1,1.5,2.1c0.4,0,1.5-0.9,1.5-2.1C97.2,104.4,96.6,103.7,95.7,103.7z"/>
	<path class="st4" d="M100,110.6c-0.1,0-0.1,0-0.2,0c-3.3-0.7-3.4-1-3.4-1.6c0-0.4,0.3-0.8,0.8-0.8c0.2,0,0.4,0.1,0.6,0.3
		c0.4,0.2,1.5,0.4,2.4,0.6c0.4,0.1,0.7,0.5,0.6,0.9C100.7,110.4,100.4,110.6,100,110.6z"/>
	<path class="st4" d="M97.2,109.8c-0.4,0-0.8-0.3-0.8-0.8v-1.7c0-0.4,0.3-0.8,0.8-0.8c0.4,0,0.8,0.3,0.8,0.8v1.7
		C98,109.4,97.6,109.8,97.2,109.8z"/>
	<path class="st4" d="M91.4,110.6c-0.3,0-0.7-0.2-0.7-0.6c-0.1-0.4,0.2-0.8,0.6-0.9c0.9-0.2,2-0.5,2.4-0.6c0.1-0.2,0.3-0.3,0.6-0.3
		c0.4,0,0.8,0.3,0.8,0.8c0,0.6-0.2,0.9-3.4,1.6C91.5,110.6,91.4,110.6,91.4,110.6z"/>
	<path class="st4" d="M94.2,109.8c-0.4,0-0.8-0.3-0.8-0.8v-1.7c0-0.4,0.3-0.8,0.8-0.8s0.8,0.3,0.8,0.8v1.7
		C94.9,109.4,94.6,109.8,94.2,109.8z"/>
	<path class="st4" d="M95.7,112.8c-3.8,0-6.8-3.1-6.8-6.8c0-3.8,3.1-6.8,6.8-6.8c3.8,0,6.8,3.1,6.8,6.8
		C102.5,109.7,99.5,112.8,95.7,112.8z M95.7,100.6c-2.9,0-5.3,2.4-5.3,5.3c0,2.9,2.4,5.3,5.3,5.3c2.9,0,5.3-2.4,5.3-5.3
		C101,103,98.6,100.6,95.7,100.6z"/>
	<path class="st4" d="M106.3,39.9H48.7c-0.4,0-0.8-0.3-0.8-0.8s0.3-0.8,0.8-0.8h57.7c0.4,0,0.8,0.3,0.8,0.8S106.7,39.9,106.3,39.9z"
		/>
	<path class="st4" d="M77.5,38.4c-1.3,0-2.3-1-2.3-2.3c0-1.3,1-2.3,2.3-2.3c1.3,0,2.3,1,2.3,2.3C79.8,37.3,78.7,38.4,77.5,38.4z
		 M77.5,35.3c-0.4,0-0.8,0.3-0.8,0.8c0,0.4,0.3,0.8,0.8,0.8c0.4,0,0.8-0.3,0.8-0.8C78.2,35.7,77.9,35.3,77.5,35.3z"/>
	<path class="st4" d="M57.8,36.8h-4.6c-0.4,0-0.8-0.3-0.8-0.8s0.3-0.8,0.8-0.8h4.6c0.4,0,0.8,0.3,0.8,0.8S58.2,36.8,57.8,36.8z"/>
	<path class="st4" d="M65.4,36.8h-4.6c-0.4,0-0.8-0.3-0.8-0.8s0.3-0.8,0.8-0.8h4.6c0.4,0,0.8,0.3,0.8,0.8S65.8,36.8,65.4,36.8z"/>
	<path class="st4" d="M98.7,44.7H56.2c-0.4,0-0.8-0.3-0.8-0.8c0-0.4,0.3-0.8,0.8-0.8h42.5c0.4,0,0.8,0.3,0.8,0.8
		C99.5,44.3,99.1,44.7,98.7,44.7z"/>
	<path class="st4" d="M62.3,115.8h-6.1c-0.4,0-0.8-0.3-0.8-0.8c0-0.4,0.3-0.8,0.8-0.8h6.1c0.4,0,0.8,0.3,0.8,0.8
		C63.1,115.5,62.7,115.8,62.3,115.8z"/>
	<path class="st4" d="M80.5,115.8h-6.1c-0.4,0-0.8-0.3-0.8-0.8c0-0.4,0.3-0.8,0.8-0.8h6.1c0.4,0,0.8,0.3,0.8,0.8
		C81.3,115.5,80.9,115.8,80.5,115.8z"/>
	<path class="st4" d="M98.7,115.8h-6.1c-0.4,0-0.8-0.3-0.8-0.8c0-0.4,0.3-0.8,0.8-0.8h6.1c0.4,0,0.8,0.3,0.8,0.8
		C99.5,115.5,99.1,115.8,98.7,115.8z"/>
</g>
</svg>
