<?xml version="1.0" encoding="utf-8"?>
<!-- Generator: Adobe Illustrator 21.0.2, SVG Export Plug-In . SVG Version: 6.00 Build 0)  -->
<svg version="1.1" id="Layer_1" xmlns="http://www.w3.org/2000/svg" xmlns:xlink="http://www.w3.org/1999/xlink" x="0px" y="0px"
	 width="155px" height="155px" viewBox="0 0 155 155" style="enable-background:new 0 0 155 155;" xml:space="preserve">
<style type="text/css">
	.st0{fill:url(#SVGID_1_);}
	.st1{fill:url(#SVGID_2_);}
	.st2{fill:url(#SVGID_3_);}
	.st3{fill:url(#SVGID_4_);}
	.st4{fill:#FFFFFF;}
	.st5{fill:url(#SVGID_5_);}
	.st6{fill:url(#SVGID_6_);}
	.st7{fill:#A6D6EF;}
	.st8{fill:#C7E5EF;}
	.st9{fill:#EEF6FF;}
	.st10{fill:#D9EAFC;}
	.st11{fill:#293D7C;}
	.st12{fill:#AEC1ED;}
	.st13{fill:#FF9518;}
	.st14{fill:#52BBEF;}
	.st15{fill:#1E99D6;}
	.st16{fill:#02AF8E;}
	.st17{fill:#0F9390;}
	.st18{fill:#EF8318;}
	.st19{fill:#91E0E8;}
	.st20{fill:#5DC1D8;}
	.st21{fill:#1A2B63;}
	.st22{fill:#37C47A;}
	.st23{fill:url(#SVGID_7_);}
	.st24{fill:url(#SVGID_8_);}
	.st25{fill:#40AC1F;}
	.st26{fill:#34A1D7;}
	.st27{fill:#EF5A50;}
	.st28{fill:#2B6483;}
	.st29{fill:#F2B877;}
	.st30{fill:#E9BE9D;}
	.st31{fill:#3EAF91;}
	.st32{fill:url(#SVGID_9_);}
	.st33{fill:url(#SVGID_10_);}
	.st34{fill:#E6E7E8;}
	.st35{fill:#4482C3;}
	.st36{fill:#BDC3C7;}
	.st37{fill:url(#SVGID_11_);}
	.st38{fill:url(#SVGID_12_);}
	.st39{fill:url(#SVGID_13_);}
	.st40{fill:url(#SVGID_14_);}
	.st41{fill:url(#SVGID_15_);}
	.st42{fill:url(#SVGID_16_);}
	.st43{fill:url(#SVGID_17_);}
	.st44{fill:url(#SVGID_18_);}
</style>
<linearGradient id="SVGID_1_" gradientUnits="userSpaceOnUse" x1="33.7105" y1="33.7105" x2="150.3576" y2="150.3576">
	<stop  offset="0" style="stop-color:#2D82F6"/>
	<stop  offset="0.3428" style="stop-color:#2861F6"/>
	<stop  offset="0.5408" style="stop-color:#2653F6"/>
	<stop  offset="0.6113" style="stop-color:#275BF6"/>
	<stop  offset="0.7235" style="stop-color:#2B72F5"/>
	<stop  offset="0.8623" style="stop-color:#3298F5"/>
	<stop  offset="0.9745" style="stop-color:#38BBF4"/>
</linearGradient>
<circle class="st0" cx="77.5" cy="77.5" r="77.5"/>
<g>
	<path class="st4" d="M88.4,98.5c-0.8,0.5-1.5,1-2.3,1.4c-0.8,0.5-1.7,0.9-2.6,1.3c-0.5,0.2-1.1,0.4-1.7,0.6c-0.5,0.2-1,0.3-1.5,0.4
		c-0.4,0.1-0.7,0.2-1.1,0.3c-0.3,0.1-0.7,0.1-1.1,0.2c-0.8,0.1-1.6,0.2-2.5,0.2c-0.8,0-1.6,0-2.4,0c-0.7,0-1.4-0.2-2.2-0.3
		c-0.4-0.1-0.9-0.1-1.3-0.2c-0.3-0.1-0.6-0.1-0.8-0.2c-0.8-0.3-1.7-0.5-2.5-0.8c-1.5-0.6-3-1.3-4.3-2.2c-1.7-1.1-3.2-2.4-4.6-3.9
		c-1.2-1.4-2.3-2.8-3.1-4.5c-0.6-1.1-1.1-2.2-1.4-3.3c-0.2-0.6-0.4-1.3-0.6-2c-0.2-0.9-0.4-1.8-0.5-2.7c-0.2-1.7-0.2-3.4-0.1-5.1
		c0-0.6,0.2-1.1,0.3-1.7c0.1-0.4,0.1-0.8,0.2-1.2c0.1-0.5,0.3-1,0.4-1.5c0.2-0.5,0.3-1.1,0.5-1.6c0.5-1.2,1-2.4,1.7-3.5
		c1.2-2,2.7-3.8,4.4-5.4c1.4-1.3,2.9-2.3,4.6-3.2c0.9-0.5,1.9-0.9,2.9-1.3c0.8-0.3,1.6-0.5,2.5-0.7c1-0.3,2.1-0.4,3.1-0.5
		c1.2-0.2,2.3-0.1,3.5-0.1c0.8,0,1.6,0.2,2.3,0.3c0.5,0.1,0.9,0.1,1.4,0.2c0.6,0.1,1.1,0.3,1.6,0.4c0.4,0.1,0.7,0.2,1.1,0.4
		c0.8,0.3,1.5,0.6,2.3,0.9c3,1.4,5.6,3.5,7.8,6c1.3,1.5,2.4,3.2,3.2,5.1c0.4,0.9,0.7,1.7,1,2.6c0.3,1,0.6,2,0.8,3.1
		c0.1,0.6,0.2,1.2,0.2,1.7c0.1,0.8,0.2,1.6,0.1,2.4c0,1-0.1,2-0.3,3.1c-0.1,0.8-0.2,1.5-0.4,2.3c-0.2,0.7-0.4,1.3-0.6,1.9
		c-0.3,0.9-0.6,1.7-1,2.6c-0.6,1.3-1.4,2.5-2.2,3.7c-0.2,0.3-0.5,0.6-0.8,1c-0.1,0.1-0.1,0.1-0.2,0.2c-0.4-0.3-0.7-0.6-1.1-0.9
		c3.6-4.4,5.4-9.5,5.1-15.2c-0.4-6.2-3-11.4-7.9-15.4c-8.6-7.1-20.7-6.3-28.3,1c-8,7.5-8.9,19.5-2.8,28.1c3.6,5,8.5,8,14.6,8.9
		c6.1,0.8,11.6-0.8,16.5-4.7c0.7,0.6,1.3,1.3,1.9,1.9c0.2,0.2,0.3,0.3,0.5,0.5c0.2,0.2,0.2,0.4,0.1,0.6c-0.2,0.5-0.2,1-0.2,1.5
		c0,1,0.4,1.9,1.1,2.6c2.2,2.2,4.4,4.4,6.6,6.6c1.4,1.4,2.8,2.8,4.2,4.2c1,1,2.2,1.4,3.6,1.2c1.3-0.2,2.2-0.9,2.9-2
		c0.4-0.6,0.5-1.2,0.6-1.9c0.1-1.3-0.4-2.3-1.3-3.2c-2.6-2.6-5.2-5.2-7.9-7.8c-0.9-0.9-1.9-1.9-2.8-2.8c-0.6-0.6-1.2-1-2-1.2
		c-0.3-0.1-0.5-0.1-0.8-0.1c-0.2,0-0.3-0.1-0.3-0.2c0-0.4,0-0.8,0-1.2c0.4-0.1,0.8-0.1,1.1,0c1,0.2,1.8,0.6,2.6,1.2
		c0.7,0.6,1.3,1.3,1.9,1.9c1.7,1.7,3.3,3.3,5,5c1.4,1.4,2.9,2.9,4.3,4.3c0.7,0.7,1.2,1.5,1.4,2.5c0.2,0.8,0.2,1.7,0.1,2.5
		c-0.2,1.1-0.7,2.1-1.5,2.9c-0.7,0.7-1.4,1.2-2.3,1.4c-0.9,0.3-1.9,0.3-2.8,0.1c-0.8-0.2-1.6-0.5-2.3-1.1c-0.4-0.3-0.8-0.7-1.2-1.1
		c-1.8-1.8-3.6-3.6-5.4-5.4c-1.4-1.4-2.8-2.8-4.2-4.2c-0.2-0.2-0.4-0.4-0.6-0.6c-0.7-0.7-1.1-1.5-1.4-2.4c-0.2-0.7-0.2-1.5-0.1-2.3
		c0-0.3,0-0.5-0.3-0.7C88.9,99,88.7,98.8,88.4,98.5z"/>
	<path class="st4" d="M74.9,98.7c-5.1,0-9.5-1.8-13.1-5.3c-3.9-3.8-5.8-8.4-5.7-13.8c0.1-5,1.8-9.3,5.3-12.9
		c3.8-3.9,8.4-5.8,13.8-5.7c10.1,0,18.8,8.5,18.6,19.2C93.7,90.2,85.4,98.8,74.9,98.7z M74.9,97.2c9.6,0.1,17.3-7.7,17.4-17
		c0.1-5-1.7-9.3-5.2-12.8c-3.3-3.3-7.4-4.9-12.1-5c-9.5-0.1-17.3,7.7-17.4,17.2C57.5,89.4,65.3,97.3,74.9,97.2z"/>
	<path class="st4" d="M98,68.4c0.8,0.3,1.7,0.6,2.6,0.9c0.2-0.3,0.4-0.6,0.5-0.9c0.2-0.4,0.4-0.8,0.6-1.2c0.2-0.3,0.2-0.4-0.2-0.7
		c-0.6-0.4-1.1-0.8-1.7-1.3c-0.2-0.2-0.3-0.3-0.2-0.6c0.1-0.4,0.2-0.9,0.3-1.4c0-0.2,0-0.5,0.1-0.7c0-0.2,0.1-0.5,0.1-0.7
		c0.8-0.1,1.5-0.3,2.2-0.4c0.4-0.1,0.4-0.1,0.4-0.5c0-0.7,0-1.4,0-2c0-0.4-0.1-0.4-0.4-0.5c-0.7-0.1-1.3-0.1-2-0.2
		c-0.1,0-0.2-0.1-0.3-0.1c-0.2,0-0.3-0.2-0.4-0.4c-0.2-0.8-0.5-1.5-0.8-2.2c-0.2-0.3-0.1-0.4,0.1-0.7c0.5-0.5,1.1-0.9,1.6-1.4
		c0.3-0.2,0.3-0.2,0.1-0.6c-0.4-0.6-0.8-1.3-1.2-1.9c0-0.1-0.1-0.1-0.1-0.2c-0.3,0.1-0.6,0.2-0.9,0.3c-0.6,0.2-1.1,0.5-1.7,0.7
		c-0.2,0.1-0.3,0-0.4-0.1c-0.2-0.2-0.4-0.4-0.6-0.6c-0.4-0.3-0.8-0.6-1.2-0.9c-0.3-0.2-0.3-0.2-0.2-0.6c0.3-0.8,0.5-1.5,0.8-2.4
		c-0.1-0.1-0.3-0.2-0.4-0.3c-0.7-0.4-1.3-0.7-2-1.1c-0.7,0.8-1.3,1.7-1.9,2.5c-0.2-0.1-0.5-0.1-0.7-0.2c-0.4-0.1-0.8-0.2-1.2-0.3
		c-0.2,0-0.5-0.1-0.8-0.1c-0.2,0-0.3-0.1-0.3-0.3c-0.1-0.7-0.3-1.5-0.4-2.2c-0.1-0.4-0.2-0.5-0.6-0.5c-0.7,0-1.3,0.1-2,0.1
		c-0.1,0-0.3,0-0.4,0.1c-0.1,1-0.3,2.1-0.4,3c-0.8,0.3-1.5,0.5-2.2,0.7c-0.2,0.1-0.3,0.1-0.5,0.2c-0.2,0.1-0.3,0-0.4-0.1
		c-0.4-0.5-0.8-1-1.2-1.4c-0.1-0.1-0.2-0.2-0.3-0.4c-0.1-0.1-0.2-0.2-0.4-0.1c-0.7,0.4-1.4,0.9-2.1,1.3c0,0,0,0-0.1,0.1
		c0.4,0.8,0.7,1.7,1.1,2.5c0.1,0.2,0.1,0.3-0.1,0.5c-0.6,0.6-1.2,1.3-1.7,2c-0.1,0.2-0.3,0.1-0.5,0.1c-0.5-0.2-1-0.4-1.6-0.6
		c-0.2-0.1-0.3-0.1-0.5-0.2c-0.3-0.1-0.3-0.1-0.4,0.2c-0.4,0.7-0.8,1.4-1.2,2.2c-0.1,0.2-0.2,0.4-0.4,0.6c-0.4-0.2-0.9-0.5-1.3-0.7
		c0.7-1.4,1.5-2.7,2.2-4.1c0.3-0.1,0.6,0.1,0.9,0.2c0.6,0.2,1.3,0.4,1.9,0.7c0.1,0,0.2,0,0.3-0.1c0.2-0.2,0.3-0.4,0.5-0.6
		c0.1-0.2,0.1-0.3,0-0.5c-0.3-0.8-0.7-1.6-1.1-2.5C75,48.2,75,48.2,75.2,48c1.3-0.8,2.7-1.7,4-2.5c0.2-0.2,0.3-0.1,0.5,0.1
		c0.5,0.6,1,1.2,1.5,1.8c0.1,0.1,0.2,0.2,0.2,0.3c0.4-0.1,0.8-0.3,1.1-0.4c0.1-0.4,0.1-0.7,0.2-1.1c0.1-0.7,0.1-1.3,0.2-2
		c0-0.3,0.1-0.3,0.4-0.3c1.5-0.1,3.1-0.1,4.6-0.2c0.2,0,0.3,0,0.5,0c0.1,0.5,0.1,0.9,0.2,1.3c0.1,0.5,0.2,1.1,0.3,1.6
		c0,0.2,0.1,0.2,0.3,0.2c0.2,0,0.5,0.1,0.7,0.1c0.2,0,0.3-0.1,0.4-0.2c0.2-0.3,0.4-0.6,0.6-0.8c0.3-0.5,0.7-0.9,1-1.4
		c0.2-0.2,0.3-0.3,0.5-0.1c1.3,0.7,2.5,1.3,3.8,2c0.2,0.1,0.4,0.2,0.6,0.4c-0.1,0.2-0.1,0.4-0.2,0.6c-0.2,0.7-0.5,1.4-0.7,2
		c-0.1,0.2-0.1,0.4,0.1,0.5c0.1,0.1,0.3,0.2,0.4,0.3c0.2,0.3,0.4,0.2,0.7,0.1c0.5-0.2,1-0.4,1.6-0.7c0.3-0.1,0.6-0.3,0.9-0.4
		c0.2-0.1,0.3-0.1,0.4,0.1c0.2,0.3,0.4,0.6,0.6,1c0.7,1.1,1.3,2.2,2,3.2c0,0,0,0.1,0.1,0.2c-0.5,0.5-1.1,0.9-1.6,1.4
		c-0.1,0.1-0.2,0.2-0.3,0.3c-0.2,0.2-0.3,0.4-0.2,0.6c0.1,0.2,0.1,0.4,0.2,0.6c0.1,0.1,0.2,0.2,0.4,0.3c0.8,0.1,1.7,0.2,2.5,0.3
		c0,0,0.1,0,0.1,0c0.4,0,0.4,0.1,0.4,0.5c0,0.9,0,1.8,0,2.6c0,0.7,0.1,1.3,0.1,2c0,0.3,0,0.3-0.3,0.4c-0.9,0.2-1.7,0.3-2.6,0.5
		c-0.1,0.3-0.1,0.6-0.2,0.9c-0.1,0.2,0,0.4,0.2,0.5c0.6,0.5,1.3,0.9,1.9,1.4c0.1,0,0.1,0.1,0.2,0.1c0.2,0.2,0.2,0.2,0.1,0.5
		c-0.2,0.4-0.4,0.8-0.6,1.2c-0.5,1-1.1,2-1.6,2.9c-0.2,0.3-0.2,0.3-0.5,0.2c-0.8-0.3-1.6-0.6-2.3-0.8c-0.2-0.1-0.3,0-0.4,0.1
		c-0.2,0.3-0.5,0.6-0.8,0.9c-0.2,0.2-0.2,0.2-0.4,0c-0.2-0.2-0.4-0.5-0.7-0.7c-0.1-0.1-0.1-0.2,0-0.3C96.9,69.7,97.4,69.1,98,68.4z"
		/>
	<path class="st4" d="M51.5,48.5c0,0.9,0,1.7,0,2.6c0,0.9,0,1.7,0,2.6c0.2,0,0.3,0,0.5,0c1.1,0,2.1,0,3.2,0c0.1,0,0.3,0,0.5,0
		c0,0.5,0,1,0,1.4c-1.9,0-3.7,0-5.6,0c0-1.2,0-2.3,0-3.6c-1,0.7-1.8,1.4-2.6,2c-0.9,0.7-1.7,1.3-2.5,2c-0.8,0.7-1.7,1.4-2.5,2
		c0,0.1,0,0.1,0.1,0.2c2.5,2,5,4,7.5,6c0.2-0.3,0.1-0.6,0.1-0.9c0-0.3,0-0.6,0-0.9c0-0.3,0-0.6,0-0.9c0-0.3,0-0.6,0-0.9
		c0.3-0.1,9.4-0.1,10,0c0.1,0.4,0.1,0.8,0,1.2c0,0.1-0.1,0.2-0.2,0.2c-0.1,0-0.2,0-0.4,0c-2.5,0-5,0-7.4,0c-0.2,0-0.3,0-0.5,0
		c0,0.2,0,0.3,0,0.5c0,1.4,0,2.8,0,4.2c0,0.2,0,0.3,0,0.5c-0.1-0.1-0.2-0.1-0.3-0.2c-1-0.8-2-1.6-3-2.4c-1-0.8-2.1-1.7-3.1-2.5
		c-1.5-1.2-3-2.4-4.5-3.6c-0.2-0.1-0.4-0.3-0.5-0.4c-0.1-0.1-0.1-0.2,0-0.3c0.3-0.2,0.5-0.5,0.8-0.7c1.6-1.3,3.1-2.5,4.7-3.7
		c1.5-1.2,3.1-2.5,4.6-3.7c0.3-0.3,0.7-0.5,1-0.8C51.3,48.6,51.4,48.6,51.5,48.5z"/>
	<path class="st4" d="M101,82.2c6.9,0,13.6,0,20.5,0c0,0.5,0,0.9,0,1.4c-0.2,0-0.3,0-0.5,0c-3.4,0-6.7,0-10.1,0c-3.1,0-6.2,0-9.2,0
		c-0.1,0-0.1,0-0.2,0c-0.4,0-0.4,0-0.4-0.5C101,82.9,101,82.6,101,82.2z"/>
	<path class="st4" d="M45.2,68.7c0.5,0,1,0,1.4,0c0,0.7,0,1.4,0,2.1c0.7,0,1.3,0,2,0c0,0.5,0,0.9,0,1.3c0,0.2-0.2,0.2-0.3,0.2
		c-0.4,0-0.9,0-1.3,0c-0.1,0-0.3,0-0.4,0c0,0.7,0,1.3,0,2c-0.5,0-1,0-1.5,0c0-0.6,0-1.3,0-2c-0.2,0-0.3,0-0.5,0c-0.4,0-0.8,0-1.2,0
		c-0.2,0-0.3-0.1-0.4-0.3c0-0.4,0-0.8,0-1.2c0.3,0,0.5,0,0.7,0c0.3,0,0.6,0,1,0c0.4,0,0.4,0,0.4-0.4c0-0.4,0-0.9,0-1.3
		C45.2,69,45.2,68.9,45.2,68.7z"/>
	<path class="st4" d="M111.3,65.2c0,0.5,0,1,0,1.5c-0.7,0-1.3,0-2,0c0,0.2,0,0.3,0,0.5c0,0.4,0,0.8,0,1.2c0,0.4,0,0.4-0.4,0.4
		c-0.2,0-0.5,0-0.7,0c-0.3,0-0.4-0.1-0.4-0.4c0-0.4,0-0.8,0-1.2c0-0.1,0-0.2,0-0.4c-0.7-0.1-1.3,0-2,0c0-0.5,0-1,0-1.5
		c0.7,0,1.3,0,2,0c0-0.2,0-0.4,0-0.6c0-0.4,0-0.7,0-1.1c0-0.3,0.1-0.3,0.3-0.3c0.3,0,0.5,0,0.8,0c0.3,0,0.3,0.1,0.3,0.4
		c0,0.4,0,0.7,0,1.1c0,0.2,0,0.3,0,0.6C109.9,65.2,110.6,65.2,111.3,65.2z"/>
	<path class="st4" d="M101,79.9c0-0.5,0-1,0-1.5c0.2,0,0.3,0,0.4,0c2.6,0,5.3,0,7.9,0c0.4,0,0.4,0,0.5,0.5c0,0.2,0,0.4,0,0.6
		c0,0.5,0,0.5-0.5,0.5c-0.3,0-0.6,0-0.9,0c-2.3,0-4.6,0-6.9,0C101.3,79.9,101.2,79.9,101,79.9z"/>
	<path class="st4" d="M58.2,55.3c0-0.4,0-0.9,0-1.3c0.3-0.1,7.8-0.1,8.3,0c0,0.5,0,0.9,0,1.4C66.2,55.4,58.6,55.4,58.2,55.3z"/>
	<path class="st4" d="M53.5,58.4c0-0.5,0-0.9,0-1.4c0.2,0,0.3,0,0.4,0c1.9,0,3.8,0,5.6,0c0.5,0,0.5,0,0.5,0.5c0,0.2,0,0.4,0,0.6
		c0,0.2-0.1,0.3-0.3,0.3c-0.1,0-0.2,0-0.3,0c-1.8,0-3.6,0-5.4,0C53.9,58.4,53.8,58.4,53.5,58.4z"/>
	<path class="st4" d="M105.5,75.9c-0.1-0.3-0.1-1.1,0-1.5c1.2,0,2.5,0,3.8,0c0.1,0.5,0.1,1,0,1.5C108,75.9,106.8,75.9,105.5,75.9z"
		/>
	<path class="st4" d="M115.4,79.9c-1.3,0-2.5,0-3.8,0c0-0.4,0-0.8,0-1.2c0-0.1,0.1-0.2,0.2-0.2c0.1,0,0.1,0,0.2,0c1,0,1.9,0,2.9,0
		c0.4,0,0.4,0,0.4,0.4C115.4,79.1,115.4,79.5,115.4,79.9z"/>
	<path class="st4" d="M81.5,54.1c-0.2,0.2-0.4,0.3-0.5,0.5c-0.3,0.3-0.6,0.6-0.9,0.9c-0.2,0.2-0.2,0.2-0.4,0
		c-0.3-0.2-0.7-0.4-0.9-0.8c0.5-0.7,1.1-1.3,1.9-1.8C80.9,53.4,81.2,53.7,81.5,54.1z"/>
	<path class="st4" d="M83,53.2c-0.2-0.4-0.4-0.8-0.6-1.2c0.1-0.1,0.2-0.2,0.4-0.2c0.6-0.2,1.2-0.4,1.8-0.6c0.3-0.1,0.4,0,0.4,0.3
		c0,0.2,0.1,0.4,0.1,0.6c0,0.2,0,0.3,0,0.4C84.4,52.7,83.8,52.9,83,53.2z"/>
	<path class="st4" d="M91.6,51.9c0.8,0.4,1.5,0.8,2.2,1.4c0,0.1-0.1,0.2-0.1,0.3c-0.2,0.2-0.4,0.4-0.6,0.7c-0.1,0.2-0.2,0.2-0.4,0.1
		c-0.5-0.3-0.9-0.6-1.4-0.9c-0.3-0.2-0.3-0.2-0.1-0.5C91.2,52.6,91.4,52.2,91.6,51.9z"/>
	<path class="st4" d="M95.2,54.8c0.6,0.7,1.1,1.4,1.4,2.3c-0.4,0.2-0.7,0.3-1.1,0.5c-0.2,0.1-0.3,0.1-0.4-0.1
		c-0.3-0.5-0.6-1-0.9-1.5c-0.2-0.3-0.2-0.3,0.1-0.5C94.6,55.3,94.9,55.1,95.2,54.8z"/>
	<path class="st4" d="M95.7,63.5c0.4,0.1,0.7,0.2,1.1,0.3c0.2,0,0.2,0.2,0.2,0.4c-0.1,0.6-0.4,1.1-0.6,1.6c-0.1,0.2-0.2,0.3-0.3,0.5
		c-0.1,0-0.2,0-0.3-0.1c-0.3-0.1-0.5-0.3-0.8-0.5c-0.1-0.1-0.2-0.2-0.1-0.3c0.3-0.6,0.5-1.2,0.8-1.7C95.6,63.6,95.7,63.6,95.7,63.5z
		"/>
	<path class="st4" d="M87,50.9c0.5,0,1,0,1.5,0.1c0.2,0,0.5,0.1,0.7,0.1c0.3,0.1,0.3,0.1,0.2,0.4c-0.1,0.3-0.2,0.7-0.3,1.1
		c-0.2,0-0.4,0-0.5,0c-0.4-0.2-0.9-0.1-1.3-0.2c-0.4,0-0.4,0-0.4-0.4C87,51.6,87,51.3,87,50.9z"/>
	<path class="st4" d="M95.8,59.4c0.5-0.1,0.9-0.3,1.4-0.2c0.1,0.8,0.3,1.5,0.2,2.3c0,0.2-0.1,0.3-0.2,0.2c-0.4,0-0.8,0-1.2,0
		C96,60.9,95.9,60.2,95.8,59.4z"/>
	<path class="st4" d="M112,74.4c0.2,0,0.4,0,0.6,0c0.3,0,0.6,0,0.9,0c0.1,0,0.3,0,0.3,0.2c0,0.4,0,0.9,0,1.3c-0.6,0-1.2,0-1.8,0
		C112,75.3,112,74.9,112,74.4z"/>
	<path class="st4" d="M101,75.9c0-0.5,0-1,0-1.5c0.6,0,1.2,0,1.8,0c0,0.5,0,0.9,0,1.5C102.2,75.9,101.6,75.9,101,75.9z"/>
	<path class="st4" d="M76.7,82.4c-1.5,0-3,0-4.5,0c0,0.2-0.1,0.4-0.1,0.5c0,0.7,0,1.4-0.1,2.1c-0.1,1-0.7,1.7-1.6,2.2
		c-0.5,0.3-1.1,0.3-1.6,0.2c-0.7-0.1-1.3-0.5-1.7-1c-0.1-0.1-0.2-0.2-0.3-0.4c-0.1,0.1-0.2,0.2-0.3,0.3c-0.7,1-1.8,1.4-2.9,1.1
		c-1.1-0.3-1.8-1-2.1-2.1c-0.1-0.3-0.1-0.7-0.1-1c0-0.6,0-1.2,0-1.8c-0.3-0.1-0.6-0.2-0.9-0.4c-0.9-0.5-1.4-1.3-1.5-2.3
		c-0.1-1.3,0.7-2.4,1.8-2.8c0.4-0.1,0.8-0.2,1.2-0.2c4.7,0,9.5,0,14.2,0c0.2,0,0.3,0,0.5,0c0.1-0.4,0.1-0.7,0.2-1.1
		c0.3-2.1,1.5-3.7,3.3-4.8c0.6-0.4,1.2-0.6,1.8-0.8c0.8-0.2,1.5-0.3,2.3-0.2c1.3,0.2,2.5,0.6,3.6,1.5c1,0.8,1.7,1.8,2.1,2.9
		c0.2,0.6,0.4,1.1,0.4,1.7c0,2.3,0,4.6,0,6.8c0,1.1-0.4,2-0.9,3c-0.7,1.1-1.6,2-2.8,2.6c-0.5,0.3-1.1,0.5-1.6,0.6
		c-0.5,0.1-1.1,0.1-1.6,0.1c-2,0-3.6-0.8-4.9-2.2c-0.7-0.7-1.1-1.5-1.5-2.4c-0.2-0.6-0.2-1.2-0.4-1.8C76.7,82.6,76.7,82.5,76.7,82.4
		z M78.2,78.2c-0.2,0-0.4,0-0.6,0c-5.2,0-10.4,0-15.5,0c-0.3,0-0.6,0-0.9,0.2c-0.7,0.3-0.9,1.1-0.6,1.8c0.2,0.5,0.7,0.7,1.2,0.7
		c0.3,0,0.7,0,1,0c0,0.2,0,0.3,0,0.5c0,1,0,1.9,0,2.9c0,0.3,0.1,0.6,0.2,0.8c0.3,0.7,1.1,1,1.8,0.6c0.5-0.2,0.7-0.6,0.7-1.2
		c0-1.1,0-2.1,0-3.2c0-0.2,0-0.3,0-0.5c0.2,0,0.3,0,0.4,0c0.5,0,1,0,1.5,0c0.5,0,0.5,0,0.5,0.5c0,0.9,0,1.9,0,2.8c0,0.2,0,0.4,0,0.6
		c0,0.5,0.5,0.9,0.9,1c0.5,0.1,1.1-0.1,1.4-0.5c0.2-0.3,0.3-0.7,0.3-1.1c0-1,0-1.9,0-2.9c0-0.2,0-0.3,0-0.5c0.6-0.1,7.2-0.1,7.5,0
		c0,0.2,0,0.3,0,0.5c0,0.7,0,1.3,0.1,2c0.2,0.7,0.4,1.4,0.9,2c0.9,1.2,2.1,2,3.6,2.2c0.9,0.1,1.8,0.1,2.6-0.3c1.1-0.4,2-1.1,2.6-2.1
		c0.4-0.7,0.8-1.4,0.8-2.2c0-2.4,0-4.8,0-7.2c0-0.1,0-0.2,0-0.4c-0.2-0.8-0.5-1.5-1-2.1c-1.1-1.4-2.5-2.1-4.2-2.1
		c-0.4,0-0.8,0.1-1.2,0.1c-0.8,0.1-1.6,0.5-2.2,1c-1.4,1.1-2,2.5-2.1,4.3c0,0.3,0,0.6,0,0.9C78.2,77.8,78.2,78,78.2,78.2z"/>
	<path class="st4" d="M86.2,79.6c0,1,0,2,0,3c0,0.9-0.5,1.6-1.2,2.1c-1.4,0.9-3.2,0.3-3.9-1.3c-0.1-0.3-0.2-0.6-0.2-1
		c0-1.9,0-3.8,0-5.7c0-1.2,0.6-2,1.6-2.5c1.4-0.6,3,0.1,3.6,1.5c0.2,0.4,0.2,0.7,0.2,1.1C86.2,77.7,86.2,78.6,86.2,79.6
		C86.2,79.6,86.2,79.6,86.2,79.6z M82.3,79.5C82.3,79.5,82.3,79.5,82.3,79.5c0,0.9,0,1.9,0,2.8c0,0.2,0.1,0.4,0.2,0.6
		c0.3,0.5,0.8,0.7,1.3,0.6c0.4-0.1,0.8-0.5,0.9-1c0-0.2,0-0.4,0-0.6c0-1.5,0-3,0-4.5c0-0.3,0-0.7,0-1c0-0.3-0.1-0.4-0.3-0.6
		c-0.4-0.4-0.8-0.5-1.2-0.3c-0.5,0.2-0.8,0.6-0.8,1.1C82.3,77.7,82.3,78.6,82.3,79.5z"/>
</g>
</svg>
