<?xml version="1.0" encoding="utf-8"?>
<!-- Generator: Adobe Illustrator 21.0.2, SVG Export Plug-In . SVG Version: 6.00 Build 0)  -->
<svg version="1.1" id="Layer_1" xmlns="http://www.w3.org/2000/svg" xmlns:xlink="http://www.w3.org/1999/xlink" x="0px" y="0px"
	 width="155px" height="155px" viewBox="0 0 155 155" style="enable-background:new 0 0 155 155;" xml:space="preserve">
<style type="text/css">
	.st0{fill:url(#SVGID_1_);}
	.st1{fill:url(#SVGID_2_);}
	.st2{fill:url(#SVGID_3_);}
	.st3{fill:url(#SVGID_4_);}
	.st4{fill:#FFFFFF;}
	.st5{fill:url(#SVGID_5_);}
	.st6{fill:url(#SVGID_6_);}
	.st7{fill:#A6D6EF;}
	.st8{fill:#C7E5EF;}
	.st9{fill:#EEF6FF;}
	.st10{fill:#D9EAFC;}
	.st11{fill:#293D7C;}
	.st12{fill:#AEC1ED;}
	.st13{fill:#FF9518;}
	.st14{fill:#52BBEF;}
	.st15{fill:#1E99D6;}
	.st16{fill:#02AF8E;}
	.st17{fill:#0F9390;}
	.st18{fill:#EF8318;}
	.st19{fill:#91E0E8;}
	.st20{fill:#5DC1D8;}
	.st21{fill:#1A2B63;}
	.st22{fill:#37C47A;}
	.st23{fill:url(#SVGID_7_);}
	.st24{fill:url(#SVGID_8_);}
	.st25{fill:#40AC1F;}
	.st26{fill:#34A1D7;}
	.st27{fill:#EF5A50;}
	.st28{fill:#2B6483;}
	.st29{fill:#F2B877;}
	.st30{fill:#E9BE9D;}
	.st31{fill:#3EAF91;}
	.st32{fill:url(#SVGID_9_);}
	.st33{fill:url(#SVGID_10_);}
	.st34{fill:#E6E7E8;}
	.st35{fill:#4482C3;}
	.st36{fill:#BDC3C7;}
	.st37{fill:url(#SVGID_11_);}
	.st38{fill:url(#SVGID_12_);}
	.st39{fill:url(#SVGID_13_);}
	.st40{fill:url(#SVGID_14_);}
	.st41{fill:url(#SVGID_15_);}
	.st42{fill:url(#SVGID_16_);}
	.st43{fill:url(#SVGID_17_);}
	.st44{fill:url(#SVGID_18_);}
</style>
<linearGradient id="SVGID_1_" gradientUnits="userSpaceOnUse" x1="35.6934" y1="6.1071" x2="119.6517" y2="149.4821">
	<stop  offset="0" style="stop-color:#2D82F6"/>
	<stop  offset="0.3428" style="stop-color:#2861F6"/>
	<stop  offset="0.5408" style="stop-color:#2653F6"/>
	<stop  offset="0.6113" style="stop-color:#275BF6"/>
	<stop  offset="0.7235" style="stop-color:#2B72F5"/>
	<stop  offset="0.8623" style="stop-color:#3298F5"/>
	<stop  offset="0.9745" style="stop-color:#38BBF4"/>
</linearGradient>
<circle class="st0" cx="77.5" cy="77.5" r="77.5"/>
<g>
	<path class="st4" d="M53.6,46.1v42.6h-7.1c-1.7,0-3,1.4-3,3c0,1.7,1.4,3,3,3h3v1c0,1.7,1.4,3,3,3h1v10.1h44l8.7-8.7V46.1H53.6z
		 M49.6,92.7h-3c-0.6,0-1-0.5-1-1c0-0.6,0.5-1,1-1h3V92.7z M53.6,96.8h-1c-0.6,0-1-0.5-1-1v-1h2V96.8z M51.6,92.7v-2h36.5v2H51.6z
		 M98.2,105.5v-4.6h4.6L98.2,105.5z M104.3,98.8h-8.1v8.1H55.7v-8.1h4.9l0.3-0.5c0.4-0.6,1.4-0.6,1.7,0l0.3,0.5h2.9v-2H64
		c-0.6-0.6-1.4-1-2.3-1c-0.9,0-1.7,0.4-2.3,1h-3.8v-2h32.6c0.4,1.2,1.5,2,2.9,2c1.1,0,2.1-0.6,2.7-1.6l3.6,1.8l6.6-5.3l-6.6-5.3
		l-3.6,1.8c-0.5-0.9-1.5-1.6-2.7-1.6c-1.3,0-2.4,0.9-2.9,2H55.7V48.1h48.7V98.8z M90.1,93.7v-4.1c0-0.6,0.5-1,1-1c0.6,0,1,0.5,1,1
		v4.1c0,0.6-0.5,1-1,1C90.6,94.7,90.1,94.3,90.1,93.7L90.1,93.7z M99.4,92.7l-2.3,1.8l-2.9-1.5v-2.8l2.9-1.5l2.3,1.8h-2.2v2H99.4z
		 M99.4,92.7"/>
	<path class="st4" d="M90.1,51.1H58.7v22.3h31.4V51.1z M88.1,71.4H60.7V64l9.1-3.6l9.8,3.9l0.8-1.9l-2.4-1l6.1-3.1l4,1.6V71.4z
		 M75.5,60.4l-1.7-0.7c0.8-0.9,1.9-1.5,3.1-1.5c0.7,0,1.3,0.2,1.9,0.5L75.5,60.4L75.5,60.4z M88.1,57.8L84,56.1l-3.1,1.6
		c-1.1-0.9-2.5-1.5-3.9-1.5c-2.1,0-4,1.1-5.1,2.8l-2-0.8l-9.1,3.6v-8.6h27.4V57.8z M88.1,57.8"/>
	<rect x="92.1" y="51.1" class="st4" width="9.1" height="2"/>
	<rect x="92.1" y="56.2" class="st4" width="9.1" height="2"/>
	<rect x="92.1" y="61.3" class="st4" width="9.1" height="2"/>
	<rect x="92.1" y="66.3" class="st4" width="9.1" height="2"/>
	<rect x="92.1" y="71.4" class="st4" width="9.1" height="2"/>
	<path class="st4" d="M61.7,83.6h2v-5.1h3v-2h-8.1v2h3V83.6z M61.7,83.6"/>
	<rect x="69.8" y="76.5" class="st4" width="31.4" height="2"/>
	<rect x="69.8" y="81.6" class="st4" width="31.4" height="2"/>
</g>
</svg>
