<?xml version="1.0" encoding="utf-8"?>
<!-- Generator: Adobe Illustrator 21.0.2, SVG Export Plug-In . SVG Version: 6.00 Build 0)  -->
<svg version="1.1" id="Layer_1" xmlns="http://www.w3.org/2000/svg" xmlns:xlink="http://www.w3.org/1999/xlink" x="0px" y="0px"
	 width="155px" height="155px" viewBox="0 0 155 155" style="enable-background:new 0 0 155 155;" xml:space="preserve">
<style type="text/css">
	.st0{fill:url(#SVGID_1_);}
	.st1{fill:url(#SVGID_2_);}
	.st2{fill:url(#SVGID_3_);}
	.st3{fill:url(#SVGID_4_);}
	.st4{fill:#FFFFFF;}
	.st5{fill:url(#SVGID_5_);}
	.st6{fill:url(#SVGID_6_);}
	.st7{fill:#A6D6EF;}
	.st8{fill:#C7E5EF;}
	.st9{fill:#EEF6FF;}
	.st10{fill:#D9EAFC;}
	.st11{fill:#293D7C;}
	.st12{fill:#AEC1ED;}
	.st13{fill:#FF9518;}
	.st14{fill:#52BBEF;}
	.st15{fill:#1E99D6;}
	.st16{fill:#02AF8E;}
	.st17{fill:#0F9390;}
	.st18{fill:#EF8318;}
	.st19{fill:#91E0E8;}
	.st20{fill:#5DC1D8;}
	.st21{fill:#1A2B63;}
	.st22{fill:#37C47A;}
	.st23{fill:url(#SVGID_7_);}
	.st24{fill:url(#SVGID_8_);}
	.st25{fill:#40AC1F;}
	.st26{fill:#34A1D7;}
	.st27{fill:#EF5A50;}
	.st28{fill:#2B6483;}
	.st29{fill:#F2B877;}
	.st30{fill:#E9BE9D;}
	.st31{fill:#3EAF91;}
	.st32{fill:url(#SVGID_9_);}
	.st33{fill:url(#SVGID_10_);}
	.st34{fill:#E6E7E8;}
	.st35{fill:#4482C3;}
	.st36{fill:#BDC3C7;}
	.st37{fill:url(#SVGID_11_);}
	.st38{fill:url(#SVGID_12_);}
	.st39{fill:url(#SVGID_13_);}
	.st40{fill:url(#SVGID_14_);}
	.st41{fill:url(#SVGID_15_);}
	.st42{fill:url(#SVGID_16_);}
	.st43{fill:url(#SVGID_17_);}
	.st44{fill:url(#SVGID_18_);}
</style>
<linearGradient id="SVGID_1_" gradientUnits="userSpaceOnUse" x1="35.6934" y1="6.1071" x2="119.6517" y2="149.4821">
	<stop  offset="0" style="stop-color:#2D82F6"/>
	<stop  offset="0.3428" style="stop-color:#2861F6"/>
	<stop  offset="0.5408" style="stop-color:#2653F6"/>
	<stop  offset="0.6113" style="stop-color:#275BF6"/>
	<stop  offset="0.7235" style="stop-color:#2B72F5"/>
	<stop  offset="0.8623" style="stop-color:#3298F5"/>
	<stop  offset="0.9745" style="stop-color:#38BBF4"/>
</linearGradient>
<circle class="st0" cx="77.5" cy="77.5" r="77.5"/>
<g>
	<path class="st4" d="M105.2,86.3V67.2c3.6-0.2,6.5-2.9,6.5-6.2c0-3.4-2.5-6.3-6-6.3c-2.2,0-4,1.1-5.1,2.8L83.3,47.5
		c0.3-0.7,0.5-1.5,0.5-2.3c0-3.4-2.8-6.3-6.2-6.3s-6.2,2.8-6.2,6.3c0,0.8,0.2,1.6,0.4,2.3l-17.2,9.9c-1.1-1.3-2.8-2.1-4.6-2.1
		c-3.4,0-6.6,2.8-6.6,6.3c0,3,2,5.6,4.7,6.1v20.1c-2.7,0.6-4.7,3.1-4.7,6.1c0,3.4,3,6.3,6.4,6.3c2.1,0,4.1-1.1,5.2-2.7l16.9,9.7
		c-0.3,0.8-0.5,1.6-0.5,2.5c0,3.4,2.8,6.3,6.3,6.3c3.4,0,6.3-2.8,6.3-6.3c0-0.9-0.2-1.7-0.5-2.5L101.1,97c1.1,1.1,2.6,1.7,4.3,1.7
		c3.4,0,5.7-2.8,5.7-6.3C111,89.4,107.9,86.8,105.2,86.3z M99.4,89.2L91,84.1c1.1-2.1,1.9-4.5,1.9-7.1c0-2.3-0.5-4.5-1.4-6.5l9-5.6
		c0.9,1.1,1.1,1.9,2.9,2.2v19.2C101.6,86.5,100.4,87.6,99.4,89.2z M88.9,84.7c-2.3,3.4-6.1,5.7-10.5,6c-0.3,0-0.6,0-0.9,0
		s-0.6,0-0.9,0c-4.2-0.3-7.9-2.4-10.2-5.6c-0.3-0.5-0.7-1-1-1.5c-1.1-2-1.7-4.2-1.7-6.6c0-2.3,0.6-4.4,1.5-6.3
		c0.3-0.5,0.6-1,0.9-1.5c2.3-3.4,6.1-5.6,10.4-5.9c0.3,0,0.6,0,0.9,0s0.6,0,0.9,0c4.6,0.3,8.5,2.8,10.8,6.5c0.3,0.5,0.6,1,0.8,1.5
		c0.8,1.7,1.2,3.6,1.2,5.6c0,2.2-0.5,4.3-1.5,6.2C89.5,83.7,89.2,84.2,88.9,84.7z M49.7,87.8V67.9c1.8-0.2,4-1.3,5.1-2.8l8.9,4.8
		C62.5,72,62,74.4,62,77c0,2.7,0.7,5.3,2,7.5l-9.7,5.4C53.2,88.7,51.5,87.9,49.7,87.8z M106.1,56.5c2.5,0,4.5,2,4.5,4.5
		c0,2.4-1.9,4.3-4.2,4.5c-0.1,0-0.2,0-0.3,0c-0.5,0-1-0.1-1.4-0.3c-0.8-0.3-1.4-0.7-1.9-1.3c-0.4-0.4-0.7-0.9-0.9-1.5
		c-0.2-0.5-0.3-0.9-0.3-1.5c0-0.3,0-0.6,0.1-0.9c0.1-0.6,0.4-1.1,0.7-1.6C103.2,57.3,104.6,56.5,106.1,56.5z M100.1,59.2
		c-0.2,0.6-0.3,1.2-0.3,1.8c0,0.8,0.2,1.6,0.5,2.4l-10,5.6c-2.6-4.2-7.4-7.1-12.8-7.4V51.5c1.8-0.2,3.6-1.1,4.6-2.4L100.1,59.2z
		 M73,45.3c0-2.5,2-4.5,4.5-4.5s4.5,2,4.5,4.5c0,0.5-0.1,0.9-0.2,1.4c-0.2,0.6-0.5,1.1-0.9,1.5c-0.6,0.8-1.5,1.3-2.5,1.5
		c-0.3,0.1-0.6,0.1-0.9,0.1s-0.6,0-0.9-0.1c-1-0.2-1.9-0.8-2.5-1.5c-0.4-0.4-0.7-1-0.9-1.5C73.1,46.2,73,45.8,73,45.3z M72.1,49.1
		c1,1.3,1.8,2.2,3.6,2.4v10.1c-5.4,0.3-8.8,2.9-11.5,6.8l-8.6-4.9c0.2-0.6,0.4-1.2,0.4-1.8c0-1-0.4-1.9-0.8-2.7L72.1,49.1z
		 M45.4,61.6c0-2.5,2-4.5,4.5-4.5c1.2,0,2.2,0.5,3,1.2c0.4,0.4,0.8,0.9,1,1.4c0.3,0.6,0.4,1.2,0.4,1.9c0,0.3,0,0.6-0.1,0.9
		c-0.1,0.6-0.4,1.1-0.7,1.6c-0.7,1-1.9,1.8-3.2,1.9c-0.2,0-0.4,0.1-0.6,0.1c-0.4,0-0.8-0.1-1.2-0.2C46.8,65.4,45.4,63.7,45.4,61.6z
		 M49.9,98.5c-2.5,0-4.5-2-4.5-4.5c0-2.1,1.4-3.8,3.3-4.3c0.4-0.1,0.8-0.2,1.2-0.2c0.2,0,0.4,0,0.6,0.1c1,0.1,1.9,0.6,2.6,1.3
		c0.4,0.4,0.7,0.9,1,1.5c0.2,0.5,0.3,1.1,0.3,1.7c0,0.4-0.1,0.8-0.2,1.1c-0.2,0.6-0.4,1.1-0.8,1.6C52.6,97.8,51.3,98.5,49.9,98.5z
		 M55.8,96c0.2-0.6,0.3-1.3,0.3-2c0-0.9-0.2-1.8-0.6-2.6l8.9-5.4c2.7,3.7,6.8,6.2,11.2,6.5v11.1c-1.8,0.2-2.5,1-3.4,2.2L55.8,96z
		 M82.1,109.7c0,2.5-2,4.5-4.5,4.5s-4.5-2-4.5-4.5c0-0.6,0.1-1.1,0.3-1.6c0.2-0.6,0.5-1.1,0.9-1.5c0.6-0.7,1.5-1.1,2.4-1.3
		c0.3-0.1,0.6-0.1,0.9-0.1s0.6,0,0.9,0.1c0.9,0.2,1.8,0.7,2.4,1.3c0.4,0.4,0.7,0.9,0.9,1.5C81.9,108.6,82.1,109.2,82.1,109.7z
		 M81.9,105.8c-1-1.2-2.6-2-4.4-2.2V92.4c5.4-0.3,9.9-2.9,12.5-6.8l9.2,5.2c-0.2,0.6-0.1,1.1-0.1,1.7c0,1.2,0.1,2.2,0.7,3.2
		L81.9,105.8z M105.3,97c-1,0-1.9-0.3-2.7-0.9c-0.5-0.4-0.9-0.8-1.2-1.3c-0.4-0.7-0.6-1.4-0.6-2.3c0-0.3,0-0.5,0.1-0.8
		c0.1-0.6,0.3-1.2,0.7-1.6c0.7-1,1.8-1.8,3.1-2c0.2,0,0.4-0.1,0.7-0.1c0.4,0,0.7,0.1,1.1,0.1c2,0.5,3.4,2.2,3.4,4.4
		C109.9,95,107.8,97,105.3,97z"/>
	<path class="st4" d="M86.3,73.2l-1.8-2.4c-0.4-0.6-1-0.9-1.7-1c-0.7-0.1-1.4,0.1-1.9,0.5l-3.9,2.9c-0.5,0.4-0.9,0.9-1,1.6
		c-0.6-0.1-1.3,0.1-1.8,0.5l-3.9,2.9c-0.6,0.4-0.9,1-1,1.7c-0.1,0.7,0.1,1.4,0.5,1.9l1.8,2.4c0.4,0.6,1,0.9,1.7,1
		c0.7,0.1,1.4-0.1,1.9-0.5l3.9-2.9c0.5-0.4,0.9-1,1-1.6c0.6,0.1,1.3-0.1,1.8-0.5l3.9-2.9c0.6-0.4,0.9-1,1-1.7
		C86.9,74.5,86.7,73.8,86.3,73.2L86.3,73.2z M78,80.5l-3.9,2.9c-0.2,0.1-0.4,0.2-0.7,0.2c-0.2,0-0.4-0.2-0.6-0.3L71,80.9
		c-0.1-0.2-0.2-0.4-0.2-0.7c0-0.2,0.2-0.4,0.3-0.6l3.9-2.9c0.2-0.1,0.4-0.2,0.7-0.2c0.2,0,0.4,0.2,0.6,0.3l0.4,0.5l-2.5,1.9
		c-0.4,0.3-0.5,0.8-0.2,1.2c0.1,0.2,0.3,0.3,0.6,0.3c0.2,0,0.4,0,0.6-0.2l2.5-1.9l0.4,0.5C78.5,79.7,78.4,80.2,78,80.5L78,80.5z
		 M84.7,75.5l-3.9,2.9c-0.2,0.1-0.4,0.2-0.7,0.2c-0.2,0-0.4-0.2-0.6-0.3l-0.4-0.5l2.5-1.9c0.4-0.3,0.5-0.8,0.2-1.2
		c-0.3-0.4-0.8-0.5-1.2-0.2l-2.5,1.9l-0.4-0.5c-0.1-0.2-0.2-0.4-0.2-0.7c0-0.2,0.2-0.4,0.3-0.6l3.9-2.9c0.2-0.1,0.4-0.2,0.7-0.2
		c0.2,0,0.4,0.2,0.6,0.3l1.8,2.4c0.1,0.2,0.2,0.4,0.2,0.7C85,75.2,84.9,75.4,84.7,75.5L84.7,75.5z M84.7,75.5"/>
</g>
</svg>
