<?xml version="1.0" encoding="utf-8"?>
<!-- Generator: Adobe Illustrator 17.0.0, SVG Export Plug-In . SVG Version: 6.00 Build 0)  -->
<!DOCTYPE svg PUBLIC "-//W3C//DTD SVG 1.1//EN" "http://www.w3.org/Graphics/SVG/1.1/DTD/svg11.dtd">
<svg version="1.1" id="Layer_1" xmlns="http://www.w3.org/2000/svg" xmlns:xlink="http://www.w3.org/1999/xlink" x="0px" y="0px"
	 width="160px" height="109px" viewBox="0 0 160 109" enable-background="new 0 0 160 109" xml:space="preserve">
<g>
	
		<image overflow="visible" opacity="0.15" width="515" height="509" xlink:href="29B43975.png"  transform="matrix(0.24 0 0 0.24 29.609 3.2984)">
	</image>
	<g>
		<g>
			<path fill="#E6E7E8" d="M93.125,38.264L80.435,52.54l12.69,14.276v11.103H67.746c-0.875,0.002-1.584,0.711-1.587,1.586v11.103
				H40.78c-1.75-0.005-3.167-1.422-3.172-3.172V23.988h55.517V38.264z"/>
			<path fill="#547580" d="M93.125,14.471v9.518H37.607v-9.518c0.005-1.75,1.422-3.167,3.172-3.172h49.172
				C91.702,11.303,93.119,12.721,93.125,14.471z"/>
			<path fill="#9FC9D3" d="M93.125,79.505c-0.876,0-1.587-0.71-1.587-1.586V66.816c0-0.876,0.71-1.587,1.587-1.587
				s1.586,0.71,1.586,1.587v11.103C94.711,78.795,94.001,79.505,93.125,79.505z"/>
			<path fill="#9FC9D3" d="M122.128,92.195h-2.038c-0.876,0-1.586-0.71-1.586-1.587c0-0.876,0.71-1.586,1.586-1.586h2.038
				c0.876,0,1.587,0.71,1.587,1.586C123.715,91.485,123.004,92.195,122.128,92.195z M128.339,91.561
				c-0.683,0.001-1.29-0.436-1.507-1.085c-0.216-0.648,0.007-1.362,0.554-1.771c0.402-0.298,0.638-0.769,0.635-1.269V87.21
				c0-0.876,0.71-1.586,1.586-1.586c0.876,0,1.587,0.71,1.587,1.586v0.226c-0.004,1.498-0.708,2.908-1.906,3.809
				C129.013,91.45,128.681,91.561,128.339,91.561L128.339,91.561z M129.607,82.452c-0.421,0-0.825-0.167-1.122-0.465
				c-0.298-0.297-0.465-0.701-0.465-1.122v-3.172c0-0.876,0.71-1.587,1.587-1.587c0.876,0,1.586,0.71,1.586,1.587v3.172
				c0.001,0.421-0.166,0.825-0.464,1.122C130.431,82.285,130.028,82.452,129.607,82.452L129.607,82.452z M129.607,72.934
				c-0.421,0.001-0.825-0.166-1.122-0.464c-0.298-0.298-0.465-0.701-0.465-1.122v-3.172c0-0.876,0.71-1.587,1.587-1.587
				c0.876,0,1.586,0.71,1.586,1.587v3.172c0.001,0.421-0.166,0.824-0.464,1.122C130.431,72.768,130.028,72.935,129.607,72.934
				L129.607,72.934z M129.607,63.417c-0.421,0-0.825-0.167-1.122-0.464c-0.298-0.298-0.465-0.701-0.465-1.122v-3.172
				c0-0.876,0.71-1.586,1.587-1.586c0.876,0,1.586,0.71,1.586,1.586v3.172c0.001,0.421-0.166,0.825-0.464,1.122
				C130.431,63.25,130.028,63.417,129.607,63.417L129.607,63.417z M127.955,54.513c-0.265,0-0.525-0.067-0.758-0.193
				c-0.233-0.129-0.496-0.195-0.763-0.194h-1.586c-0.876,0-1.587-0.71-1.587-1.586c0-0.876,0.71-1.587,1.587-1.587h1.586
				c0.797,0.001,1.581,0.201,2.281,0.581c0.637,0.347,0.957,1.082,0.777,1.785c-0.179,0.703-0.813,1.195-1.539,1.194H127.955z
				 M118.504,54.126h-3.173c-0.876,0-1.586-0.71-1.586-1.586c0-0.876,0.71-1.587,1.586-1.587h3.173c0.875,0,1.586,0.71,1.586,1.587
				C120.09,53.416,119.379,54.126,118.504,54.126z M108.986,54.126h-3.172c-0.876,0-1.587-0.71-1.587-1.586
				c0-0.876,0.71-1.587,1.587-1.587h3.172c0.876,0,1.587,0.71,1.587,1.587C110.573,53.416,109.862,54.126,108.986,54.126z"/>
			<path fill="#CC4B4C" d="M45.539,17.643c0,0.876-0.71,1.587-1.587,1.587c-0.876,0-1.586-0.71-1.586-1.587
				c0-0.875,0.71-1.586,1.586-1.586C44.828,16.057,45.539,16.768,45.539,17.643z"/>
			<path fill="#F0C419" d="M51.883,17.643c0,0.876-0.71,1.587-1.587,1.587c-0.875,0-1.586-0.71-1.586-1.587
				c0-0.875,0.71-1.586,1.586-1.586C51.173,16.057,51.883,16.768,51.883,17.643z"/>
			<path fill="#71C285" d="M58.228,17.643c0,0.876-0.71,1.587-1.586,1.587c-0.876,0-1.587-0.71-1.587-1.587
				c0-0.875,0.71-1.586,1.587-1.586C57.518,16.057,58.228,16.768,58.228,17.643z"/>
			<path fill="#3B97D3" d="M45.539,30.333h3.172c0.876,0,1.586,0.71,1.586,1.586v15.862h-6.345V31.919
				C43.952,31.043,44.663,30.333,45.539,30.333z"/>
			<path fill="#71C285" d="M58.228,39.85H61.4c0.876,0,1.587,0.71,1.587,1.587v6.345h-6.345v-6.345
				C56.642,40.56,57.352,39.85,58.228,39.85z"/>
			<path fill="#FF5364" d="M70.918,33.505h3.172c0.876,0,1.586,0.71,1.586,1.587v12.689h-6.345V35.092
				C69.331,34.216,70.042,33.505,70.918,33.505z"/>
			<g>
				<path fill="#464F5D" d="M59.814,85.85H43.952c-0.876,0-1.586-0.71-1.586-1.587s0.71-1.587,1.586-1.587h15.862
					c0.876,0,1.586,0.71,1.586,1.587S60.69,85.85,59.814,85.85z"/>
				<path fill="#464F5D" d="M51.883,79.505h-7.931c-0.876,0-1.586-0.71-1.586-1.586c0-0.876,0.71-1.587,1.586-1.587h7.931
					c0.876,0,1.587,0.71,1.587,1.587C53.47,78.795,52.759,79.505,51.883,79.505z"/>
				<path fill="#464F5D" d="M67.746,73.16H43.952c-0.876,0-1.586-0.71-1.586-1.587c0-0.875,0.71-1.586,1.586-1.586h23.793
					c0.876,0,1.586,0.71,1.586,1.586C69.331,72.45,68.622,73.16,67.746,73.16z"/>
				<path fill="#464F5D" d="M74.09,66.816H43.952c-0.876,0-1.586-0.71-1.586-1.587c0-0.876,0.71-1.586,1.586-1.586H74.09
					c0.876,0,1.586,0.71,1.586,1.586C75.676,66.105,74.966,66.816,74.09,66.816z"/>
				<path fill="#464F5D" d="M77.262,60.471h-33.31c-0.876,0-1.586-0.71-1.586-1.587c0-0.876,0.71-1.587,1.586-1.587h33.31
					c0.876,0,1.587,0.71,1.587,1.587C78.849,59.761,78.139,60.471,77.262,60.471z"/>
				<path fill="#9FC9D3" d="M118.504,47.781c-0.876,0-1.587-0.71-1.587-1.586v-4.759c0-0.876,0.71-1.587,1.587-1.587
					c0.875,0,1.586,0.71,1.586,1.587v4.759C120.09,47.071,119.379,47.781,118.504,47.781z"/>
				<path fill="#464F5D" d="M80.435,54.126c-0.421,0.001-0.824-0.166-1.122-0.465l-4.294-4.293H43.952
					c-0.876,0-1.586-0.71-1.586-1.587c0-0.876,0.71-1.586,1.586-1.586h31.724c0.421-0.001,0.825,0.167,1.122,0.464l4.759,4.759
					c0.453,0.453,0.589,1.136,0.343,1.729C81.654,53.739,81.076,54.126,80.435,54.126z"/>
			</g>
			<path fill="#F29C1F" d="M106.522,54.85L95.723,66.999c-0.66,0.743-1.606,1.167-2.598,1.167c-0.993,0-1.939-0.424-2.599-1.167
				L79.726,54.85c-1.17-1.317-1.17-3.302,0-4.62l10.799-12.149c0.66-0.742,1.606-1.167,2.599-1.167c0.992,0,1.939,0.425,2.598,1.167
				l10.799,12.149C107.693,51.547,107.693,53.532,106.522,54.85z"/>
			<path fill="#3B97D3" d="M67.746,77.919h50.758c0.875,0,1.586,0.71,1.586,1.586v22.207c0,0.876-0.71,1.587-1.586,1.587H67.746
				c-0.876,0-1.587-0.71-1.587-1.587V79.505C66.159,78.629,66.869,77.919,67.746,77.919z"/>
			<path fill="#9FC9D3" d="M97.883,85.85H72.504c-0.876,0-1.586-0.71-1.586-1.587s0.71-1.587,1.586-1.587h25.379
				c0.876,0,1.587,0.71,1.587,1.587S98.759,85.85,97.883,85.85z"/>
			<path fill="#9FC9D3" d="M113.745,92.195H72.504c-0.876,0-1.586-0.71-1.586-1.587c0-0.876,0.71-1.586,1.586-1.586h41.242
				c0.876,0,1.586,0.71,1.586,1.586C115.331,91.485,114.621,92.195,113.745,92.195z"/>
			<path fill="#9FC9D3" d="M86.779,98.54H72.504c-0.876,0-1.586-0.71-1.586-1.587s0.71-1.586,1.586-1.586h14.276
				c0.876,0,1.587,0.71,1.587,1.586S87.655,98.54,86.779,98.54z"/>
			<path fill="#F3D55B" d="M124.849,35.092c0,3.504-2.841,6.345-6.345,6.345c-3.504,0-6.345-2.841-6.345-6.345
				c0-3.504,2.841-6.345,6.345-6.345C122.008,28.747,124.849,31.588,124.849,35.092z"/>
		</g>
	</g>
</g>
</svg>
