<?xml version="1.0" encoding="utf-8"?>
<!-- Generator: Adobe Illustrator 17.0.0, SVG Export Plug-In . SVG Version: 6.00 Build 0)  -->
<!DOCTYPE svg PUBLIC "-//W3C//DTD SVG 1.1//EN" "http://www.w3.org/Graphics/SVG/1.1/DTD/svg11.dtd">
<svg version="1.1" id="Layer_1" xmlns="http://www.w3.org/2000/svg" xmlns:xlink="http://www.w3.org/1999/xlink" x="0px" y="0px"
	 width="160px" height="109px" viewBox="0 0 160 109" enable-background="new 0 0 160 109" xml:space="preserve">
<g>
	
		<image overflow="visible" opacity="0.15" width="460" height="460" xlink:href="65D322B5.png"  transform="matrix(0.24 0 0 0.24 32.0707 4.4302)">
	</image>
	<g>
		<g>
			<g>
				<path fill="#FFFFFF" d="M51.131,88.477V16.578c0-2.291,1.857-4.148,4.148-4.148h40.098l13.827,13.827v62.22
					c0,2.291-1.857,4.148-4.148,4.148H55.279C52.988,92.625,51.131,90.768,51.131,88.477z"/>
			</g>
			<path fill="#E6E6E6" d="M99.524,29.022h9.679v-2.765L95.376,12.43v12.444C95.376,27.165,97.233,29.022,99.524,29.022z"/>
			<path fill="#9FC9D3" d="M99.524,26.257h9.679L95.376,12.43v9.679C95.376,24.4,97.233,26.257,99.524,26.257z"/>
			<path fill="#5EB3D1" d="M56.663,16.578h2.765v2.765h-2.765V16.578z"/>
			<path fill="#5EB3D1" d="M62.193,16.578h2.765v2.765h-2.765V16.578z"/>
			<path fill="#5EB3D1" d="M67.724,16.578h2.765v2.765h-2.765V16.578z"/>
			<path fill="#4398D1" d="M87.08,53.91H40.069V34.553l8.296-8.296H87.08V53.91z"/>
			<path fill="#88B337" d="M40.069,46.997l13.827-11.061L67.723,48.38l9.679-8.296l9.679,8.296v5.531H40.069V46.997z"/>
			<path fill="#E8594A" d="M71.871,34.553c0,2.291-1.857,4.148-4.148,4.148c-2.291,0-4.148-1.857-4.148-4.148
				c0-2.291,1.857-4.148,4.148-4.148C70.013,30.405,71.871,32.262,71.871,34.553z"/>
			<path fill="#AACC60" d="M46.13,47.302l6.914-5.533l1.73,2.161l-6.915,5.533L46.13,47.302z"/>
			<path fill="#AACC60" d="M73.659,48.785l2.765-2.765l1.955,1.955l-2.765,2.765L73.659,48.785z"/>
			<path fill="#87CED9" d="M48.365,34.553v-8.296l-8.296,8.296H48.365z"/>
			<path fill="#E8594A" d="M85.697,66.354h30.419v19.357H85.697V66.354z"/>
			<path fill="#FDB62F" d="M45.6,59.441h34.567v16.592H45.6V59.441z"/>
			<g>
				<path fill="#FD882F" d="M49.748,63.589h2.765v2.765h-2.765V63.589z"/>
				<path fill="#FD882F" d="M55.279,63.589h20.74v2.765h-20.74V63.589z"/>
				<path fill="#FD882F" d="M49.748,69.12h2.765v2.765h-2.765V69.12z"/>
				<path fill="#FD882F" d="M55.279,69.12h20.74v2.765h-20.74V69.12z"/>
			</g>
			<path fill="#4398D1" d="M92.611,44.232h27.653v16.592H92.611V44.232z"/>
			<path fill="#126099" d="M96.759,48.38h5.531v2.765h-5.531V48.38z"/>
			<path fill="#126099" d="M105.055,48.38h11.061v2.765h-11.061V48.38z"/>
			<path fill="#126099" d="M96.759,53.91h19.357v2.765H96.759V53.91z"/>
			<path fill="#E6E6E6" d="M51.131,53.91h35.95v4.148h-35.95V53.91z"/>
			<path fill="#C44639" d="M94.398,72.29l-2.765,2.765c-0.539,0.54-0.539,1.415,0,1.955l2.765,2.765l1.955-1.955l-1.788-1.788
				l1.788-1.788L94.398,72.29z"/>
			<path fill="#C44639" d="M110.18,75.056l-2.765-2.765l-1.955,1.955l1.788,1.788l-1.788,1.788l1.955,1.955l2.765-2.765
				C110.72,76.471,110.72,75.596,110.18,75.056z"/>
			<path fill="#C44639" d="M98.185,81.229l2.763-11.062l2.682,0.67l-2.763,11.062L98.185,81.229z"/>
			<path fill="#E6E6E6" d="M92.611,60.824h16.592v4.148H92.611V60.824z"/>
			<path fill="#E6E6E6" d="M85.697,85.712v4.148h23.251c0.164-0.443,0.25-0.911,0.255-1.383v-2.765H85.697z"/>
			<path fill="#E6E6E6" d="M51.131,76.033h29.036v2.765H51.131V76.033z"/>
		</g>
	</g>
</g>
</svg>
