<?xml version="1.0" encoding="utf-8"?>
<!-- Generator: Adobe Illustrator 17.0.0, SVG Export Plug-In . SVG Version: 6.00 Build 0)  -->
<!DOCTYPE svg PUBLIC "-//W3C//DTD SVG 1.1//EN" "http://www.w3.org/Graphics/SVG/1.1/DTD/svg11.dtd">
<svg version="1.1" id="Layer_1" xmlns="http://www.w3.org/2000/svg" xmlns:xlink="http://www.w3.org/1999/xlink" x="0px" y="0px"
	 width="160px" height="109px" viewBox="0 0 160 109" enable-background="new 0 0 160 109" xml:space="preserve">
<g>
	
		<image overflow="visible" opacity="0.15" width="441" height="495" xlink:href="BED63B58.png"  transform="matrix(0.24 0 0 0.24 35.4391 3.0095)">
	</image>
	<g>
		<g>
			<path fill="#9FC9D3" d="M81.923,85.056c0-0.406,0.33-0.736,0.736-0.736h0.803c0.074,0,0.142-0.045,0.17-0.113
				c0.029-0.069,0.013-0.148-0.04-0.2l-8.739-8.739c-0.484-0.484-0.751-1.131-0.751-1.821c0-0.69,0.267-1.337,0.751-1.821
				l0.365-0.365c0.484-0.484,1.131-0.751,1.821-0.751c0.69,0,1.337,0.267,1.821,0.751l2.291,2.291
				c0.035,0.035,0.082,0.054,0.13,0.054c0.024,0,0.048-0.004,0.07-0.014c0.069-0.028,0.113-0.096,0.113-0.17V54.739
				c0-1.42,1.155-2.575,2.575-2.575h0.077c0.776,0,1.471,0.347,1.944,0.892V12.849c0-1.012-0.828-1.839-1.839-1.839H45.277
				c-1.012,0-1.839,0.828-1.839,1.839v71.635c0,1.012,0.828,1.839,1.839,1.839h36.646L81.923,85.056L81.923,85.056z"/>
			<g>
				<path fill="#FFFFFF" d="M74.102,73.447c0-0.69,0.267-1.337,0.751-1.821l0.365-0.365c0.484-0.484,1.131-0.751,1.821-0.751
					c0.69,0,1.337,0.267,1.821,0.751l2.291,2.291c0.035,0.035,0.082,0.054,0.13,0.054c0.024,0,0.048-0.004,0.07-0.014
					c0.069-0.028,0.113-0.096,0.113-0.17V54.739c0-1.225,0.861-2.252,2.01-2.51V18.947c0-0.534-0.437-0.971-0.971-0.971H46.995
					c-0.534,0-0.97,0.437-0.97,0.971v54.612c0,0.534,0.437,0.97,0.97,0.97h27.346C74.186,74.194,74.102,73.828,74.102,73.447z"/>
			</g>
			<path fill="#E6E6E6" d="M49.674,73.558V18.947c0-0.534,0.437-0.971,0.97-0.971h-3.65c-0.534,0-0.97,0.437-0.97,0.971v54.612
				c0,0.534,0.437,0.97,0.97,0.97h3.65C50.11,74.529,49.674,74.092,49.674,73.558z"/>
			<g>
				<g>
					<circle fill="#FFFFFF" cx="64.748" cy="79.806" r="3.414"/>
					<path fill="#FFFFFF" d="M72.163,15.855H61.611c-0.762,0-1.38-0.617-1.38-1.38s0.618-1.38,1.38-1.38h10.552
						c0.762,0,1.38,0.617,1.38,1.38S72.925,15.855,72.163,15.855z"/>
					<circle fill="#FFFFFF" cx="57.334" cy="14.475" r="1.552"/>
				</g>
			</g>
			<path fill="#FF9518" d="M82.503,17.976H46.995c-0.534,0-0.97,0.437-0.97,0.971v4.308h37.45v-4.308
				C83.474,18.413,83.037,17.976,82.503,17.976z"/>
			<path fill="#EF8318" d="M50.644,17.976h-3.65c-0.534,0-0.97,0.437-0.97,0.971v4.308h3.65v-4.308
				C49.674,18.413,50.11,17.976,50.644,17.976z"/>
			<path fill="#445EA0" d="M80.605,52.062c0,1.012-0.828,1.839-1.839,1.839H50.733c-1.012,0-1.839-0.828-1.839-1.839v-8.938
				c0-1.012,0.828-1.839,1.839-1.839h28.032c1.012,0,1.839,0.828,1.839,1.839V52.062z"/>
			<path fill="#EEF6FF" d="M74.102,73.447c0-0.69,0.267-1.337,0.751-1.821l0.365-0.365c0.484-0.484,1.131-0.751,1.821-0.751
				c0.69,0,1.337,0.267,1.821,0.751l2.291,2.291c0.035,0.035,0.082,0.054,0.13,0.054c0.024,0,0.048-0.004,0.07-0.014
				c0.069-0.028,0.113-0.096,0.113-0.17V56.736H46.024v16.822c0,0.534,0.437,0.97,0.97,0.97h27.346
				C74.186,74.194,74.102,73.828,74.102,73.447z"/>
			<path fill="#D9EAFC" d="M49.674,73.558V56.736h-3.65v16.822c0,0.534,0.437,0.97,0.97,0.97h3.65
				C50.11,74.529,49.674,74.092,49.674,73.558z"/>
			<g>
				<path fill="#5DC1D8" d="M67.67,61.925H52.998c-0.762,0-1.38-0.617-1.38-1.38s0.618-1.38,1.38-1.38H67.67
					c0.762,0,1.38,0.617,1.38,1.38C69.049,61.307,68.432,61.925,67.67,61.925z"/>
				<path fill="#5DC1D8" d="M67.67,66.498H52.998c-0.762,0-1.38-0.618-1.38-1.38c0-0.762,0.618-1.38,1.38-1.38H67.67
					c0.762,0,1.38,0.617,1.38,1.38C69.049,65.881,68.432,66.498,67.67,66.498z"/>
				<path fill="#5DC1D8" d="M60.363,71.072h-7.365c-0.762,0-1.38-0.617-1.38-1.38s0.618-1.38,1.38-1.38h7.365
					c0.762,0,1.38,0.617,1.38,1.38S61.125,71.072,60.363,71.072z"/>
			</g>
			<path fill="#FF9518" d="M74.735,69.788c-0.282,0-0.566-0.086-0.811-0.265c-0.616-0.449-0.751-1.312-0.303-1.927l1.805-2.477
				l-1.805-2.477c-0.449-0.616-0.313-1.479,0.303-1.927c0.616-0.449,1.479-0.313,1.927,0.303l2.397,3.29
				c0.353,0.484,0.353,1.141,0,1.625l-2.397,3.29C75.581,69.591,75.161,69.788,74.735,69.788z"/>
			<path fill="#EF8318" d="M83.604,91.854v7.882l18.339,0.014v-7.896H83.604z"/>
			<path fill="#DB722C" d="M83.604,91.854v7.882l3.65,0.003v-7.884H83.604z"/>
			<path fill="#FFE2B8" d="M102.262,84.321V65.204c0-1.517-1.242-2.759-2.759-2.759h-0.077c-1.126,0-2.098,0.684-2.526,1.656
				c-0.428-0.972-1.4-1.656-2.526-1.656h-0.077c-1.126,0-2.098,0.684-2.526,1.656c-0.428-0.972-1.4-1.656-2.526-1.656h-0.077
				c-0.953,0-1.797,0.49-2.293,1.231v-8.936c0-1.517-1.242-2.759-2.759-2.759H84.04c-1.517,0-2.759,1.242-2.759,2.759v18.682
				l-2.291-2.291c-1.073-1.073-2.829-1.073-3.902,0l-0.365,0.365c-1.073,1.073-1.073,2.829,0,3.902l8.923,8.923H102.262z"/>
			<path fill="#FFC987" d="M87.296,84.321l-8.923-8.923c-1.073-1.073-1.073-2.829,0-3.902l0.365-0.365
				c0.04-0.04,0.084-0.076,0.126-0.114c-1.08-0.955-2.743-0.919-3.776,0.114l-0.365,0.365c-1.073,1.073-1.073,2.829,0,3.902
				l8.923,8.923H87.296z"/>
			<path fill="#FF9518" d="M103.808,91.118c0,0.506-0.414,0.92-0.92,0.92h-20.23c-0.506,0-0.92-0.414-0.92-0.92v-6.061
				c0-0.506,0.414-0.92,0.92-0.92h20.23c0.506,0,0.92,0.414,0.92,0.92V91.118z"/>
			<path fill="#EF8318" d="M85.389,91.118v-6.061c0-0.506,0.414-0.92,0.92-0.92h-3.65c-0.506,0-0.92,0.414-0.92,0.92v6.061
				c0,0.506,0.414,0.92,0.92,0.92h3.65C85.803,92.038,85.389,91.624,85.389,91.118z"/>
			<circle fill="#DB722C" cx="99.768" cy="88.088" r="1.71"/>
			<path fill="#FE3745" d="M117.013,55.162c0,0.506-0.414,0.92-0.92,0.92H89.646c-0.506,0-0.92-0.414-0.92-0.92V36.081
				c0-0.506,0.414-0.92,0.92-0.92h26.448c0.506,0,0.92,0.414,0.92,0.92V55.162z"/>
			<path fill="#FFFFFF" d="M98.25,41.412c0-1.012,0.717-1.426,1.593-0.92l7.29,4.209c0.876,0.506,0.876,1.334,0,1.839l-7.29,4.209
				c-0.876,0.506-1.593,0.092-1.593-0.92V41.412z"/>
			<path fill="#FFAF10" d="M114.8,25.393c-2.282,0-4.138-1.856-4.138-4.138c0-0.379,0.052-0.745,0.148-1.094H89.646
				c-0.506,0-0.92,0.414-0.92,0.92v10.91c0,0.506,0.414,0.92,0.92,0.92h26.448c0.506,0,0.92-0.414,0.92-0.92v-7.243
				C116.372,25.156,115.614,25.393,114.8,25.393z"/>
			<path fill="#B7092B" d="M92.376,55.162V36.081c0-0.506,0.414-0.92,0.92-0.92h-3.65c-0.506,0-0.92,0.414-0.92,0.92v19.081
				c0,0.506,0.414,0.92,0.92,0.92h3.65C92.79,56.082,92.376,55.668,92.376,55.162z"/>
			<path fill="#EF9614" d="M92.376,31.991v-10.91c0-0.506,0.414-0.92,0.92-0.92h-3.65c-0.506,0-0.92,0.414-0.92,0.92v10.91
				c0,0.506,0.414,0.92,0.92,0.92h3.65C92.79,32.911,92.376,32.497,92.376,31.991z"/>
			<circle fill="#B7092B" cx="114.799" cy="21.255" r="4.322"/>
			<path fill="#EEF6FF" d="M114.931,23.615c-0.508,0-0.92-0.412-0.92-0.92v-2c-0.379-0.114-0.655-0.465-0.655-0.881
				c0-0.508,0.412-0.92,0.92-0.92h0.655c0.508,0,0.92,0.412,0.92,0.92v2.881C115.85,23.204,115.439,23.615,114.931,23.615z"/>
			<g>
				<path fill="#DB722C" d="M106.347,25.765H93.178c-0.762,0-1.38-0.618-1.38-1.38c0-0.762,0.617-1.38,1.38-1.38h13.169
					c0.762,0,1.38,0.617,1.38,1.38C107.727,25.148,107.109,25.765,106.347,25.765z"/>
				<path fill="#DB722C" d="M110.328,30.031h-17.15c-0.762,0-1.38-0.617-1.38-1.38c0-0.762,0.617-1.38,1.38-1.38h17.15
					c0.762,0,1.38,0.617,1.38,1.38C111.708,29.414,111.09,30.031,110.328,30.031z"/>
			</g>
			<circle fill="#EF8318" cx="64.748" cy="32.346" r="6.866"/>
			<circle fill="#FF9518" cx="64.748" cy="32.346" r="5.518"/>
			<path fill="#FFFFFF" d="M66.911,33.914h-1.226v-0.295c1.045-0.382,1.792-1.383,1.792-2.56c0-1.507-1.222-2.728-2.728-2.728
				c-1.507,0-2.728,1.222-2.728,2.728c0,1.177,0.747,2.177,1.792,2.56v0.295h-1.226c-0.489,0-0.89,0.401-0.89,0.89v2.14
				c0.874,0.581,1.923,0.921,3.052,0.921c1.129,0,2.178-0.34,3.052-0.921v-2.14C67.801,34.314,67.4,33.914,66.911,33.914z"/>
			<path fill="#FF9518" d="M58.575,50.26c0,0.506-0.414,0.92-0.92,0.92h-5.334c-0.506,0-0.92-0.414-0.92-0.92v-5.334
				c0-0.506,0.414-0.92,0.92-0.92h5.334c0.506,0,0.92,0.414,0.92,0.92V50.26z"/>
			<path fill="#EF8318" d="M53.703,50.26v-5.334c0-0.506,0.414-0.92,0.92-0.92h-2.301c-0.506,0-0.92,0.414-0.92,0.92v5.334
				c0,0.506,0.414,0.92,0.92,0.92h2.301C54.117,51.179,53.703,50.765,53.703,50.26z"/>
			<g>
				<path fill="#1A2B63" d="M70.838,47.593c0-0.519,0.177-0.997,0.472-1.38h-9.853c-0.762,0-1.38,0.617-1.38,1.38
					s0.618,1.38,1.38,1.38h9.853C71.015,48.589,70.838,48.112,70.838,47.593z"/>
				<path fill="#1A2B63" d="M77.153,46.213h-2.25c0.295,0.383,0.472,0.86,0.472,1.38s-0.177,0.997-0.472,1.38h2.25
					c0.762,0,1.38-0.617,1.38-1.38S77.915,46.213,77.153,46.213z"/>
			</g>
			<circle fill="#FF9518" cx="73.106" cy="47.593" r="2.452"/>
		</g>
	</g>
</g>
</svg>
