<?xml version="1.0" encoding="utf-8"?>
<!-- Generator: Adobe Illustrator 21.0.2, SVG Export Plug-In . SVG Version: 6.00 Build 0)  -->
<svg version="1.1" id="Layer_1" xmlns="http://www.w3.org/2000/svg" xmlns:xlink="http://www.w3.org/1999/xlink" x="0px" y="0px"
	 width="280px" height="100px" viewBox="0 0 280 100" enable-background="new 0 0 280 100" xml:space="preserve">
<g>
	<path id="c_1_" fill="#D30020" d="M118.342,72.763c-6.948-4.475-16.377-5.26-31.584-1.043c-16.212,3.81-21.616,6.252-28.715,1.35
		c-2.727-2.408-3.704-6.285-2.975-11.87c1.693-9.105,6.269-17.867,14.397-27.587c4.537-5.056,8.745-9.395,14.303-11.137
		c4.259-1.093,3.861,2.254,3.346,2.733c-0.544,0-1.457,0.086-2.163,0.547c-0.573,0.445-2.147,1.879-2.23,3.81
		c-0.122,2.955,2.936,2.34,4.255,0.718c1.422-1.828,3.522-5.329,1.87-8.592c-0.693-1.162-1.89-1.964-3.376-2.238
		c-5.088-0.29-9.827,2.135-14.201,4.816C61.704,30.914,54.053,40.122,49.723,50.2c-2.497,6.081-4.754,14.791-1.369,21.88
		c2.618,4.919,8.052,7.532,14.535,6.986c4.547-0.479,10.046-1.948,13.744-2.836c3.699-0.888,22.629-7.396,28.849,3.93
		c0,0,2.068-4.015,7.238-4.101c4.25-0.392,10.381,1.231,14.845,4.51C126.077,78.333,121.861,75.036,118.342,72.763L118.342,72.763z"
		/>
	<path id="oca" fill="#D30020" d="M88.689,34.759c-3.541-2.323-10.657,2.118-16.357,9.736c-5.213,6.833-7.463,14.776-5.014,18.448
		c3.643,4.321,10.407-1.963,13.284-5.328l0.371-0.394c1.956-2.101,3.467-4.629,4.929-7.055c0,0,1.344-2.221,1.408-2.323
		c0.832-0.153,1.832-0.392,2.96-0.717c-0.016,0.051-4.315,7.277-3.876,10.864c0.136,1.094,0.032,5.092,3.935,6.304
		c5.201,0.871,9.354-3.161,13.018-6.748c0,0,0.625-0.597,0.978-0.938c-0.09,0.357-0.206,0.835-0.206,0.835
		c-1.523,5.296,0.53,6.406,1.814,6.816c3.88,1.129,8.516-4.51,8.531-4.51c-0.12,1.776-0.471,3.245,1.401,4.424
		c1.767,0.632,3.555-0.332,4.914-1.237c4.896-3.451,8.839-8.85,12.025-13.518h-2.032c-0.024,0-5.014,7.232-8.254,8.804
		c-0.005,0-0.595,0.303-0.934,0.063c-0.421-0.359-0.255-1.105,0.005-1.633c0.016-0.033,12.512-21.705,12.512-21.705h-5.9
		c0,0-0.645,1.043-0.697,1.11c-0.04-0.033-0.134-0.213-0.2-0.299c-3.655-5.056-11.932,2.721-18.164,11.74
		c-2.399,3.468-5.454,7.372-8.621,10.19c0,0-4.692,4.302-6.697,1.211c-0.733-1.298-0.507-3.198-0.094-4.443
		c2.334-6.645,6.356-12.675,10.933-16.314c1.292-1.006,2.697-1.298,3.393-0.871c0.664,0.393,0.771,1.366,0.351,2.033
		c-1.066-0.033-1.919,0.29-2.614,1.007c-1.368,1.435-1.843,2.819-1.409,4.117c2.113,3.006,6.326-2.938,6.122-6.559
		c-0.073-1.299-0.766-2.528-1.799-3.126c-1.541-0.922-3.891-0.683-5.412,0.052c-2.036,0.768-5.26,3.45-7.141,5.534
		c-2.369,2.614-6.431,5.517-7.701,5.192C88.868,44.409,92.299,37.388,88.689,34.759L88.689,34.759z M117.131,45.144
		c1.148-1.588,4.488-5.841,5.301-6.559c2.739-2.409,3.833-1.349,3.929-0.598c-2.556,4.577-5.572,9.822-8.409,14.537
		c0.006-0.017-0.888,1.349-0.888,1.349c-1.252,1.913-2.514,3.553-4.571,4.697c-0.293,0.086-0.777,0.12-1.098-0.12
		c-0.387-0.257-0.54-0.684-0.497-1.128C111.021,55.854,112.517,51.362,117.131,45.144L117.131,45.144z M85.038,47.894
		c0,0-0.052,0.154-0.077,0.205c-0.006,0-2.572,4.185-2.572,4.185c-1.548,2.066-3.482,4.663-5.898,5.91
		c-0.716,0.239-1.707,0.393-2.211-0.239c-1.069-1.282-0.518-3.059-0.07-4.493l0.158-0.512c1.285-3.484,3.322-6.559,5.305-9.411
		c0.025-0.017,0.08-0.034,0.101-0.034c0.004,0.017,0.012,0.017,0.016,0.051c1.245,2.391,3.578,3.501,5.322,4.015
		c0.01,0,0.022,0.017,0.022,0.052C85.135,47.672,85.106,47.741,85.038,47.894L85.038,47.894z M87.468,42.958
		c-0.01,0.034-1.142,2.63-1.142,2.63c-0.164,0.136-0.423,0.069-0.718,0L85.1,45.502c-1.595-0.495-2.798-1.554-3.169-2.818
		c-0.511-2.459,1.59-4.39,2.515-5.09c0.888-0.615,2.27-0.94,3.071-0.308c0.494,0.581,0.682,1.332,0.682,2.153
		C88.2,40.549,87.857,41.796,87.468,42.958L87.468,42.958z"/>
	<path id="c" fill="#D30020" d="M162.049,50.883c-0.57-1.23-1.919-2.015-3.358-1.93c-4.673,0.427-9.244,4.27-11.645,9.787
		c-1.259,2.835-1.947,5.176-2.397,8.899c1.453-1.673,4.417-4.424,7.78-5.927c0,0,0.458-3.57,2.792-6.746
		c0.883-1.317,2.651-3.434,4.636-2.871c1.734,0.582,1.124,5.382-1.18,10.027c-1.706,3.416-4.315,6.834-6.956,9.191
		c-2.334,1.981-5.788,4.372-8.809,2.527c-1.903-1.127-2.873-3.484-2.668-6.525c0.91-8.626,4.835-15.971,10.455-24.341
		c5.794-7.772,12.181-15.749,20.785-20.002c1.754-0.888,3.38-1.093,4.785-0.546c0,0-8.077,4.441-11.927,12.657
		c-0.979,2.085-2.342,4.902-0.969,7.396c0.716,1.298,1.99,1.401,3.014,1.332c4.719-1.093,7.769-5.5,10.259-9.531
		c1.444-3.058,2.728-6.098,2.728-9.48c0-0.41-0.021-0.957-0.056-1.366c2.255-1.196,6.878,0.922,6.878,0.922
		c3.613,1.196,11.305,7.09,13.9,8.217c1.266-1.469,3.346-3.689,4.517-4.8l-1.695-1.042c-2.714-1.657-5.584-3.229-8.408-4.783
		c-6.413-3.501-11.633-2.272-14.29-1.316c-1.045,0.376-1.999,0.701-1.999,0.701c-1.972-2.153-5.206-1.948-7.588-1.367
		c-8.57,2.459-16.525,8.455-25.054,18.858c-6.271,8.148-10.161,15.186-12.234,22.137c-1.598,4.679-2.084,11.564,1.816,15.646
		c3.317,3.467,7.714,2.716,10.819,1.47c6.728-3.315,12.775-10.454,15.788-18.671C162.494,56.965,163.301,53.514,162.049,50.883
		L162.049,50.883z M177.52,25.142c-0.891,10.215-8.83,16.211-10.795,16.689c-1.191,0.239-3.222-0.291-1.409-4.577
		c2.671-5.774,7.231-10.675,12.124-13.187C177.559,24.493,177.555,24.766,177.52,25.142L177.52,25.142z"/>
	<path id="v" fill="#D30020" d="M224.62,26.44c-4.271,2.426-8.698,3.997-14.058,3.451c-1.485,1.674-2.931,3.399-4.264,5.176
		c7.522,1.913,15.497-2.34,19.944-6.388c4.705-4.082,7.118-9.223,7.118-9.223S229.833,23.485,224.62,26.44L224.62,26.44z"/>
	<polygon id="square" fill="#D30020" points="143.904,34.946 138.302,34.946 135.142,40.081 140.743,40.081 	"/>
	<path id="ola" fill="#D30020" d="M210.54,73.239c-0.603,0.41-1.449,0.095-1.133-0.843c0.789-2.392,3.922-7.265,3.922-7.265
		l8.729-15.48h-5.979c-0.284,0.467-0.892,1.538-0.892,1.538c-0.276-0.46-1.103-1.484-1.444-1.706
		c-1.46-0.923-3.603-0.487-5.081,0.35c-6.427,3.758-11.118,11.184-14.817,16.975c0,0-3.893,6.437-6.054,6.916
		c-1.687,0.137-1.513-2.136-1.44-2.666c0.653-3.826,2.168-7.464,3.694-10.762c3.104-2.151,6.648-4.97,9.867-8.061
		c6.987-6.68,12.878-14.246,13.74-15.937c0,0-0.932,0.188-2.033,0.222c-5.375,7.499-16.376,18.397-19.711,20.02
		c1.477-3.554,11.023-20.515,19.145-28.629l1.278-1.23c1.977-1.93,4.024-3.911,5.62-4.236c0.169-0.017,0.386,0,0.573,0.393
		c0.071,1.503-0.488,2.614-1.131,3.877l-0.9,1.845c0,0,1.274-0.239,2.111-0.513c0.971-1.827,2.045-3.877,1.65-6.319
		c-0.133-0.786-0.701-1.384-1.444-1.52c-2.423-0.462-5.065,1.331-7.189,2.784l-0.087,0.051
		c-10.923,8.558-20.147,20.891-28.211,37.733c-0.585,0.444-2.843,0.973-3.226,0.717c0.797-1.64,1.799-3.844,2.301-6.234
		c0.087-0.684,0.168-1.383,0.168-2.066c0-1.469-0.353-2.853-1.67-3.809c-1.545-0.769-3.453-0.41-4.74,0.171
		c-5.764,2.392-10.072,8.302-13.182,13.169c-1.672,3.094-3.34,6.405-3.801,10.197c-0.325,2.972,0.337,4.885,2.026,5.842
		c1.738,0.888,3.925-0.035,4.783-0.479c5.84-3.075,9.921-9.241,13.137-14.878c0.128-0.016,1.883-0.068,3.212-0.409
		c0.017,0,0.025,0,0.055,0.017c-0.076,0.256-0.763,2.306-0.763,2.306c-2.038,5.978-2.981,10.044-1.056,12.452
		c2.751,3.4,7.307-0.119,11.012-4.766c-0.796,5.569,2.091,6.441,4.29,6.014c2.527-0.683,5.343-3.383,6.65-4.766
		c-0.42,1.623-0.305,4.527,1.993,4.817c1.575,0.292,2.754-0.565,4.119-1.3c4.895-2.665,10.753-11.546,12.274-14.113h-1.994
		C216.752,66.922,214,71.205,210.54,73.239L210.54,73.239z M166.61,72.645c-0.311-0.462-0.413-0.965-0.424-1.511
		c-0.06-3.35,3.543-9.347,6.088-12.615c0.005,0,0.005,0,0.005,0c1.066,2.334,3.479,3.834,4.937,4.466
		C175.406,67.017,169.199,75.651,166.61,72.645L166.61,72.645z M178.237,61.184c-0.173,0.12-3.216-0.905-3.804-3.724
		c-0.499-2.426,1.172-4.322,2.788-5.278c0.695-0.547,1.739-0.734,2.506-0.462c0.712,0.479,0.904,1.333,0.904,2.254
		c0,0.565-0.074,1.146-0.14,1.675c0,0-0.012,0.103-0.014,0.12C179.968,57.664,179.192,59.526,178.237,61.184L178.237,61.184z
		 M202.649,71.569c-0.002,0-0.577,0.511-0.577,0.511c-0.821,0.735-1.666,1.52-2.686,1.128c-0.282-0.103-0.48-0.479-0.528-0.77
		c-0.046-2.101,0.9-4.048,1.817-5.944L200.91,66c2.639-4.408,5.707-9.599,10.213-13.204c0.759-0.548,1.583-1.008,2.453-0.649
		c0.2,0.187,0.433,0.512,0.433,0.837c0,0.102-0.092,0.375-0.144,0.461c-1.257,2.033-2.456,4.168-3.621,6.218
		C207.966,63.712,205.604,67.895,202.649,71.569L202.649,71.569z"/>
</g>
</svg>
