<?xml version="1.0" encoding="utf-8"?>
<!-- Generator: Adobe Illustrator 21.0.2, SVG Export Plug-In . SVG Version: 6.00 Build 0)  -->
<svg version="1.1" id="Layer_1" xmlns="http://www.w3.org/2000/svg" xmlns:xlink="http://www.w3.org/1999/xlink" x="0px" y="0px"
	 width="280px" height="100px" viewBox="0 0 280 100" enable-background="new 0 0 280 100" xml:space="preserve">
<g>
	<g>
		<g id="g15902_8_" transform="matrix(2.1025538,0,0,-2.1025538,-945.43842,1967.8152)">
			<g>
				<g id="g15904_8_">
					<g id="g15910_8_" transform="translate(500.6749,698.2117)">
						<path id="path15912_8_" fill="#BD3E2F" d="M20.386,219.108c-0.125-0.151-0.195-0.319-0.195-0.612v-8.058h-0.045
							c0,0-4.41,7.863-4.623,8.226c-0.151,0.258-0.32,0.435-0.541,0.568c-0.222,0.124-0.453,0.204-0.896,0.204h-1.455
							c-0.338,0-0.55-0.116-0.701-0.293c-0.125-0.15-0.196-0.32-0.196-0.612V207.11c0-0.293,0.071-0.462,0.196-0.612
							c0.151-0.178,0.363-0.293,0.701-0.293h0.825c0.337,0,0.55,0.115,0.701,0.293c0.124,0.151,0.195,0.32,0.195,0.612v8.253h0.045
							c0,0,4.579-8.111,4.765-8.413c0.257-0.426,0.692-0.745,1.313-0.745h1.411c0.337,0,0.55,0.115,0.701,0.293
							c0.124,0.151,0.195,0.32,0.195,0.612v10.303H41.32c0.187,0,0.328,0.053,0.435,0.141c0.115,0.107,0.169,0.249,0.169,0.462
							v0.781c0,0.213-0.053,0.355-0.169,0.462c-0.107,0.089-0.248,0.142-0.435,0.142H21.087
							C20.75,219.401,20.537,219.286,20.386,219.108 M28.479,216.056c-3.08,0-4.81-2.406-4.81-4.944
							c0-2.706,1.855-5.086,4.828-5.086c1.482,0,2.937,0.559,3.771,1.545c0.364,0.426,0.657,1.02,0.657,1.384
							c0,0.124-0.027,0.231-0.097,0.311c-0.071,0.089-0.178,0.142-0.365,0.142h-1.429c-0.285,0-0.479-0.106-0.621-0.319
							c-0.417-0.613-1.02-0.932-1.908-0.932c-1.332,0-2.191,1.012-2.254,2.121h6.177c0.274,0,0.47,0.062,0.603,0.195
							c0.151,0.142,0.222,0.347,0.222,0.728c0,1.162-0.364,2.369-1.127,3.292C31.346,215.425,30.157,216.056,28.479,216.056
							 M38.001,216.056c-2.431,0-4.028-1.154-4.028-3c0-0.657,0.24-1.19,0.63-1.606c0.453-0.489,1.1-0.826,2.041-1.066l2.032-0.514
							c0.559-0.142,1.056-0.311,1.056-0.799c0-0.754-0.799-1.011-1.651-1.011c-0.417,0-0.852,0.08-1.207,0.257
							c-0.248,0.125-0.461,0.302-0.612,0.541c-0.133,0.204-0.177,0.355-0.381,0.471c-0.125,0.071-0.276,0.08-0.479,0.08h-1.1
							c-0.24,0-0.355-0.072-0.435-0.169c-0.08-0.098-0.107-0.24-0.107-0.382c0-0.355,0.125-0.799,0.418-1.198
							c0.674-0.905,2.085-1.633,3.886-1.633c1.775,0,4.234,0.737,4.234,3.116c0,0.612-0.178,1.136-0.506,1.562
							c-0.417,0.541-1.012,0.914-2.024,1.171l-2.014,0.515c-0.835,0.213-1.225,0.364-1.225,0.878c0,0.497,0.444,0.896,1.473,0.896
							c0.604,0,1.154-0.133,1.51-0.506c0.292-0.311,0.239-0.471,0.47-0.595c0.142-0.071,0.301-0.071,0.551-0.071h1.002
							c0.16,0,0.275,0.026,0.363,0.124c0.072,0.079,0.116,0.204,0.116,0.408c0,0.462-0.302,1.056-0.834,1.509
							C40.468,215.648,39.35,216.056,38.001,216.056 M43.53,215.718h-0.497c-0.186,0-0.328-0.053-0.434-0.141
							c-0.116-0.107-0.169-0.249-0.169-0.462v-0.612c0-0.213,0.053-0.355,0.169-0.462c0.107-0.089,0.248-0.142,0.434-0.142h0.497
							v-4.428c0-1.136,0.31-1.846,0.887-2.415c0.532-0.523,1.225-0.851,2.431-0.851h0.754c0.187,0,0.328,0.053,0.435,0.141
							c0.115,0.107,0.186,0.249,0.186,0.462v0.772c0,0.213-0.071,0.355-0.186,0.462c-0.107,0.089-0.248,0.142-0.435,0.142h-0.107
							c-0.479,0-0.807,0.124-1.029,0.337c-0.266,0.248-0.399,0.63-0.399,1.127v4.25h1.615c0.186,0,0.328,0.053,0.435,0.142
							c0.115,0.107,0.168,0.248,0.168,0.462v0.612c0,0.213-0.053,0.355-0.168,0.462c-0.107,0.089-0.248,0.141-0.435,0.141h-1.607
							v2.893c0,0.231-0.071,0.399-0.177,0.532c-0.133,0.16-0.319,0.257-0.594,0.257h-1.003c-0.275,0-0.462-0.098-0.595-0.257
							c-0.107-0.133-0.177-0.301-0.177-0.532L43.53,215.718L43.53,215.718z M48.961,206.995c0-0.231,0.071-0.4,0.178-0.533
							c0.132-0.16,0.319-0.257,0.594-0.257h1.056c0.276,0,0.462,0.098,0.595,0.257c0.107,0.133,0.178,0.302,0.178,0.533v11.615
							c0,0.231-0.071,0.399-0.178,0.533c-0.133,0.16-0.319,0.257-0.595,0.257h-1.056c-0.275,0-0.462-0.098-0.594-0.257
							c-0.107-0.133-0.178-0.302-0.178-0.533V206.995z M26.269,212.169c0.115,1.092,0.95,1.908,2.219,1.908
							c1.242,0,2.103-0.816,2.219-1.908H26.269z M61.171,217.413c0.186,0,0.328,0.053,0.435,0.141
							c0.116,0.107,0.169,0.249,0.169,0.462v0.826c0,0.32-0.062,0.479-0.169,0.595c-0.098,0.107-0.257,0.168-0.435,0.168
							c-0.142,0-0.284-0.017-0.523-0.044l-7.082-0.701c-0.204-0.017-0.301-0.08-0.372-0.16c-0.08-0.089-0.116-0.204-0.116-0.364
							v-0.461c0-0.178,0.036-0.258,0.098-0.329c0.079-0.089,0.195-0.133,0.355-0.133L61.171,217.413L61.171,217.413z
							 M57.258,216.056c-3.079,0-4.81-2.406-4.81-4.944c0-2.706,1.855-5.086,4.828-5.086c1.482,0,2.937,0.559,3.771,1.545
							c0.365,0.426,0.657,1.02,0.657,1.384c0,0.124-0.027,0.231-0.098,0.311c-0.07,0.089-0.177,0.142-0.363,0.142h-1.429
							c-0.284,0-0.479-0.106-0.621-0.319c-0.417-0.613-1.02-0.932-1.908-0.932c-1.332,0-2.192,1.012-2.254,2.121h6.194
							c0.275,0,0.47,0.062,0.603,0.195c0.151,0.142,0.222,0.347,0.222,0.728c0,1.162-0.364,2.369-1.127,3.292
							C60.142,215.425,58.935,216.056,57.258,216.056 M55.048,212.169c0.116,1.092,0.95,1.908,2.218,1.908
							c1.243,0,2.103-0.816,2.219-1.908H55.048z"/>
					</g>
					<g id="g15914_8_" transform="translate(471.0004,695.3475)">
						<path id="path15916_8_" fill="#BD3E2F" d="M31.399,220.171c-2.297,3.427-4.316,4.581-4.884,5.125
							c-0.624,0.599-1.099,1.278-1.402,1.605c-0.673,0.735-1.544,1.643-2.976,1.643c-1.383,0-2.296-0.901-2.593-1.68
							c-0.086-0.222-0.154-0.494-0.215-0.592c-0.136-0.223-0.747-1.266-1.001-1.68h1.143l-0.556-1.05
							c0.648,0.142,1.111,0.247,1.729,0.247c0.549,0,0.944-0.13,1.117-0.475c0.322-0.643,0.322-2.587,0.865-4.051
							c0.506-1.376,1.741-2.722,3.13-3.753c0.018-0.012,0.037-0.018,0.062-0.018c0.068,0,0.111,0.049,0.111,0.099
							c0,0.037-0.013,0.061-0.043,0.092c-1.161,1.161-2.105,2.445-2.611,3.852c-0.501,1.371-0.42,3.298-0.858,4.156
							c-0.291,0.568-0.907,0.715-1.476,0.715c-0.456,0-0.883-0.092-1.08-0.135l0.5,0.846h-0.846
							c0.179,0.314,0.364,0.605,0.457,0.778c0.08,0.148,0.111,0.333,0.21,0.586c0.321,0.809,1.031,1.322,1.957,1.322
							c1.161,0,1.84-0.747,2.513-1.494c0.309-0.346,0.815-1.068,1.402-1.605c0.401-0.37,1.167-0.784,2.346-2.001
							c0.679-0.704,1.469-1.617,2.303-2.84c2.983-4.365,4.939-8.211,6.032-11.212l-0.018-0.013c-3.13,2.124-5.841,4.131-8.027,6.606
							c-1.55,1.76-2.896,3.797-4.069,6.397c-0.081,0.173-0.148,0.333-0.222,0.5c-0.031,0.068-0.062,0.087-0.111,0.087
							c-0.062,0-0.105-0.043-0.105-0.105c0-0.068,0.031-0.216,0.099-0.513c0.624-2.692,2.353-5.106,4.199-7.113
							c1.84-1.995,3.92-3.711,5.63-4.958l1.334-3.816c0.031-0.093,0.068-0.191,0.068-0.284c0-0.068-0.018-0.123-0.062-0.16
							c-0.037-0.037-0.086-0.056-0.197-0.056H34.85c-0.173,0-0.242,0.025-0.303,0.074c-0.062,0.05-0.104,0.124-0.136,0.21
							c-0.117,0.359-0.821,2.365-0.956,2.773c-0.025,0.074-0.069,0.099-0.118,0.099c-0.062,0-0.105-0.05-0.105-0.105
							c0-0.05,0.018-0.105,0.05-0.278c0.178-0.914,0.389-1.939,0.475-2.328c0.037-0.179,0.08-0.346,0.08-0.469
							c0-0.111-0.024-0.173-0.117-0.265l-0.414-0.42c-0.099-0.099-0.155-0.123-0.235-0.123c-0.099,0-0.179,0.068-0.216,0.241
							c-0.469,2.192-1.179,4.908-1.365,5.662c-0.043,0.166-0.074,0.259-0.173,0.259c-0.086,0-0.117-0.062-0.117-0.136
							c0-0.055,0.012-0.123,0.018-0.173c0.111-0.778,0.562-3.612,1.05-6.199c0.087-0.445,0.253-0.691,0.636-0.691
							c0.173,0,0.339,0.068,0.494,0.216c0.253,0.253,0.327,0.321,0.63,0.617c0.216,0.21,0.364,0.296,0.735,0.296h0.914
							c0.216,0,0.333,0.055,0.438,0.155c0.099,0.093,0.16,0.222,0.16,0.408c0,0.191-0.049,0.345-0.117,0.537
							c-0.234,0.629-0.988,2.76-1.21,3.359l0.018,0.012c0.772-0.586,1.895-1.334,2.39-1.334c0.154,0,0.247,0.068,0.247,0.309
							C37.605,209.063,35.715,213.737,31.399,220.171"/>
					</g>
					<g id="g15918_8_" transform="translate(437.2935,706.7568)">
						<path id="path15920_8_" fill="#BD3E2F" d="M43.91,215.937c0.13,0.284,0.414,0.482,0.753,0.482
							c0.463,0,0.833-0.359,0.833-0.834c0-0.277-0.129-0.519-0.333-0.667c0.043-0.161,0.074-0.303,0.074-0.438
							c0-0.519-0.309-0.883-0.876-1.075c-0.074-0.314-0.21-0.599-0.433-0.809c-0.37-0.358-0.747-0.358-0.747-0.506
							c0-0.08,0.056-0.129,0.21-0.129c0.685,0,1.358,0.382,1.439,1.019c0.655,0.222,1.049,0.883,1.049,1.407
							c0,0.136-0.013,0.253-0.068,0.364c0.179,0.174,0.389,0.47,0.389,0.908c0,0.383-0.167,0.772-0.464,1.056
							c-0.259,0.253-0.624,0.42-1.049,0.42c-0.618,0-1.019-0.334-1.247-0.661c-0.674,0-1.544-0.747-1.544-1.815h-0.092
							c-0.062,0.37-0.445,0.618-0.766,0.636c-0.259,0.778-0.846,1.444-1.809,1.444c-0.111,0-0.246-0.006-0.364-0.024
							c-0.284,0.26-0.599,0.42-1.037,0.42c-0.84,0-1.526-0.674-1.526-1.525c0-0.531,0.241-0.896,0.698-1.217
							c0,0-0.006-0.068-0.006-0.099c0-0.679,0.741-1.741,1.84-1.741c0-0.173,0.216-0.407,0.457-0.45v-0.087h-0.092
							c-1.512,0-2.154-0.729-2.154-1.216c-0.451-0.186-0.742-0.685-0.742-1.148c0-0.92,0.674-1.575,1.563-1.575
							c0.296,0,0.599,0.117,0.809,0.278c0.154-0.055,0.352-0.086,0.555-0.086c0.426,0,0.902,0.148,1.235,0.636
							c0.05-0.006,0.092-0.006,0.142-0.006c0.543,0,1.013,0.358,1.26,0.827c0.062,0.117,0.086,0.209,0.086,0.278
							c0,0.067-0.031,0.123-0.099,0.123c-0.086,0-0.099-0.081-0.253-0.223c-0.346-0.315-0.877-0.432-1.42-0.432
							c-0.265-0.389-0.592-0.593-0.969-0.593c-0.278,0-0.494,0.074-0.716,0.223c-0.179-0.197-0.401-0.278-0.618-0.278
							c-0.487,0-0.833,0.34-0.833,0.834c0,0.346,0.222,0.654,0.531,0.772c0.055,0.611,0.71,1.025,1.525,1.025
							c0.105,0,0.21-0.006,0.321-0.019c0.123,0.197,0.419,0.408,0.839,0.464c0.087,0.012,0.154,0.018,0.204,0.043
							c0.05,0.025,0.074,0.074,0.074,0.13c0,0.049-0.019,0.092-0.068,0.123c-0.043,0.024-0.117,0.036-0.204,0.055
							c-0.389,0.074-0.853,0.315-1.087,0.902c-0.933,0-1.618,0.747-1.618,1.586v0.055c-0.309,0.124-0.518,0.42-0.518,0.772
							c0,0.463,0.363,0.833,0.827,0.833c0.278,0,0.519-0.136,0.674-0.34c0.129,0.037,0.277,0.05,0.419,0.05
							c0.692,0,1.432-0.438,1.575-1.29c0.889-0.081,1.099-0.834,1.155-1.149c0.031-0.16,0.055-0.296,0.16-0.296
							c0.111,0,0.136,0.124,0.173,0.291c0.068,0.314,0.186,0.568,0.42,0.765C42.446,215.239,43.051,215.937,43.91,215.937"/>
					</g>
					<g id="g15922_8_" transform="translate(440.1505,699.0592)">
						<path id="path15924_8_" fill="#BD3E2F" d="M42.849,218.794c-0.29-0.414-0.5-0.617-1.161-1.395
							c-0.87-1.031-1.327-1.865-2.087-3.717c0.124,0.013,0.303,0.024,0.501,0.024c0.099,0,0.178,0,0.309-0.006l0.092,0.197
							c0.426,0.914,1,2.149,1.803,3.1l0.278,0.327c0.827,0.969,1.339,1.544,1.661,2.865c0.111,0.469,0.204,0.889,0.519,1.192
							c0.284,0.272,0.642,0.389,1.007,0.389c0.309,0,0.538-0.074,0.871-0.216c0.303-0.129,0.413-0.155,0.734-0.155
							c0.111,0,0.191,0.006,0.265,0.013l-0.432-0.58l0.587-0.414c-0.735-0.216-1.124-0.926-1.254-1.253
							c-0.024-0.068-0.036-0.111-0.036-0.155c0-0.05,0.024-0.099,0.099-0.099c0.08,0,0.141,0.062,0.246,0.185
							c0.358,0.432,0.643,0.729,1.964,1.142l-0.932,0.704l0.704,1.03h-0.66c-0.42,0-0.698,0.006-1.062,0.173
							c-0.494,0.228-0.747,0.327-1.185,0.327c-0.537,0-1.025-0.191-1.426-0.562c-0.464-0.426-0.606-0.994-0.772-1.618
							C43.349,219.813,43.195,219.281,42.849,218.794"/>
					</g>
					<g id="g15926_8_" transform="translate(442.4087,692.3728)">
						<path id="path15928_8_" fill="#BD3E2F" d="M42.011,221.275c-0.352-0.475-0.834-1.098-1.204-1.759
							c0.118-0.056,0.507-0.266,0.643-0.339c0.426,0.642,1.019,1.432,1.407,2.031c0.352,0.543,0.494,0.778,0.519,1.507
							c0.007,0.123,0.007,0.241,0.018,0.358c0.031,0.377,0.13,0.76,0.488,1.111c0.265,0.266,0.648,0.401,1.031,0.401
							c0.37,0,0.586-0.104,0.907-0.104c0.228,0,0.395,0.055,0.543,0.111l0.117,0.043l-0.284-0.68l0.666-0.271
							c-0.426-0.265-1.358-1.408-1.358-2.76c0-0.488,0.074-0.939,0.179-1.339c0.013-0.043,0.037-0.087,0.105-0.087
							c0.062,0,0.105,0.037,0.111,0.105l0.006,0.142c0.018,0.414,0.049,1.068,0.216,1.655c0.278,0.988,1.025,1.914,1.772,2.359
							l-1.062,0.463l0.457,1.117l-0.5-0.105c-0.302-0.062-0.525-0.117-0.79-0.117c-0.173,0-0.37,0.024-0.605,0.08
							c-0.179,0.043-0.371,0.08-0.642,0.08c-0.488,0-1.013-0.185-1.371-0.531c-0.655-0.624-0.692-1.297-0.735-1.896
							C42.592,222.053,42.443,221.856,42.011,221.275"/>
					</g>
					<g id="g15930_8_" transform="translate(467.6031,691.774)">
						<path id="path15932_8_" fill="#BD3E2F" d="M32.661,221.498c-0.043,0.055-0.08,0.081-0.129,0.081
							c-0.074,0-0.111-0.05-0.111-0.105c0-0.087,0.062-0.192,0.216-0.452c0.469-0.796,1.05-1.598,1.766-2.353
							c0.772-0.82,1.679-1.586,2.648-2.271l0.303-0.21c0.043-0.032,0.074-0.05,0.111-0.05c0.062,0,0.105,0.062,0.105,0.111
							c0,0.031-0.013,0.062-0.05,0.093c-0.901,0.82-1.871,1.821-2.778,2.784C34.031,219.886,33.302,220.688,32.661,221.498"/>
					</g>
					<g id="g15934_8_" transform="translate(436.0071,696.2215)">
						<path id="path15936_8_" fill="#BD3E2F" d="M44.387,219.847c0.092,0.154,0.37,0.531,0.482,0.648
							c-0.475,0.963-1.253,1.883-1.593,2.248l-0.284-0.278C43.319,221.989,43.868,221.069,44.387,219.847"/>
					</g>
					<g id="g15938_8_" transform="translate(428.8102,705.0874)">
						<path id="path15940_8_" fill="#BD3E2F" d="M47.058,216.557c-0.056,0.05-0.068,0.081-0.068,0.118
							c0,0.043,0.031,0.092,0.099,0.092c0.025,0,0.049-0.006,0.081-0.019c0.457-0.185,0.846-0.401,1.192-0.667
							c0.29-0.222,0.574-0.494,0.851-0.821l-0.259-0.296C48.633,215.229,47.595,216.099,47.058,216.557"/>
					</g>
					<g id="g15942_8_" transform="translate(435.7715,701.7983)">
						<path id="path15944_8_" fill="#BD3E2F" d="M44.474,217.777l-0.333,0.204c0.216,0.512,0.482,0.982,0.797,1.334
							c0.223,0.253,0.433,0.457,0.667,0.66c0.055,0.043,0.086,0.081,0.141,0.081c0.062,0,0.106-0.05,0.106-0.099
							c0-0.024-0.013-0.055-0.037-0.092C45.438,219.278,44.703,218.116,44.474,217.777"/>
					</g>
					<g id="g15946_8_" transform="translate(429.1147,697.2427)">
						<path id="path15948_8_" fill="#BD3E2F" d="M46.945,219.468c-0.08-0.031-0.117-0.05-0.16-0.05c-0.068,0-0.1,0.056-0.1,0.099
							c0,0.043,0.019,0.068,0.062,0.105c0.759,0.592,1.426,0.827,2.346,0.982l0.111-0.371L46.945,219.468z"/>
					</g>
					<g id="g15950_8_" transform="translate(454.2989,704.8614)">
						<path id="path15952_8_" fill="#BD3E2F" d="M37.598,216.64c0,0.216,0.111,0.606,0.513,0.606c0.136,0,0.265-0.031,0.37-0.081
							c0.148-0.068,0.247-0.167,0.247-0.272c0-0.111-0.111-0.223-0.278-0.359c-0.173-0.141-0.395-0.272-0.574-0.272
							C37.66,216.264,37.598,216.468,37.598,216.64"/>
					</g>
					<g id="g15954_8_" transform="translate(444.3332,701.9946)">
						<path id="path15956_8_" fill="#BD3E2F" d="M41.297,217.704c0,0.265,0.16,0.556,0.469,0.556c0.136,0,0.296-0.055,0.414-0.167
							c0.068-0.062,0.099-0.129,0.099-0.197c0-0.148-0.142-0.29-0.309-0.388c-0.13-0.074-0.265-0.124-0.382-0.124
							C41.396,217.383,41.297,217.501,41.297,217.704"/>
					</g>
					<g id="g15958_8_" transform="translate(446.6406,695.9366)">
						<path id="path15960_8_" fill="#BD3E2F" d="M40.44,219.953c0,0.062,0.006,0.136,0.031,0.21c0.05,0.16,0.154,0.315,0.414,0.315
							c0.118,0,0.246-0.031,0.351-0.106c0.093-0.062,0.13-0.141,0.13-0.222c0-0.265-0.445-0.574-0.667-0.574
							C40.539,219.576,40.44,219.73,40.44,219.953"/>
					</g>
					<g id="g15962_8_" transform="translate(442.7721,683.546)">
						<path id="path15964_8_" fill="#BD3E2F" d="M41.876,224.552c-0.834,0-1.204,0.395-1.204,0.895c0,0.877,1.537,1.735,2.92,2.266
							l0.359-0.463c-0.852-0.339-2.568-1.069-2.568-1.698c0-0.222,0.129-0.382,0.647-0.382c0.902,0,1.872,0.439,2.766,0.877
							c0.068,0.031,0.148,0.062,0.223,0.062c0.117,0,0.191-0.037,0.277-0.16l0.148-0.204
							C44.402,225.168,43.099,224.552,41.876,224.552"/>
					</g>
					<g id="g15966_8_" transform="translate(446.4247,683.1725)">
						<path id="path15968_8_" fill="#BD3E2F" d="M40.521,224.69c-0.815-0.457-1.661-0.76-2.408-0.76
							c-0.834,0-1.575,0.359-2.192,1.291c-0.259,0.395-0.463,0.888-0.71,1.327c-0.296,0.519-0.617,0.797-1.179,0.797
							c-0.513,0-1.013-0.21-1.544-0.438l0.024-0.117c0.043-0.191,0.118-0.327,0.296-0.327c0.081,0,0.161,0.036,0.204,0.049
							c0.296,0.093,0.512,0.174,0.815,0.174c0.463,0,0.685-0.272,1-0.939l0.117-0.247c-0.321-0.111-1.075-0.166-1.636-0.166h-0.265
							l0.043-0.265c0.018-0.111,0.062-0.204,0.154-0.248c0.111-0.055,0.272-0.061,0.55-0.061c0.704,0,1.216,0.086,1.512,0.161
							c0.76-1.131,1.803-1.563,2.81-1.563c0.858,0,1.729,0.315,2.563,0.772L40.521,224.69z"/>
					</g>
					<g id="g15970_8_" transform="translate(447.7597,682.7307)">
						<path id="path15972_8_" fill="#BD3E2F" d="M40.025,224.854l-0.148,0.569c1.272,0.685,2.433,1.234,4.285,1.413
							c0.037-0.71-0.013-1.605,0.513-1.605c0.481,0,1.53,1.241,2.741,2.797c0.111-0.105,0.29-0.216,0.451-0.34l-0.309-0.401
							c-1.18-1.519-2.186-2.816-3.013-2.816c-0.772,0-1.062,0.908-1.074,1.587C42.292,225.94,41.179,225.546,40.025,224.854"/>
					</g>
					<g id="g15974_8_" transform="translate(473.7398,702.4365)">
						<path id="path15976_8_" fill="#BD3E2F" d="M30.383,217.54c-0.482,0-0.618,0.266-0.618,0.642c0,0.778,0.488,1.895,0.797,2.532
							h-0.748c-0.388-0.753-1.92-3.167-2.747-4.168l0.475-0.512c0.445,0.494,0.933,1.333,1.463,2.161h0.099
							c0-0.043-0.006-0.092-0.006-0.136c0-0.698,0.358-1.217,1.241-1.217c0.543,0,1.395,0.272,2.199,0.543
							c0.666,0.228,1.278,0.463,1.581,0.549v0.741c-0.346-0.104-1.05-0.376-1.778-0.629C31.574,217.781,30.821,217.54,30.383,217.54
							"/>
					</g>
					<g id="g15978_8_" transform="translate(476.3611,698.8726)">
						<path id="path15980_8_" fill="#BD3E2F" d="M29.41,218.863c0.741,0.314,2.068,0.846,2.834,1.124v0.753
							c-1.538-0.569-4.236-1.686-6.076-2.687c0.05-0.061,0.371-0.512,0.407-0.568c0.778,0.321,1.476,0.531,2.105,0.531
							c0.884,0,1.605,0,2.816,0.284v0.568c-0.679-0.124-1.402-0.272-1.871-0.272c-0.278,0-0.358,0.037-0.358,0.13
							C29.268,218.782,29.305,218.819,29.41,218.863"/>
					</g>
				</g>
			</g>
		</g>
		<g id="g15982_8_" transform="matrix(2.1025538,0,0,-2.1025538,3.2464737,509.99979)">
			<path id="path15984_8_" fill="#BD3E2F" d="M38.746,220.911l-0.296-0.569h3.156l-0.235,0.569H38.746z"/>
		</g>
		<g id="g15986_8_" transform="matrix(2.1025538,0,0,-2.1025538,-945.43842,1967.8152)">
			<g>
				<g id="g15988_8_">
					<g id="g15994_8_" transform="translate(433.1302,687.9642)">
						<path id="path15996_8_" fill="#BD3E2F" d="M45.455,222.912c0.333,0,0.605,0.111,0.865,0.215
							c0.246,0.1,0.494,0.198,0.827,0.198c0.791,0,1.766-0.382,2.625-0.748c0.05-0.018,0.105-0.031,0.16-0.031
							c0.137,0,0.242,0.062,0.309,0.191l0.111,0.204c-0.945,0.55-2.451,1.136-3.235,1.136c-0.358,0-0.618-0.093-0.864-0.191
							c-0.277-0.112-0.519-0.229-0.772-0.229c-0.624,0-2.223,0.618-2.223,1.217c0,0.704,2.544,0.975,2.821,0.975l0.253,0.574
							c-1.845,0-4.044-0.648-4.044-1.507c0-0.247,0.142-0.37,0.142-0.599c0-0.309-0.142-0.519-0.142-0.865
							c0-0.228,0.136-0.519,0.296-0.772c0.173-0.265,0.377-0.438,0.377-0.66c0-0.167-0.111-0.365-0.111-0.754
							c0-0.833,0.475-1.34,1.401-2.334l0.186-0.197c-0.765-0.297-2.192-0.914-2.526-1.056c-1.155-0.482-1.444-1.068-1.444-1.995
							c0-0.358,0-0.765,0.025-1.129h0.222c0.463,0,0.519,0.277,0.519,0.543c0,0.179-0.007,0.382-0.007,0.605
							c0.007,0.512,0.025,0.969,0.853,1.339c0.334,0.148,1.969,0.815,3.186,1.334c0.358,0.155,0.691,0.284,1.061,0.284
							c0.414,0,0.889-0.179,1.482-0.531c0.5-0.296,1.025-0.697,1.439-1.161l0.524,0.401c-0.451,0.531-1.074,1.006-1.698,1.376
							c-0.624,0.37-1.179,0.587-1.648,0.587c-0.204,0-0.371-0.037-0.513-0.074c-0.167-0.044-0.321-0.092-0.519-0.092
							c-0.228,0-0.42,0.055-0.698,0.376c-0.105,0.117-0.772,0.877-0.914,1.099c-0.068,0.105-0.191,0.315-0.191,0.562
							c0,0.105,0.018,0.228,0.08,0.34c0.574-0.445,1.285-0.716,2.148-0.821l-0.117,0.587c-1.241,0.327-2.563,1.42-2.563,2.124
							c0,0.148,0.037,0.253,0.093,0.383C43.714,223.374,44.844,222.912,45.455,222.912"/>
					</g>
					<g id="g15998_8_" transform="translate(447.2593,687.7871)">
						<path id="path16000_8_" fill="#BD3E2F" d="M40.211,222.977c0.778,0.55,1.58,0.611,2.229,0.611
							c0.389,0,0.846-0.055,1.327-0.117c0.389-0.05,0.741-0.087,1.161-0.087c0.846,0,1.698,0.309,2.068,0.47
							c0.105-0.13,0.284-0.303,0.426-0.426c-0.179-0.111-1.315-0.728-2.476-0.728c-0.513,0-1,0.061-1.421,0.117
							c-0.37,0.049-0.771,0.092-1.161,0.092c-0.426,0-1.284-0.123-1.815-0.376L40.211,222.977z"/>
					</g>
					<g id="g16002_8_" transform="translate(465.4921,684.282)">
						<path id="path16004_8_" fill="#BD3E2F" d="M33.444,224.278c-0.926-1.951-2.334-3.372-3.779-4.193
							c-0.685-0.389-1.303-0.641-2.636-0.641h-2.884c-1.031,0-1.679-0.136-2.186-0.265c-0.544-0.142-0.889-0.283-1.439-0.283
							c-0.815,0-1.568,0.401-1.932,0.783l0.679,0.538l-0.34,0.452c-0.197-0.143-2.611-1.927-3.118-2.328l-0.031,0.018
							c0.013,0.123,0.013,0.234,0.013,0.346c0,1.358-0.63,1.686-1.586,2.068l-0.648-0.382c1.315-0.439,1.642-0.791,1.642-1.772
							c0-0.779-0.278-1.087-0.679-1.322c-0.414-0.241-0.926-0.351-1.376-0.351c-0.191,0-0.278-0.038-0.346-0.105
							c-0.074-0.074-0.111-0.186-0.111-0.34v-0.216h0.155c0.827,0,1.593,0.13,2.433,0.79l2.735,2.137
							c0.389-0.445,1.371-1.062,2.531-1.062c0.655,0,1.075,0.161,1.68,0.315c0.469,0.118,0.926,0.223,1.927,0.223h2.896
							c1.482,0,2.199,0.309,2.989,0.752c1.717,0.963,3.18,2.593,4.008,4.465C33.82,224.038,33.617,224.161,33.444,224.278"/>
					</g>
					<g id="g16006_8_" transform="translate(458.0988,680.5901)">
						<path id="path16008_8_" fill="#BD3E2F" d="M36.188,225.648c0.747,1.198,1.414,2.26,3.05,3.125
							c-0.173,0.104-0.419,0.265-0.549,0.352c-0.636-0.277-1.265-0.834-1.803-1.395c-1.235-1.284-1.124-2.025-2.427-2.526
							c-0.328-0.123-0.729-0.259-1.241-0.376c-0.303,0.932-1.062,1.859-1.865,1.859c-0.556,0-1.198-0.29-1.939-0.617
							c-0.87-0.383-1.667-0.821-1.92-0.988l0.34-0.457c0.259,0.142,1.007,0.513,1.753,0.834c0.648,0.278,1.235,0.506,1.63,0.506
							c0.636,0,1.049-0.723,1.279-1.303c-0.834-0.198-2.205-0.247-2.618-0.247c-0.192,0-0.26-0.031-0.328-0.087
							c-0.062-0.055-0.111-0.154-0.142-0.29l-0.049-0.21h0.444c2.31,0,4.489,0.364,5.891,1.217c0.198-0.056,0.371-0.092,0.593-0.092
							c0.802,0,1.63,0.438,2.149,0.839c0.185,0.142,0.228,0.272,0.228,0.414c0,0.068-0.006,0.13-0.013,0.192l-0.024,0.241
							c-0.741-0.586-1.358-1.025-2.124-1.025C36.367,225.612,36.268,225.624,36.188,225.648"/>
					</g>
				</g>
			</g>
		</g>
	</g>
</g>
</svg>
