<?xml version="1.0" encoding="utf-8"?>
<!-- Generator: Adobe Illustrator 21.0.2, SVG Export Plug-In . SVG Version: 6.00 Build 0)  -->
<svg version="1.1" id="Layer_1" xmlns="http://www.w3.org/2000/svg" xmlns:xlink="http://www.w3.org/1999/xlink" x="0px" y="0px"
	 width="280px" height="100px" viewBox="0 0 280 100" enable-background="new 0 0 280 100" xml:space="preserve">
<g>
	<path fill="#CC0029" d="M235.328,64.946h8.919V33.212h-8.919V64.946z M257.36,33.212v31.733h-8.919V33.212H257.36z M41.656,45.534
		h-7.212V33.212H22.64v31.733h11.803V49.211h7.212v15.735h11.803V33.212H41.656L41.656,45.534z M97.052,45.016l-0.726-2.093h-9.701
		v22.032h9.701V51.7c0-2.885,1.838-4.459,3.413-4.459c1.31,0,3.017,0.264,3.017,3.149v14.556h9.701V50.653
		C112.457,42.649,103.482,39.51,97.052,45.016z M196.712,55.697l-4.525-12.784h-6.618l-4.525,13.312l-4.723-13.312h-12.982
		l-4.657,11.209l-6.552-11.209h-11.077l13.048,22.296l-1.706,4.195c-0.594,1.31-2.008,1.376-2.281,0.132
		c0-2.253-1.829-4.082-4.082-4.082c-2.253,0-4.082,1.829-4.082,4.082c0.019,2.357,2.376,5.44,7.033,5.242
		c4.657-0.198,6.618-4.063,7.278-5.704l10.785-26.077l7.768,21.948h7.08l4.327-12.652l4.459,12.652h6.684l7.542-22.032h-3.865
		L196.712,55.697z M70.174,41.791c-7.429,0-13.444,5.525-13.444,12.331c0,6.816,6.015,12.331,13.444,12.331
		s13.444-5.525,13.444-12.331S77.603,41.791,70.174,41.791z M73.521,59.892c0,1.848-1.499,3.347-3.347,3.347
		s-3.347-1.499-3.347-3.347v-11.53c0-1.848,1.499-3.347,3.347-3.347s3.347,1.499,3.347,3.337V59.892z"/>
	<path fill="#CC0029" d="M142.126,55.895c0.066-0.519,0.104-1.235,0.104-1.772c0-6.807-6.015-12.331-13.444-12.331
		c-7.429,0-13.444,5.525-13.444,12.331c0,6.816,6.015,12.331,13.444,12.331c5.1,0,9.541-2.611,11.822-6.449l-2.97-1.103
		c-1.791,2.743-5.081,4.582-8.853,4.582c-1.848,0-3.347-1.744-3.347-3.592v-3.997H142.126z M125.448,48.362
		c0-1.848,1.499-3.337,3.347-3.337c1.848,0,3.347,1.499,3.347,3.337v4.393h-6.684v-4.393H125.448z M231.943,55.895
		c0.075-0.519,0.113-1.235,0.113-1.772c0-6.807-6.015-12.331-13.444-12.331s-13.444,5.525-13.444,12.331
		c0,6.816,6.015,12.331,13.444,12.331c5.1,0,9.541-2.611,11.822-6.449l-2.97-1.103c-1.791,2.743-5.081,4.582-8.853,4.582
		c-1.848,0-3.347-1.744-3.347-3.592v-3.997H231.943z M215.266,48.362c0-1.848,1.499-3.337,3.347-3.337s3.347,1.499,3.347,3.337
		v4.393h-6.684L215.266,48.362z"/>
</g>
</svg>
