<?xml version="1.0" encoding="utf-8"?>
<!-- Generator: Adobe Illustrator 21.0.2, SVG Export Plug-In . SVG Version: 6.00 Build 0)  -->
<svg version="1.1" id="Layer_1" xmlns="http://www.w3.org/2000/svg" xmlns:xlink="http://www.w3.org/1999/xlink" x="0px" y="0px"
	 width="280px" height="100px" viewBox="0 0 280 100" enable-background="new 0 0 280 100" xml:space="preserve">
<g>
	<path fill-rule="evenodd" clip-rule="evenodd" fill="#00513E" d="M207.528,49.999c0,18.727-30.235,33.909-67.528,33.909
		c-37.295,0-67.529-15.182-67.529-33.909c0-18.727,30.234-33.908,67.529-33.908C177.293,16.091,207.528,31.273,207.528,49.999
		L207.528,49.999z M140,18.761c-35.832,0-64.882,13.986-64.882,31.238c0,17.253,29.05,31.238,64.882,31.238
		c35.831,0,64.879-13.986,64.879-31.238C204.88,32.747,175.831,18.761,140,18.761L140,18.761z"/>
	<path fill-rule="evenodd" clip-rule="evenodd" fill="#00513E" d="M203.2,49.999c0,16.325-28.296,29.559-63.2,29.559
		c-34.905,0-63.201-13.234-63.201-29.559c0-16.324,28.296-29.557,63.201-29.557C174.905,20.442,203.2,33.676,203.2,49.999
		L203.2,49.999z M180.505,36.161h-10.839l-1.32,3.774h7.016l-8.003,2.771l-0.529,1.531l12.314-4.038L180.505,36.161L180.505,36.161z
		 M111.395,42.786h-4.415c0,0,4.092-10.907,4.42-11.732c0.584-1.461,0.932-1.361,0.932-1.361h-6.098
		c0.755,0.361,0.086,1.785,0.086,1.785s-4.885,13.602-5.225,14.282c-0.34,0.681-0.595,0.766-0.595,0.766h10.561l1.477-4.028
		C112.411,42.882,111.395,42.786,111.395,42.786L111.395,42.786z M129.921,46.509h4.974c0,0-0.341-0.505-0.128-1.057
		c0.295-0.767,2.933-7.949,2.933-7.949l1.148,9.006h4.506l5.907-16.02c0,0,0.242-0.751,0.571-0.751l-4.788-0.014
		c0,0,0.137,0.553-0.034,0.978c-0.169,0.425-2.891,7.694-2.891,7.694l-1.063-8.672h-5.142c0,0,0.266,0.425,0.096,0.892
		c-0.139,0.379-5.452,14.963-5.452,14.963S130.219,46.509,129.921,46.509L129.921,46.509z M152.664,29.729
		c0,0,0.425,0.68-0.129,2.252c-0.553,1.574-4.888,13.262-4.888,13.262s-0.341,1.1-0.808,1.313l6.802-0.008
		c0,0,8.245,0.305,10.796-8.362c0,0,3.23-8.544-6.121-8.458H152.664L152.664,29.729z M153.385,42.678c0,0,0.022-0.007,0.786-0.007
		c1.157,0,3.3-0.255,4.741-3.762c2.367-5.763-0.935-5.568-0.935-5.568H156.7L153.385,42.678L153.385,42.678z M92.899,60.082h10.839
		l1.319-3.775h-7.015l8.002-2.77l0.53-1.53L94.26,56.045L92.899,60.082L92.899,60.082z M111.894,67.044
		c-0.171,0-0.171-0.548-0.171-0.548l1.994-5.29c0,0,2.484,4.873,2.654,5.214c0.17,0.34,0.084,0.624,0.084,0.624h5.941
		c-0.567,0-1.151-1.077-1.151-1.077l-2.958-5.308c4.137,0,5.46-4.101,5.46-4.101c2.04-6.517-4.826-6.347-4.826-6.347h-7.027
		c0.51,0.567,0.112,1.757,0.112,1.757s-4.364,12.477-4.703,13.441c-0.341,0.963-0.964,1.636-0.964,1.636
		S112.183,67.044,111.894,67.044L111.894,67.044z M116.105,54.08l-1.151,3.385h1.077c0,0,2.098,0.185,2.871-1.483
		c0,0,0.906-1.911-1.625-1.911C116.723,54.071,116.105,54.08,116.105,54.08L116.105,54.08z M173.371,67.106
		c-0.424,0.009-0.129-1.031-0.129-1.031l1.779-4.808c0,0,2.397,4.875,2.566,5.215c0.17,0.34,0.085,0.623,0.085,0.623h6.153
		c-0.567,0-1.191-1.077-1.191-1.077l-2.958-5.308c4.139,0,5.384-3.953,5.384-3.953c2.173-6.825-4.748-6.494-4.748-6.494h-6.971
		c0.511,0.567,0.114,1.757,0.114,1.757s-4.547,12.525-4.887,13.487c-0.34,0.965-0.992,1.58-0.992,1.58L173.371,67.106
		L173.371,67.106z M177.423,57.527c0,0,2.082,0.157,2.719-1.474c0.752-1.921-1.124-1.87-1.124-1.87h-1.539l-1.133,3.344H177.423
		L177.423,57.527z M131.095,67.461c6.133,0,9.783-6.016,9.783-10.332c0-4.527-1.861-7.352-6.111-7.352
		c-5.422,0-8.959,4.114-9.872,9.229C124.057,63.709,126.713,67.461,131.095,67.461L131.095,67.461z M131.481,63.483
		c1.53,0.283,3.212-0.819,4.09-4.336c1.332-5.323-1.123-5.367-1.571-5.422c-1.357-0.166-3.169,1.398-3.905,4.657
		C129.758,59.87,129.4,63.097,131.481,63.483L131.481,63.483z M142.334,50.272c0,0,0.422,0.227,0.422,1.303
		c0,1.077,0,14.566,0,14.566s-0.058,0.797-0.359,0.964h4.557c0,0,0-0.341,0.452-0.908c0.454-0.566,9.919-13.261,9.919-13.261
		s2.158-2.664,2.724-2.664h-6.522c0,0,0.511,0.34,0.114,0.963c-0.397,0.624-6.195,9.295-6.195,9.295l0.073-8.746
		c0,0-0.011-1.403,0.552-1.521L142.334,50.272L142.334,50.272z M169.884,54.244l1.474-3.975l-11.051,0.001
		c0,0,0.396,0.35-0.113,1.766c-0.511,1.418-4.988,13.487-4.988,13.487s-0.793,1.586-1.019,1.586c-0.228,0,11.39,0,11.39,0
		l1.361-4.023c0,0-0.17,0.226-1.247,0.226c-1.078,0-4.818,0-4.818,0l1.021-2.72h3.739c0,0,0.794-0.057,0.964,0.17l1.53-4.3
		c0,0-0.112,0.389-1.134,0.389c-1.02,0-3.627,0-3.627,0l1.078-3.003h4.59C169.036,53.849,169.659,53.763,169.884,54.244
		L169.884,54.244z M112.273,46.525h5.452c0,0-0.017-0.418,0.125-0.69c0.259-0.491,0.935-1.676,0.935-1.676h5.487l0.011,1.478
		c0,0,0.028,0.51-0.376,0.903h5.441c0,0-0.404-0.227-0.478-0.896l-0.683-14.792c0,0-0.029-0.945,0.421-1.145h-5.398
		c0,0,0.378,0.467-0.345,1.53c-0.722,1.063-9.943,14.735-9.943,14.735S112.739,46.323,112.273,46.525L112.273,46.525z
		 M124.167,35.431l-3.03,4.93h3.073L124.167,35.431L124.167,35.431z"/>
</g>
</svg>
