<?xml version="1.0" encoding="utf-8"?>
<!-- Generator: Adobe Illustrator 21.0.2, SVG Export Plug-In . SVG Version: 6.00 Build 0)  -->
<svg version="1.1" id="Layer_1" xmlns="http://www.w3.org/2000/svg" xmlns:xlink="http://www.w3.org/1999/xlink" x="0px" y="0px"
	 width="280px" height="100px" viewBox="0 0 280 100" enable-background="new 0 0 280 100" xml:space="preserve">
<g id="layer1" transform="translate(-657.92486,-622.89716)">
	<path fill="#1A2A63" d="M797.925,641.89c-45.9,0-82.693,13.757-82.693,31.008c0,17.143,37.096,31.007,82.693,31.007
		c45.599,0,82.693-13.907,82.693-31.007C880.616,655.8,843.523,641.89,797.925,641.89z"/>
	<g id="g4156" transform="matrix(3.6405116,0,0,-3.6405116,-3614.0161,1059.4319)">
		<g id="g4158">
			<g id="g4164">
				<g id="g4166">
					<path id="path4180" fill="#FFFFFF" d="M1190.465,106.178c0-4.12,9.596-7.46,21.435-7.46l0,0c11.837,0,21.433,3.34,21.433,7.46
						l0,0c0,4.12-9.595,7.46-21.433,7.46l0,0C1200.062,113.638,1190.465,110.298,1190.465,106.178 M1191.219,106.178
						c0,3.764,9.258,6.814,20.68,6.814l0,0c11.422,0,20.68-3.05,20.68-6.814l0,0c0-3.764-9.258-6.815-20.68-6.815l0,0
						C1200.477,99.363,1191.219,102.414,1191.219,106.178"/>
				</g>
			</g>
		</g>
	</g>
	<g id="g4182" transform="matrix(3.6405116,0,0,-3.6405116,-3614.0161,1059.4319)">
		<g id="g4184">
			<g id="g4190">
				<g id="g4192">
					<path id="path4206" fill="#FFFFFF" d="M1224.03,108.708c-0.085,0-0.128-0.01-0.169-0.089l0,0
						c-0.132-0.253-1.736-2.657-2.034-3.123l0,0c-0.05-0.071-0.112-0.061-0.119,0.02l0,0c-0.03,0.277-0.27,0.596-0.647,0.749l0,0
						c-0.287,0.116-0.569,0.138-0.86,0.099l0,0c-0.528-0.071-0.998-0.35-1.411-0.664l0,0c-0.624-0.473-1.16-1.087-1.854-1.54l0,0
						c-0.378-0.247-0.897-0.463-1.244-0.141l0,0c-0.314,0.291-0.279,0.938,0.201,1.438l0,0c0.051,0.053,0.112,0.009,0.103-0.038l0,0
						c-0.046-0.227,0.01-0.451,0.182-0.609l0,0c0.21-0.188,0.51-0.209,0.766-0.084l0,0c0.303,0.15,0.481,0.44,0.533,0.77l0,0
						c0.08,0.51-0.313,0.96-0.804,0.996l0,0c-0.399,0.028-0.782-0.111-1.155-0.419l0,0c-0.187-0.155-0.293-0.27-0.455-0.5l0,0
						c-0.04-0.056-0.1-0.062-0.098,0.021l0,0c0.019,0.654-0.252,1.021-0.792,1.034l0,0c-0.419,0.01-0.868-0.218-1.217-0.496l0,0
						c-0.383-0.308-0.718-0.714-1.076-1.098l0,0c-0.045-0.047-0.084-0.045-0.097,0.046l0,0c-0.01,0.433-0.12,0.853-0.32,1.15l0,0
						c-0.071,0.103-0.22,0.155-0.346,0.085l0,0c-0.058-0.031-0.259-0.124-0.406-0.243l0,0c-0.072-0.06-0.101-0.147-0.069-0.258l0,0
						c0.193-0.646,0.151-1.382-0.112-2.003l0,0c-0.241-0.569-0.709-1.083-1.26-1.256l0,0c-0.363-0.115-0.74-0.059-0.973,0.262l0,0
						c-0.32,0.444-0.191,1.216,0.287,1.856l0,0c0.422,0.564,1.031,0.922,1.639,1.153l0,0c0.072,0.028,0.087,0.074,0.066,0.134l0,0
						c-0.033,0.1-0.086,0.236-0.107,0.298l0,0c-0.056,0.148-0.212,0.173-0.403,0.151l0,0c-0.441-0.051-0.84-0.203-1.234-0.413l0,0
						c-1.031-0.552-1.548-1.621-1.774-2.192l0,0c-0.109-0.275-0.202-0.446-0.323-0.598l0,0c-0.162-0.205-0.366-0.39-0.74-0.718l0,0
						c-0.033-0.03-0.058-0.092-0.03-0.15l0,0c0.038-0.078,0.233-0.353,0.287-0.377l0,0c0.061-0.03,0.131,0.012,0.16,0.032l0,0
						c0.261,0.177,0.573,0.457,0.727,0.648l0,0c0.053,0.065,0.108,0.038,0.137-0.061l0,0c0.143-0.508,0.516-0.925,1.032-1.098l0,0
						c0.945-0.319,1.925,0.143,2.666,0.946l0,0c0.47,0.511,0.64,0.839,0.821,1.062l0,0c0.305,0.378,0.908,1.225,1.626,1.769l0,0
						c0.263,0.202,0.575,0.354,0.731,0.253l0,0c0.126-0.081,0.167-0.271-0.035-0.638l0,0c-0.732-1.337-1.808-2.906-2.006-3.288l0,0
						c-0.037-0.066-0.005-0.118,0.065-0.118l0,0c0.383,0.002,0.762,0.001,1.11,0.001l0,0c0.058,0.003,0.084,0.029,0.113,0.07l0,0
						c0.561,0.879,1.09,1.716,1.657,2.581l0,0c0.032,0.05,0.061,0.011,0.062-0.011l0,0c0.012-0.201,0.061-0.476,0.181-0.656l0,0
						c0.214-0.333,0.517-0.476,0.854-0.479l0,0c0.268-0.003,0.403,0.038,0.691,0.145l0,0c0.235,0.088,0.424,0.202,0.569,0.306l0,0
						c0.084,0.058,0.099-0.04,0.097-0.055l0,0c-0.13-0.698,0.031-1.525,0.724-1.868l0,0c0.831-0.409,1.742,0.166,2.267,0.685l0,0
						c0.051,0.05,0.106,0.045,0.111-0.063l0,0c0.01-0.198,0.101-0.434,0.265-0.599l0,0c0.439-0.441,1.328-0.266,2.218,0.423l0,0
						c0.572,0.441,1.17,1.065,1.71,1.726l0,0c0.02,0.025,0.035,0.067-0.005,0.108l0,0c-0.082,0.085-0.202,0.184-0.283,0.26l0,0
						c-0.037,0.031-0.091,0.023-0.123-0.002l0,0c-0.553-0.526-1.052-1.127-1.773-1.624l0,0c-0.243-0.17-0.63-0.306-0.804-0.071l0,0
						c-0.068,0.092-0.06,0.218,0.007,0.385l0,0c0.21,0.524,3.536,5.588,3.709,5.887l0,0c0.03,0.052,0,0.09-0.067,0.09l0,0
						c-0.343,0-0.792-0.001-1.148-0.001 M1218.756,102.484c-0.171,0.089-0.245,0.328-0.241,0.521l0,0
						c0.009,0.546,0.25,1.105,0.698,1.656l0,0c0.546,0.671,1.15,1.021,1.546,0.829l0,0c0.409-0.195,0.278-0.67,0.095-1.042l0,0
						c-0.013-0.029-0.014-0.053-0.007-0.077l0,0c0.006-0.038,0.057-0.076,0.106-0.094l0,0c0.018-0.007,0.028-0.019,0.008-0.06l0,0
						c-0.141-0.303-0.271-0.479-0.449-0.742l0,0c-0.163-0.243-0.347-0.433-0.569-0.616l0,0c-0.259-0.214-0.596-0.443-0.912-0.443
						l0,0C1218.936,102.417,1218.843,102.437,1218.756,102.484"/>
				</g>
			</g>
		</g>
	</g>
	<g id="g4208" transform="matrix(3.6405116,0,0,-3.6405116,-3614.0161,1059.4319)">
		<g id="g4210">
			<g id="g4216">
				<g id="g4218">
					<path id="path4232" fill="#FFFFFF" d="M1206.347,111.78c-0.318,0-0.636-0.012-0.958-0.038l0,0
						c-2.045-0.173-3.99-1.324-3.994-3.07l0,0c0-0.887,0.629-1.604,1.605-1.573l0,0c1.147,0.039,2.089,0.958,2.582,2.116l0,0
						c0.187,0.44-0.16,0.622-0.325,0.369l0,0c-0.295-0.456-0.709-0.809-1.158-1.029l0,0c-0.54-0.264-1.117-0.193-1.291,0.246l0,0
						c-0.246,0.618,0.265,1.543,1.432,1.978l0,0c1.685,0.624,3.448,0.211,5.143-0.108l0,0c0.024,0,0.115-0.05,0.034-0.092l0,0
						c-0.303-0.165-0.602-0.3-1.068-0.701l0,0c-0.334-0.286-0.772-0.667-1.11-1.082l0,0c-0.335-0.409-0.573-0.774-0.888-1.178l0,0
						c-0.044-0.059-0.098-0.056-0.097-0.056l0,0c-0.767-0.13-1.519-0.216-2.207-0.695l0,0c-0.142-0.098-0.204-0.272-0.118-0.406l0,0
						c0.078-0.118,0.255-0.131,0.377-0.041l0,0c0.427,0.32,0.868,0.47,1.373,0.484l0,0c0.022-0.001,0.032-0.005,0.038-0.018l0,0
						c0.005-0.008,0-0.024-0.007-0.036l0,0c-0.756-1.048-0.945-1.286-1.514-1.935l0,0c-0.291-0.334-0.577-0.616-0.897-0.91l0,0
						c-1.291-1.199-2.68-1.179-3.178-0.427l0,0c-0.297,0.451-0.258,0.925-0.063,1.318l0,0c0.24,0.481,0.725,0.834,1.128,1.04l0,0
						c0.15,0.077,0.193,0.268,0.043,0.442l0,0c-0.095,0.114-0.327,0.135-0.498,0.103l0,0c-0.529-0.098-1.154-0.498-1.523-0.979l0,0
						c-0.416-0.54-0.624-1.195-0.554-1.93l0,0c0.125-1.328,1.218-2.094,2.458-2.085l0,0c0.987,0.008,1.918,0.307,3.036,1.443l0,0
						c1.043,1.06,1.994,2.642,2.883,4.109l0,0c0.028,0.047,0.047,0.073,0.183,0.089l0,0c0.558,0.07,1.382,0.15,1.91,0.18l0,0
						c0.118,0.007,0.142,0.005,0.188-0.053l0,0c0.138-0.174,0.345-0.321,0.51-0.41l0,0c0.08-0.044,0.119-0.066,0.183-0.067l0,0
						c0.078-0.002,0.14,0.041,0.178,0.085l0,0c0.056,0.062,0.071,0.141,0.042,0.193l0,0c-0.031,0.054-0.4,0.258-0.411,0.341l0,0
						c-0.008,0.052,0.048,0.064,0.048,0.064l0,0c0.271,0.085,0.552,0.26,0.724,0.587l0,0c0.168,0.322,0.195,0.752-0.113,0.991l0,0
						c-0.269,0.21-0.676,0.176-1-0.115l0,0c-0.317-0.283-0.423-0.695-0.379-1.055l0,0c0.007-0.062,0.005-0.084-0.081-0.091l0,0
						c-0.489-0.038-0.958-0.052-1.482-0.08l0,0c-0.035-0.003-0.046,0.02-0.025,0.045l0,0c0.602,1.047,1.501,1.792,2.496,2.526l0,0
						c0.066,0.049,0.046,0.143,0.043,0.221l0,0c1.796-0.39,3.531-1.116,5.395-1.101l0,0c0.77,0.007,1.508,0.123,2.212,0.511l0,0
						c0.62,0.338,0.872,0.651,0.89,0.976l0,0c0.015,0.225-0.141,0.366-0.364,0.319l0,0c-1.883-0.433-3.678-0.428-5.552-0.201l0,0
						c-2.125,0.258-4.164,0.787-6.278,0.787l0,0c0,0,0,0-0.005,0 M1209.591,108.008c-0.027,0.199,0.038,0.466,0.25,0.654l0,0
						c0.107,0.095,0.251,0.117,0.34,0.04l0,0c0.099-0.085,0.052-0.296-0.048-0.443l0,0c-0.109-0.161-0.296-0.301-0.464-0.335l0,0
						c-0.005-0.001-0.01-0.002-0.014-0.002l0,0C1209.626,107.923,1209.603,107.943,1209.591,108.008"/>
				</g>
			</g>
		</g>
	</g>
</g>
</svg>
