<?xml version="1.0" encoding="utf-8"?>
<!-- Generator: Adobe Illustrator 21.0.2, SVG Export Plug-In . SVG Version: 6.00 Build 0)  -->
<svg version="1.1" id="Layer_1" xmlns="http://www.w3.org/2000/svg" xmlns:xlink="http://www.w3.org/1999/xlink" x="0px" y="0px"
	 width="280px" height="100px" viewBox="0 0 280 100" enable-background="new 0 0 280 100" xml:space="preserve">
<g id="Ebene_x0020_1">
	<g id="_138079608">
		<polygon id="_137713304" fill="#F2D100" points="34.195,71.222 137.807,73.892 241.422,71.222 241.422,70.003 137.807,67.331 
			34.195,70.003 		"/>
		<g>
			<polygon id="_137792048" fill="#252E7A" points="70.058,35.647 79.951,35.647 79.951,54.042 92.39,54.042 92.39,59.388 
				70.058,59.388 			"/>
			<path id="_137791288" fill="#252E7A" d="M195.438,60.34c-7.709,0-14.195-2.294-14.195-8.613v-16.08h9.576v15.347
				c0,2.97,2.195,4.326,4.62,4.326c2.427,0,4.619-1.356,4.619-4.326V35.647h9.574v16.08C209.631,58.046,203.15,60.34,195.438,60.34
				L195.438,60.34z"/>
			<path id="_137791360" fill="#252E7A" d="M229.692,41.959h10.121c-0.531-5.453-8.207-7.081-14.156-7.081
				c-5.945,0-13.689,1.945-13.689,7.893c0,4.346,4.252,5.736,7.235,6.34c2.115,0.428,5.645,1.028,7.41,1.417
				c2.457,0.537,3.727,1.037,3.727,2.484c0,1.547-1.427,2.339-4.359,2.339c-2.779,0-4.44-0.864-4.901-2.824l-10.312,0.002
				c0.605,6.467,8.892,7.882,15.432,7.882c6.581,0,14.445-1.567,14.445-7.976c0-3.48-2.242-5.796-7.76-6.9
				c-2.888-0.578-6.891-1.33-8.43-1.594c-2.039-0.355-2.767-1.09-2.767-2.093c0-1.034,0.99-2.119,3.85-2.119
				C227.956,39.731,229.261,40.436,229.692,41.959L229.692,41.959z"/>
			<path id="_137708120" fill="#252E7A" d="M170.502,50.647c7.125,0,8.938-4.53,8.938-7.426c0-2.664-1.533-7.575-8.927-7.575H151.36
				l0.001,23.741h9.4v-8.74L170.502,50.647L170.502,50.647z M160.76,45.464v-4.63h6.277c1.564,0,2.901,0.73,2.901,2.239
				c0,1.33-0.768,2.392-2.913,2.392L160.76,45.464L160.76,45.464z"/>
			<path id="_137709352" fill="#252E7A" d="M104.292,36.226l0.27-0.578h9.926L104.16,51.395v7.994h-9.391v-7.994L84.475,35.647h9.89
				l0.276,0.578l4.475,7.861c0.295,0.505,0.384,0.505,0.709,0L104.292,36.226L104.292,36.226z"/>
			<path id="_137710928" fill="#252E7A" d="M134.313,59.388l0.174-0.473l5.044-11.729c0.13-0.308,0.435-0.226,0.438,0.045v12.157
				h8.098V35.647h-9.787l-0.18,0.511l-6.033,13.619c-0.222,0.517-0.429,0.514-0.651,0l-6.031-13.619l-0.181-0.511h-9.788v23.741
				h8.102V47.231c0.001-0.271,0.306-0.353,0.436-0.045l5.039,11.729l0.179,0.473L134.313,59.388L134.313,59.388z"/>
			<path id="_137711944" fill="#252E7A" d="M67.823,47.518c0,7.976-6.917,12.778-16.565,12.778c-9.649,0-16.566-4.803-16.566-12.778
				c0-7.98,6.917-12.78,16.566-12.78C60.906,34.738,67.823,39.539,67.823,47.518z M57.863,47.518c0-4.803-2.486-7.768-6.606-7.768
				c-4.122,0-6.605,2.965-6.605,7.768c0,4.802,2.483,7.764,6.605,7.764C55.377,55.284,57.863,52.32,57.863,47.518z"/>
			<path id="_137715720" fill="#252E7A" d="M243.633,35.297c0.506,0.023,0.811,0.47,0.811,0.915c0,0.5-0.456,0.817-0.698,0.899
				l0.638,1.367h-0.563l-0.67-1.397h-0.758v1.397h-0.584v-3.181L243.633,35.297L243.633,35.297z M242.393,36.641h1.136
				c0.312-0.088,0.341-0.252,0.349-0.462c0.008-0.206-0.189-0.439-0.388-0.439h-1.096V36.641L242.393,36.641z"/>
			<path id="_137715792" fill="#252E7A" d="M243.015,39.684c1.543,0,2.79-1.248,2.79-2.787c0-1.541-1.247-2.789-2.79-2.789
				c-1.54,0-2.788,1.248-2.788,2.789C240.228,38.437,241.475,39.684,243.015,39.684z M240.682,36.875
				c0-1.291,1.043-2.336,2.333-2.336s2.335,1.046,2.335,2.336c0,1.289-1.045,2.335-2.335,2.335S240.682,38.165,240.682,36.875z"/>
		</g>
	</g>
</g>
</svg>
