<?xml version="1.0" encoding="utf-8"?>
<!-- Generator: Adobe Illustrator 21.0.2, SVG Export Plug-In . SVG Version: 6.00 Build 0)  -->
<svg version="1.1" id="Layer_1" xmlns="http://www.w3.org/2000/svg" xmlns:xlink="http://www.w3.org/1999/xlink" x="0px" y="0px"
	 width="280px" height="100px" viewBox="0 0 280 100" enable-background="new 0 0 280 100" xml:space="preserve">
<path fill="#D6091D" d="M162.075,56.435l-10.029-35.459h-22.514v9.503c-2.935-5.695-10.019-9.11-19.901-9.11
	c-11.611,0-21.962,5.449-22.515,18.246h14.853c0.473-3.95,3.318-5.921,7.189-5.921c3.237,0,6.474,1.338,6.474,4.976
	c0,5.208-5.449,5.681-9.793,5.681v9.721c3.947,0,10.266,0.552,10.266,6.162c0,3.237-2.528,6.476-7.345,6.476
	c-5.132,0-7.898-3.087-7.898-8.214H85.382c0,13.663,9.556,20.53,22.51,20.53c10.086,0,17.702-3.067,21.64-9.003v7.825h16.749V58.575
	c0-4.584-0.635-12.245-1.187-17.221h0.161L155.6,77.847h12.954l10.345-36.493h0.16c-0.708,6.555-1.185,12.717-1.185,19.112v17.381
	h16.744V20.975h-22.509L162.075,56.435z M129.532,51.294c-1.289-1.441-2.953-2.596-4.972-3.385c2.296-1.128,3.92-2.658,4.972-4.544
	V51.294z"/>
</svg>
