<?xml version="1.0" encoding="utf-8"?>
<!-- Generator: Adobe Illustrator 21.0.2, SVG Export Plug-In . SVG Version: 6.00 Build 0)  -->
<svg version="1.1" id="Layer_1" xmlns="http://www.w3.org/2000/svg" xmlns:xlink="http://www.w3.org/1999/xlink" x="0px" y="0px"
	 width="280px" height="100px" viewBox="0 0 280 100" enable-background="new 0 0 280 100" xml:space="preserve">
<path d="M97.309,38.008c0,0-3.832,7.246-3.832,13.517c0,0-0.348,14.771,14.911,14.771h2.09c0,0,3.065,0.975,55.877-14.771h-13.376
	l-0.698-16.583l-6.27,16.583h-9.615l15.189-40.272h9.197l-4.181,11.566l9.893-11.566h28.985l-2.509,6.689h-9.894l-3.065,8.5h9.196
	l-2.926,7.525h-9.058l-3.623,9.893h10.87l-0.837,2.926c0,0,39.434-10.172,43.615-11.287c0,0-112.389,53.261-130.783,53.261
	c0,0-17.76,0.109-17.76-14.384C78.706,74.377,76.686,60.861,97.309,38.008z M162.313,48.738l13.471-36.417l-14.306,15.235
	L162.313,48.738z M140.298,11.253l-14.957,40.272h9.29l15.05-40.272H140.298z M98.68,51.525h9.289l6.689-17.558l-0.744,17.558h9.847
	l15.05-40.272h-9.196l-6.875,17.791l1.115-17.791h-9.941L98.68,51.525z M105.664,60.807c0,0.355-0.089,0.686-0.267,0.995
	c-0.178,0.307-0.42,0.55-0.728,0.728c-0.307,0.177-0.639,0.265-0.994,0.265c-0.354,0-0.684-0.088-0.992-0.265
	c-0.307-0.177-0.55-0.42-0.728-0.728c-0.177-0.308-0.267-0.639-0.267-0.995c0-0.356,0.089-0.687,0.267-0.995
	c0.178-0.308,0.42-0.551,0.728-0.728c0.308-0.178,0.638-0.266,0.992-0.266c0.355,0,0.687,0.088,0.994,0.266
	c0.307,0.177,0.55,0.419,0.728,0.728C105.575,60.12,105.664,60.451,105.664,60.807z M105.277,60.807c0-0.444-0.157-0.822-0.47-1.135
	c-0.313-0.314-0.69-0.47-1.133-0.47c-0.442,0-0.819,0.156-1.133,0.47c-0.313,0.314-0.47,0.691-0.47,1.135
	c0,0.442,0.157,0.821,0.47,1.135c0.314,0.313,0.691,0.47,1.133,0.47c0.443,0,0.82-0.157,1.133-0.47
	C105.12,61.628,105.277,61.249,105.277,60.807z M102.773,59.743h0.95c0.269,0,0.464,0.054,0.585,0.162
	c0.12,0.11,0.181,0.255,0.181,0.438c0,0.143-0.046,0.267-0.138,0.371c-0.093,0.104-0.237,0.18-0.435,0.227
	c0.082,0.032,0.142,0.065,0.181,0.1c0.053,0.049,0.11,0.121,0.169,0.216c0.004,0.008,0.119,0.212,0.345,0.615h-0.627
	c-0.204-0.404-0.341-0.647-0.41-0.725c-0.069-0.079-0.139-0.119-0.209-0.119c-0.015,0-0.037,0.002-0.065,0.008v0.836h-0.527V59.743z
	 M103.3,60.648h0.23c0.154,0,0.262-0.024,0.325-0.075c0.062-0.049,0.095-0.114,0.095-0.193c0-0.079-0.031-0.143-0.091-0.192
	c-0.061-0.051-0.163-0.075-0.307-0.075H103.3V60.648z M201.424,13.228c0,0.356-0.088,0.687-0.266,0.995
	c-0.178,0.308-0.42,0.55-0.727,0.728c-0.307,0.177-0.639,0.265-0.996,0.265c-0.353,0-0.684-0.088-0.992-0.265
	c-0.307-0.178-0.55-0.42-0.728-0.728c-0.179-0.307-0.268-0.639-0.268-0.995c0-0.355,0.089-0.686,0.268-0.995
	c0.178-0.308,0.42-0.55,0.728-0.728c0.307-0.177,0.638-0.265,0.992-0.265c0.356,0,0.688,0.088,0.996,0.265
	c0.307,0.178,0.549,0.42,0.727,0.728C201.336,12.542,201.424,12.873,201.424,13.228z M201.038,13.228
	c0-0.443-0.157-0.822-0.469-1.135c-0.313-0.313-0.691-0.47-1.134-0.47c-0.442,0-0.82,0.157-1.133,0.47
	c-0.313,0.313-0.469,0.691-0.469,1.135c0,0.442,0.156,0.821,0.469,1.134c0.313,0.313,0.691,0.471,1.133,0.471
	c0.443,0,0.821-0.158,1.134-0.471C200.881,14.049,201.038,13.67,201.038,13.228z M198.533,12.163h0.95
	c0.269,0,0.463,0.055,0.585,0.163c0.12,0.11,0.181,0.256,0.181,0.438c0,0.143-0.047,0.267-0.139,0.372
	c-0.091,0.104-0.236,0.18-0.433,0.227c0.082,0.031,0.14,0.064,0.18,0.099c0.054,0.048,0.111,0.121,0.169,0.216
	c0.004,0.007,0.119,0.212,0.345,0.615h-0.627c-0.204-0.404-0.34-0.646-0.41-0.726c-0.07-0.078-0.139-0.118-0.209-0.118
	c-0.016,0-0.037,0.002-0.065,0.007v0.836h-0.527V12.163z M199.061,13.069h0.229c0.154,0,0.262-0.025,0.325-0.075
	c0.063-0.05,0.094-0.114,0.094-0.193c0-0.079-0.03-0.143-0.089-0.193c-0.061-0.05-0.163-0.075-0.307-0.075h-0.252V13.069z"/>
</svg>
