<?xml version="1.0" encoding="utf-8"?>
<!-- Generator: Adobe Illustrator 17.0.0, SVG Export Plug-In . SVG Version: 6.00 Build 0)  -->
<!DOCTYPE svg PUBLIC "-//W3C//DTD SVG 1.1//EN" "http://www.w3.org/Graphics/SVG/1.1/DTD/svg11.dtd">
<svg version="1.1" id="Layer_1" xmlns="http://www.w3.org/2000/svg" xmlns:xlink="http://www.w3.org/1999/xlink" x="0px" y="0px"
	 width="155px" height="155px" viewBox="0 0 155 155" enable-background="new 0 0 155 155" xml:space="preserve">
<linearGradient id="SVGID_1_" gradientUnits="userSpaceOnUse" x1="200.82" y1="354.26" x2="200.82" y2="509.26" gradientTransform="matrix(1 0 0 1 -123.32 -354.26)">
	<stop  offset="0" style="stop-color:#1269EA"/>
	<stop  offset="1" style="stop-color:#144EA5"/>
</linearGradient>
<circle fill="url(#SVGID_1_)" cx="77.5" cy="77.5" r="77.5"/>
<g>
	<g>
		<g>
			<path fill="#FFFFFF" d="M89.413,98.602l-13.121-7.306H54.316c-3.687,0-6.687-2.999-6.687-6.686V66.628
				c-0.014-1.766,0.671-3.444,1.93-4.712c1.263-1.273,2.943-1.974,4.733-1.974h47.106c3.687,0,6.686,2.999,6.686,6.687v17.981
				c0,3.687-2.999,6.686-6.686,6.686h-14.97L89.413,98.602z M54.293,62.526c-1.095,0-2.124,0.43-2.898,1.21
				c-0.769,0.776-1.189,1.799-1.18,2.882v17.991c0,2.262,1.84,4.102,4.102,4.102h22.647l7.272,4.05l-1.653-4.05h18.817
				c2.262,0,4.102-1.84,4.102-4.102V66.628c0-2.262-1.84-4.102-4.102-4.102H54.293z"/>
		</g>
		<g>
			<path fill="#FFFFFF" d="M56.037,67.593c0.28-0.38,0.701-0.581,1.261-0.621c1.021-0.08,1.602,0.4,1.742,1.441
				c0.621,4.184,1.301,7.728,2.022,10.631l4.384-8.348c0.4-0.761,0.901-1.161,1.501-1.201c0.881-0.06,1.421,0.5,1.642,1.682
				c0.5,2.663,1.141,4.925,1.902,6.847c0.521-5.085,1.401-8.749,2.643-11.011c0.3-0.561,0.741-0.841,1.321-0.881
				c0.46-0.04,0.881,0.1,1.261,0.4s0.581,0.681,0.621,1.141c0.02,0.36-0.04,0.661-0.2,0.961c-0.781,1.441-1.421,3.864-1.942,7.227
				c-0.501,3.263-0.681,5.806-0.561,7.628c0.04,0.5-0.04,0.941-0.24,1.321c-0.24,0.44-0.601,0.681-1.061,0.721
				c-0.521,0.04-1.061-0.2-1.582-0.741c-1.862-1.902-3.343-4.745-4.424-8.528c-1.301,2.563-2.262,4.484-2.883,5.766
				c-1.181,2.262-2.182,3.423-3.023,3.483c-0.541,0.04-1.001-0.42-1.401-1.381c-1.021-2.623-2.122-7.688-3.303-15.195
				C55.637,68.413,55.757,67.953,56.037,67.593z M99.06,70.736c-0.721-1.261-1.782-2.022-3.203-2.322
				c-0.38-0.08-0.741-0.12-1.081-0.12c-1.922,0-3.483,1.001-4.705,3.003c-1.041,1.702-1.562,3.584-1.562,5.646
				c0,1.542,0.32,2.863,0.961,3.964c0.721,1.261,1.782,2.022,3.203,2.322c0.38,0.08,0.741,0.12,1.081,0.12
				c1.942,0,3.503-1.001,4.705-3.003c1.041-1.722,1.562-3.604,1.562-5.666C100.041,73.118,99.701,71.817,99.06,70.736z
				 M96.537,76.281c-0.28,1.321-0.781,2.302-1.522,2.963c-0.581,0.521-1.121,0.741-1.622,0.641c-0.48-0.1-0.881-0.521-1.181-1.301
				c-0.24-0.621-0.36-1.241-0.36-1.822c0-0.5,0.04-1.001,0.14-1.461c0.18-0.821,0.521-1.622,1.061-2.382
				c0.661-0.981,1.361-1.381,2.082-1.241c0.48,0.1,0.881,0.521,1.181,1.301c0.24,0.621,0.36,1.241,0.36,1.822
				C96.678,75.32,96.638,75.821,96.537,76.281z M86.527,70.736c-0.721-1.261-1.802-2.022-3.203-2.322
				c-0.38-0.08-0.741-0.12-1.081-0.12c-1.922,0-3.483,1.001-4.705,3.003c-1.041,1.702-1.562,3.584-1.562,5.646
				c0,1.542,0.32,2.863,0.961,3.964c0.721,1.261,1.782,2.022,3.203,2.322c0.38,0.08,0.741,0.12,1.081,0.12
				c1.942,0,3.503-1.001,4.705-3.003c1.041-1.722,1.562-3.604,1.562-5.666C87.488,73.118,87.168,71.817,86.527,70.736z
				 M83.985,76.281c-0.28,1.321-0.781,2.302-1.522,2.963c-0.581,0.521-1.121,0.741-1.622,0.641c-0.48-0.1-0.881-0.521-1.181-1.301
				c-0.24-0.621-0.36-1.241-0.36-1.822c0-0.5,0.04-1.001,0.14-1.461c0.18-0.821,0.521-1.622,1.061-2.382
				c0.661-0.981,1.361-1.381,2.082-1.241c0.48,0.1,0.881,0.521,1.181,1.301c0.24,0.621,0.36,1.241,0.36,1.822
				C84.145,75.32,84.085,75.821,83.985,76.281L83.985,76.281L83.985,76.281z"/>
		</g>
	</g>
	<g id="surface1">
		<path fill="#FFFFFF" d="M98.34,40.4c0.637,0,1.155,0.518,1.155,1.155c0,0.637-0.518,1.155-1.155,1.155s-1.155-0.518-1.155-1.155
			C97.185,40.918,97.703,40.4,98.34,40.4z M77.5,40.4c0.637,0,1.155,0.518,1.155,1.155c0,0.637-0.518,1.155-1.155,1.155
			s-1.155-0.518-1.155-1.155C76.345,40.918,76.863,40.4,77.5,40.4z M56.66,40.4c0.637,0,1.155,0.518,1.155,1.155
			c0,0.637-0.518,1.155-1.155,1.155s-1.155-0.518-1.155-1.155C55.506,40.918,56.023,40.4,56.66,40.4z M69.322,60.987v-7.656h7.024
			v7.656h2.309v-7.656h7.024v7.656h2.309v-7.656h4.291c0.638,0,1.155-0.517,1.155-1.155s-0.517-1.155-1.155-1.155h-4.291v-2.309
			H98.34c0.638,0,1.155-0.517,1.155-1.155V44.82c1.344-0.477,2.309-1.76,2.309-3.265c0-1.91-1.554-3.464-3.464-3.464
			s-3.464,1.554-3.464,3.464c0,1.505,0.965,2.788,2.309,3.265v1.584H86.833c-0.638,0-1.155,0.517-1.155,1.155v3.464h-7.024V44.82
			c1.344-0.477,2.309-1.76,2.309-3.265c0-1.91-1.554-3.464-3.464-3.464s-3.464,1.554-3.464,3.464c0,1.505,0.965,2.788,2.309,3.265
			v6.202h-7.024v-3.464c0-0.638-0.517-1.155-1.155-1.155H57.815V44.82c1.344-0.477,2.309-1.76,2.309-3.265
			c0-1.91-1.554-3.464-3.464-3.464c-1.91,0-3.464,1.554-3.464,3.464c0,1.505,0.965,2.788,2.309,3.265v2.738
			c0,0.638,0.517,1.155,1.155,1.155h10.353v2.309H41.646c-1.96,0-3.555,1.595-3.555,3.555v44.46c0,1.96,1.595,3.555,3.555,3.555
			h25.031c-0.447,4.235-3.247,6.708-4.13,7.389h-4.906c-1.91,0-3.464,1.554-3.464,3.464c0,1.91,1.554,3.464,3.464,3.464h39.717
			c1.91,0,3.464-1.554,3.464-3.464c0-1.91-1.554-3.464-3.464-3.464h-4.903c-0.871-0.678-3.681-3.174-4.132-7.389h25.03
			c1.96,0,3.555-1.595,3.555-3.555v-44.46c0-1.96-1.595-3.555-3.555-3.555H97.205c-0.638,0-1.155,0.517-1.155,1.155
			s0.517,1.155,1.155,1.155h16.149c0.687,0,1.246,0.559,1.246,1.246v44.46c0,0.687-0.559,1.246-1.246,1.246H41.646
			c-0.687,0-1.246-0.559-1.246-1.246v-44.46c0-0.687,0.559-1.246,1.246-1.246h25.367v7.656H69.322z M98.513,113.445
			c0,0.637-0.518,1.155-1.155,1.155H57.642c-0.637,0-1.155-0.518-1.155-1.155c0-0.637,0.518-1.155,1.155-1.155h39.717
			C97.995,112.291,98.513,112.809,98.513,113.445z M89.144,109.982H65.856c1.354-1.581,2.855-4.045,3.143-7.389h17.002
			C86.289,105.937,87.791,108.401,89.144,109.982z"/>
	</g>
</g>
</svg>
