<?xml version="1.0" encoding="utf-8"?>
<!-- Generator: Adobe Illustrator 21.0.2, SVG Export Plug-In . SVG Version: 6.00 Build 0)  -->
<svg version="1.1" id="Layer_1" xmlns="http://www.w3.org/2000/svg" xmlns:xlink="http://www.w3.org/1999/xlink" x="0px" y="0px"
	 width="155px" height="155px" viewBox="0 0 155 155" enable-background="new 0 0 155 155" xml:space="preserve">
<linearGradient id="SVGID_1_" gradientUnits="userSpaceOnUse" x1="77.5" y1="156" x2="77.5" y2="1" gradientTransform="matrix(1 0 0 -1 0 156)">
	<stop  offset="0" style="stop-color:#1269EA"/>
	<stop  offset="1" style="stop-color:#144EA5"/>
</linearGradient>
<circle fill="url(#SVGID_1_)" cx="77.5" cy="77.5" r="77.5"/>
<g>
	<g>
		<g>
			<g>
				<g>
					<path fill="#FFFFFF" d="M71.225,83.164c1.411,0.723,3.58,1.446,5.817,1.446c2.41,0,3.683-0.998,3.683-2.513
						c0-1.446-1.102-2.272-3.89-3.27c-3.855-1.342-6.368-3.477-6.368-6.85c0-3.959,3.305-6.988,8.778-6.988
						c2.616,0,4.544,0.551,5.921,1.17l-1.17,4.234c-0.929-0.447-2.582-1.102-4.854-1.102s-3.373,1.033-3.373,2.237
						c0,1.48,1.308,2.134,4.303,3.27c4.096,1.515,6.024,3.649,6.024,6.919c0,3.89-2.995,7.194-9.363,7.194
						c-2.651,0-5.267-0.688-6.575-1.411L71.225,83.164z"/>
				</g>
			</g>
		</g>
		<g>
			<g>
				<path fill="#FFFFFF" d="M93.222,60.547l4.245,32.807H57.613l4.245-32.807H93.222 M96.217,57.14H58.863l-5.126,39.622h47.607
					L96.217,57.14L96.217,57.14z"/>
			</g>
		</g>
		<g>
			<g>
				<path fill="#FFFFFF" d="M91.598,57.139h-3.407c0-5.872-4.778-10.649-10.651-10.649c-5.872,0-10.651,4.777-10.651,10.649h-3.407
					c0-7.751,6.306-14.057,14.058-14.057S91.598,49.388,91.598,57.139z"/>
			</g>
		</g>
	</g>
	<g>
		<path fill="#FFFFFF" d="M113.463,58.64c-6.655,0-12.069-5.415-12.069-12.07s5.414-12.07,12.069-12.07s12.07,5.415,12.07,12.07
			S120.118,58.64,113.463,58.64z M113.463,37.5c-5.001,0-9.069,4.069-9.069,9.07s4.068,9.07,9.069,9.07s9.07-4.069,9.07-9.07
			S118.464,37.5,113.463,37.5z"/>
	</g>
	<g>
		<path fill="#FFFFFF" d="M113.463,97.794c-4.896,0-8.881-3.984-8.881-8.881c0-4.897,3.984-8.882,8.881-8.882
			c4.897,0,8.882,3.984,8.882,8.882C122.345,93.81,118.36,97.794,113.463,97.794z M113.463,83.031c-3.243,0-5.881,2.639-5.881,5.882
			s2.638,5.881,5.881,5.881s5.882-2.638,5.882-5.881S116.706,83.031,113.463,83.031z"/>
	</g>
	<g>
		<path fill="#FFFFFF" d="M32.694,78.451c-4.897,0-8.882-3.985-8.882-8.882s3.984-8.881,8.882-8.881
			c4.897,0,8.881,3.984,8.881,8.881S37.591,78.451,32.694,78.451z M32.694,63.688c-3.243,0-5.882,2.638-5.882,5.881
			s2.639,5.881,5.882,5.881s5.881-2.638,5.881-5.881S35.937,63.688,32.694,63.688z"/>
	</g>
	<g>
		
			<rect x="93.311" y="57.765" transform="matrix(0.8032 -0.5958 0.5958 0.8032 -15.4646 71.7254)" fill="#FFFFFF" width="14.996" height="3"/>
	</g>
	<g>
		
			<rect x="100.82" y="81.174" transform="matrix(0.1889 -0.982 0.982 0.1889 -0.9681 169.8181)" fill="#FFFFFF" width="2.999" height="8.642"/>
	</g>
	<g>
		<path fill="#FFFFFF" d="M63.482,114.384c-3.793,0-6.878-3.085-6.878-6.878s3.085-6.879,6.878-6.879
			c3.792,0,6.878,3.086,6.878,6.879S67.274,114.384,63.482,114.384z M63.482,103.627c-2.139,0-3.878,1.74-3.878,3.879
			s1.74,3.878,3.878,3.878c2.138,0,3.878-1.739,3.878-3.878S65.62,103.627,63.482,103.627z"/>
	</g>
	<g>
		
			<rect x="63.167" y="97.886" transform="matrix(0.3235 -0.9462 0.9462 0.3235 -49.1003 130.0911)" fill="#FFFFFF" width="6.535" height="3"/>
	</g>
	<g>
		
			<rect x="47.42" y="65.004" transform="matrix(0.1303 -0.9915 0.9915 0.1303 -30.7476 112.7967)" fill="#FFFFFF" width="3" height="17.841"/>
	</g>
</g>
</svg>
