<?xml version="1.0" encoding="utf-8"?>
<!-- Generator: Adobe Illustrator 21.0.2, SVG Export Plug-In . SVG Version: 6.00 Build 0)  -->
<svg version="1.1" id="Layer_1" xmlns="http://www.w3.org/2000/svg" xmlns:xlink="http://www.w3.org/1999/xlink" x="0px" y="0px"
	 width="155px" height="155px" viewBox="0 0 155 155" enable-background="new 0 0 155 155" xml:space="preserve">
<linearGradient id="SVGID_1_" gradientUnits="userSpaceOnUse" x1="77.5" y1="156" x2="77.5" y2="1" gradientTransform="matrix(1 0 0 -1 0 156)">
	<stop  offset="0" style="stop-color:#1269EA"/>
	<stop  offset="1" style="stop-color:#144EA5"/>
</linearGradient>
<circle fill="url(#SVGID_1_)" cx="77.5" cy="77.5" r="77.5"/>
<g>
	<path fill="#FFFFFF" d="M109.276,59.168h-8.555V39.613H46.946v19.555h-1.222c-3.369,0-6.111,2.741-6.111,6.111v36.665
		c0,3.369,2.741,6.111,6.111,6.111h15.888v4.889h-4.889v2.444h41.554v-2.444h-4.889v-4.889h15.888c3.369,0,6.111-2.741,6.111-6.111
		V65.278C115.387,61.909,112.646,59.168,109.276,59.168L109.276,59.168z M98.277,68.945h2.444v7.333h-2.444V68.945z M95.832,71.389
		H73.834v-2.444h21.999V71.389z M71.389,75.737l-6.982-2.618c-0.21-0.079-0.351-0.282-0.351-0.507c0-0.225,0.141-0.428,0.352-0.507
		l6.981-2.618V75.737z M73.834,73.834h21.999v2.444H73.834V73.834z M103.165,68.945h1.222c2.021,0,3.666,1.645,3.666,3.666
		c0,2.021-1.645,3.666-3.666,3.666h-1.222V68.945z M72.389,66.501l-8.839,3.314c-1.158,0.434-1.938,1.558-1.938,2.796
		c0,1.238,0.78,2.363,1.937,2.796l8.84,3.314h25.888v12.222H49.39V51.835h48.887v14.666H72.389z M98.277,42.057v7.333H49.39v-7.333
		H98.277z M45.724,61.612h1.222v31.776h53.775V78.722h3.666c3.369,0,6.111-2.741,6.111-6.111c0-3.369-2.741-6.111-6.111-6.111
		h-3.666v-4.889h8.555c2.021,0,3.666,1.645,3.666,3.667v32.998H42.057V65.278C42.057,63.257,43.703,61.612,45.724,61.612
		L45.724,61.612z M90.944,112.943H64.056v-4.889h26.888V112.943z M109.276,105.61H45.724c-2.021,0-3.666-1.645-3.666-3.666v-1.222
		h70.886v1.222C112.943,103.964,111.297,105.61,109.276,105.61L109.276,105.61z M109.276,105.61"/>
	<rect x="51.835" y="44.502" fill="#FFFFFF" width="2.444" height="2.444"/>
	<rect x="56.723" y="44.502" fill="#FFFFFF" width="2.444" height="2.444"/>
	<rect x="61.612" y="44.502" fill="#FFFFFF" width="2.444" height="2.444"/>
	<path fill="#FFFFFF" d="M51.835,64.056h14.666v-9.777H51.835V64.056z M54.279,56.723h9.777v4.889h-9.777V56.723z M54.279,56.723"/>
	<path fill="#FFFFFF" d="M70.167,54.279v9.777h14.666v-9.777H70.167z M82.389,61.612h-9.777v-4.889h9.777V61.612z M82.389,61.612"/>
	<rect x="51.835" y="66.501" fill="#FFFFFF" width="8.555" height="2.444"/>
	<rect x="51.835" y="71.389" fill="#FFFFFF" width="7.333" height="2.444"/>
	<rect x="51.835" y="76.278" fill="#FFFFFF" width="8.555" height="2.444"/>
	<rect x="51.835" y="81.166" fill="#FFFFFF" width="43.998" height="2.444"/>
	<rect x="93.388" y="86.055" fill="#FFFFFF" width="2.444" height="2.444"/>
	<rect x="51.835" y="86.055" fill="#FFFFFF" width="39.109" height="2.444"/>
</g>
</svg>
