<?xml version="1.0" encoding="utf-8"?>
<!-- Generator: Adobe Illustrator 17.0.0, SVG Export Plug-In . SVG Version: 6.00 Build 0)  -->
<!DOCTYPE svg PUBLIC "-//W3C//DTD SVG 1.1//EN" "http://www.w3.org/Graphics/SVG/1.1/DTD/svg11.dtd">
<svg version="1.1" id="Layer_1" xmlns="http://www.w3.org/2000/svg" xmlns:xlink="http://www.w3.org/1999/xlink" x="0px" y="0px"
	 width="155px" height="155px" viewBox="0 0 155 155" enable-background="new 0 0 155 155" xml:space="preserve">
<linearGradient id="SVGID_1_" gradientUnits="userSpaceOnUse" x1="200.82" y1="354.26" x2="200.82" y2="509.26" gradientTransform="matrix(1 0 0 1 -123.32 -354.26)">
	<stop  offset="0" style="stop-color:#1269EA"/>
	<stop  offset="1" style="stop-color:#144EA5"/>
</linearGradient>
<circle fill="url(#SVGID_1_)" cx="77.5" cy="77.5" r="77.5"/>
<g>
	<g>
		<g>
			<path fill="#FFFFFF" d="M91.463,94.814l-16.154-8.995H48.254c-4.539,0-8.232-3.693-8.232-8.232V55.45
				c-0.018-2.175,0.827-4.24,2.376-5.802c1.555-1.567,3.624-2.431,5.827-2.431h57.994c4.539,0,8.232,3.693,8.232,8.232v22.138
				c0,4.539-3.693,8.232-8.232,8.232h-18.43L91.463,94.814z M48.225,50.4c-1.348,0-2.615,0.529-3.568,1.49
				c-0.947,0.955-1.464,2.215-1.453,3.548v22.15c0,2.784,2.265,5.05,5.05,5.05h27.881l8.953,4.986l-2.035-4.986h23.166
				c2.784,0,5.05-2.265,5.05-5.05V55.45c0-2.785-2.265-5.05-5.05-5.05H48.225z"/>
		</g>
		<g>
			<path fill="#FFFFFF" d="M50.373,56.637c0.345-0.468,0.863-0.715,1.553-0.764c1.257-0.099,1.972,0.493,2.144,1.775
				c0.764,5.151,1.602,9.514,2.489,13.088l5.398-10.278c0.493-0.937,1.109-1.43,1.849-1.479c1.084-0.074,1.75,0.616,2.021,2.07
				c0.616,3.278,1.405,6.063,2.341,8.429c0.641-6.26,1.725-10.771,3.253-13.556c0.37-0.69,0.912-1.035,1.627-1.084
				c0.567-0.049,1.084,0.123,1.553,0.493s0.715,0.838,0.764,1.405c0.025,0.444-0.049,0.813-0.246,1.183
				c-0.961,1.775-1.75,4.757-2.391,8.898c-0.616,4.018-0.838,7.148-0.69,9.391c0.049,0.616-0.049,1.158-0.296,1.627
				c-0.296,0.542-0.739,0.838-1.306,0.887c-0.641,0.049-1.306-0.246-1.947-0.912c-2.292-2.341-4.116-5.841-5.447-10.5
				c-1.602,3.155-2.785,5.521-3.549,7.098c-1.454,2.785-2.687,4.215-3.722,4.289c-0.665,0.049-1.232-0.518-1.725-1.701
				c-1.257-3.229-2.613-9.465-4.067-18.707C49.88,57.648,50.028,57.081,50.373,56.637z M103.34,60.507
				c-0.887-1.553-2.194-2.489-3.944-2.859c-0.468-0.099-0.912-0.148-1.331-0.148c-2.366,0-4.289,1.232-5.792,3.697
				c-1.282,2.095-1.922,4.412-1.922,6.951c0,1.898,0.394,3.525,1.183,4.88c0.887,1.553,2.194,2.489,3.944,2.859
				c0.468,0.099,0.912,0.148,1.331,0.148c2.391,0,4.313-1.232,5.792-3.697c1.282-2.12,1.922-4.437,1.922-6.975
				C104.548,63.44,104.129,61.838,103.34,60.507z M100.235,67.334c-0.345,1.627-0.961,2.834-1.873,3.648
				c-0.715,0.641-1.38,0.912-1.996,0.789c-0.592-0.123-1.084-0.641-1.454-1.602c-0.296-0.764-0.444-1.528-0.444-2.243
				c0-0.616,0.049-1.232,0.173-1.799c0.222-1.011,0.641-1.996,1.306-2.933c0.813-1.208,1.676-1.701,2.563-1.528
				c0.592,0.123,1.084,0.641,1.454,1.602c0.296,0.764,0.444,1.528,0.444,2.243C100.407,66.151,100.358,66.767,100.235,67.334z
				 M87.911,60.507c-0.887-1.553-2.218-2.489-3.944-2.859c-0.468-0.099-0.912-0.148-1.331-0.148c-2.366,0-4.289,1.232-5.792,3.697
				c-1.282,2.095-1.922,4.412-1.922,6.951c0,1.898,0.394,3.525,1.183,4.88c0.887,1.553,2.194,2.489,3.944,2.859
				c0.468,0.099,0.912,0.148,1.331,0.148c2.391,0,4.313-1.232,5.792-3.697c1.282-2.12,1.922-4.437,1.922-6.975
				C89.094,63.44,88.7,61.838,87.911,60.507z M84.781,67.334c-0.345,1.627-0.961,2.834-1.873,3.648
				c-0.715,0.641-1.38,0.912-1.996,0.789c-0.592-0.123-1.084-0.641-1.454-1.602c-0.296-0.764-0.444-1.528-0.444-2.243
				c0-0.616,0.049-1.232,0.173-1.799c0.222-1.011,0.641-1.996,1.306-2.933c0.813-1.208,1.676-1.701,2.563-1.528
				c0.592,0.123,1.084,0.641,1.454,1.602c0.296,0.764,0.444,1.528,0.444,2.243C84.978,66.151,84.904,66.767,84.781,67.334
				L84.781,67.334L84.781,67.334z"/>
		</g>
	</g>
	<g>
		<path fill="#FFFFFF" d="M94.819,110.161c-0.835-0.001-2.404-0.003-3.486-0.004s-1.969,0.846-1.971,1.883
			c-0.002,1.037,0.99,1.886,2.203,1.888l18.575,0.02c1.213,0.001,2.208-0.846,2.21-1.883c0.002-1.037-0.99-1.887-2.203-1.888
			l-11.603-0.012C97.33,110.163,95.654,110.162,94.819,110.161z"/>
		<path fill="#FFFFFF" d="M117.3,75.25c0.362,1.583,0.252,3.171-0.322,4.597l-1.643,4.095c0.544,0.21,1.056,0.526,1.495,0.966
			c1.673,1.676,1.67,4.4-0.006,6.072l-6.079,6.066c-0.419,0.419-1.099,0.419-1.518-0.002c-0.419-0.42-0.418-1.1,0.002-1.518
			l6.079-6.066c0.838-0.836,0.84-2.198,0.004-3.037c-0.836-0.838-2.198-0.84-3.037-0.004l-5.319,5.307
			c-0.018,0.018-0.041,0.023-0.059,0.04c-0.055,0.048-0.116,0.085-0.182,0.121c-0.063,0.035-0.123,0.069-0.191,0.091
			c-0.025,0.008-0.041,0.025-0.066,0.031l-4.632,1.153c-0.754,0.189-1.444,0.578-1.994,1.127l-4.268,4.258
			c-1.805,1.801-1.791,7.941-1.334,11.928l13.261,0.013c0.332-1.057,0.777-1.811,0.801-1.85c0.047-0.077,0.101-0.146,0.164-0.209
			l10.619-10.596c2.273-2.268,3.61-5.283,3.766-8.49l0.514-10.552c0.003-2.784-1.84-8.472-2.618-10.753
			C117.63,69.226,116.474,71.645,117.3,75.25z"/>
		<path fill="#FFFFFF" d="M59.181,110.161c-0.835,0.001-2.511,0.003-3.724,0.004l-11.603,0.012c-1.213,0.001-2.205,0.85-2.203,1.888
			c0.002,1.037,0.997,1.884,2.21,1.883l18.575-0.02c1.213-0.001,2.205-0.85,2.203-1.888c-0.002-1.037-0.889-1.884-1.971-1.883
			C61.585,110.158,60.016,110.16,59.181,110.161z"/>
		<path fill="#FFFFFF" d="M36.701,75.25c0.827-3.605-0.33-6.024-3.437-7.211c-0.778,2.282-2.621,7.97-2.618,10.753l0.514,10.552
			c0.156,3.207,1.494,6.222,3.766,8.49l10.619,10.596c0.063,0.063,0.118,0.133,0.164,0.209c0.025,0.04,0.469,0.793,0.801,1.851
			l13.261-0.013c0.458-3.987,0.471-10.127-1.334-11.928L54.17,94.29c-0.55-0.549-1.241-0.939-1.994-1.127l-4.632-1.153
			c-0.025-0.006-0.041-0.024-0.066-0.031c-0.068-0.022-0.129-0.056-0.191-0.091c-0.065-0.036-0.127-0.072-0.182-0.121
			c-0.019-0.017-0.042-0.022-0.059-0.04l-5.319-5.307c-0.838-0.836-2.2-0.834-3.037,0.004c-0.836,0.838-0.834,2.2,0.004,3.037
			l6.079,6.066c0.419,0.419,0.421,1.098,0.002,1.518c-0.419,0.42-1.099,0.42-1.518,0.002l-6.079-6.066
			c-1.676-1.673-1.68-4.396-0.006-6.072c0.438-0.44,0.951-0.756,1.495-0.966l-1.643-4.095C36.45,78.422,36.339,76.832,36.701,75.25z
			"/>
	</g>
</g>
</svg>
