<?xml version="1.0" encoding="utf-8"?>
<!-- Generator: Adobe Illustrator 21.0.2, SVG Export Plug-In . SVG Version: 6.00 Build 0)  -->
<svg version="1.1" id="Layer_1" xmlns="http://www.w3.org/2000/svg" xmlns:xlink="http://www.w3.org/1999/xlink" x="0px" y="0px"
	 width="155px" height="155px" viewBox="0 0 155 155" enable-background="new 0 0 155 155" xml:space="preserve">
<linearGradient id="SVGID_1_" gradientUnits="userSpaceOnUse" x1="77.5" y1="156" x2="77.5" y2="1" gradientTransform="matrix(1 0 0 -1 0 156)">
	<stop  offset="0" style="stop-color:#1269EA"/>
	<stop  offset="1" style="stop-color:#144EA5"/>
</linearGradient>
<circle fill="url(#SVGID_1_)" cx="77.5" cy="77.5" r="77.5"/>
<g>
	<g>
		<path fill="#FFFFFF" d="M117.056,113.524c-2.336,0-4.238,1.902-4.238,4.238s1.902,4.238,4.238,4.238
			c2.336,0,4.238-1.902,4.238-4.238S119.392,113.524,117.056,113.524L117.056,113.524z M117.056,119.175
			c-0.778,0-1.413-0.633-1.413-1.413s0.635-1.413,1.413-1.413s1.413,0.633,1.413,1.413S117.834,119.175,117.056,119.175
			L117.056,119.175z M117.056,119.175"/>
	</g>
	<path fill="#FFFFFF" d="M42.183,37.238c0-2.336-1.902-4.238-4.238-4.238c-2.336,0-4.238,1.902-4.238,4.238
		c0,2.336,1.902,4.238,4.238,4.238C40.281,41.476,42.183,39.574,42.183,37.238L42.183,37.238z M36.532,37.238
		c0-0.778,0.635-1.413,1.413-1.413c0.778,0,1.413,0.635,1.413,1.413c0,0.778-0.635,1.413-1.413,1.413
		C37.166,38.651,36.532,38.016,36.532,37.238L36.532,37.238z M36.532,37.238"/>
	<path fill="#FFFFFF" d="M109.598,88.984l-2.79-5.58c0.592-1.201,1.099-2.414,1.515-3.622l5.907-1.969V61.648l-5.907-1.969
		c-0.415-1.208-0.924-2.421-1.515-3.622l2.793-5.585L98.172,39.042l-5.585,2.793c-1.201-0.592-2.414-1.1-3.622-1.515l-1.969-5.907
		H70.83l-1.969,5.907c-1.208,0.415-2.421,0.924-3.622,1.515l-5.585-2.793L48.224,50.471l2.793,5.585
		c-0.592,1.201-1.1,2.414-1.515,3.622l-5.907,1.969v16.163l5.907,1.969c0.413,1.2,0.914,2.402,1.5,3.593l-1.817,3.31H40.77v28.254
		h9.889v-4.238h10.717l4.238,4.238h7.648v1.413c0,3.116,2.534,5.651,5.651,5.651c3.116,0,5.651-2.534,5.651-5.651v-1.413h9.89
		c2.336,0,4.238-1.902,4.238-4.238c0-1.089-0.425-2.073-1.102-2.825c0.678-0.752,1.102-1.736,1.102-2.825s-0.425-2.073-1.102-2.825
		c0.539-0.599,0.908-1.346,1.037-2.18L109.598,88.984z M53.853,82.747c-0.777-1.493-1.411-3.01-1.885-4.508l-0.217-0.686
		l-5.33-1.778V63.684l5.33-1.776l0.216-0.688c0.472-1.496,1.106-3.014,1.885-4.507l0.333-0.64l-2.522-5.044l8.549-8.549l5.044,2.522
		l0.64-0.332c1.494-0.779,3.01-1.413,4.507-1.885l0.688-0.216l1.779-5.331h12.091l1.776,5.33l0.688,0.216
		c1.496,0.472,3.014,1.106,4.507,1.885l0.64,0.333l5.044-2.522l8.549,8.549l-2.522,5.044l0.332,0.64
		c0.779,1.494,1.413,3.01,1.885,4.507l0.216,0.688l5.331,1.779v12.091l-5.33,1.776l-0.217,0.686
		c-0.474,1.497-1.108,3.015-1.885,4.508l-0.332,0.64l2.525,5.048l-8.348,8.412c-0.072-0.095-0.148-0.188-0.227-0.275
		c0.678-0.752,1.102-1.736,1.102-2.825c0-2.204-1.697-3.998-3.848-4.199c5.993-4.803,9.498-12.011,9.498-19.817
		c0-14.021-11.408-25.429-25.429-25.429S53.484,55.709,53.484,69.73c0,7.712,3.506,14.966,9.458,19.778H50.858l3.343-6.092
		L53.853,82.747z M95.866,105.048c0,0.779-0.635,1.413-1.413,1.413H83.151c-0.778,0-1.413-0.633-1.413-1.413
		c0-0.779,0.635-1.413,1.413-1.413h11.303C95.232,103.635,95.866,104.268,95.866,105.048L95.866,105.048z M75.502,69.73h6.821
		l2.241-2.241v-6.236c1.558,0,2.825,1.267,2.825,2.825v6.479l-4.823,4.823h-7.306l-4.823-4.823v-6.479
		c0-1.558,1.267-2.825,2.825-2.825v6.236L75.502,69.73z M76.087,78.206h5.651v5.651h-5.651V78.206z M84.563,77.379l5.651-5.651
		v-7.648c0-3.116-2.534-5.651-5.651-5.651h-2.825v7.891l-0.585,0.585h-4.481l-0.585-0.585v-7.891h-2.825
		c-3.116,0-5.651,2.534-5.651,5.651v7.648l5.651,5.651v6.479h-3.41l-0.089,0.089c-4.823-3.112-7.802-8.448-7.802-14.216
		c0-9.348,7.604-16.952,16.952-16.952s16.952,7.604,16.952,16.952c0,5.726-2.861,10.97-7.648,14.127h-3.653V77.379z M98.69,69.73
		c0-10.906-8.871-19.778-19.778-19.778S59.135,58.824,59.135,69.73c0,6.525,3.246,12.601,8.571,16.273l-2.034,2.034
		c-5.867-4.249-9.362-11.05-9.362-18.307c0-12.462,10.141-22.603,22.603-22.603s22.603,10.141,22.603,22.603
		c0,6.981-3.156,13.423-8.544,17.694c-0.161-1.002-0.672-1.878-1.407-2.514C96.067,81.172,98.69,75.668,98.69,69.73L98.69,69.73z
		 M94.454,92.333c0.778,0,1.413,0.633,1.413,1.413s-0.635,1.413-1.413,1.413H83.151c-0.778,0-1.413-0.633-1.413-1.413
		s0.635-1.413,1.413-1.413H94.454z M83.151,100.81c-0.778,0-1.413-0.633-1.413-1.413c0-0.779,0.635-1.413,1.413-1.413h11.303
		c0.778,0,1.413,0.633,1.413,1.413c0,0.779-0.635,1.413-1.413,1.413H83.151z M47.833,112.111h-4.238V89.508h4.238V112.111z
		 M66.783,112.111l-4.238-4.238H50.659v-15.54h14.712l5.651-5.651h17.78c0.778,0,1.413,0.633,1.413,1.413s-0.635,1.413-1.413,1.413
		H74.09l-6.065,6.065l1.998,1.998l3.239-3.239v17.78H66.783z M78.913,119.175c-1.558,0-2.825-1.267-2.825-2.825V92.333h3.086
		c-0.159,0.444-0.26,0.915-0.26,1.413c0,1.089,0.425,2.073,1.102,2.825c-0.678,0.752-1.102,1.736-1.102,2.825
		c0,1.089,0.425,2.073,1.102,2.825c-0.678,0.752-1.102,1.736-1.102,2.825s0.425,2.073,1.102,2.825
		c-0.678,0.752-1.102,1.736-1.102,2.825c0,1.839,1.185,3.393,2.825,3.978v1.673C81.738,117.907,80.471,119.175,78.913,119.175
		L78.913,119.175z M94.454,112.111H83.151c-0.778,0-1.413-0.633-1.413-1.413s0.635-1.413,1.413-1.413h11.303
		c0.778,0,1.413,0.633,1.413,1.413S95.232,112.111,94.454,112.111L94.454,112.111z M94.454,112.111"/>
	<rect x="36.532" y="45.714" fill="#FFFFFF" width="2.825" height="2.825"/>
	<rect x="36.532" y="52.778" fill="#FFFFFF" width="2.825" height="2.825"/>
	<rect x="36.532" y="59.841" fill="#FFFFFF" width="2.825" height="2.825"/>
	<rect x="115.643" y="92.333" fill="#FFFFFF" width="2.825" height="2.825"/>
	<rect x="115.643" y="99.397" fill="#FFFFFF" width="2.825" height="2.825"/>
	<rect x="115.643" y="106.46" fill="#FFFFFF" width="2.825" height="2.825"/>
</g>
</svg>
