<?xml version="1.0" encoding="utf-8"?>
<!-- Generator: Adobe Illustrator 17.0.0, SVG Export Plug-In . SVG Version: 6.00 Build 0)  -->
<!DOCTYPE svg PUBLIC "-//W3C//DTD SVG 1.1//EN" "http://www.w3.org/Graphics/SVG/1.1/DTD/svg11.dtd">
<svg version="1.1" id="Layer_1" xmlns="http://www.w3.org/2000/svg" xmlns:xlink="http://www.w3.org/1999/xlink" x="0px" y="0px"
	 width="155px" height="155px" viewBox="0 0 155 155" enable-background="new 0 0 155 155" xml:space="preserve">
<linearGradient id="SVGID_1_" gradientUnits="userSpaceOnUse" x1="200.82" y1="354.26" x2="200.82" y2="509.26" gradientTransform="matrix(1 0 0 1 -123.32 -354.26)">
	<stop  offset="0" style="stop-color:#1269EA"/>
	<stop  offset="1" style="stop-color:#144EA5"/>
</linearGradient>
<circle fill="url(#SVGID_1_)" cx="77.5" cy="77.5" r="77.5"/>
<g>
	<path fill="#FFFFFF" d="M111.984,53.67c-6.448,1.649-13.034-2.256-14.683-8.704c-1.649-6.448,2.255-13.035,8.703-14.684
		c6.448-1.649,13.035,2.256,14.684,8.703C122.336,45.434,118.431,52.021,111.984,53.67z M106.746,33.189
		c-4.845,1.239-7.778,6.189-6.539,11.034c1.239,4.845,6.188,7.779,11.033,6.54c4.845-1.239,7.779-6.189,6.54-11.034
		C116.542,34.884,111.591,31.95,106.746,33.189z"/>
</g>
<g>
	<path fill="#FFFFFF" d="M121.463,100.294c-4.896,0-8.881-3.984-8.881-8.881c0-4.897,3.984-8.882,8.881-8.882
		c4.897,0,8.882,3.984,8.882,8.882C130.345,96.31,126.36,100.294,121.463,100.294z M121.463,85.531
		c-3.243,0-5.881,2.639-5.881,5.882s2.638,5.881,5.881,5.881s5.882-2.638,5.882-5.881S124.706,85.531,121.463,85.531z"/>
</g>
<g>
	<path fill="#FFFFFF" d="M30.044,83.996c-4.897,0-8.882-3.985-8.882-8.882s3.984-8.881,8.882-8.881c4.897,0,8.881,3.984,8.881,8.881
		S34.941,83.996,30.044,83.996z M30.044,69.233c-3.243,0-5.882,2.638-5.882,5.881s2.639,5.881,5.882,5.881s5.881-2.638,5.881-5.881
		S33.287,69.233,30.044,69.233z"/>
</g>
<g>
	
		<rect x="90.032" y="54.103" transform="matrix(-0.6305 0.7762 -0.7762 -0.6305 202.1832 14.9609)" fill="#FFFFFF" width="14.997" height="3"/>
</g>
<g>
	
		<rect x="108.817" y="83.669" transform="matrix(-0.1889 0.982 -0.982 -0.1889 217.561 -3.7184)" fill="#FFFFFF" width="2.999" height="8.642"/>
</g>
<g>
	<path fill="#FFFFFF" d="M67.149,110.384c-3.793,0-6.878-3.085-6.878-6.878s3.085-6.879,6.878-6.879
		c3.792,0,6.878,3.086,6.878,6.879S70.941,110.384,67.149,110.384z M67.149,99.627c-2.139,0-3.878,1.74-3.878,3.879
		s1.74,3.878,3.878,3.878c2.138,0,3.878-1.739,3.878-3.878S69.287,99.627,67.149,99.627z"/>
</g>
<g>
	
		<rect x="66.83" y="93.882" transform="matrix(-0.3235 0.9462 -0.9462 -0.3235 183.0269 59.9116)" fill="#FFFFFF" width="6.535" height="3"/>
</g>
<g>
	<polygon fill="#FFFFFF" points="36.716,77.916 36.909,74.92 45.63,76.267 45.437,79.263 	"/>
</g>
<g>
	<g>
		<path fill="#FFFFFF" d="M88.145,101.16l-13.953-7.769H50.825c-3.921,0-7.11-3.189-7.11-7.11V67.16
			c-0.015-1.878,0.714-3.662,2.052-5.011c1.343-1.354,3.13-2.099,5.033-2.099h50.091c3.92,0,7.11,3.189,7.11,7.11v19.121
			c0,3.92-3.189,7.11-7.11,7.11H84.971L88.145,101.16z M50.8,62.798c-1.164,0-2.259,0.457-3.082,1.287
			c-0.818,0.825-1.264,1.913-1.255,3.065v19.131c0,2.405,1.957,4.361,4.362,4.361h24.082l7.733,4.307l-1.758-4.307h20.009
			c2.405,0,4.361-1.957,4.361-4.361V67.16c0-2.405-1.957-4.362-4.361-4.362H50.8z"/>
	</g>
	<g>
		<path fill="#FFFFFF" d="M52.655,68.186c0.298-0.404,0.745-0.617,1.341-0.66c1.086-0.085,1.703,0.426,1.852,1.533
			c0.66,4.449,1.384,8.217,2.15,11.304l4.662-8.877c0.426-0.809,0.958-1.235,1.597-1.277c0.937-0.064,1.511,0.532,1.746,1.788
			c0.532,2.831,1.213,5.237,2.022,7.281c0.553-5.407,1.49-9.303,2.81-11.709c0.319-0.596,0.788-0.894,1.405-0.937
			c0.49-0.043,0.937,0.106,1.341,0.426s0.617,0.724,0.66,1.213c0.021,0.383-0.043,0.703-0.213,1.022
			c-0.83,1.533-1.511,4.109-2.065,7.685c-0.532,3.47-0.724,6.174-0.596,8.111c0.043,0.532-0.043,1.001-0.255,1.405
			c-0.255,0.468-0.639,0.724-1.128,0.766c-0.553,0.043-1.128-0.213-1.682-0.788c-1.98-2.022-3.555-5.045-4.705-9.069
			c-1.384,2.725-2.406,4.769-3.066,6.131c-1.256,2.406-2.32,3.64-3.215,3.704c-0.575,0.043-1.064-0.447-1.49-1.469
			c-1.086-2.789-2.257-8.175-3.513-16.158C52.229,69.059,52.357,68.569,52.655,68.186z M98.403,71.528
			c-0.766-1.341-1.895-2.15-3.406-2.469c-0.404-0.085-0.788-0.128-1.15-0.128c-2.044,0-3.704,1.064-5.003,3.193
			c-1.107,1.81-1.66,3.811-1.66,6.003c0,1.639,0.341,3.044,1.022,4.215c0.766,1.341,1.895,2.15,3.406,2.469
			c0.404,0.085,0.788,0.128,1.15,0.128c2.065,0,3.725-1.064,5.003-3.193c1.107-1.831,1.66-3.832,1.66-6.025
			C99.446,74.061,99.085,72.678,98.403,71.528z M95.721,77.425c-0.298,1.405-0.83,2.448-1.618,3.151
			c-0.617,0.553-1.192,0.788-1.724,0.681c-0.511-0.106-0.937-0.553-1.256-1.384c-0.255-0.66-0.383-1.32-0.383-1.937
			c0-0.532,0.043-1.064,0.149-1.554c0.192-0.873,0.553-1.724,1.128-2.533c0.703-1.043,1.448-1.469,2.214-1.32
			c0.511,0.106,0.937,0.553,1.256,1.384c0.255,0.66,0.383,1.32,0.383,1.937C95.87,76.403,95.827,76.935,95.721,77.425z
			 M85.077,71.528c-0.766-1.341-1.916-2.15-3.406-2.469c-0.404-0.085-0.788-0.128-1.15-0.128c-2.044,0-3.704,1.064-5.003,3.193
			c-1.107,1.81-1.66,3.811-1.66,6.003c0,1.639,0.341,3.044,1.022,4.215c0.766,1.341,1.895,2.15,3.406,2.469
			c0.404,0.085,0.788,0.128,1.15,0.128c2.065,0,3.725-1.064,5.003-3.193c1.107-1.831,1.66-3.832,1.66-6.025
			C86.099,74.061,85.758,72.678,85.077,71.528z M82.373,77.425c-0.298,1.405-0.83,2.448-1.618,3.151
			c-0.617,0.553-1.192,0.788-1.724,0.681c-0.511-0.106-0.937-0.553-1.256-1.384c-0.255-0.66-0.383-1.32-0.383-1.937
			c0-0.532,0.043-1.064,0.149-1.554c0.192-0.873,0.553-1.724,1.128-2.533c0.703-1.043,1.448-1.469,2.214-1.32
			c0.511,0.106,0.937,0.553,1.256,1.384c0.255,0.66,0.383,1.32,0.383,1.937C82.544,76.403,82.48,76.935,82.373,77.425L82.373,77.425
			L82.373,77.425z"/>
	</g>
</g>
</svg>
