<?xml version="1.0" encoding="utf-8"?>
<!-- Generator: Adobe Illustrator 21.0.2, SVG Export Plug-In . SVG Version: 6.00 Build 0)  -->
<svg version="1.1" id="Layer_1" xmlns="http://www.w3.org/2000/svg" xmlns:xlink="http://www.w3.org/1999/xlink" x="0px" y="0px"
	 width="155px" height="155px" viewBox="0 0 155 155" enable-background="new 0 0 155 155" xml:space="preserve">
<linearGradient id="SVGID_1_" gradientUnits="userSpaceOnUse" x1="77.5" y1="156" x2="77.5" y2="1" gradientTransform="matrix(1 0 0 -1 0 156)">
	<stop  offset="0" style="stop-color:#1269EA"/>
	<stop  offset="1" style="stop-color:#144EA5"/>
</linearGradient>
<circle fill="url(#SVGID_1_)" cx="77.5" cy="77.5" r="77.5"/>
<g>
	<path fill="#FFFFFF" d="M122.254,80.61c0-9.656-6.811-17.742-15.88-19.732V41.631c0-3.98-3.238-7.218-7.218-7.218H61.62
		c-3.98,0-7.218,3.238-7.218,7.218v15.88h-8.346l-0.87,3.488l-3.081-1.85l-7.72,7.716l1.849,3.084l-3.486,0.87v10.918l3.488,0.87
		l-1.851,3.084l7.719,7.717l3.081-1.849l0.871,3.486h8.346v21.655c0,3.98,3.238,7.218,7.218,7.218h37.535
		c3.98,0,7.218-3.238,7.218-7.218v-16.36C115.442,98.352,122.254,90.266,122.254,80.61L122.254,80.61z M119.366,80.61
		c0,2.814-0.689,5.465-1.883,7.816c-0.802-2.205-2.645-3.938-5.028-4.535l-6.082-1.522v-0.345c1.799-1.355,2.887-3.488,2.887-5.744
		v-2.887c0-2.017-0.853-3.958-2.341-5.324c-1.487-1.361-3.503-2.045-5.518-1.868c-3.688,0.319-6.577,3.61-6.577,7.488v2.588
		c0,2.257,1.088,4.388,2.887,5.745v0.345l-6.082,1.522c-2.383,0.596-4.226,2.33-5.028,4.534c-1.195-2.35-1.883-5-1.883-7.814
		c0-9.553,7.771-17.324,17.324-17.324S119.366,71.057,119.366,80.61L119.366,80.61z M97.711,60.878
		c-0.993,0.218-1.955,0.518-2.887,0.876v-4.243H65.951v20.211h16.112c-0.137,0.946-0.231,1.904-0.231,2.887
		c0,9.656,6.811,17.742,15.88,19.732v3.367H63.063V54.624h34.648V60.878z M82.683,74.835H68.838V60.399h23.099v2.734
		C87.528,65.693,84.169,69.858,82.683,74.835L82.683,74.835z M61.62,37.3h37.535c2.388,0,4.331,1.943,4.331,4.331v4.331H57.289
		v-4.331C57.289,39.243,59.231,37.3,61.62,37.3L61.62,37.3z M54.401,82.88c-0.911,0.401-1.894,0.617-2.887,0.617
		c-3.98,0-7.218-3.238-7.218-7.218s3.238-7.218,7.218-7.218c0.993,0,1.977,0.216,2.887,0.617V82.88z M48.311,92.159l-0.703-2.814
		l-0.293-0.772l-1.649-0.67l-3.116,1.871l-4.53-4.532l1.871-3.117l-0.722-1.762l-3.536-0.883v-6.406l3.531-0.883l0.726-1.762
		l-1.871-3.117l4.53-4.532l3.116,1.871l1.762-0.716l0.884-3.54h6.09v6.214c-0.937-0.281-1.907-0.44-2.887-0.44
		c-5.573,0-10.106,4.535-10.106,10.106s4.533,10.106,10.106,10.106c0.98,0,1.95-0.159,2.887-0.44v6.214H48.311z M99.155,121.032
		H61.62c-2.388,0-4.331-1.943-4.331-4.331v-4.331h46.197v4.331C103.486,119.09,101.543,121.032,99.155,121.032L99.155,121.032z
		 M103.486,109.483H57.289V48.849h46.197v11.623c-0.479-0.035-0.956-0.073-1.444-0.073s-0.964,0.039-1.444,0.073v-8.735H60.176
		v54.859h40.423v-5.848c0.479,0.035,0.956,0.073,1.444,0.073s0.964-0.038,1.444-0.073V109.483z M102.042,97.934
		c-5.176,0-9.815-2.294-12.993-5.903v-1.137c0-1.991,1.35-3.719,3.28-4.202l8.269-2.066v-4.203l-0.717-0.417
		c-1.359-0.79-2.17-2.184-2.17-3.726V73.69c0-2.395,1.731-4.42,3.94-4.613c1.239-0.1,2.412,0.29,3.317,1.121
		c0.893,0.819,1.405,1.982,1.405,3.194v2.887c0,1.541-0.811,2.935-2.17,3.726l-0.717,0.417v4.203l8.269,2.066
		c1.931,0.483,3.28,2.212,3.28,4.202v1.137C111.857,95.64,107.218,97.934,102.042,97.934L102.042,97.934z M102.042,97.934"/>
	<rect x="86.162" y="40.187" fill="#FFFFFF" width="2.887" height="2.887"/>
	<rect x="71.725" y="40.187" fill="#FFFFFF" width="11.549" height="2.887"/>
	<rect x="74.613" y="115.258" fill="#FFFFFF" width="11.549" height="2.887"/>
	<rect x="94.824" y="115.258" fill="#FFFFFF" width="2.887" height="2.887"/>
	<rect x="63.063" y="115.258" fill="#FFFFFF" width="2.887" height="2.887"/>
	<rect x="65.951" y="80.61" fill="#FFFFFF" width="12.993" height="2.887"/>
	<rect x="65.951" y="86.385" fill="#FFFFFF" width="12.993" height="2.887"/>
	<rect x="65.951" y="92.159" fill="#FFFFFF" width="12.993" height="2.887"/>
	<rect x="65.951" y="97.934" fill="#FFFFFF" width="12.993" height="2.887"/>
	<path fill="#FFFFFF" d="M113.592,60.399c2.388,0,4.331-1.943,4.331-4.331c0-1.88-1.211-3.467-2.887-4.065V40.187h-2.887v11.815
		c-1.676,0.598-2.887,2.185-2.887,4.065C109.261,58.456,111.203,60.399,113.592,60.399L113.592,60.399z M113.592,54.624
		c0.795,0,1.444,0.647,1.444,1.444s-0.648,1.444-1.444,1.444c-0.795,0-1.444-0.647-1.444-1.444S112.796,54.624,113.592,54.624
		L113.592,54.624z M113.592,54.624"/>
	<rect x="112.148" y="34.413" fill="#FFFFFF" width="2.887" height="2.887"/>
	<path fill="#FFFFFF" d="M47.183,97.934c-2.388,0-4.331,1.943-4.331,4.331c0,1.88,1.211,3.467,2.887,4.065v11.815h2.887V106.33
		c1.676-0.598,2.887-2.185,2.887-4.065C51.514,99.877,49.571,97.934,47.183,97.934L47.183,97.934z M47.183,103.708
		c-0.795,0-1.444-0.647-1.444-1.444s0.648-1.444,1.444-1.444s1.444,0.647,1.444,1.444S47.978,103.708,47.183,103.708L47.183,103.708
		z M47.183,103.708"/>
	<rect x="45.739" y="121.032" fill="#FFFFFF" width="2.887" height="2.887"/>
</g>
</svg>
