<?xml version="1.0" encoding="utf-8"?>
<!-- Generator: Adobe Illustrator 17.0.0, SVG Export Plug-In . SVG Version: 6.00 Build 0)  -->
<!DOCTYPE svg PUBLIC "-//W3C//DTD SVG 1.1//EN" "http://www.w3.org/Graphics/SVG/1.1/DTD/svg11.dtd">
<svg version="1.1" id="Layer_1" xmlns="http://www.w3.org/2000/svg" xmlns:xlink="http://www.w3.org/1999/xlink" x="0px" y="0px"
	 width="245px" height="83.333px" viewBox="0 0 245 83.333" enable-background="new 0 0 245 83.333" xml:space="preserve">
<g id="mdb-atlas-competitive-hires-comp">
	<g id="D---180426-atlas-competitive-dynamo-2" transform="translate(-1145.000000, -136.000000)">
		<g id="Hero" transform="translate(153.000000, -385.000000)">
			<g id="Grid" transform="translate(547.122366, 0.736576)">
				<g id="logo-invision" transform="translate(445.514531, 520.369318)">
					<path id="Fill-1" fill="#EF3B68" d="M86.457,10.83H37.402c-2.997,0-5.424,2.517-5.424,5.574v50.314
						c0,3.057,2.457,5.574,5.424,5.574h49.055c2.997,0,5.424-2.517,5.424-5.574V16.404C91.881,13.347,89.424,10.83,86.457,10.83z"/>
					<path id="Fill-3" fill="#EF3B68" d="M116.334,58.867h5.784V32.825h-5.784V58.867z M137.491,43.464
						c-2.967-0.959-5.694-1.798-5.694-3.656v-0.09c0-1.528,1.289-2.607,3.566-2.607c1.079,0,2.307,0.27,3.596,0.719c0,0,0,0,0.06,0
						c0.09,0.06,0.21,0.09,0.36,0.15c0.929,0.3,3.356,0.719,5.484-2.637c-2.667-1.828-6.113-2.967-9.29-2.967
						c-5.034,0-8.99,2.997-8.99,7.941v0.09c0,5.004,4.135,6.563,7.911,7.642c2.967,0.929,5.634,1.618,5.634,3.656v0.09
						c0,1.738-1.438,2.817-3.896,2.817c-1.618,0-3.446-0.45-5.274-1.319c-0.539-0.21-3.206-1.169-5.544,2.188
						c3.147,2.547,7.072,3.866,10.668,3.866c5.244,0,9.38-2.697,9.38-8.211v-0.06C145.342,46.37,141.177,44.662,137.491,43.464z
						 M100.602,51.944l-6.772-19.179h-6.233l10.368,26.251h5.184l10.309-26.191h-6.083L100.602,51.944z M172.192,32.256
						c-7.761,0-13.485,6.173-13.485,13.665c0,7.432,5.694,13.515,13.395,13.515c7.791,0,13.545-6.173,13.545-13.605
						C185.617,38.339,179.894,32.256,172.192,32.256z M172.192,54.282c-4.495,0-7.701-3.836-7.701-8.451
						c0-4.585,2.967-8.361,7.612-8.361c4.555,0,7.761,3.836,7.761,8.451C179.804,50.506,176.837,54.282,172.192,54.282z
						 M202.758,32.256c-3.896,0-6.263,2.128-7.911,4.585v-4.016h-5.784v26.041h5.784V44.153c0-4.016,2.307-6.473,5.694-6.473
						c3.446,0,5.394,2.307,5.394,6.383v14.774h5.814V42.325C211.748,36.242,208.452,32.256,202.758,32.256z M149.148,58.867h5.784
						V32.825h-5.784V58.867z"/>
					<path id="Fill-4" fill="#FFFFFF" d="M52.655,29.409c1.948,0,3.566-1.558,3.566-3.566c0-2.038-1.618-3.566-3.566-3.566
						s-3.566,1.558-3.566,3.566S50.707,29.409,52.655,29.409z"/>
					<path id="Fill-5" fill="#FFFFFF" d="M44.924,50.026c-0.21,0.929-0.36,1.888-0.36,2.667c0,3.176,1.738,5.274,5.484,5.274
						c3.087,0,5.574-1.798,7.372-4.675l-1.109,4.345h6.143l3.506-13.755c0.899-3.446,2.607-5.304,5.124-5.304
						c2.038,0,3.296,1.229,3.296,3.266c0,0.599-0.06,1.229-0.24,1.948l-1.798,6.323c-0.24,0.929-0.39,1.798-0.39,2.667
						c0,3.027,1.798,5.214,5.574,5.214c3.236,0,5.844-2.038,7.222-6.922l-2.397-0.929c-1.199,3.266-2.247,3.836-3.087,3.836
						c-0.809,0-1.259-0.539-1.259-1.618c0-0.479,0.09-1.019,0.24-1.648l1.858-6.143c0.45-1.468,0.599-2.727,0.599-3.896
						c0-4.615-2.847-7.012-6.293-7.012c-3.236,0-6.533,2.817-8.181,5.844l1.199-5.394h-9.38l-1.349,4.735h4.375l-2.697,10.578
						c-2.158,4.615-6.023,4.675-6.473,4.585c-0.809-0.21-1.289-0.479-1.289-1.498c0-0.599,0.09-1.408,0.39-2.427l4.075-15.912
						H44.714l-1.349,4.735h4.345L44.924,50.026z"/>
				</g>
			</g>
		</g>
	</g>
</g>
</svg>
