<?xml version="1.0" encoding="utf-8"?>
<!-- Generator: Adobe Illustrator 17.0.0, SVG Export Plug-In . SVG Version: 6.00 Build 0)  -->
<!DOCTYPE svg PUBLIC "-//W3C//DTD SVG 1.1//EN" "http://www.w3.org/Graphics/SVG/1.1/DTD/svg11.dtd">
<svg version="1.1" id="Layer_1" xmlns="http://www.w3.org/2000/svg" xmlns:xlink="http://www.w3.org/1999/xlink" x="0px" y="0px"
	 width="245px" height="83.333px" viewBox="0 0 245 83.333" enable-background="new 0 0 245 83.333" xml:space="preserve">
<g>
	<g>
		<path id="path0_fill" fill="#48BA7F" d="M48.675,76.861c6.067,0,10.991-4.924,10.991-10.991V54.878H48.675
			c-6.067,0-10.991,4.924-10.991,10.991S42.608,76.861,48.675,76.861z"/>
		<path id="path1_fill" fill="#8162AA" d="M37.684,43.887c0-6.067,4.924-10.991,10.991-10.991h10.991v21.983H48.675
			C42.608,54.878,37.684,49.954,37.684,43.887z"/>
		<path id="path1_fill_1_" fill="#F05123" d="M37.684,21.904c0-6.067,4.924-10.991,10.991-10.991h10.991v21.983H48.675
			C42.608,32.895,37.684,27.971,37.684,21.904z"/>
		<path id="path2_fill" fill="#F37264" d="M59.666,10.913h10.991c6.067,0,10.991,4.924,10.991,10.991s-4.924,10.991-10.991,10.991
			H59.666V10.913z"/>
		<path id="path3_fill" fill="#47B8E9" d="M81.649,43.887c0,6.067-4.924,10.991-10.991,10.991c-6.067,0-10.991-4.924-10.991-10.991
			s4.924-10.991,10.991-10.991C76.725,32.895,81.649,37.819,81.649,43.887z"/>
	</g>
	<g>
		<path fill="#010101" d="M104.635,32.411v8.535h12.276v3.008h-12.276v9.899h-3.498V29.368h17.279v3.043H104.635z"/>
		<path fill="#010101" d="M122.56,31.116c-0.432-0.42-0.648-0.932-0.648-1.539c0-0.606,0.215-1.124,0.648-1.557
			c0.431-0.431,0.974-0.647,1.626-0.647c0.653,0,1.195,0.204,1.626,0.612s0.648,0.915,0.648,1.521c0,0.629-0.216,1.16-0.648,1.591
			c-0.431,0.432-0.974,0.648-1.626,0.648C123.534,31.746,122.991,31.536,122.56,31.116z M122.508,35.314h3.358v18.538h-3.358V35.314
			z"/>
		<path fill="#010101" d="M150,35.314v16.02c0,3.241-0.804,5.637-2.414,7.187c-1.609,1.551-4.011,2.327-7.205,2.327
			c-1.749,0-3.417-0.24-5.002-0.717c-1.586-0.478-2.869-1.16-3.848-2.046l1.609-2.589c0.862,0.746,1.929,1.335,3.2,1.767
			c1.271,0.431,2.582,0.647,3.935,0.647c2.168,0,3.771-0.514,4.809-1.539c1.037-1.026,1.557-2.588,1.557-4.687v-1.469
			c-0.793,0.957-1.766,1.674-2.921,2.151c-1.154,0.478-2.408,0.717-3.76,0.717c-1.773,0-3.375-0.38-4.81-1.137
			c-1.433-0.757-2.559-1.819-3.375-3.183c-0.817-1.365-1.225-2.921-1.225-4.67c0-1.748,0.408-3.305,1.225-4.669
			c0.816-1.365,1.941-2.42,3.375-3.166c1.434-0.746,3.037-1.119,4.81-1.119c1.399,0,2.699,0.257,3.9,0.77
			c1.201,0.513,2.186,1.271,2.956,2.273v-2.868H150z M143.617,49.375c0.967-0.513,1.725-1.23,2.273-2.151
			c0.548-0.922,0.823-1.965,0.823-3.131c0-1.795-0.595-3.246-1.785-4.355c-1.189-1.107-2.716-1.661-4.582-1.661
			c-1.888,0-3.427,0.555-4.617,1.661c-1.189,1.108-1.784,2.559-1.784,4.355c0,1.166,0.274,2.209,0.822,3.131
			c0.548,0.921,1.306,1.638,2.274,2.151c0.968,0.514,2.069,0.77,3.305,0.77C141.558,50.144,142.648,49.888,143.617,49.375z"/>
		<path fill="#010101" d="M185.134,37.168c1.364,1.352,2.046,3.358,2.046,6.016v10.668h-3.358V43.569
			c0-1.795-0.414-3.148-1.242-4.057c-0.828-0.91-2.011-1.364-3.55-1.364c-1.702,0-3.055,0.53-4.057,1.591
			c-1.003,1.061-1.504,2.583-1.504,4.565v9.548h-3.358V43.569c0-1.795-0.415-3.148-1.242-4.057c-0.829-0.91-2.012-1.364-3.551-1.364
			c-1.702,0-3.055,0.53-4.057,1.591c-1.003,1.061-1.504,2.583-1.504,4.565v9.548H156.4V35.314h3.218v2.763
			c0.676-0.956,1.562-1.684,2.658-2.186c1.096-0.501,2.343-0.752,3.742-0.752c1.446,0,2.729,0.292,3.848,0.875
			c1.119,0.583,1.981,1.434,2.588,2.554c0.7-1.072,1.673-1.912,2.921-2.518c1.247-0.607,2.652-0.91,4.215-0.91
			C181.922,35.139,183.77,35.816,185.134,37.168z"/>
		<path fill="#010101" d="M206.014,37.028c1.365,1.259,2.047,3.136,2.047,5.631v11.193h-3.183v-2.448
			c-0.56,0.863-1.359,1.521-2.396,1.976c-1.038,0.455-2.268,0.682-3.691,0.682c-2.075,0-3.737-0.501-4.984-1.504
			c-1.247-1.002-1.872-2.32-1.872-3.952s0.595-2.944,1.785-3.935c1.189-0.991,3.078-1.486,5.666-1.486h5.317v-0.665
			c0-1.445-0.42-2.553-1.259-3.323c-0.839-0.769-2.076-1.154-3.708-1.154c-1.096,0-2.168,0.181-3.217,0.543
			c-1.05,0.361-1.936,0.845-2.658,1.451l-1.399-2.518c0.956-0.769,2.099-1.358,3.427-1.766c1.33-0.408,2.74-0.612,4.233-0.612
			C202.686,35.139,204.651,35.769,206.014,37.028z M202.674,50.616c0.932-0.571,1.609-1.382,2.029-2.43v-2.589h-5.177
			c-2.845,0-4.267,0.957-4.267,2.869c0,0.932,0.361,1.667,1.084,2.203c0.722,0.536,1.725,0.804,3.008,0.804
			S201.742,51.188,202.674,50.616z"/>
	</g>
</g>
</svg>
