<?xml version="1.0" encoding="utf-8"?>
<!-- Generator: Adobe Illustrator 17.0.0, SVG Export Plug-In . SVG Version: 6.00 Build 0)  -->
<!DOCTYPE svg PUBLIC "-//W3C//DTD SVG 1.1//EN" "http://www.w3.org/Graphics/SVG/1.1/DTD/svg11.dtd">
<svg version="1.1" id="Layer_1" xmlns="http://www.w3.org/2000/svg" xmlns:xlink="http://www.w3.org/1999/xlink" x="0px" y="0px"
	 width="245px" height="83.333px" viewBox="0 0 245 83.333" enable-background="new 0 0 245 83.333" xml:space="preserve">
<g>
	<g>
		<path fill="#2A101F" d="M18.176,13.374h61.182v59.514H18.176V13.374z"/>
		<path fill="#DB4C9B" d="M15.395,10.593v65.076h66.744V10.593H15.395z M18.176,13.374h61.182v59.514H18.176V13.374z"/>
		<path fill="#DB4C9B" d="M63.868,37.93c-0.417-0.195-0.946-0.278-1.613-0.278c-3.504,0-5.84,2.698-5.84,7.175
			c0,5.117,2.392,7.175,5.506,7.175c0.667,0,1.391-0.083,1.919-0.306V37.93H63.868z M51.409,45.049
			c0-6.48,4.172-11.541,11.013-11.541c0.584,0,0.89,0,1.446,0.056v-7.231c0-0.167,0.139-0.278,0.278-0.278h4.477
			c0.222,0,0.278,0.083,0.278,0.222v25.419c0,0.751,0,1.696,0.139,2.725c0,0.195,0,0.222-0.167,0.306
			c-2.336,1.112-4.783,1.613-7.119,1.613C55.72,56.34,51.409,52.614,51.409,45.049L51.409,45.049z M41.926,40.544l7.787,15.101
			c0.139,0.222,0.056,0.445-0.167,0.445h-4.839c-0.306,0-0.445-0.083-0.584-0.362c-1.78-3.671-3.588-7.481-5.451-11.43h-0.056
			c-1.669,3.727-3.504,7.787-5.284,11.458c-0.139,0.222-0.278,0.306-0.501,0.306h-4.616c-0.278,0-0.306-0.222-0.167-0.389
			l7.62-14.656l-7.37-14.573c-0.167-0.222,0-0.417,0.195-0.417h4.783c0.278,0,0.417,0.056,0.501,0.306
			c1.752,3.699,3.532,7.342,5.201,11.068h0.056c1.613-3.671,3.393-7.37,5.089-11.013c0.139-0.222,0.222-0.362,0.501-0.362h4.477
			c0.222,0,0.306,0.167,0.167,0.417L41.926,40.544L41.926,40.544z"/>
	</g>
	<g>
		<path fill="#010101" d="M110.985,46.214h-9.914l-2.174,4.811h-1.343l7.863-17.094h1.245l7.863,17.094h-1.343L110.985,46.214z
			 M110.521,45.164l-4.493-9.866l-4.469,9.866H110.521z"/>
		<path fill="#010101" d="M128.445,32.905v18.119h-1.196V48.02c-0.505,0.993-1.213,1.759-2.124,2.296
			c-0.912,0.537-1.946,0.806-3.102,0.806c-1.188,0-2.264-0.276-3.224-0.83c-0.961-0.554-1.714-1.318-2.259-2.296
			c-0.546-0.977-0.818-2.092-0.818-3.346c0-1.253,0.272-2.372,0.818-3.357c0.545-0.984,1.298-1.75,2.259-2.295
			c0.96-0.546,2.035-0.818,3.224-0.818c1.139,0,2.161,0.269,3.064,0.806s1.615,1.286,2.137,2.247v-8.327H128.445z M124.722,49.34
			c0.773-0.456,1.384-1.091,1.831-1.905c0.448-0.813,0.672-1.741,0.672-2.784c0-1.041-0.224-1.969-0.672-2.783
			c-0.447-0.814-1.058-1.449-1.831-1.905c-0.773-0.455-1.648-0.684-2.625-0.684s-1.853,0.229-2.625,0.684
			c-0.773,0.456-1.384,1.091-1.832,1.905c-0.447,0.814-0.671,1.742-0.671,2.783c0,1.043,0.224,1.971,0.671,2.784
			c0.448,0.814,1.059,1.449,1.832,1.905c0.772,0.456,1.648,0.684,2.625,0.684S123.948,49.796,124.722,49.34z"/>
		<path fill="#010101" d="M135.32,50.292c-0.969-0.554-1.73-1.322-2.284-2.308c-0.553-0.985-0.83-2.096-0.83-3.334
			c0-1.236,0.277-2.348,0.83-3.333c0.554-0.984,1.315-1.754,2.284-2.308c0.968-0.553,2.055-0.83,3.26-0.83
			c1.204,0,2.291,0.277,3.26,0.83c0.969,0.554,1.729,1.323,2.283,2.308c0.554,0.985,0.83,2.097,0.83,3.333
			c0,1.238-0.276,2.349-0.83,3.334s-1.314,1.754-2.283,2.308s-2.056,0.83-3.26,0.83C137.375,51.122,136.288,50.845,135.32,50.292z
			 M141.205,49.34c0.773-0.456,1.384-1.091,1.831-1.905c0.448-0.813,0.672-1.741,0.672-2.784c0-1.041-0.224-1.969-0.672-2.783
			c-0.447-0.814-1.058-1.449-1.831-1.905c-0.773-0.455-1.648-0.684-2.625-0.684s-1.853,0.229-2.625,0.684
			c-0.773,0.456-1.384,1.091-1.832,1.905c-0.447,0.814-0.671,1.742-0.671,2.783c0,1.043,0.224,1.971,0.671,2.784
			c0.448,0.814,1.059,1.449,1.832,1.905c0.772,0.456,1.648,0.684,2.625,0.684S140.432,49.796,141.205,49.34z"/>
		<path fill="#010101" d="M158.359,38.998c0.96,0.545,1.713,1.311,2.259,2.295c0.545,0.985,0.818,2.104,0.818,3.357
			c0,1.254-0.273,2.369-0.818,3.346c-0.546,0.978-1.299,1.742-2.259,2.296c-0.961,0.554-2.035,0.83-3.224,0.83
			c-1.14,0-2.169-0.272-3.089-0.818c-0.92-0.545-1.633-1.306-2.137-2.283v3.004h-1.172V32.905h1.221v8.278
			c0.504-0.944,1.213-1.681,2.124-2.21c0.912-0.529,1.93-0.794,3.053-0.794C156.324,38.179,157.398,38.452,158.359,38.998z
			 M157.7,49.34c0.781-0.456,1.396-1.091,1.844-1.905c0.447-0.813,0.671-1.741,0.671-2.784c0-1.041-0.224-1.969-0.671-2.783
			c-0.448-0.814-1.063-1.449-1.844-1.905c-0.781-0.455-1.661-0.684-2.638-0.684s-1.852,0.229-2.625,0.684
			c-0.773,0.456-1.384,1.091-1.831,1.905c-0.448,0.814-0.672,1.742-0.672,2.783c0,1.043,0.224,1.971,0.672,2.784
			c0.447,0.814,1.058,1.449,1.831,1.905s1.648,0.684,2.625,0.684S156.919,49.796,157.7,49.34z"/>
		<path fill="#010101" d="M175.99,44.944h-10.964c0.032,0.993,0.284,1.876,0.757,2.649c0.472,0.773,1.111,1.371,1.917,1.795
			c0.806,0.423,1.713,0.635,2.723,0.635c0.83,0,1.6-0.15,2.308-0.452c0.708-0.301,1.298-0.745,1.771-1.331l0.708,0.807
			c-0.554,0.667-1.25,1.18-2.088,1.538c-0.839,0.358-1.746,0.537-2.723,0.537c-1.27,0-2.401-0.276-3.395-0.83
			s-1.771-1.318-2.332-2.296c-0.562-0.977-0.843-2.092-0.843-3.346c0-1.236,0.265-2.348,0.794-3.333
			c0.529-0.984,1.258-1.754,2.186-2.308c0.928-0.553,1.97-0.83,3.126-0.83c1.155,0,2.193,0.272,3.113,0.818
			c0.92,0.545,1.645,1.306,2.174,2.283c0.528,0.977,0.793,2.084,0.793,3.32L175.99,44.944z M167.516,39.852
			c-0.717,0.399-1.29,0.961-1.722,1.685c-0.432,0.725-0.68,1.543-0.744,2.454h9.768c-0.049-0.911-0.293-1.726-0.732-2.441
			c-0.439-0.717-1.018-1.278-1.734-1.686c-0.716-0.406-1.522-0.61-2.417-0.61C169.039,39.254,168.233,39.454,167.516,39.852z"/>
		<path fill="#010101" d="M197.185,51.024l-5.885-7.912l-5.861,7.912h-1.465l6.569-8.815l-6.105-8.278h1.466l5.445,7.351
			l5.445-7.351h1.393l-6.105,8.254l6.569,8.84H197.185z"/>
		<path fill="#010101" d="M201.557,33.93h6.764c1.774,0,3.35,0.366,4.726,1.099c1.375,0.732,2.445,1.746,3.211,3.04
			c0.766,1.295,1.148,2.764,1.148,4.408s-0.383,3.113-1.148,4.408c-0.766,1.294-1.836,2.308-3.211,3.04
			c-1.376,0.732-2.951,1.099-4.726,1.099h-6.764V33.93z M208.224,49.901c1.579,0,2.971-0.313,4.176-0.94s2.133-1.502,2.784-2.625
			s0.977-2.409,0.977-3.858s-0.325-2.735-0.977-3.858s-1.579-1.998-2.784-2.625s-2.597-0.94-4.176-0.94h-5.421v14.848H208.224z"/>
	</g>
</g>
</svg>
