<?xml version="1.0" encoding="utf-8"?>
<!-- Generator: Adobe Illustrator 17.0.0, SVG Export Plug-In . SVG Version: 6.00 Build 0)  -->
<!DOCTYPE svg PUBLIC "-//W3C//DTD SVG 1.1//EN" "http://www.w3.org/Graphics/SVG/1.1/DTD/svg11.dtd">
<svg version="1.1" id="Layer_1" xmlns="http://www.w3.org/2000/svg" xmlns:xlink="http://www.w3.org/1999/xlink" x="0px" y="0px"
	 width="245px" height="83.333px" viewBox="0 0 245 83.333" enable-background="new 0 0 245 83.333" xml:space="preserve">
<g>
	<g>
		
			<radialGradient id="SVGID_1_" cx="-182.9958" cy="-71.4335" r="0.0187" gradientTransform="matrix(2291.6716 0 0 -2218.7549 419402.0938 -158466.875)" gradientUnits="userSpaceOnUse">
			<stop  offset="0" style="stop-color:#35374E;stop-opacity:0.98"/>
			<stop  offset="1" style="stop-color:#131124"/>
		</radialGradient>
		<path fill="url(#SVGID_1_)" d="M17.186,14.239h56.368V69.07H17.186V14.239z"/>
		<path fill="#37C5EF" d="M17.186,14.239h56.368V69.07H17.186V14.239z M14.623,71.632h61.493V11.677H14.623V71.632z M56.08,36.274
			c-2.024,0-2.716,1.025-2.716,1.87c0,0.922,0.461,1.563,3.177,2.972c4.023,1.947,5.278,3.818,5.278,6.559
			c0,4.099-3.126,6.303-7.354,6.303c-2.229,0-4.151-0.461-5.253-1.102c-0.179-0.077-0.205-0.205-0.205-0.41V48.7
			c0-0.256,0.128-0.333,0.308-0.205c1.614,1.051,3.459,1.512,5.15,1.512c2.024,0,2.87-0.846,2.87-1.999
			c0-0.922-0.589-1.742-3.177-3.075c-3.638-1.742-5.15-3.51-5.15-6.457c0-3.305,2.588-6.047,7.072-6.047
			c2.203,0,3.741,0.333,4.586,0.717c0.205,0.128,0.256,0.333,0.256,0.512v3.51c0,0.205-0.128,0.333-0.384,0.256
			C59.411,36.709,57.745,36.274,56.08,36.274L56.08,36.274z M34.045,39.323c0.589,0.051,1.051,0.051,2.075,0.051
			c2.998,0,5.816-1.05,5.816-5.124c0-3.254-2.024-4.894-5.432-4.894c-1.025,0-1.999,0.051-2.46,0.077V39.323z M29.484,25.718
			c0-0.179,0.359-0.308,0.564-0.308c1.64-0.077,4.074-0.128,6.61-0.128c7.097,0,9.864,3.895,9.864,8.865
			c0,6.508-4.714,9.301-10.505,9.301c-0.974,0-1.307-0.051-1.999-0.051v9.839c0,0.205-0.077,0.307-0.307,0.307h-3.92
			c-0.205,0-0.308-0.077-0.308-0.307L29.484,25.718L29.484,25.718z"/>
	</g>
	<g>
		<path fill="#010101" d="M106.876,32.225h-9.914l-2.174,4.811h-1.343l7.863-17.094h1.245l7.863,17.094h-1.343L106.876,32.225z
			 M106.412,31.176l-4.493-9.866l-4.469,9.866H106.412z"/>
		<path fill="#010101" d="M124.336,18.917v18.119h-1.196v-3.004c-0.505,0.993-1.213,1.759-2.124,2.296
			c-0.912,0.537-1.946,0.806-3.102,0.806c-1.188,0-2.264-0.276-3.224-0.83c-0.961-0.554-1.714-1.318-2.259-2.296
			c-0.546-0.977-0.818-2.092-0.818-3.346c0-1.253,0.272-2.372,0.818-3.357c0.545-0.984,1.298-1.75,2.259-2.295
			c0.96-0.546,2.035-0.818,3.224-0.818c1.139,0,2.161,0.269,3.064,0.806s1.615,1.286,2.137,2.247v-8.327H124.336z M120.612,35.351
			c0.773-0.456,1.384-1.091,1.831-1.905c0.448-0.813,0.672-1.741,0.672-2.784c0-1.041-0.224-1.969-0.672-2.783
			c-0.447-0.814-1.058-1.449-1.831-1.905c-0.773-0.455-1.648-0.684-2.625-0.684s-1.853,0.229-2.625,0.684
			c-0.773,0.456-1.384,1.091-1.832,1.905c-0.447,0.814-0.671,1.742-0.671,2.783c0,1.043,0.224,1.971,0.671,2.784
			c0.448,0.814,1.059,1.449,1.832,1.905c0.772,0.456,1.648,0.684,2.625,0.684S119.839,35.808,120.612,35.351z"/>
		<path fill="#010101" d="M131.211,36.304c-0.969-0.554-1.73-1.322-2.284-2.308c-0.553-0.985-0.83-2.096-0.83-3.334
			c0-1.236,0.277-2.348,0.83-3.333c0.554-0.984,1.315-1.754,2.284-2.308c0.968-0.553,2.055-0.83,3.26-0.83
			c1.204,0,2.291,0.277,3.26,0.83c0.969,0.554,1.729,1.323,2.283,2.308c0.554,0.985,0.83,2.097,0.83,3.333
			c0,1.238-0.276,2.349-0.83,3.334s-1.314,1.754-2.283,2.308s-2.056,0.83-3.26,0.83C133.266,37.134,132.179,36.857,131.211,36.304z
			 M137.096,35.351c0.773-0.456,1.384-1.091,1.831-1.905c0.448-0.813,0.672-1.741,0.672-2.784c0-1.041-0.224-1.969-0.672-2.783
			c-0.447-0.814-1.058-1.449-1.831-1.905c-0.773-0.455-1.648-0.684-2.625-0.684s-1.853,0.229-2.625,0.684
			c-0.773,0.456-1.384,1.091-1.832,1.905c-0.447,0.814-0.671,1.742-0.671,2.783c0,1.043,0.224,1.971,0.671,2.784
			c0.448,0.814,1.059,1.449,1.832,1.905c0.772,0.456,1.648,0.684,2.625,0.684S136.322,35.808,137.096,35.351z"/>
		<path fill="#010101" d="M154.25,25.01c0.96,0.545,1.713,1.311,2.259,2.295c0.545,0.985,0.818,2.104,0.818,3.357
			c0,1.254-0.273,2.369-0.818,3.346c-0.546,0.978-1.299,1.742-2.259,2.296c-0.961,0.554-2.035,0.83-3.224,0.83
			c-1.14,0-2.169-0.272-3.089-0.818c-0.92-0.545-1.633-1.306-2.137-2.283v3.004h-1.172V18.917h1.221v8.278
			c0.504-0.944,1.213-1.681,2.124-2.21c0.912-0.529,1.93-0.794,3.053-0.794C152.215,24.191,153.289,24.464,154.25,25.01z
			 M153.591,35.351c0.781-0.456,1.396-1.091,1.844-1.905c0.447-0.813,0.671-1.741,0.671-2.784c0-1.041-0.224-1.969-0.671-2.783
			c-0.448-0.814-1.063-1.449-1.844-1.905c-0.781-0.455-1.661-0.684-2.638-0.684s-1.852,0.229-2.625,0.684
			c-0.773,0.456-1.384,1.091-1.831,1.905c-0.448,0.814-0.672,1.742-0.672,2.783c0,1.043,0.224,1.971,0.672,2.784
			c0.447,0.814,1.058,1.449,1.831,1.905s1.648,0.684,2.625,0.684S152.809,35.808,153.591,35.351z"/>
		<path fill="#010101" d="M171.881,30.956h-10.964c0.032,0.993,0.284,1.876,0.757,2.649c0.472,0.773,1.111,1.371,1.917,1.795
			c0.806,0.423,1.713,0.635,2.723,0.635c0.83,0,1.6-0.15,2.308-0.452c0.708-0.301,1.298-0.745,1.771-1.331l0.708,0.807
			c-0.554,0.667-1.25,1.18-2.088,1.538c-0.839,0.358-1.746,0.537-2.723,0.537c-1.27,0-2.401-0.276-3.395-0.83
			s-1.771-1.318-2.332-2.296c-0.562-0.977-0.843-2.092-0.843-3.346c0-1.236,0.265-2.348,0.794-3.333
			c0.529-0.984,1.258-1.754,2.186-2.308c0.928-0.553,1.97-0.83,3.126-0.83c1.155,0,2.193,0.272,3.113,0.818
			c0.92,0.545,1.645,1.306,2.174,2.283c0.528,0.977,0.793,2.084,0.793,3.32L171.881,30.956z M163.407,25.864
			c-0.717,0.399-1.29,0.961-1.722,1.685c-0.432,0.725-0.68,1.543-0.744,2.454h9.768c-0.049-0.911-0.293-1.726-0.732-2.441
			c-0.439-0.717-1.018-1.278-1.734-1.686c-0.716-0.406-1.522-0.61-2.417-0.61C164.93,25.266,164.124,25.466,163.407,25.864z"/>
		<path fill="#010101" d="M107.486,48.872c1.222,1.018,1.832,2.43,1.832,4.236c0,1.791-0.61,3.195-1.832,4.213
			c-1.221,1.018-2.905,1.526-5.055,1.526h-4.884v5.592h-1.245V47.346h6.129C104.581,47.346,106.266,47.854,107.486,48.872z
			 M106.607,56.527c0.961-0.797,1.441-1.938,1.441-3.419c0-1.48-0.48-2.625-1.441-3.431s-2.353-1.209-4.176-1.209h-4.884v9.255
			h4.884C104.255,57.724,105.646,57.325,106.607,56.527z"/>
		<path fill="#010101" d="M123.384,52.986c0.928,0.928,1.392,2.264,1.392,4.005v7.448h-1.221v-7.351
			c0-1.433-0.362-2.523-1.087-3.272c-0.725-0.748-1.737-1.123-3.04-1.123c-1.498,0-2.678,0.448-3.541,1.344s-1.294,2.1-1.294,3.613
			v6.789h-1.221V46.32h1.221v8.034c0.439-0.88,1.091-1.559,1.953-2.039c0.863-0.48,1.881-0.721,3.053-0.721
			C121.194,51.595,122.456,52.058,123.384,52.986z"/>
		<path fill="#010101" d="M131.553,63.707c-0.969-0.554-1.73-1.322-2.284-2.308c-0.553-0.985-0.83-2.096-0.83-3.334
			c0-1.236,0.277-2.348,0.83-3.333c0.554-0.984,1.315-1.754,2.284-2.308c0.968-0.553,2.055-0.83,3.26-0.83
			c1.204,0,2.291,0.277,3.26,0.83c0.969,0.554,1.729,1.323,2.283,2.308c0.554,0.985,0.83,2.097,0.83,3.333
			c0,1.238-0.276,2.349-0.83,3.334s-1.314,1.754-2.283,2.308c-0.969,0.554-2.056,0.83-3.26,0.83
			C133.607,64.537,132.52,64.261,131.553,63.707z M137.437,62.755c0.773-0.456,1.384-1.091,1.831-1.905
			c0.448-0.813,0.672-1.741,0.672-2.784c0-1.041-0.224-1.969-0.672-2.783c-0.447-0.814-1.058-1.449-1.831-1.905
			c-0.773-0.455-1.648-0.684-2.625-0.684s-1.853,0.229-2.625,0.684c-0.773,0.456-1.384,1.091-1.832,1.905
			c-0.447,0.814-0.671,1.742-0.671,2.783c0,1.043,0.224,1.971,0.671,2.784c0.448,0.814,1.059,1.449,1.832,1.905
			c0.772,0.456,1.648,0.684,2.625,0.684S136.664,63.211,137.437,62.755z"/>
		<path fill="#010101" d="M151.295,63.634c-0.31,0.293-0.696,0.517-1.16,0.671c-0.464,0.155-0.948,0.232-1.452,0.232
			c-1.107,0-1.963-0.306-2.564-0.916c-0.603-0.61-0.903-1.461-0.903-2.552v-8.327h-2.345v-1.05h2.345v-2.784h1.221v2.784h4.054v1.05
			h-4.054v8.205c0,0.83,0.199,1.462,0.599,1.893c0.398,0.432,0.988,0.647,1.771,0.647c0.797,0,1.456-0.236,1.978-0.708
			L151.295,63.634z"/>
		<path fill="#010101" d="M155.947,63.707c-0.969-0.554-1.73-1.322-2.284-2.308c-0.553-0.985-0.83-2.096-0.83-3.334
			c0-1.236,0.277-2.348,0.83-3.333c0.554-0.984,1.315-1.754,2.284-2.308c0.968-0.553,2.055-0.83,3.26-0.83
			c1.204,0,2.291,0.277,3.26,0.83c0.969,0.554,1.729,1.323,2.283,2.308c0.554,0.985,0.83,2.097,0.83,3.333
			c0,1.238-0.276,2.349-0.83,3.334s-1.314,1.754-2.283,2.308c-0.969,0.554-2.056,0.83-3.26,0.83
			C158.002,64.537,156.915,64.261,155.947,63.707z M161.832,62.755c0.773-0.456,1.384-1.091,1.831-1.905
			c0.448-0.813,0.672-1.741,0.672-2.784c0-1.041-0.224-1.969-0.672-2.783c-0.447-0.814-1.058-1.449-1.831-1.905
			c-0.773-0.455-1.648-0.684-2.625-0.684s-1.853,0.229-2.625,0.684c-0.773,0.456-1.384,1.091-1.832,1.905
			c-0.447,0.814-0.671,1.742-0.671,2.783c0,1.043,0.224,1.971,0.671,2.784c0.448,0.814,1.059,1.449,1.832,1.905
			c0.772,0.456,1.648,0.684,2.625,0.684S161.058,63.211,161.832,62.755z"/>
		<path fill="#010101" d="M169.659,64.073c-0.929-0.31-1.653-0.7-2.174-1.172l0.562-0.978c0.521,0.44,1.192,0.807,2.015,1.1
			s1.681,0.439,2.576,0.439c1.286,0,2.234-0.212,2.846-0.635c0.61-0.424,0.915-1.01,0.915-1.759c0-0.537-0.167-0.96-0.5-1.27
			c-0.334-0.31-0.745-0.537-1.233-0.684s-1.164-0.302-2.027-0.464c-1.009-0.18-1.823-0.375-2.441-0.587
			c-0.619-0.211-1.147-0.553-1.588-1.025c-0.439-0.472-0.659-1.123-0.659-1.953c0-1.01,0.419-1.844,1.258-2.503
			c0.838-0.659,2.03-0.989,3.577-0.989c0.814,0,1.62,0.114,2.418,0.342c0.798,0.229,1.449,0.529,1.953,0.903l-0.562,0.977
			c-0.521-0.374-1.115-0.659-1.782-0.854c-0.668-0.195-1.352-0.293-2.052-0.293c-1.188,0-2.084,0.22-2.686,0.659
			c-0.603,0.439-0.903,1.018-0.903,1.734c0,0.569,0.171,1.013,0.513,1.331c0.342,0.317,0.761,0.554,1.257,0.708
			c0.497,0.154,1.192,0.321,2.088,0.5c0.993,0.18,1.795,0.371,2.406,0.574c0.61,0.204,1.127,0.533,1.55,0.989
			c0.424,0.456,0.636,1.083,0.636,1.88c0,1.059-0.44,1.905-1.319,2.54c-0.879,0.635-2.116,0.952-3.712,0.952
			C171.563,64.537,170.587,64.383,169.659,64.073z"/>
		<path fill="#010101" d="M191.05,52.986c0.928,0.928,1.392,2.264,1.392,4.005v7.448h-1.221v-7.351c0-1.433-0.362-2.523-1.087-3.272
			c-0.725-0.748-1.737-1.123-3.04-1.123c-1.498,0-2.678,0.448-3.541,1.344s-1.294,2.1-1.294,3.613v6.789h-1.221V46.32h1.221v8.034
			c0.439-0.88,1.091-1.559,1.953-2.039c0.863-0.48,1.881-0.721,3.053-0.721C188.86,51.595,190.122,52.058,191.05,52.986z"/>
		<path fill="#010101" d="M199.219,63.707c-0.969-0.554-1.73-1.322-2.284-2.308c-0.553-0.985-0.83-2.096-0.83-3.334
			c0-1.236,0.277-2.348,0.83-3.333c0.554-0.984,1.315-1.754,2.284-2.308c0.968-0.553,2.055-0.83,3.26-0.83
			c1.204,0,2.291,0.277,3.26,0.83c0.969,0.554,1.729,1.323,2.283,2.308c0.554,0.985,0.83,2.097,0.83,3.333
			c0,1.238-0.276,2.349-0.83,3.334s-1.314,1.754-2.283,2.308c-0.969,0.554-2.056,0.83-3.26,0.83
			C201.273,64.537,200.186,64.261,199.219,63.707z M205.103,62.755c0.773-0.456,1.384-1.091,1.831-1.905
			c0.448-0.813,0.672-1.741,0.672-2.784c0-1.041-0.224-1.969-0.672-2.783c-0.447-0.814-1.058-1.449-1.831-1.905
			c-0.773-0.455-1.648-0.684-2.625-0.684s-1.853,0.229-2.625,0.684c-0.773,0.456-1.384,1.091-1.832,1.905
			c-0.447,0.814-0.671,1.742-0.671,2.783c0,1.043,0.224,1.971,0.671,2.784c0.448,0.814,1.059,1.449,1.832,1.905
			c0.772,0.456,1.648,0.684,2.625,0.684S204.33,63.211,205.103,62.755z"/>
		<path fill="#010101" d="M222.258,52.425c0.96,0.554,1.713,1.318,2.259,2.296c0.545,0.977,0.818,2.092,0.818,3.345
			c0,1.254-0.273,2.373-0.818,3.358c-0.546,0.985-1.299,1.75-2.259,2.295c-0.961,0.546-2.035,0.818-3.224,0.818
			c-1.123,0-2.141-0.265-3.053-0.794c-0.911-0.528-1.62-1.266-2.124-2.21v7.644h-1.221V51.692h1.172v3.004
			c0.504-0.978,1.217-1.738,2.137-2.283c0.92-0.546,1.949-0.818,3.089-0.818C220.223,51.595,221.297,51.872,222.258,52.425z
			 M221.599,62.755c0.781-0.456,1.396-1.091,1.844-1.905c0.447-0.813,0.671-1.741,0.671-2.784c0-1.041-0.224-1.969-0.671-2.783
			c-0.448-0.814-1.063-1.449-1.844-1.905c-0.781-0.455-1.661-0.684-2.638-0.684s-1.852,0.229-2.625,0.684
			c-0.773,0.456-1.384,1.091-1.831,1.905c-0.448,0.814-0.672,1.742-0.672,2.783c0,1.043,0.224,1.971,0.672,2.784
			c0.447,0.814,1.058,1.449,1.831,1.905s1.648,0.684,2.625,0.684S220.817,63.211,221.599,62.755z"/>
	</g>
</g>
</svg>
