<?xml version="1.0" encoding="utf-8"?>
<!-- Generator: Adobe Illustrator 21.0.2, SVG Export Plug-In . SVG Version: 6.00 Build 0)  -->
<svg version="1.1" id="Layer_1" xmlns="http://www.w3.org/2000/svg" xmlns:xlink="http://www.w3.org/1999/xlink" x="0px" y="0px"
	 width="35px" height="35px" viewBox="44 37.5 35 35" enable-background="new 44 37.5 35 35" xml:space="preserve">
<g>
	<g>
		<path fill="#6E8999" d="M72.336,55.548h-4.227v-2.263c0-0.045,0.014-0.091,0.013-0.137c2.148-0.224,3.381-1.638,3.381-3.957
			v-0.536c0-0.329-0.267-0.595-0.595-0.595c-0.329,0-0.595,0.267-0.595,0.595v0.536c0,1.715-0.759,2.627-2.317,2.776
			c-0.271-1.207-0.932-2.25-2.033-2.487c-0.167-1.275-0.956-2.353-2.059-2.913c0.461-0.469,0.753-1.111,0.753-1.819V44.22
			c0-0.329-0.267-0.595-0.595-0.595c-0.329,0-0.595,0.267-0.595,0.595v0.528c0,0.776-0.646,1.392-1.422,1.392h-1.027
			c-0.776,0-1.422-0.616-1.422-1.392V44.22c0-0.329-0.267-0.595-0.595-0.595c-0.329,0-0.595,0.267-0.595,0.595v0.528
			c0,0.708,0.292,1.35,0.753,1.819c-1.103,0.56-1.896,1.638-2.063,2.913c-1.103,0.238-1.762,1.283-2.033,2.492
			c-1.597-0.132-2.373-1.045-2.373-2.781v-0.536c0-0.329-0.267-0.595-0.595-0.595c-0.329,0-0.595,0.267-0.595,0.595v0.536
			c0,2.341,1.225,3.759,3.411,3.963c-0.001,0.043-0.017,0.087-0.017,0.131v2.263h-4.227c-0.329,0-0.595,0.267-0.595,0.595
			c0,0.329,0.267,0.595,0.595,0.595h4.227v1.027c0,0.475,0.066,0.938,0.161,1.384c-2.275,0.154-3.555,1.583-3.555,3.975v0.536
			c0,0.329,0.267,0.595,0.595,0.595c0.329,0,0.595-0.267,0.595-0.595v-0.536c0-1.866,0.9-2.782,2.749-2.798
			c1.003,2.376,3.356,4.048,6.093,4.048c2.736,0,5.089-1.672,6.092-4.047c1.81,0.035,2.69,0.951,2.69,2.797v0.536
			c0,0.329,0.267,0.595,0.595,0.595c0.329,0,0.595-0.267,0.595-0.595v-0.536c0-2.371-1.287-3.796-3.526-3.971
			c0.096-0.448,0.132-0.912,0.132-1.388v-1.027h4.227c0.329,0,0.595-0.267,0.595-0.595C72.932,55.815,72.665,55.548,72.336,55.548
			L72.336,55.548z M60.905,63.148c-2.694-0.311-4.823-2.606-4.823-5.382v-4.48c0-0.928,0.31-2.256,1.093-2.592
			c0.296,0.82,1.097,1.401,2.018,1.401h1.712V63.148z M59.193,50.904c-0.517,0-0.938-0.421-0.938-0.938
			c0-1.453,1.182-2.635,2.635-2.635h1.28c1.453,0,2.635,1.182,2.635,2.635c0,0.517-0.421,0.938-0.938,0.938H59.193z M66.918,57.766
			c0,2.797-2.1,5.105-4.823,5.389v-11.06h1.771c0.921,0,1.692-0.581,1.988-1.401c0.783,0.335,1.064,1.663,1.064,2.592V57.766z
			 M66.918,57.766"/>
	</g>
</g>
<g>
	<path fill="#6E8999" d="M61.5,39.939c8.305,0,15.061,6.756,15.061,15.061S69.805,70.061,61.5,70.061S46.439,63.305,46.439,55
		S53.195,39.939,61.5,39.939 M61.5,38.689c-9.008,0-16.311,7.303-16.311,16.311S52.492,71.311,61.5,71.311
		c9.008,0,16.311-7.303,16.311-16.311S70.508,38.689,61.5,38.689L61.5,38.689z"/>
</g>
<g>
	
		<rect x="60.874" y="39.364" transform="matrix(0.7071 -0.7071 0.7071 0.7071 -20.7097 59.5284)" fill="#6E8999" width="1.251" height="30.797"/>
</g>
</svg>
