<?xml version="1.0" encoding="utf-8"?>
<!-- Generator: Adobe Illustrator 17.0.0, SVG Export Plug-In . SVG Version: 6.00 Build 0)  -->
<!DOCTYPE svg PUBLIC "-//W3C//DTD SVG 1.1//EN" "http://www.w3.org/Graphics/SVG/1.1/DTD/svg11.dtd">
<svg version="1.1" id="Layer_1" xmlns="http://www.w3.org/2000/svg" xmlns:xlink="http://www.w3.org/1999/xlink" x="0px" y="0px"
	 width="35px" height="35px" viewBox="128 -2.5 35 35" enable-background="new 128 -2.5 35 35" xml:space="preserve">
<g>
	<g>
		<path fill="#6E8999" d="M149.653,21.296c-0.35,0-0.635,0.284-0.635,0.635c0,0.35,0.284,0.635,0.635,0.635s0.635-0.284,0.635-0.635
			C150.287,21.581,150.003,21.296,149.653,21.296L149.653,21.296z M149.653,21.296"/>
	</g>
	<g>
		<path fill="#6E8999" d="M158.92-0.667h-26.152c-1.75,0-3.174,1.424-3.174,3.174v19.424c0,1.75,1.424,3.174,3.174,3.174h9.902v2.92
			h-0.635c-0.847,0-1.644,0.33-2.244,0.93s-0.93,1.396-0.93,2.244c0,0.351,0.284,0.635,0.635,0.635h12.695
			c0.351,0,0.635-0.284,0.635-0.635c0-1.75-1.424-3.174-3.174-3.174h-0.635v-2.92h9.902c1.75,0,3.174-1.424,3.174-3.174V2.507
			C162.094,0.757,160.67-0.667,158.92-0.667L158.92-0.667z M132.768,0.603h26.152c1.05,0,1.904,0.854,1.904,1.904v16.25h-2.92v-14.6
			c0-0.351-0.284-0.635-0.635-0.635h-5.078c-0.351,0-0.635,0.284-0.635,0.635v14.6h-3.177c-0.007-0.657-0.024-1.304-0.051-1.932
			c-0.111-2.585-0.364-4.317-0.496-5.078c1.31-0.964,1.667-2.752,0.866-4.14l-2.2-3.811c-0.113-0.196-0.323-0.317-0.549-0.317
			c-0.227,0-0.436,0.121-0.55,0.317l-2.201,3.811c-0.755,1.309-0.487,3.005,0.699,4.006c-0.138,0.759-0.415,2.553-0.535,5.212
			c-0.029,0.634-0.047,1.282-0.054,1.933h-3.177V9.236c0-0.101-0.024-0.192-0.063-0.274c-0.002-0.003-0.003-0.007-0.004-0.01
			l-2.539-5.078c-0.107-0.215-0.327-0.351-0.568-0.351c-0.24,0-0.46,0.136-0.568,0.351l-2.539,5.078
			c-0.002,0.003-0.003,0.007-0.004,0.01c-0.04,0.082-0.063,0.176-0.063,0.274v9.521h-2.92V2.507
			C130.864,1.457,131.718,0.603,132.768,0.603L132.768,0.603z M152.826,18.757V4.792h3.809v1.27H156
			c-0.351,0-0.635,0.284-0.635,0.635c0,0.351,0.284,0.635,0.635,0.635h0.635v1.904H156c-0.351,0-0.635,0.284-0.635,0.635
			c0,0.351,0.284,0.635,0.635,0.635h0.635v1.904H156c-0.351,0-0.635,0.284-0.635,0.635c0,0.351,0.284,0.635,0.635,0.635h0.635v2.539
			H156c-0.351,0-0.635,0.284-0.635,0.635c0,0.351,0.284,0.635,0.635,0.635h0.635v1.27H152.826z M145.949,12.365
			c0.23,0,0.46-0.026,0.685-0.076c0.118,0.755,0.291,2.091,0.393,3.929h-2.363c0.107-1.837,0.289-3.193,0.414-3.974
			C145.36,12.325,145.653,12.365,145.949,12.365L145.949,12.365z M145.949,11.096c-1.451,0-2.386-1.579-1.651-2.854l1.651-2.858
			l1.65,2.858C148.332,9.512,147.409,11.096,145.949,11.096L145.949,11.096z M144.607,17.488h2.477
			c0.013,0.417,0.022,0.841,0.027,1.27h-2.532C144.583,18.332,144.592,17.908,144.607,17.488L144.607,17.488z M137.592,18.757V9.87
			h1.27v8.887H137.592z M135.053,18.757V9.87h1.27v8.887H135.053z M135.445,8.601l1.512-3.024l1.512,3.024H135.445z M151.448,30.564
			h-11.209c0.093-0.264,0.245-0.507,0.45-0.712c0.36-0.36,0.838-0.558,1.347-0.558h7.617
			C150.48,29.294,151.186,29.825,151.448,30.564L151.448,30.564z M147.748,28.025h-3.809v-2.92h3.809V28.025z M158.92,23.835
			h-26.152c-1.05,0-1.904-0.854-1.904-1.904v-1.904h29.961v1.904C160.825,22.981,159.97,23.835,158.92,23.835L158.92,23.835z
			 M158.92,23.835"/>
	</g>
	<g>
		<path fill="#6E8999" d="M147.114,21.296h-3.809c-0.351,0-0.635,0.284-0.635,0.635s0.284,0.635,0.635,0.635h3.809
			c0.351,0,0.635-0.284,0.635-0.635S147.464,21.296,147.114,21.296L147.114,21.296z M147.114,21.296"/>
	</g>
</g>
</svg>
