<?xml version="1.0" encoding="utf-8"?>
<!-- Generator: Adobe Illustrator 17.0.0, SVG Export Plug-In . SVG Version: 6.00 Build 0)  -->
<!DOCTYPE svg PUBLIC "-//W3C//DTD SVG 1.1//EN" "http://www.w3.org/Graphics/SVG/1.1/DTD/svg11.dtd">
<svg version="1.1" id="Layer_1" xmlns="http://www.w3.org/2000/svg" xmlns:xlink="http://www.w3.org/1999/xlink" x="0px" y="0px"
	 width="35px" height="35px" viewBox="86.5 -2.5 35 35" enable-background="new 86.5 -2.5 35 35" xml:space="preserve">
<path fill="#6E8999" d="M120.941,4.924c-0.136-0.401-0.481-0.684-0.901-0.739l-2.14-0.279c0.253-0.751,0.066-1.606-0.505-2.177
	c-0.551-0.551-1.391-0.752-2.118-0.527l-0.28-2.15c-0.055-0.419-0.337-0.765-0.739-0.902c-0.399-0.137-0.842-0.031-1.135,0.265
	l-3.519,3.518c-0.249,0.25-0.365,0.606-0.31,0.956l0.523,3.254c-2.458-1.802-5.372-2.752-8.452-2.752
	c-3.007,0-5.887,0.921-8.327,2.664c-0.161,0.116-0.269,0.287-0.301,0.482c-0.032,0.195,0.014,0.391,0.128,0.551
	c0.229,0.32,0.711,0.401,1.034,0.172c2.187-1.562,4.769-2.388,7.466-2.388c2.716,0,5.301,0.834,7.496,2.417l-1.642,1.647
	c-1.738-1.162-3.758-1.774-5.854-1.774c-5.828,0-10.57,4.742-10.57,10.571s4.742,10.571,10.57,10.571
	c5.829,0,10.571-4.742,10.571-10.571c0-2.072-0.6-4.071-1.735-5.796l1.645-1.65c1.559,2.186,2.381,4.754,2.381,7.446
	c0,7.092-5.77,12.861-12.861,12.861c-7.091,0-12.86-5.77-12.86-12.861c0-3.171,1.164-6.217,3.276-8.577
	c0.133-0.147,0.2-0.337,0.189-0.535s-0.098-0.379-0.245-0.511c-0.293-0.261-0.784-0.237-1.047,0.057
	c-2.357,2.631-3.656,6.029-3.656,9.566c0,3.831,1.492,7.434,4.201,10.143c2.71,2.709,6.312,4.2,10.142,4.2
	c3.831,0,7.433-1.491,10.143-4.2c2.709-2.709,4.201-6.312,4.201-10.143c0-3.039-0.927-5.919-2.685-8.357l3.179,0.51
	c0.351,0.056,0.71-0.063,0.955-0.309l0.756-0.755c0.288-0.289,0.288-0.759,0-1.048c-0.281-0.28-0.769-0.28-1.048,0l-0.618,0.618
	l-2.152-0.346l2.78-2.78l2.209,0.288l-0.067,0.067c-0.288,0.289-0.288,0.759,0,1.048c0.281,0.28,0.768,0.28,1.049,0l0.61-0.61
	C120.977,5.76,121.078,5.325,120.941,4.924z M110.79,2.843l2.836-2.837l0.289,2.209l-2.78,2.779L110.79,2.843z M104.993,17.164
	l1.32-1.325c0.233,0.604,0.352,1.239,0.352,1.895c0,2.921-2.377,5.298-5.299,5.298c-2.921,0-5.298-2.377-5.298-5.298
	c0-2.921,2.377-5.298,5.298-5.298c0.688,0,1.354,0.129,1.982,0.386l-1.3,1.305c-0.225-0.043-0.453-0.064-0.683-0.064
	c-2.024,0-3.672,1.647-3.672,3.672s1.647,3.672,3.672,3.672s3.672-1.647,3.672-3.672C105.038,17.545,105.023,17.354,104.993,17.164z
	 M101.366,19.923c-1.207,0-2.189-0.982-2.189-2.189c0-0.868,0.507-1.624,1.246-1.978l-0.147,0.148
	c-0.823,0.825-0.822,2.166,0.002,2.989c0.758,0.76,2.066,0.804,2.874,0.109C102.752,19.563,102.098,19.923,101.366,19.923z
	 M104.463,11.704c-0.953-0.492-2.02-0.75-3.097-0.75c-3.738,0-6.779,3.042-6.779,6.78c0,3.738,3.041,6.78,6.779,6.78
	s6.78-3.042,6.78-6.78c0-1.047-0.245-2.087-0.712-3.02l1.695-1.701c0.868,1.42,1.325,3.045,1.325,4.721
	c0,5.012-4.077,9.089-9.089,9.089s-9.089-4.077-9.089-9.089s4.077-9.089,9.089-9.089c1.701,0,3.349,0.471,4.785,1.364
	L104.463,11.704z M101.325,17.846c-0.246-0.246-0.247-0.647-0.001-0.895l14.127-14.173c0.12-0.12,0.279-0.187,0.448-0.187
	s0.328,0.066,0.448,0.186c0.246,0.247,0.246,0.648,0,0.895l-14.127,14.174C101.983,18.083,101.566,18.086,101.325,17.846z"/>
</svg>
