<?xml version="1.0" encoding="utf-8"?>
<!-- Generator: Adobe Illustrator 17.0.0, SVG Export Plug-In . SVG Version: 6.00 Build 0)  -->
<!DOCTYPE svg PUBLIC "-//W3C//DTD SVG 1.1//EN" "http://www.w3.org/Graphics/SVG/1.1/DTD/svg11.dtd">
<svg version="1.1" id="Layer_1" xmlns="http://www.w3.org/2000/svg" xmlns:xlink="http://www.w3.org/1999/xlink" x="0px" y="0px"
	 width="35px" height="35px" viewBox="169.75 -2.5 35 35" enable-background="new 169.75 -2.5 35 35" xml:space="preserve">
<g>
	<path fill="#6E8999" d="M198.937,5.145l-1.367,2.313c-0.104,0.175-0.122,0.385-0.051,0.578l0.649,1.712l1.252-0.474l-0.534-1.412
		l1.47-2.485c0.156-0.264,0.114-0.599-0.102-0.815l-2.724-2.723c-0.221-0.221-0.583-0.257-0.841-0.087L193.719,3.7l-3.137-1.309
		l-0.49-3.438c-0.047-0.328-0.332-0.575-0.663-0.575h-4.357c-0.331,0-0.616,0.247-0.663,0.575l-0.49,3.438L180.783,3.7l-2.971-1.946
		c-0.259-0.17-0.622-0.133-0.84,0.087l-2.725,2.723c-0.223,0.224-0.259,0.578-0.085,0.842l1.979,3.004l-0.36,0.833l1.229,0.531
		l0.505-1.165c0.089-0.209,0.068-0.446-0.057-0.635l-1.879-2.851l1.953-1.953l2.813,1.843c0.186,0.12,0.424,0.142,0.626,0.057
		l3.813-1.596c0.216-0.092,0.37-0.292,0.402-0.523l0.464-3.236h3.195l0.463,3.237c0.032,0.231,0.187,0.432,0.402,0.523l3.813,1.596
		c0.205,0.083,0.441,0.062,0.626-0.058l2.814-1.842L198.937,5.145z"/>
	<path fill="#6E8999" d="M191.537,17.638c-0.127-0.126-0.296-0.196-0.475-0.196h-7.625c-0.179,0-0.348,0.07-0.475,0.196
		l-1.634,1.634c-0.124,0.125-0.195,0.298-0.195,0.474v10.894c0,0.369,0.301,0.67,0.67,0.67h10.894c0.369,0,0.669-0.301,0.669-0.67
		V19.745c0-0.176-0.071-0.349-0.195-0.474L191.537,17.638z M192.027,20.022v9.946h-2.049l-1.457-7.28l3.086-3.086L192.027,20.022z
		 M188.197,19.745l0.964-0.964h1.374l-1.651,1.651L188.197,19.745z M187.248,22.08c-0.021-0.028-0.043-0.055-0.068-0.08
		l-0.617-0.621l0.688-0.687l0.688,0.687l-0.616,0.616C187.294,22.021,187.271,22.051,187.248,22.08z M187.25,22.471
		C187.25,22.471,187.25,22.472,187.25,22.471L187.25,22.471C187.25,22.472,187.25,22.471,187.25,22.471z M187.273,23.275
		l1.339,6.693h-2.231L187.273,23.275z M183.965,18.781h1.374l0.964,0.964l-0.687,0.688L183.965,18.781z M185.998,22.708
		l-0.968,7.261h-2.558v-9.946l0.42-0.42L185.998,22.708z"/>
	<path fill="#6E8999" d="M187.25,16.603c2.469-0.003,4.479-2.014,4.482-4.483V6.128c0-0.37-0.301-0.67-0.67-0.67h-4.901
		c-1.869,0.002-3.392,1.524-3.394,3.393v3.268C182.771,14.588,184.781,16.6,187.25,16.603z M184.111,8.727
		c0.064-1.074,0.959-1.929,2.05-1.929h4.229c-0.064,1.075-0.959,1.929-2.05,1.929H184.111z M187.25,15.263
		c-1.732,0-3.143-1.41-3.143-3.143v-2.054h4.232c0.747,0,1.466-0.246,2.054-0.697v2.75C190.394,13.853,188.983,15.263,187.25,15.263
		z"/>
	<path fill="#6E8999" d="M203.52,21.45l-1.634-1.634c-0.126-0.125-0.298-0.196-0.474-0.196h-4.357c-0.179,0-0.348,0.07-0.475,0.196
		l-1.633,1.634c-0.127,0.125-0.196,0.294-0.196,0.474v8.715c0,0.369,0.3,0.67,0.669,0.67h7.626c0.369,0,0.67-0.301,0.67-0.67v-8.715
		C203.716,21.747,203.644,21.574,203.52,21.45z M198.671,20.96h1.153l-0.595,0.559L198.671,20.96z M199.902,22.239l0.243,0.259
		l1.302-1.227l0.929,0.93v7.768h-2.474V22.239z M198.563,22.225v7.744h-2.474v-7.768l0.965-0.965l1.248,1.249L198.563,22.225z"/>
	<path fill="#6E8999" d="M198.706,10.361c-1.563,0.002-2.84,1.276-2.848,2.838l-0.009,2.728c-0.004,0.904,0.346,1.756,0.983,2.398
		c0.638,0.642,1.487,0.997,2.393,1h0.012c1.865-0.002,3.386-1.521,3.389-3.388v-2.729c-0.002-1.569-1.28-2.847-2.849-2.848H198.706z
		 M199.238,17.986c-1.129,0-2.048-0.919-2.048-2.054l0.005-1.513c0.785-0.04,1.53-0.409,2.038-1.01
		c0.51,0.605,1.261,0.976,2.054,1.011v1.516C201.284,17.063,200.365,17.983,199.238,17.986z M197.203,13.077
		c0.063-0.718,0.638-1.298,1.354-1.369C198.494,12.426,197.921,13.006,197.203,13.077z M199.908,11.706
		c0.729,0.063,1.311,0.645,1.373,1.373C200.553,13.016,199.971,12.434,199.908,11.706z"/>
	<path fill="#6E8999" d="M177.92,19.816c-0.126-0.125-0.298-0.196-0.474-0.196h-4.357c-0.179,0-0.348,0.07-0.475,0.196l-1.633,1.634
		c-0.127,0.125-0.196,0.294-0.196,0.474v8.715c0,0.369,0.3,0.67,0.669,0.67h7.626c0.369,0,0.67-0.301,0.67-0.67v-8.715
		c0-0.177-0.072-0.35-0.196-0.474L177.92,19.816z M175.937,22.239l0.243,0.259l1.302-1.227l0.929,0.93v7.768h-2.474V22.239z
		 M174.705,20.96h1.153l-0.595,0.559L174.705,20.96z M174.598,22.225v7.744h-2.474v-7.768l0.965-0.965l1.248,1.249L174.598,22.225z"
		/>
	<path fill="#6E8999" d="M175.26,19.325h0.012c1.865-0.002,3.386-1.521,3.389-3.388v-2.729c-0.002-1.569-1.28-2.847-2.849-2.848
		h-1.071c-1.563,0.002-2.84,1.276-2.848,2.838l-0.01,2.728C171.877,17.794,173.392,19.319,175.26,19.325z M176.357,12.54
		c-0.575-0.002-1.096-0.333-1.347-0.839h0.801c0.574,0.002,1.095,0.333,1.346,0.839H176.357z M175.272,17.986
		c-1.129,0-2.048-0.919-2.048-2.054l0.007-2.063c0.416-0.032,0.803-0.208,1.1-0.506c0.057-0.057,0.11-0.119,0.16-0.186
		c0.517,0.453,1.174,0.701,1.865,0.702h0.965v2.059C177.318,17.064,176.399,17.983,175.272,17.986z"/>
</g>
</svg>
