<svg width="155" height="101" viewBox="0 0 155 101" fill="none" xmlns="http://www.w3.org/2000/svg">
<g clip-path="url(#clip0)" filter="url(#filter0_d)">
<path d="M121.638 45.0698C114.499 45.7933 109.32 51.9445 110.073 58.8092C110.825 65.6738 117.222 70.6536 124.362 69.9302C131.501 69.2067 136.68 63.0555 135.927 56.1909C135.177 49.3248 128.779 44.3464 121.638 45.0698ZM123.431 61.4232C121.177 61.6515 119.157 60.0805 118.92 57.9131C118.682 55.7457 120.318 53.8037 122.57 53.5754C124.825 53.3471 126.844 54.9195 127.082 57.0855C127.319 59.2529 125.685 61.1949 123.431 61.4232Z" fill="url(#paint0_linear)"/>
<path d="M140.911 55.7117L140.791 54.7583C140.791 54.7583 139.68 54.2011 138.089 54.3032C138.029 54.3068 137.966 54.3116 137.902 54.3164C137.713 53.5083 137.458 52.7278 137.145 51.9785C137.206 51.9437 137.267 51.91 137.324 51.8764C138.694 51.0707 139.288 49.9912 139.288 49.9912L138.839 49.1387H138.84L138.829 49.1195L138.819 49.1002H138.818L138.338 48.2645C138.338 48.2645 137.096 48.1697 135.666 48.8637C135.6 48.8961 135.531 48.9309 135.461 48.967C134.982 48.3017 134.449 47.6773 133.871 47.0998C133.922 47.0349 133.972 46.9713 134.018 46.9113C134.971 45.6504 135.102 44.4281 135.102 44.4281L134.356 43.8109V43.8097L134.339 43.7965L134.322 43.7821V43.7833L133.553 43.1925C133.553 43.1925 132.369 43.5731 131.317 44.7547C131.266 44.8123 131.212 44.8748 131.158 44.9384C130.492 44.5205 129.794 44.1519 129.068 43.8385C129.117 43.6764 129.159 43.5227 129.196 43.3798C129.587 41.8548 129.233 40.6769 129.233 40.6769L128.304 40.3875V40.3863L128.283 40.3803L128.262 40.3743V40.3755L127.323 40.1197C127.323 40.1197 126.376 40.9182 125.862 42.4072C125.817 42.5369 125.773 42.6762 125.728 42.8238C124.906 42.6726 124.064 42.5849 123.207 42.5681C123.194 42.466 123.181 42.3688 123.168 42.2763C122.936 40.7201 122.153 39.7655 122.153 39.7655L121.183 39.8496V39.8484L121.161 39.8508L121.139 39.8532V39.8544L120.172 39.972C120.172 39.972 119.607 41.0671 119.711 42.6365C119.716 42.717 119.723 42.8022 119.73 42.8887C118.912 43.0568 118.121 43.2885 117.36 43.5755C117.323 43.5119 117.287 43.4494 117.25 43.3894C116.433 42.0386 115.339 41.4526 115.339 41.4526L114.474 41.8957V41.8945L114.45 41.9029L114.43 41.9125V41.9137L113.583 42.3868C113.583 42.3868 113.487 43.6116 114.191 45.0225C114.213 45.0669 114.238 45.1137 114.261 45.1605C113.562 45.6264 112.906 46.1464 112.297 46.7143C112.268 46.6927 112.238 46.6687 112.21 46.6483C110.931 45.7093 109.692 45.5796 109.692 45.5796L109.066 46.3157H109.065L109.051 46.3325L109.037 46.3493H109.038L108.439 47.107C108.439 47.107 108.825 48.2753 110.023 49.3128C110.033 49.3212 110.042 49.3296 110.052 49.338C109.577 50.0404 109.16 50.7837 108.808 51.5582C107.27 51.18 106.083 51.5258 106.083 51.5258L105.789 52.442H105.788L105.782 52.4636L105.775 52.484H105.776L105.517 53.4098C105.517 53.4098 106.298 54.3068 107.753 54.8195C107.585 55.6576 107.488 56.5186 107.467 57.3951C105.937 57.6365 105 58.3834 105 58.3834L105.086 59.3404H105.084L105.087 59.362L105.089 59.3836H105.091L105.21 60.337C105.21 60.337 106.257 60.8617 107.773 60.7993C107.951 61.6699 108.204 62.5092 108.522 63.3137C107.263 64.1062 106.711 65.104 106.711 65.104L107.16 65.9566H107.159L107.17 65.9758L107.18 65.995H107.181L107.661 66.8307C107.661 66.8307 108.787 66.916 110.13 66.3252C110.639 67.0613 111.211 67.7505 111.838 68.3833C111.016 69.5709 110.898 70.6672 110.898 70.6672L111.645 71.2844V71.2856L111.662 71.2988L111.679 71.3132V71.312L112.447 71.9028C112.447 71.9028 113.5 71.5642 114.502 70.5351C115.261 71.0202 116.063 71.4405 116.902 71.7887C116.614 73.1816 116.926 74.2263 116.926 74.2263L117.855 74.5156V74.5168L117.877 74.5228L117.898 74.5288V74.5276L118.837 74.7834C118.837 74.7834 119.676 74.0738 120.203 72.7481C121.132 72.909 122.085 72.9871 123.056 72.9751C123.341 74.3235 124.007 75.1376 124.007 75.1376L124.977 75.0536V75.0548L124.999 75.0524L125.021 75.05V75.0488L125.987 74.9311C125.987 74.9311 126.482 73.9705 126.461 72.5608C127.356 72.3519 128.217 72.0661 129.039 71.7131C129.837 72.9198 130.821 73.4494 130.821 73.4494L131.686 73.0063V73.0075L131.705 72.9967L131.725 72.9871V72.9859L132.572 72.5128C132.572 72.5128 132.662 71.3648 132.03 70.0116C132.74 69.4952 133.401 68.9201 134.008 68.2957C135.264 69.1938 136.463 69.3187 136.463 69.3187L137.089 68.5827H137.09L137.104 68.5658L137.118 68.549H137.117L137.716 67.7914C137.716 67.7914 137.33 66.623 136.132 65.5856C136.127 65.5807 136.121 65.5759 136.116 65.5723C136.513 64.9191 136.86 64.2359 137.155 63.5262C137.161 63.5274 137.167 63.5298 137.172 63.531C138.718 63.9165 139.913 63.5683 139.913 63.5683L140.206 62.6521H140.207L140.213 62.6305L140.219 62.6101H140.218L140.478 61.6843C140.478 61.6843 139.668 60.7501 138.158 60.2433C138.139 60.2373 138.119 60.2301 138.1 60.2241C138.234 59.41 138.303 58.5767 138.301 57.7301C138.351 57.7241 138.4 57.7169 138.448 57.7097C140.026 57.4816 140.994 56.7095 140.994 56.7095L140.909 55.7525H140.91L140.907 55.7309L140.911 55.7117ZM124.333 69.799C117.483 70.5111 111.344 65.6108 110.622 58.8553C109.9 52.0998 114.869 46.0455 121.719 45.3334C128.569 44.6214 134.708 49.5217 135.43 56.2772C136.153 63.0327 131.184 69.087 124.333 69.799Z" fill="url(#paint1_linear)"/>
<path d="M18.4741 13.0245C11.0169 16.508 7.89326 25.176 11.4983 32.3845C15.1019 39.5931 24.0687 42.6127 31.5259 39.1278C38.9831 35.6443 42.1067 26.9764 38.5017 19.7678C34.8981 12.5592 25.9313 9.53965 18.4741 13.0245ZM23.0547 22.184C25.2785 21.1457 27.9509 22.0459 29.0264 24.1943C30.1005 26.344 29.1692 28.9273 26.9468 29.967C24.7229 31.0052 22.0506 30.105 20.9765 27.9567C19.901 25.8069 20.8322 23.2237 23.0547 22.184Z" fill="url(#paint2_linear)"/>
<path d="M42.8416 17.34L42.3546 16.3914C42.3546 16.3914 40.9873 16.2221 39.3691 16.915C39.3083 16.9414 39.2449 16.969 39.1804 16.9978C38.6763 16.2269 38.1138 15.5077 37.5051 14.8436C37.5562 14.7848 37.6049 14.7272 37.6524 14.6707C38.7713 13.3271 38.9819 11.9834 38.9819 11.9834L38.1905 11.2618V11.2606L38.1723 11.2449L38.154 11.2305V11.2317L37.337 10.5389C37.337 10.5389 36.0075 10.8991 34.7826 12.1491C34.7266 12.2068 34.6669 12.2692 34.6085 12.3316C33.856 11.8165 33.0658 11.3626 32.2452 10.9748C32.2732 10.8895 32.3012 10.8043 32.3268 10.7238C32.8394 9.05955 32.5119 7.73871 32.5119 7.73871L31.5001 7.37127V7.37007L31.4769 7.36287L31.4538 7.35446V7.35566L30.4298 7.02425C30.4298 7.02425 29.3413 7.85878 28.6948 9.47621C28.6632 9.55547 28.6315 9.63952 28.5986 9.72597C27.7476 9.53745 26.8795 9.41137 26.004 9.35254C25.9931 9.16522 25.9797 8.9899 25.9639 8.8278C25.7922 7.0963 24.9764 6 24.9764 6L23.9001 6.04203V6.04083L23.8757 6.04323L23.8514 6.04443V6.04563L22.7763 6.12608C22.7763 6.12608 22.0945 7.30763 22.1249 9.04634C22.1273 9.19764 22.1334 9.35854 22.1432 9.53025C21.23 9.67554 20.3193 9.89648 19.4207 10.1955C19.3696 10.0934 19.3184 9.99735 19.2685 9.90609C18.4381 8.37151 17.2596 7.66666 17.2596 7.66666L16.2794 8.11094V8.10974L16.2563 8.12055L16.2344 8.13136V8.13256L15.2725 8.61166C15.2725 8.61166 15.1008 9.96012 15.8034 11.5559C15.8399 11.6376 15.8788 11.724 15.9202 11.8117C15.1325 12.2884 14.3971 12.8215 13.714 13.4015C13.6507 13.3487 13.5898 13.297 13.5302 13.249C12.1665 12.1443 10.8041 11.9378 10.8041 11.9378L10.0723 12.7183H10.0711L10.0565 12.7363L10.0395 12.7543H10.0407L9.33815 13.5612C9.33815 13.5612 9.7022 14.8725 10.9709 16.0804C11.0111 16.1188 11.0549 16.1585 11.0975 16.1981C10.5472 16.9414 10.0614 17.7243 9.64254 18.5408C9.60357 18.5288 9.56339 18.5156 9.52687 18.5048C7.83934 17.9992 6.50003 18.3223 6.50003 18.3223L6.12746 19.3201H6.12624L6.11893 19.3429L6.11041 19.3657H6.11163L5.77558 20.3756C5.77558 20.3756 6.62178 21.449 8.26183 22.0866C8.274 22.0915 8.28861 22.0963 8.30201 22.1011C8.07432 23.0076 7.92213 23.9346 7.84908 24.8712C6.10432 25.0441 5 25.8426 5 25.8426L5.04261 26.9041H5.0414L5.04383 26.9281L5.04505 26.9521H5.04627L5.12784 28.0124C5.12784 28.0124 6.28208 28.6584 7.99031 28.6548C8.13399 29.5902 8.35923 30.522 8.67093 31.4418C7.16968 32.2583 6.47811 33.381 6.47811 33.381L6.92982 34.3465H6.92861L6.93956 34.3681L6.9493 34.3897H6.95052L7.43633 35.3383C7.43633 35.3383 8.7245 35.498 10.2805 34.8736C10.7968 35.7129 11.3776 36.4946 12.0155 37.2151C11.0062 38.5047 10.8102 39.7463 10.8102 39.7463L11.6016 40.468V40.4692L11.6198 40.4848L11.6381 40.5016V40.5004L12.4551 41.1932C12.4551 41.1932 13.6605 40.8666 14.8342 39.7547C15.6439 40.3335 16.4998 40.839 17.3935 41.2665C16.9893 42.8058 17.2827 43.991 17.2827 43.991L18.2945 44.3584V44.3596L18.3176 44.3668L18.3407 44.3752V44.3741L19.3647 44.7055C19.3647 44.7055 20.3327 43.9634 20.9853 42.5225C21.9593 42.747 22.9541 42.8887 23.9598 42.9415C24.1887 44.4989 24.9107 45.4691 24.9107 45.4691L25.987 45.4271V45.4283L26.0113 45.4259L26.0357 45.4247V45.4235L27.1108 45.3431C27.1108 45.3431 27.7147 44.2948 27.761 42.7206C28.7886 42.5453 29.8113 42.2739 30.8158 41.9029C31.6243 43.2009 32.6275 43.8025 32.6275 43.8025L33.6064 43.357V43.3582L33.6284 43.3474L33.6503 43.3378V43.3366L34.6121 42.8575C34.6121 42.8575 34.7631 41.6759 34.2055 40.2158C35.0565 39.667 35.8455 39.0523 36.5663 38.3822C37.8557 39.3428 39.0806 39.5302 39.0806 39.5302L39.8123 38.7497H39.8135L39.8294 38.7317L39.8464 38.7136H39.8452L40.5477 37.9079C40.5477 37.9079 40.2056 36.6795 39.0343 35.5052C39.5761 34.7055 40.0473 33.8638 40.4418 32.9896C42.0904 33.4603 43.3858 33.1481 43.3858 33.1481L43.7584 32.1515H43.7596L43.7669 32.1286L43.7755 32.1058H43.7742L44.1103 31.096C44.1103 31.096 43.2641 30.0225 41.624 29.3849C41.6167 29.3825 41.6094 29.3789 41.6021 29.3765C41.7665 28.5504 41.8688 27.7098 41.9065 26.8633C41.9126 26.8633 41.9199 26.8621 41.926 26.8621C43.6817 26.6928 44.7933 25.8883 44.7933 25.8883L44.7507 24.8268H44.7519L44.7495 24.8028L44.7483 24.7788H44.7471L44.6655 23.7185C44.6655 23.7185 43.4674 23.0461 41.7044 23.0761C41.6825 23.0761 41.6593 23.0773 41.6362 23.0773C41.467 22.1803 41.2235 21.2869 40.8984 20.408C40.9483 20.3828 40.997 20.3575 41.0433 20.3323C42.5993 19.5134 43.314 18.3511 43.314 18.3511L42.8623 17.3857H42.8635L42.8526 17.364L42.8416 17.34ZM31.0618 38.7941C23.9756 42.1718 15.4551 39.2444 12.0302 32.2559C8.60518 25.2675 11.5736 16.8645 18.6597 13.4868C25.7459 10.109 34.2664 13.0365 37.6913 20.0249C41.1151 27.0122 38.1479 35.4163 31.0618 38.7941Z" fill="url(#paint3_linear)"/>
<path d="M101.34 29.7022C96.2058 15.7074 80.6982 8.52366 66.7019 13.6596C52.7069 18.7942 45.5244 34.3016 50.6591 48.2978C55.7937 62.2926 71.3026 69.4763 85.2976 64.3404C99.2926 59.2058 106.476 43.6971 101.34 29.7022Z" fill="url(#paint4_linear)"/>
<path d="M106.273 40.5916C106.302 40.0513 106.318 39.5073 106.318 38.9598C106.318 38.644 106.312 38.3306 106.301 38.0172C108.247 37.7614 109.461 36.9425 109.461 36.9425L109.385 35.9183H109.386L109.384 35.8954L109.383 35.8726H109.382L109.263 34.852C109.263 34.852 107.92 34.2708 105.964 34.3729C105.83 33.5167 105.658 32.675 105.454 31.8441C107.296 31.1944 108.308 30.1486 108.308 30.1486L108.018 29.1616H108.019L108.012 29.1387L108.006 29.1159H108.004L107.673 28.1421C107.673 28.1421 106.243 27.8503 104.355 28.3474C104.045 27.5393 103.702 26.7468 103.324 25.9735C104.981 24.9613 105.746 23.7377 105.746 23.7377L105.255 22.8323H105.256L105.244 22.8119L105.233 22.7915H105.232L104.702 21.9065C104.702 21.9065 103.249 21.9149 101.512 22.7819C101.039 22.0554 100.534 21.3518 100 20.6697C101.402 19.3429 101.89 17.9944 101.89 17.9944L101.219 17.2091L101.22 17.2079L101.204 17.1911L101.189 17.1731L101.187 17.1743L100.482 16.4166C100.482 16.4166 99.0701 16.7216 97.5603 17.9152C96.9442 17.3004 96.3026 16.7108 95.6354 16.1501C96.7141 14.5735 96.9065 13.1662 96.9065 13.1662L96.0846 12.5358V12.5346L96.0651 12.5214L96.0469 12.5069V12.5081L95.1982 11.9114C95.1982 11.9114 93.8955 12.4925 92.6767 13.9527C91.9437 13.4748 91.1901 13.0257 90.4145 12.6102C91.1219 10.8619 91.0147 9.46421 91.0147 9.46421L90.0772 9.01632V9.01512L90.0553 9.00551L90.0334 8.99471V8.99591L89.0776 8.58645C89.0776 8.58645 87.9416 9.41137 87.0601 11.0672C86.2407 10.749 85.4042 10.4668 84.5519 10.2195C84.8649 8.38232 84.4704 7.05187 84.4704 7.05187L83.4586 6.80571V6.80451L83.4367 6.80211L83.4135 6.79611V6.79731L82.3932 6.59318C82.3932 6.59318 81.4654 7.62223 80.9504 9.40537C79.9118 9.23486 78.855 9.11719 77.7836 9.05354C77.6728 7.21637 77.0019 6.02281 77.0019 6.02281L75.9609 6.0012V6H75.9365H75.9122V6.0012L74.8712 6.02281C74.8712 6.02281 74.2003 7.21637 74.0895 9.05354C73.1946 9.10638 72.3094 9.19644 71.4365 9.32492C70.9409 7.55379 70.0338 6.52473 70.0338 6.52473L69.0111 6.71686V6.71566L68.988 6.72046L68.9648 6.72526V6.72646L67.9506 6.96061C67.9506 6.96061 67.5476 8.26224 67.824 10.0778C66.9619 10.3131 66.1145 10.5845 65.2854 10.8907C64.427 9.26128 63.3251 8.44236 63.3251 8.44236L62.3645 8.84101V8.83981L62.3425 8.84941L62.3206 8.85902V8.86022L61.3782 9.2973C61.3782 9.2973 61.2589 10.6542 61.9127 12.3737C61.1213 12.7807 60.3506 13.219 59.6018 13.6909C58.4184 12.2716 57.1667 11.6952 57.1667 11.6952L56.312 12.2812V12.28L56.2925 12.2944L56.273 12.3088V12.31L55.4439 12.9308C55.4439 12.9308 55.6131 14.2841 56.6164 15.8343C55.9297 16.3926 55.2698 16.981 54.6366 17.5958C53.178 16.4479 51.8302 16.1405 51.8302 16.1405L51.1167 16.8897L51.1155 16.8885L51.0996 16.9065L51.0838 16.9234L51.085 16.9246L50.4044 17.7003C50.4044 17.7003 50.8549 18.9899 52.165 20.2999C51.611 20.9855 51.0875 21.6952 50.5956 22.4265C48.9275 21.6039 47.5456 21.5799 47.5456 21.5799L47.0062 22.4589H47.005L46.994 22.4793L46.9819 22.4997H46.9831L46.4815 23.4003C46.4815 23.4003 47.1925 24.5674 48.7473 25.5797C48.3504 26.3626 47.9864 27.1635 47.6588 27.9836C45.8581 27.5237 44.5041 27.7819 44.5041 27.7819L44.162 28.7521H44.1608L44.1535 28.7749L44.1462 28.7965H44.1474L43.8467 29.7799C43.8467 29.7799 44.7878 30.7742 46.5204 31.4466C46.2988 32.2907 46.1162 33.1505 45.9701 34.0222C44.1084 33.9406 42.8361 34.4725 42.8361 34.4725L42.7058 35.492H42.7046L42.7022 35.5148L42.6997 35.5376H42.7009L42.6133 36.5607C42.6133 36.5607 43.7468 37.3436 45.5878 37.6438C45.5683 38.0796 45.5573 38.5179 45.5573 38.9586C45.5573 39.3993 45.5695 39.8376 45.5878 40.2734C43.7468 40.5748 42.6133 41.3565 42.6133 41.3565L42.7009 42.3796H42.6997L42.7022 42.4024L42.7046 42.4252H42.7058L42.8361 43.4446C42.8361 43.4446 44.1084 43.9766 45.9701 43.8949C46.1162 44.7667 46.2988 45.6264 46.5204 46.4706C44.7878 47.1418 43.8467 48.1372 43.8467 48.1372L44.1474 49.1207H44.1462L44.1535 49.1423L44.1608 49.1651H44.162L44.5041 50.1353C44.5041 50.1353 45.8581 50.3947 47.6588 49.9336C47.9864 50.7537 48.3504 51.5546 48.7473 52.3375C47.1937 53.3498 46.4815 54.5169 46.4815 54.5169L46.9831 55.4175H46.9819L46.994 55.4379L47.005 55.4583H47.0062L47.5456 56.3373C47.5456 56.3373 48.9275 56.3132 50.5956 55.4907C51.0838 56.2172 51.6037 56.922 52.1528 57.6029C50.833 58.9069 50.3728 60.1965 50.3728 60.1965L51.0485 60.9782L51.0473 60.9794L51.0631 60.9962L51.0789 61.0142L51.0802 61.013L51.7888 61.7659C51.7888 61.7659 53.1512 61.4633 54.6245 60.3118C55.2552 60.9242 55.9126 61.5114 56.5957 62.0685C55.5632 63.6259 55.383 64.9972 55.383 64.9972L56.2085 65.6228V65.624L56.228 65.6372L56.2462 65.6516V65.6504L57.0973 66.2412C57.0973 66.2412 58.3782 65.66 59.5823 64.2155C60.3238 64.6838 61.0897 65.1197 61.8738 65.5243C61.181 67.2714 61.2954 68.6643 61.2954 68.6643L62.2354 69.1074V69.1086L62.2573 69.1182L62.2792 69.1278V69.1266L63.2374 69.5301C63.2374 69.5301 64.3795 68.6907 65.2537 67.0157C66.0731 67.3195 66.9108 67.5896 67.7619 67.8238C67.4441 69.6886 67.8532 71.0394 67.8532 71.0394L68.8662 71.2796V71.2808L68.8893 71.2856L68.9125 71.2916V71.2904L69.934 71.4885C69.934 71.4885 70.8849 70.4234 71.3841 68.5875C72.2437 68.7147 73.1167 68.8048 73.9982 68.86C74.0737 70.7681 74.7677 72.0192 74.7677 72.0192L75.8087 72.0469V72.0481H75.833L75.8574 72.0493V72.0481L76.8984 72.0325C76.8984 72.0325 77.6095 70.7849 77.7069 68.8708C78.5872 68.8204 79.4577 68.734 80.3161 68.6115C80.7909 70.4715 81.7382 71.5594 81.7382 71.5594L82.7621 71.3732V71.3744L82.7853 71.3696L82.8084 71.3648V71.3636L83.8239 71.1355C83.8239 71.1355 84.2585 69.7642 83.9468 67.8682C84.7942 67.6401 85.627 67.3795 86.4428 67.0829C87.3 68.8096 88.4591 69.6802 88.4591 69.6802L89.4222 69.2875V69.2887L89.4441 69.2791L89.466 69.2707V69.2695L90.4108 68.8372C90.4108 68.8372 90.5472 67.4023 89.8386 65.6084C90.6166 65.2133 91.3727 64.7846 92.1093 64.3271C93.3135 65.8461 94.6357 66.4633 94.6357 66.4633L95.4941 65.8821V65.8833L95.5136 65.8689L95.5331 65.8557V65.8545L96.3659 65.2385C96.3659 65.2385 96.1966 63.8036 95.1215 62.191C95.7973 61.647 96.4487 61.0755 97.0745 60.4775C98.5733 61.7179 99.9991 62.0505 99.9991 62.0505L100.716 61.306L100.717 61.3072L100.733 61.2892L100.749 61.2724L100.75 61.2712L101.436 60.4979C101.436 60.4979 100.968 59.1314 99.579 57.7758C100.127 57.1069 100.648 56.4153 101.136 55.7009C102.859 56.6014 104.317 56.635 104.317 56.635L104.861 55.7597H104.862L104.874 55.7393L104.886 55.7189H104.885L105.393 54.8219C105.393 54.8219 104.653 53.5887 103.019 52.55C103.412 51.79 103.771 51.0107 104.099 50.2146C105.972 50.7537 107.408 50.4943 107.408 50.4943L107.762 49.5277H107.763L107.771 49.5049L107.779 49.4833H107.778L108.091 48.5035C108.091 48.5035 107.106 47.436 105.28 46.7444C105.505 45.9182 105.696 45.0801 105.849 44.2275C107.802 44.374 109.158 43.8241 109.158 43.8241L109.3 42.807H109.301L109.304 42.7842L109.307 42.7614H109.306L109.406 41.7384C109.405 41.7384 108.211 40.8918 106.273 40.5916ZM89.5439 61.7659C76.8083 69.123 60.4358 64.9059 52.9759 52.3459C45.5159 39.7859 49.792 23.6392 62.5276 16.2821C75.2632 8.92506 91.6357 13.1421 99.0956 25.7022C106.556 38.2621 102.28 54.4076 89.5439 61.7659Z" fill="url(#paint5_linear)"/>
<path d="M23.6612 62.7576C20.0809 69.0536 22.4788 76.9524 29.0182 80.4002C35.5561 83.848 43.7585 81.5389 47.3388 75.2415C50.9191 68.9455 48.5212 61.0466 41.9818 57.5988C35.4439 54.1525 27.2415 56.4616 23.6612 62.7576ZM31.6974 66.9938C32.847 64.9716 35.4828 64.2292 37.5843 65.3362C39.6857 66.4432 40.4551 68.9815 39.3056 71.0052C38.156 73.0289 35.5202 73.7698 33.4187 72.6628C31.3173 71.5544 30.5464 69.0175 31.6974 66.9938Z" fill="url(#paint6_linear)"/>
<path d="M44.1727 53.2321L43.2973 52.7807C43.2973 52.7807 42.1844 53.3726 41.3516 54.7403C41.32 54.7919 41.2883 54.846 41.2555 54.9012C40.4628 54.5902 39.6556 54.3489 38.841 54.1735C38.8471 54.1027 38.8532 54.0343 38.8581 53.967C38.9677 52.376 38.3991 51.2617 38.3991 51.2617L37.4189 51.1392V51.138L37.397 51.1356L37.3751 51.1332V51.1344L36.3913 51.0468C36.3913 51.0468 35.5926 52.0134 35.354 53.5912C35.343 53.6632 35.3333 53.7413 35.3223 53.8193C34.4822 53.8301 33.647 53.907 32.8251 54.0475C32.7995 53.9682 32.7752 53.8902 32.7508 53.8181C32.2346 52.3064 31.2764 51.4922 31.2764 51.4922L30.323 51.7492V51.748L30.3011 51.7552L30.2792 51.7612V51.7624L29.3356 52.053C29.3356 52.053 28.9728 53.2478 29.3636 54.7955C29.3831 54.8712 29.405 54.9504 29.4269 55.0321C28.6891 55.3383 27.9744 55.6997 27.2889 56.1164C27.1793 55.9831 27.0746 55.8582 26.9748 55.7453C25.9118 54.5434 24.7101 54.1531 24.7101 54.1531L23.9284 54.7499V54.7487L23.9114 54.7631L23.8931 54.7763V54.7775L23.1346 55.4019C23.1346 55.4019 23.2636 56.6423 24.2255 57.9247C24.3095 58.0364 24.4008 58.1541 24.5007 58.2766C23.8968 58.8649 23.3367 59.5073 22.8278 60.2026C22.734 60.1534 22.6439 60.1077 22.5575 60.0657C21.1086 59.356 19.8484 59.4485 19.8484 59.4485L19.3577 60.295H19.3565L19.3456 60.3143L19.3346 60.3335H19.3358L18.8768 61.1968C18.8768 61.1968 19.4771 62.2943 20.8639 63.1156C20.9357 63.1577 21.0112 63.2009 21.0891 63.2453C20.7579 64.015 20.4961 64.8003 20.3001 65.5916C20.2246 65.5856 20.1504 65.5796 20.0797 65.5748C18.4665 65.4667 17.3366 66.0275 17.3366 66.0275L17.2124 66.9941H17.2112L17.2088 67.0157L17.2063 67.0373H17.2075L17.1187 68.0076C17.1187 68.0076 18.0988 68.7953 19.6987 69.0306C19.7486 69.0378 19.8034 69.045 19.8557 69.0522C19.846 69.8964 19.9056 70.7369 20.0347 71.5654C19.9994 71.5762 19.9616 71.5882 19.9288 71.599C18.3959 72.1082 17.5704 73.0532 17.5704 73.0532L17.8309 73.9934H17.8297L17.837 74.015L17.8431 74.0366H17.8443L18.139 74.9672C18.139 74.9672 19.3504 75.325 20.9199 74.9396C20.932 74.9372 20.9454 74.9324 20.9576 74.93C21.2766 75.7273 21.6638 76.4982 22.1155 77.2366C20.9065 78.2825 20.5132 79.458 20.5132 79.458L21.1183 80.2289H21.1171L21.1317 80.2458L21.1451 80.2638H21.1463L21.7795 81.0118C21.7795 81.0118 22.9897 80.8882 24.2633 79.9876C24.8757 80.6108 25.5466 81.1871 26.2759 81.7107C25.5965 83.1084 25.6866 84.3103 25.6866 84.3103L26.545 84.7943V84.7955L26.5644 84.8063L26.5839 84.8171V84.8159L27.4593 85.2686C27.4593 85.2686 28.5077 84.7102 29.3319 83.4278C30.1708 83.7844 31.0268 84.0618 31.8912 84.2647C31.834 85.7573 32.3588 86.7875 32.3588 86.7875L33.3389 86.91V86.9112L33.3608 86.9136L33.3827 86.916V86.9148L34.3665 87.0025C34.3665 87.0025 35.0898 86.1259 35.3661 84.679C36.283 84.6862 37.1961 84.6129 38.0935 84.464C38.6231 85.8257 39.4815 86.557 39.4815 86.557L40.4348 86.3V86.3012L40.4567 86.294L40.4787 86.288V86.2868L41.4223 85.9962C41.4223 85.9962 41.7437 84.9335 41.4527 83.5154C42.3013 83.172 43.1207 82.7541 43.9 82.2666C44.9118 83.3089 45.9747 83.6547 45.9747 83.6547L46.7564 83.0579V83.0591L46.7734 83.0447L46.7917 83.0315V83.0303L47.5502 82.4059C47.5502 82.4059 47.4358 81.306 46.6188 80.1065C47.2909 79.4364 47.9082 78.6956 48.4585 77.891C49.7625 78.4362 50.8364 78.3581 50.8364 78.3581L51.3271 77.5116H51.3283L51.3392 77.4924L51.3502 77.4732H51.349L51.808 76.6098C51.808 76.6098 51.282 75.648 50.0779 74.8507C50.4175 73.9946 50.6745 73.1216 50.851 72.2415C52.3328 72.2823 53.3482 71.778 53.3482 71.778L53.4724 70.8113H53.4736L53.476 70.7897L53.4785 70.7681H53.4773L53.5661 69.7979C53.5661 69.7979 52.6481 69.0606 51.1383 68.7989C51.1116 67.9163 51.0081 67.0409 50.8303 66.1812C52.3157 65.6673 53.1144 64.7535 53.1144 64.7535L52.8539 63.8133H52.8551L52.8478 63.7917L52.8417 63.7701H52.8405L52.5458 62.8395C52.5458 62.8395 51.3344 62.4816 49.7649 62.8671C49.7576 62.8683 49.7503 62.8707 49.7442 62.8731C49.4216 62.1694 49.0441 61.4886 48.6144 60.8366C48.6192 60.833 48.6241 60.8294 48.6277 60.8246C49.8465 59.7763 50.2422 58.5912 50.2422 58.5912L49.6371 57.8203H49.6383L49.6237 57.8035L49.6103 57.7854H49.6091L48.976 57.0374C48.976 57.0374 47.7182 57.1647 46.4179 58.1133C46.4021 58.1253 46.385 58.1373 46.368 58.1505C45.7567 57.5693 45.0932 57.0314 44.3748 56.5451C44.398 56.5006 44.4211 56.4562 44.443 56.413C45.1626 54.9841 45.0688 53.7401 45.0688 53.7401L44.2105 53.2562V53.255L44.191 53.2442L44.1727 53.2321ZM46.7016 75.2962C43.3143 81.3973 35.5524 83.6355 29.366 80.295C23.1796 76.9545 20.9101 69.2996 24.2974 63.1985C27.6846 57.0974 35.4465 54.8592 41.6329 58.1997C47.8193 61.5414 50.0888 69.1951 46.7016 75.2962Z" fill="url(#paint7_linear)"/>
<path d="M76.3588 24.6034L69.5539 23.3943C68.8173 23.2634 68.1038 23.7521 67.9711 24.4785L63.3067 50.0104C63.1739 50.7369 63.6695 51.4405 64.4061 51.5714L71.0893 52.759C71.8259 52.8899 72.5394 52.4011 72.6721 51.6747L76.8215 28.9586C76.9542 28.2321 77.6604 27.7698 78.3922 27.9331C78.3922 27.9331 79.6949 28.2237 80.7713 29.1411C83.1784 31.192 83.5144 34.3897 83.2088 36.0611C82.7595 38.5191 80.6702 40.8738 78.5468 40.4968C77.3828 40.2902 77.216 40.1569 77.216 40.1569C76.6316 39.6946 76.0435 39.9108 75.9108 40.6396L75.7281 41.6411C75.5954 42.3675 76.0338 43.2381 76.701 43.5719C76.701 43.5719 78.6831 44.5661 81.0781 44.9912C83.2076 45.3695 91.1789 45.1017 92.5219 37.7506C94.4407 27.2679 77.0979 24.7343 76.3588 24.6034Z" fill="#FAFAFA"/>
</g>
<defs>
<filter id="filter0_d" x="0" y="0" width="155" height="101" filterUnits="userSpaceOnUse" color-interpolation-filters="sRGB">
<feFlood flood-opacity="0" result="BackgroundImageFix"/>
<feColorMatrix in="SourceAlpha" type="matrix" values="0 0 0 0 0 0 0 0 0 0 0 0 0 0 0 0 0 0 127 0"/>
<feOffset dx="4" dy="4"/>
<feGaussianBlur stdDeviation="5"/>
<feColorMatrix type="matrix" values="0 0 0 0 0 0 0 0 0 0 0 0 0 0 0 0 0 0 0.15 0"/>
<feBlend mode="normal" in2="BackgroundImageFix" result="effect1_dropShadow"/>
<feBlend mode="normal" in="SourceGraphic" in2="effect1_dropShadow" result="shape"/>
</filter>
<linearGradient id="paint0_linear" x1="147.581" y1="43.6398" x2="99.8103" y2="72.7742" gradientUnits="userSpaceOnUse">
<stop stop-color="#C7C7C7"/>
<stop offset="0.2761" stop-color="#B1B1B1"/>
<stop offset="0.5102" stop-color="#A3A3A3"/>
</linearGradient>
<linearGradient id="paint1_linear" x1="143.157" y1="45.8402" x2="103.43" y2="69.4629" gradientUnits="userSpaceOnUse">
<stop stop-color="#C7C7C7"/>
<stop offset="0.2761" stop-color="#B1B1B1"/>
<stop offset="0.5102" stop-color="#A3A3A3"/>
</linearGradient>
<linearGradient id="paint2_linear" x1="61.5049" y1="16.041" x2="13.8705" y2="30.053" gradientUnits="userSpaceOnUse">
<stop stop-color="#C7C7C7"/>
<stop offset="0.2761" stop-color="#B1B1B1"/>
<stop offset="0.5102" stop-color="#A3A3A3"/>
</linearGradient>
<linearGradient id="paint3_linear" x1="55.8762" y1="17.0592" x2="15.1428" y2="28.8038" gradientUnits="userSpaceOnUse">
<stop stop-color="#C7C7C7"/>
<stop offset="0.2761" stop-color="#B1B1B1"/>
<stop offset="0.5102" stop-color="#A3A3A3"/>
</linearGradient>
<linearGradient id="paint4_linear" x1="109.105" y1="29.2042" x2="35.3816" y2="51.0239" gradientUnits="userSpaceOnUse">
<stop stop-color="#3396F6"/>
<stop offset="0.3318" stop-color="#3378F6"/>
<stop offset="0.5408" stop-color="#336AF6"/>
<stop offset="0.6173" stop-color="#3372F6"/>
<stop offset="0.7388" stop-color="#3389F6"/>
<stop offset="0.8894" stop-color="#33AFF6"/>
<stop offset="0.9745" stop-color="#33C7F6"/>
</linearGradient>
<linearGradient id="paint5_linear" x1="104.647" y1="24.8058" x2="41.2614" y2="57.13" gradientUnits="userSpaceOnUse">
<stop stop-color="#3396F6"/>
<stop offset="0.3318" stop-color="#3378F6"/>
<stop offset="0.5408" stop-color="#336AF6"/>
<stop offset="0.6173" stop-color="#3372F6"/>
<stop offset="0.7388" stop-color="#3389F6"/>
<stop offset="0.8894" stop-color="#33AFF6"/>
<stop offset="0.9745" stop-color="#33C7F6"/>
</linearGradient>
<linearGradient id="paint6_linear" x1="62.4125" y1="58.2345" x2="14.3215" y2="78.9783" gradientUnits="userSpaceOnUse">
<stop stop-color="#C7C7C7"/>
<stop offset="0.2761" stop-color="#B1B1B1"/>
<stop offset="0.5102" stop-color="#A3A3A3"/>
</linearGradient>
<linearGradient id="paint7_linear" x1="57.293" y1="60.0456" x2="17.8857" y2="76.6437" gradientUnits="userSpaceOnUse">
<stop stop-color="#C7C7C7"/>
<stop offset="0.2761" stop-color="#B1B1B1"/>
<stop offset="0.5102" stop-color="#A3A3A3"/>
</linearGradient>
<clipPath id="clip0">
<rect width="135" height="81" fill="white" transform="translate(6 6)"/>
</clipPath>
</defs>
</svg>
