<svg width="155" height="155" viewBox="0 0 155 155" fill="none" xmlns="http://www.w3.org/2000/svg">
<circle cx="77.5" cy="77.5" r="77.5" fill="url(#paint0_linear)"/>
<g clip-path="url(#clip0)">
<path d="M108.366 62.8936H105.99V86.9599H108.366V62.8936Z" fill="white"/>
<path d="M72.6697 98.7069C72.7778 98.3468 72.7089 97.9583 72.4844 97.6565C72.261 97.3547 71.9069 97.1776 71.5314 97.1776H51.3315C50.0209 97.1776 48.9551 96.1118 48.9551 94.8012V92.4247H75.9171V90.0482H48.9551V81.4336H46.5786V91.2365V94.8012C46.5786 97.4224 48.7103 99.5541 51.3315 99.5541H69.9344L67.0827 109.06H64.402V111.436H67.9667H86.9784H90.543V109.06H87.8624L85.7402 101.974L83.4636 102.658L85.3814 109.06H69.5637L72.6697 98.7069Z" fill="white"/>
<path d="M103.613 62.8936H101.237V86.9599H103.613V62.8936Z" fill="white"/>
<path d="M58.4609 49.6484H56.0845V52.0249H58.4609V49.6484Z" fill="white"/>
<path d="M63.2139 49.6484H60.8374V52.0249H63.2139V49.6484Z" fill="white"/>
<path d="M67.9668 49.6484H65.5903V52.0249H67.9668V49.6484Z" fill="white"/>
<path d="M80.6891 54.4014H56.0845V56.7778H80.6891V54.4014Z" fill="white"/>
<path d="M86.9785 71.5273H77.4727V73.9038H86.9785V71.5273Z" fill="white"/>
<path d="M97.6726 71.5273H89.355V73.9038H97.6726V71.5273Z" fill="white"/>
<path d="M90.5432 76.2803H77.4727V78.6567H90.5432V76.2803Z" fill="white"/>
<path d="M97.6723 76.2803H92.9194V78.6567H97.6723V76.2803Z" fill="white"/>
<path d="M108.367 40.1426H84.602C81.9808 40.1426 79.8491 42.2743 79.8491 44.8955V59.1542C79.8491 61.7755 81.9808 63.9071 84.602 63.9071H91.7314V67.4718C91.7314 67.9103 91.9726 68.3131 92.3588 68.5198C92.5346 68.6137 92.7271 68.66 92.9196 68.66C93.1501 68.66 93.3795 68.5923 93.5791 68.4604L100.409 63.9071H108.367C110.988 63.9071 113.12 61.7755 113.12 59.1542V44.8955C113.12 42.2743 110.988 40.1426 108.367 40.1426ZM84.602 42.519H108.367C109.677 42.519 110.743 43.5849 110.743 44.8955V56.2858L106.83 52.373C106.402 51.9452 105.72 51.9048 105.247 52.2851L100.194 56.3274L92.6249 47.6771C92.4087 47.43 92.0998 47.2838 91.7706 47.2731C91.4403 47.2577 91.1242 47.3872 90.8913 47.6213L82.2256 56.2858V44.8955C82.2256 43.5849 83.2914 42.519 84.602 42.519ZM108.367 61.5307H100.049C99.8149 61.5307 99.5844 61.6008 99.3895 61.7303L94.1079 65.251V62.7189C94.1079 62.063 93.5755 61.5307 92.9196 61.5307H84.602C83.4447 61.5307 82.481 60.6977 82.2707 59.601L91.6732 50.1986L99.1543 58.749C99.5737 59.2267 100.295 59.2921 100.79 58.894L105.901 54.8053L110.697 59.601C110.488 60.6977 109.524 61.5307 108.367 61.5307Z" fill="white"/>
<path d="M101.237 52.0249C103.202 52.0249 104.802 50.4255 104.802 48.4602C104.802 46.4949 103.202 44.8955 101.237 44.8955C99.2717 44.8955 97.6724 46.4949 97.6724 48.4602C97.6724 50.4255 99.2717 52.0249 101.237 52.0249ZM101.237 47.272C101.892 47.272 102.425 47.8055 102.425 48.4602C102.425 49.1149 101.892 49.6484 101.237 49.6484C100.582 49.6484 100.049 49.1149 100.049 48.4602C100.049 47.8055 100.582 47.272 101.237 47.272Z" fill="white"/>
<path d="M109.555 86.4834H92.2233L87.8186 82.0786C87.4775 81.7376 86.969 81.6366 86.5234 81.8208C86.0802 82.0049 85.7902 82.4387 85.7902 82.9187V86.4834H78.6609C76.6955 86.4834 75.0962 88.0827 75.0962 90.0481V99.5539C75.0962 101.519 76.6955 103.119 78.6609 103.119H109.555C111.52 103.119 113.119 101.519 113.119 99.5539V90.0481C113.119 88.0827 111.52 86.4834 109.555 86.4834ZM110.743 99.5539C110.743 100.209 110.21 100.742 109.555 100.742H78.6609C78.0062 100.742 77.4726 100.209 77.4726 99.5539V90.0481C77.4726 89.3933 78.0062 88.8598 78.6609 88.8598H86.9785C87.6344 88.8598 88.1667 88.3275 88.1667 87.6716V85.7871L90.8913 88.5117C91.1135 88.7351 91.4165 88.8598 91.7314 88.8598H109.555C110.21 88.8598 110.743 89.3933 110.743 90.0481V99.5539Z" fill="white"/>
<path d="M84.602 91.2363H79.8491V93.6128H84.602V91.2363Z" fill="white"/>
<path d="M108.367 91.2363H86.9785V93.6128H108.367V91.2363Z" fill="white"/>
<path d="M91.7314 95.9893H79.8491V98.3657H91.7314V95.9893Z" fill="white"/>
<path d="M101.237 95.9893H94.1079V98.3657H101.237V95.9893Z" fill="white"/>
<path d="M108.367 95.9893H103.614V98.3657H108.367V95.9893Z" fill="white"/>
<path d="M46.5786 82.9188H54.5362L61.3661 87.4721C61.5657 87.6052 61.795 87.6717 62.0256 87.6717C62.218 87.6717 62.4105 87.6254 62.5864 87.5315C62.9726 87.3247 63.2138 86.9219 63.2138 86.4835V82.9188H70.3432C72.9644 82.9188 75.0961 80.7871 75.0961 78.1659V63.9072C75.0961 61.2859 72.9644 59.1542 70.3432 59.1542H48.9551C48.9551 57.8436 50.0209 56.7778 51.3315 56.7778V59.4703H53.708V49.6484C53.708 48.3378 54.7738 47.272 56.0844 47.272H80.689V44.8955H56.0844C53.4632 44.8955 51.3315 47.0272 51.3315 49.6484V54.4013C48.7103 54.4013 46.5786 56.533 46.5786 59.1542C43.9574 59.1542 41.8257 61.2859 41.8257 63.9072V78.1659C41.8257 80.7871 43.9574 82.9188 46.5786 82.9188ZM44.2021 63.9072C44.2021 62.5965 45.268 61.5307 46.5786 61.5307H70.3432C71.6538 61.5307 72.7196 62.5965 72.7196 63.9072V78.1659C72.7196 79.4765 71.6538 80.5423 70.3432 80.5423H62.0256C61.3697 80.5423 60.8373 81.0747 60.8373 81.7306V84.2627L55.5557 80.742C55.3608 80.6124 55.1303 80.5423 54.8962 80.5423H46.5786C45.268 80.5423 44.2021 79.4765 44.2021 78.1659V63.9072Z" fill="white"/>
<path d="M54.2997 76.8173C54.4839 76.9243 54.6907 76.9777 54.8962 76.9777C55.0994 76.9777 55.3026 76.9255 55.4856 76.8209L63.8032 72.068C64.1739 71.8565 64.4021 71.4632 64.4021 71.0366C64.4021 70.61 64.1739 70.2167 63.8032 70.0052L55.4856 65.2523C55.1184 65.042 54.6669 65.0432 54.2997 65.2559C53.9338 65.4686 53.708 65.8607 53.708 66.2837V75.7895C53.708 76.2125 53.9338 76.6046 54.2997 76.8173ZM56.0845 68.331L60.8184 71.0366L56.0845 73.7422V68.331Z" fill="white"/>
</g>
<defs>
<linearGradient id="paint0_linear" x1="77.5" y1="0" x2="77.5" y2="155" gradientUnits="userSpaceOnUse">
<stop stop-color="#1269EA"/>
<stop offset="1" stop-color="#144EA5"/>
</linearGradient>
<clipPath id="clip0">
<rect width="71.2937" height="71.2937" fill="white" transform="translate(41.8257 40.1426)"/>
</clipPath>
</defs>
</svg>
