<svg width="153" height="153" viewBox="0 0 153 153" fill="none" xmlns="http://www.w3.org/2000/svg">
<circle cx="76.1147" cy="76.1147" r="76.1147" fill="url(#paint0_linear)"/>
<g clip-path="url(#clip0)">
<path d="M109.23 88.3309V54.9371C109.23 52.5607 107.304 50.6282 104.936 50.6282H49.107C46.7386 50.6282 44.8125 52.5607 44.8125 54.9371V88.3309V91.5626C44.8125 93.9389 46.7386 95.8714 49.107 95.8714H70.2103L67.6336 104.489H65.2115V106.644H68.4324H85.6104H88.8313V104.489H86.4092L84.3339 97.5153L82.2768 98.1347L84.1675 104.489H69.8753L72.6818 95.1034C72.7795 94.777 72.7172 94.4247 72.5143 94.1511C72.3125 93.8775 71.9925 93.717 71.6532 93.717H49.107C47.9228 93.717 46.9598 92.7507 46.9598 91.5626V89.4081H72.2427V87.2537H46.9598V54.9371C46.9598 53.7489 47.9228 52.7826 49.107 52.7826H104.936C106.12 52.7826 107.083 53.7489 107.083 54.9371V87.2537H98.7216V89.4081H107.083" fill="white"/>
<path d="M49.1069 85.0993H54.4751H58.7696H71.4943L71.3933 82.9448H68.4323V73.2498C68.4323 72.6552 67.9513 72.1726 67.3586 72.1726H63.0641C62.4715 72.1726 61.9905 72.6552 61.9905 73.2498V82.9448H59.8432V75.4043C59.8432 74.8096 59.3622 74.327 58.7696 74.327H54.4751C53.8824 74.327 53.4015 74.8096 53.4015 75.4043V82.9448H49.1069V85.0993ZM64.1378 74.327H66.285V82.9448H64.1378V74.327ZM55.5487 76.4815H57.696V82.9448H55.5487V76.4815Z" fill="white"/>
<path d="M77.0214 73.407V66.7864C77.0214 66.1918 76.5404 65.7092 75.9477 65.7092H71.6532C71.0606 65.7092 70.5796 66.1918 70.5796 66.7864V83.3649L72.7268 82.5182V67.8637H74.8741V73.407H77.0214Z" fill="white"/>
<path d="M85.6102 70.1753V60.3231C85.6102 59.7284 85.1293 59.2458 84.5366 59.2458H80.2421C79.6494 59.2458 79.1685 59.7284 79.1685 60.3231V71.2526H81.3157V61.4003H83.463V70.1753H85.6102Z" fill="white"/>
<path d="M94.1996 71.8355V64.6322C94.1996 64.0375 93.7186 63.5549 93.126 63.5549H88.8314C88.2388 63.5549 87.7578 64.0375 87.7578 64.6322V70.7583H89.9051V65.7094H92.0523V71.8355H94.1996Z" fill="white"/>
<path d="M101.715 57.0916H97.4203C96.8277 57.0916 96.3467 57.5741 96.3467 58.1688V76.5041H98.4939V59.246H100.641V88.039H102.788V58.1688C102.788 57.5741 102.307 57.0916 101.715 57.0916Z" fill="white"/>
<path d="M52.3279 54.937H50.1807V57.0915H52.3279V54.937Z" fill="white"/>
<path d="M56.6224 54.937H54.4751V57.0915H56.6224V54.937Z" fill="white"/>
<path d="M60.9168 54.937H58.7695V57.0915H60.9168V54.937Z" fill="white"/>
<path d="M98.7323 91.3557C99.9444 89.183 100.641 86.6838 100.641 84.022C100.641 75.7059 93.8988 68.9409 85.6104 68.9409C77.322 68.9409 70.5796 75.7059 70.5796 84.022C70.5796 92.3381 77.322 99.1031 85.6104 99.1031C88.8195 99.1031 91.7913 98.0797 94.236 96.354L103.51 105.659C104.142 106.294 104.984 106.644 105.879 106.644C107.727 106.644 109.23 105.136 109.23 103.282C109.23 102.383 108.881 101.539 108.249 100.904L98.7323 91.3557ZM72.7268 84.022C72.7268 76.894 78.5062 71.0954 85.6104 71.0954C92.7146 71.0954 98.494 76.894 98.494 84.022C98.494 91.15 92.7146 96.9487 85.6104 96.9487C78.5062 96.9487 72.7268 91.15 72.7268 84.022ZM105.879 104.489C105.557 104.489 105.256 104.363 105.028 104.136L95.9044 94.9816C96.4895 94.428 97.0285 93.8279 97.5202 93.1859L106.731 102.427C106.957 102.656 107.083 102.958 107.083 103.282C107.083 103.947 106.543 104.489 105.879 104.489Z" fill="white"/>
<path d="M85.6103 73.2498C79.6903 73.2498 74.874 78.0822 74.874 84.022C74.874 89.9618 79.6903 94.7942 85.6103 94.7942C91.5303 94.7942 96.3466 89.9618 96.3466 84.022C96.3466 78.0822 91.5303 73.2498 85.6103 73.2498ZM85.6103 92.6397C80.8745 92.6397 77.0213 88.7736 77.0213 84.022C77.0213 79.2703 80.8745 75.4042 85.6103 75.4042C90.3461 75.4042 94.1994 79.2703 94.1994 84.022C94.1994 88.7736 90.3461 92.6397 85.6103 92.6397Z" fill="white"/>
<path d="M79.1685 84.0219H81.3157C81.3157 81.6456 83.2418 79.713 85.6102 79.713V77.5586C82.0576 77.5586 79.1685 80.4574 79.1685 84.0219Z" fill="white"/>
<path d="M101.455 95.8714H104.936C107.304 95.8714 109.23 93.9388 109.23 91.5625V88.3308L107.083 89.408V91.5625C107.083 92.7506 106.12 93.7169 104.936 93.7169H100.012" fill="white"/>
</g>
<defs>
<linearGradient id="paint0_linear" x1="76.1147" y1="0" x2="76.1147" y2="152.229" gradientUnits="userSpaceOnUse">
<stop stop-color="#1269EA"/>
<stop offset="1" stop-color="#144EA5"/>
</linearGradient>
<clipPath id="clip0">
<rect width="64.4178" height="56.0155" fill="white" transform="translate(44.8125 50.6282)"/>
</clipPath>
</defs>
</svg>
