<svg width="153" height="152" viewBox="0 0 153 152" fill="none" xmlns="http://www.w3.org/2000/svg">
<ellipse cx="76.4318" cy="76" rx="76.4318" ry="76" fill="url(#paint0_linear)"/>
<g clip-path="url(#clip0)">
<path d="M59.5049 82.0405V103.852C59.5049 107.067 62.12 109.682 65.3344 109.682H90.9844C94.1988 109.682 96.814 107.067 96.814 103.852V94.9868H94.4822V98.0228H61.8367V82.0405H59.5049ZM94.4822 100.355V103.852C94.4822 105.781 92.9128 107.35 90.9844 107.35H65.3344C63.406 107.35 61.8367 105.781 61.8367 103.852V100.355H94.4822Z" fill="white"/>
<path d="M96.814 62.7598V51.3864V47.8887V45.5568C96.814 42.3424 94.1988 39.7273 90.9844 39.7273H65.3344C62.12 39.7273 59.5049 42.3424 59.5049 45.5568V47.8887V51.3864V60.1948H61.8367V55.4006C62.5258 55.8028 63.3151 56.05 64.1685 56.05C65.5676 56.05 66.8105 55.4181 67.6662 54.4387C68.522 55.4181 69.7649 56.05 71.164 56.05C72.5631 56.05 73.8059 55.4181 74.6617 54.4387C75.5175 55.4181 76.7603 56.05 78.1594 56.05C79.5585 56.05 80.8014 55.4181 81.6572 54.4387C82.5129 55.4181 83.7558 56.05 85.1549 56.05C86.554 56.05 87.7968 55.4181 88.6526 54.4387C89.5084 55.4181 90.7513 56.05 92.1503 56.05C93.0038 56.05 93.7931 55.8028 94.4822 55.4006V62.7587H96.814V62.7598ZM65.3344 42.0591H90.9844C92.9128 42.0591 94.4822 43.6284 94.4822 45.5568V46.7227H88.6526H81.6572H74.6617H67.6662H61.8367V45.5568C61.8367 43.6284 63.406 42.0591 65.3344 42.0591ZM64.1685 53.7182C62.8825 53.7182 61.8367 52.6724 61.8367 51.3864V49.0546H66.5003V51.3864C66.5003 52.6724 65.4545 53.7182 64.1685 53.7182ZM71.164 53.7182C69.878 53.7182 68.8322 52.6724 68.8322 51.3864V49.0546H73.4958V51.3864C73.4958 52.6724 72.45 53.7182 71.164 53.7182ZM78.1594 53.7182C76.8734 53.7182 75.8276 52.6724 75.8276 51.3864V49.0546H80.4912V51.3864C80.4912 52.6724 79.4454 53.7182 78.1594 53.7182ZM85.1549 53.7182C83.8689 53.7182 82.8231 52.6724 82.8231 51.3864V49.0546H87.4867V51.3864C87.4867 52.6724 86.4409 53.7182 85.1549 53.7182ZM92.1503 53.7182C90.8643 53.7182 89.8185 52.6724 89.8185 51.3864V49.0546H94.4822V51.3864C94.4822 52.6724 93.4363 53.7182 92.1503 53.7182Z" fill="white"/>
<path d="M79.3255 102.687H76.9937V105.018H79.3255V102.687Z" fill="white"/>
<path d="M111.97 70.041H104.975V67.7092C104.975 64.4948 102.36 61.8796 99.1455 61.8796C98.3154 61.8796 97.5295 62.0592 96.8137 62.374C96.0978 62.0592 95.312 61.8796 94.4818 61.8796C91.2674 61.8796 88.6523 64.4948 88.6523 67.7092V70.041H83.9887C83.3451 70.041 82.8228 70.5633 82.8228 71.2069V94.5251C82.8228 95.1687 83.3451 95.691 83.9887 95.691H111.97C112.614 95.691 113.136 95.1687 113.136 94.5251V71.2069C113.136 70.5633 112.614 70.041 111.97 70.041ZM110.805 91.0274L109.405 89.1619C108.966 88.5743 107.98 88.5743 107.54 89.1619L106.141 91.0274V72.3728H110.805V91.0274ZM109.639 93.3592H107.307L108.473 91.805L109.639 93.3592ZM102.643 67.7092V70.041H100.311V67.7092C100.311 66.3929 99.8567 65.1908 99.1175 64.2138C99.1268 64.2138 99.1362 64.2115 99.1455 64.2115C101.074 64.2115 102.643 65.7808 102.643 67.7092ZM96.8137 65.1209C97.5237 65.761 97.9796 66.6797 97.9796 67.7092V70.041H95.6478V67.7092C95.6478 66.6797 96.1036 65.7621 96.8137 65.1209ZM90.9841 67.7092C90.9841 65.7808 92.5534 64.2115 94.4818 64.2115C94.4912 64.2115 94.4993 64.2138 94.5098 64.2138C93.7706 65.1908 93.3159 66.3929 93.3159 67.7092V70.041H90.9841V67.7092ZM85.1546 72.3728H88.6523V74.7046H90.9841V72.3728H97.9796V74.7046H100.311V72.3728H103.809V93.3592H85.1546V72.3728Z" fill="white"/>
<path d="M47.8458 82.8658H73.4958C76.0678 82.8658 78.1594 80.7741 78.1594 78.2021V64.2112C78.1594 61.6392 76.0678 59.5476 73.4958 59.5476H47.8458C45.2738 59.5476 43.1821 61.6392 43.1821 64.2112V78.2021C43.1821 80.7741 45.2738 82.8658 47.8458 82.8658ZM45.5139 64.2112C45.5139 62.9252 46.5598 61.8794 47.8458 61.8794H73.4958C74.7818 61.8794 75.8276 62.9252 75.8276 64.2112V78.2021C75.8276 79.4881 74.7818 80.534 73.4958 80.534H47.8458C46.5598 80.534 45.5139 79.4881 45.5139 78.2021V64.2112Z" fill="white"/>
<path d="M65.3346 78.2022C66.2336 78.2022 67.0462 77.8525 67.6665 77.2928C68.2867 77.8525 69.0994 78.2022 69.9983 78.2022C71.9267 78.2022 73.496 76.6329 73.496 74.7045C73.496 72.7761 71.9267 71.2068 69.9983 71.2068C69.0994 71.2068 68.2867 71.5577 67.6665 72.1162C67.0462 71.5566 66.2336 71.2068 65.3346 71.2068C63.4062 71.2068 61.8369 72.7761 61.8369 74.7045C61.8369 76.6329 63.4062 78.2022 65.3346 78.2022ZM69.9983 73.5386C70.6407 73.5386 71.1642 74.0621 71.1642 74.7045C71.1642 75.3469 70.6407 75.8704 69.9983 75.8704C69.3559 75.8704 68.8324 75.3469 68.8324 74.7045C68.8324 74.0621 69.3559 73.5386 69.9983 73.5386ZM65.3346 73.5386C65.9771 73.5386 66.5005 74.0621 66.5005 74.7045C66.5005 75.3469 65.9771 75.8704 65.3346 75.8704C64.6922 75.8704 64.1687 75.3469 64.1687 74.7045C64.1687 74.0621 64.6922 73.5386 65.3346 73.5386Z" fill="white"/>
<path d="M73.4959 64.2114H71.1641V66.5432H73.4959V64.2114Z" fill="white"/>
<path d="M68.8323 64.2114H66.5005V66.5432H68.8323V64.2114Z" fill="white"/>
<path d="M49.0116 71.2069H53.6752C54.3188 71.2069 54.8412 70.6846 54.8412 70.041V65.3773C54.8412 64.7338 54.3188 64.2114 53.6752 64.2114H49.0116C48.368 64.2114 47.8457 64.7338 47.8457 65.3773V70.041C47.8457 70.6846 48.368 71.2069 49.0116 71.2069ZM50.1775 66.5432H52.5093V68.8751H50.1775V66.5432Z" fill="white"/>
<path d="M50.1775 73.5386H47.8457V75.8704H50.1775V73.5386Z" fill="white"/>
<path d="M54.8411 73.5386H52.5093V75.8704H54.8411V73.5386Z" fill="white"/>
<path d="M59.5047 73.5386H57.1729V75.8704H59.5047V73.5386Z" fill="white"/>
</g>
<defs>
<linearGradient id="paint0_linear" x1="76.4318" y1="0" x2="76.4318" y2="152" gradientUnits="userSpaceOnUse">
<stop stop-color="#1269EA"/>
<stop offset="1" stop-color="#144EA5"/>
</linearGradient>
<clipPath id="clip0">
<rect width="69.9545" height="69.9545" fill="white" transform="translate(43.1821 39.7273)"/>
</clipPath>
</defs>
</svg>
