<svg width="249" height="43" viewBox="0 0 249 43" fill="none" xmlns="http://www.w3.org/2000/svg">
<path d="M8.34721 0.00456927H1.37434C0.619061 0.00456927 0 0.612239 0 1.35201V27.3312C0 28.071 0.619061 28.6773 1.37434 28.6773H8.22178C8.97706 28.6773 9.59612 28.071 9.59612 27.3312V4.21731C9.59612 3.47753 10.2138 2.89893 10.9691 2.93063C10.9691 2.93063 12.3151 2.98876 13.5492 3.70475C16.31 5.30451 17.2218 8.39702 17.2218 10.0985C17.2218 12.5992 15.575 15.2861 13.3995 15.2861C12.2072 15.2861 12.0171 15.1844 12.0171 15.1844C11.3535 14.8317 10.81 15.1474 10.81 15.8885V16.9084C10.81 17.6481 11.402 18.4289 12.125 18.6415C12.125 18.6415 14.2721 19.2743 16.7254 19.2743C18.9077 19.2743 26.7693 17.6138 26.7693 10.1342C26.7734 -0.535728 9.10384 0.00456927 8.34721 0.00456927ZM211.015 10.796C208.735 9.43798 206.069 8.7603 203.018 8.7603C199.874 8.7603 197.185 9.43798 194.952 10.796C191.986 12.6137 190.49 15.3865 190.47 19.1118C190.451 20.738 190.969 22.1634 190.969 22.1634C191.222 22.8622 190.858 23.6654 190.162 23.9507C190.162 23.9507 184.553 28.1516 184.553 18.7565V16.915C184.553 16.1752 185.172 15.5688 185.927 15.5688H186.7C187.455 15.5688 188.074 14.9625 188.074 14.2227V10.9875C188.074 10.2478 187.455 9.64142 186.7 9.64142H185.927C185.172 9.64142 184.553 9.03507 184.553 8.2953V4.5938C184.553 3.85403 183.968 3.44451 183.253 3.68493L177.46 5.6374C176.745 5.87783 176.16 6.68101 176.16 7.42078V8.29398C176.16 9.03375 175.541 9.6401 174.786 9.6401H174.237C173.481 9.6401 172.862 10.2464 172.862 10.9862V14.2227C172.862 14.9625 173.481 15.5688 174.237 15.5688H174.786C175.541 15.5688 176.16 16.1752 176.16 16.915V18.0207C176.16 18.7604 176.221 18.7697 176.137 19.5042C176.137 19.5042 175.596 23.0736 171.806 24.8332C168.426 26.4012 165.523 23.8186 164.966 21.3628C164.078 17.4368 167.859 13.1685 167.845 12.4288L167.818 11.0311C167.803 10.2914 167.173 9.68501 166.417 9.68501H156.072C155.317 9.68501 154.984 9.88581 154.145 8.77219C152.742 6.90823 148.513 6.51853 147.813 9.61896C147.113 12.7194 149.76 13.767 150.782 13.8396C151.805 13.9123 151.91 14.4645 151.775 15.1937C151.775 15.1937 149.819 24.7103 145.79 24.7103C143.525 24.7103 142.847 20.6957 142.847 20.6957C142.724 19.9652 142.623 18.7617 142.623 18.022V10.9875C142.623 10.2478 142.004 9.64142 141.248 9.64142H134.784C134.029 9.64142 133.41 10.2478 133.41 10.9875V19.9533C133.41 20.6931 133.313 21.8965 133.192 22.6284C133.192 22.6284 133.045 23.532 132.324 24.3827C131.6 25.2334 130.796 25.6575 129.923 25.6575C129.156 25.6575 126.496 24.9719 126.375 21.9018C126.17 16.6745 127.576 14.1025 130.839 12.0087C132.058 11.2253 132.166 10.9849 132.166 10.4578C132.166 9.93072 131.519 9.48158 130.664 9.53574C129.807 9.5899 116.046 10.7933 116.046 19.7842C116.046 23.0247 117.302 25.4818 119.819 27.1489C121.738 28.4158 123.965 29.0472 126.503 29.0472C127.695 29.0472 129.049 28.7843 130.567 28.2599C132.273 27.672 133.009 27.1146 133.009 27.1146C133.59 26.639 134.405 26.5267 134.936 27.0551C134.936 27.0551 136.396 29.0472 140.656 29.0472C154.116 29.0472 154.692 15.5847 154.706 14.5913C154.719 13.5979 155.38 13.73 156.135 13.73H159.46C160.215 13.73 160.438 14.1963 159.955 14.7643C159.955 14.7643 156.879 18.3813 156.879 21.8226C156.879 27.0948 163.513 28.7341 165.408 28.7724C172.324 28.9098 175.283 24.993 175.283 24.993C175.821 24.4725 176.478 24.6152 176.74 25.3101C176.74 25.3101 177.386 27.0128 178.845 27.8451C180.106 28.5571 180.814 28.9085 182.729 28.9085C188.298 28.9085 191.569 25.9045 191.569 25.9045C192.251 25.5848 193.266 25.7301 193.827 26.2255C193.827 26.2255 194.196 26.5545 195.086 27.0644C197.408 28.4197 200.055 29.0961 203.02 29.0961C206.027 29.0961 208.68 28.4224 210.982 27.0644C214.039 25.2744 215.564 22.5821 215.564 18.9758C215.563 15.3363 214.048 12.6137 211.015 10.796ZM202.948 26.3048C201.046 26.3048 200.097 24.0009 200.097 19.3932C200.097 14.475 201.046 12.014 202.948 12.014C204.058 12.014 204.831 12.7524 205.272 14.2293C205.605 15.3443 205.772 17.0893 205.772 19.4619C205.771 24.0234 204.831 26.3048 202.948 26.3048ZM237.319 10.796C235.039 9.43798 232.374 8.7603 229.32 8.7603C226.181 8.7603 223.49 9.43798 221.258 10.796C218.288 12.6137 216.795 15.3865 216.776 19.1118C216.731 22.6244 218.272 25.2744 221.389 27.0644C223.713 28.4197 226.358 29.0961 229.322 29.0961C232.333 29.0961 234.991 28.4224 237.289 27.0644C240.339 25.2744 241.871 22.5821 241.871 18.9758C241.868 15.3363 240.352 12.6137 237.319 10.796ZM229.253 26.3048C227.35 26.3048 226.397 24.0009 226.397 19.3932C226.397 14.475 227.349 12.014 229.253 12.014C230.359 12.014 231.134 12.7524 231.575 14.2293C231.908 15.3443 232.074 17.0893 232.074 19.4619C232.074 24.0234 231.135 26.3048 229.253 26.3048ZM95.1385 9.68898H90.2251C89.4698 9.68898 88.8507 10.2953 88.848 11.0351L88.8332 23.6244C88.8332 24.3642 88.5244 24.6086 88.1508 24.1674C87.7772 23.7261 85.5383 23.1304 85.866 21.0048C86.4905 16.9638 80.7423 10.6216 80.7423 10.6216C80.223 10.0826 79.1804 9.64274 78.4252 9.64274H71.6789C70.9236 9.64274 70.3099 10.1249 69.8743 10.7313C69.8743 10.7313 65.6056 21.2122 57.3083 24.3008C55.5172 24.9679 53.7288 22.6997 53.7288 18.0233C53.7288 13.3469 53.7288 10.9875 53.7288 10.9875C53.7288 10.2478 53.1098 9.64142 52.3545 9.64142H45.5718C44.8165 9.64142 44.1974 10.2478 44.1974 10.9875V19.9533C44.1974 20.6931 44.1003 21.8965 43.9803 22.6284C43.9803 22.6284 43.8333 23.532 43.1077 24.3827C42.3848 25.2334 41.5836 25.6575 40.711 25.6575C39.9436 25.6575 39.1829 25.314 38.4398 24.6337C37.586 23.8662 37.1612 22.9547 37.1612 21.9018C37.1612 20.3285 36.6986 15.1527 40.9066 12.4275C42.3659 11.4829 42.9485 10.9836 42.9485 10.4578C42.9485 9.93204 42.4508 9.53838 41.4447 9.53838C33.173 9.53838 26.8273 14.3139 26.8273 19.7869C26.8273 23.0273 28.087 25.4844 30.6024 27.1516C32.5189 28.4184 34.7483 29.0499 37.2893 29.0499C38.4816 29.0499 39.833 28.787 41.3516 28.2625C43.0537 27.6747 44.0032 26.8992 44.0032 26.8992C44.5845 26.4237 45.4423 26.5109 45.9144 27.0908C45.9144 27.0908 47.5031 29.0499 50.8534 29.0499C64.532 29.0499 71.5696 14.6388 71.5696 14.6388C71.896 13.9704 72.5259 13.9136 72.9709 14.5133L76.0366 18.7327C76.5059 19.3126 76.2699 19.7829 75.5146 19.7763C75.5146 19.7763 66.8222 19.701 66.8222 24.4289C66.8222 30.9468 78.7556 29.9772 82.6143 26.7341C83.6514 25.8622 84.7466 25.5994 85.2982 26.1066C85.2982 26.1066 88.8157 28.6298 88.8157 33.8703V34.7937C88.8157 35.5334 89.4334 36.1398 90.19 36.1398H96.2673C97.0226 36.1398 97.6417 35.5334 97.6417 34.7937V14.5279C97.6417 13.7881 98.2108 13.4169 98.9095 13.7036C98.9095 13.7036 104.714 14.1593 104.714 19.2294C104.714 25.3153 100.2 25.4197 100.2 25.4197C99.4449 25.4369 98.8258 26.0115 98.8258 26.6945C98.8258 27.3775 99.4166 28.1146 100.139 28.3312C100.139 28.3312 102.218 28.9547 104.457 28.9547C106.758 28.9547 114.484 27.3986 114.484 19.4606C114.487 9.16849 95.8951 9.68898 95.1385 9.68898ZM73.2852 26.4224C70.4381 26.2216 69.3011 23.5306 73.9124 22.6918C75.7142 22.3629 77.883 22.8292 77.883 22.8292C77.883 22.8292 77.8816 23.5254 77.5768 24.3655C77.2707 25.2044 76.1728 26.6271 73.2852 26.4224Z" fill="#E3E3E3"/>
<path d="M249 6.87493C249 8.92912 247.353 10.5408 245.211 10.5408C243.093 10.5408 241.4 8.9278 241.4 6.87493C241.4 4.86433 243.091 3.25269 245.211 3.25269C247.354 3.25269 249 4.86566 249 6.87493ZM242.349 6.87493C242.349 8.4879 243.567 9.76797 245.237 9.76797C246.86 9.76797 248.054 8.4879 248.054 6.89739C248.054 5.28442 246.858 3.98321 245.211 3.98321C243.565 3.98321 242.349 5.28442 242.349 6.87493ZM244.625 8.77588H243.768V5.15364C244.105 5.08759 244.582 5.04267 245.188 5.04267C245.886 5.04267 246.203 5.15364 246.472 5.30688C246.677 5.46144 246.835 5.7481 246.835 6.10345C246.835 6.50108 246.518 6.80888 246.068 6.9423V6.9859C246.431 7.11932 246.632 7.38352 246.745 7.86966C246.855 8.42185 246.923 8.64378 247.015 8.77456H246.091C245.977 8.64114 245.91 8.31088 245.798 7.8908C245.731 7.49317 245.505 7.31747 245.031 7.31747H244.625V8.77588ZM244.649 6.72169H245.055C245.528 6.72169 245.911 6.56713 245.911 6.19196C245.911 5.86171 245.662 5.63977 245.121 5.63977C244.894 5.63977 244.738 5.66223 244.648 5.68469V6.72169H244.649Z" fill="#E3E3E3"/>
<path d="M118.901 40.5868L119.04 41.5221L119.244 40.6793L120.675 35.7347H121.48L122.876 40.6793L123.074 41.5353L123.228 40.5815L124.352 35.7334H125.311L123.557 42.8193H122.687L121.197 37.6555L121.082 37.1165L120.969 37.6555L119.423 42.8193H118.553L116.804 35.7334H117.759L118.901 40.5868Z" fill="#E3E3E3"/>
<path d="M132.495 39.5463H129.359V42.0575H133.002V42.8211H128.406V35.7351H132.952V36.4987H129.359V38.7827H132.495V39.5463Z" fill="#E3E3E3"/>
<path d="M136.225 42.822V35.7361H138.59C139.375 35.7361 139.966 35.8946 140.361 36.213C140.758 36.53 140.956 37.0016 140.956 37.6238C140.956 37.9541 140.859 38.2473 140.666 38.5023C140.474 38.7559 140.213 38.9541 139.881 39.0928C140.273 39.1998 140.582 39.4032 140.809 39.7044C141.035 40.0043 141.149 40.3623 141.149 40.7771C141.149 41.4125 140.94 41.9132 140.519 42.2765C140.097 42.6397 139.502 42.822 138.735 42.822H136.225ZM137.178 38.7573H138.619C139.038 38.7573 139.37 38.6542 139.619 38.4508C139.87 38.246 139.996 37.9673 139.996 37.6159C139.996 37.2262 139.88 36.9422 139.648 36.7638C139.414 36.5868 139.062 36.4983 138.589 36.4983H137.177V38.7573H137.178ZM137.178 39.5076V42.0585H138.753C139.197 42.0585 139.548 41.9449 139.804 41.719C140.06 41.4944 140.188 41.184 140.188 40.7877C140.188 39.9343 139.715 39.5076 138.768 39.5076H137.178Z" fill="#E3E3E3"/>
<path d="M149.149 42.822V35.7361H151.193C151.823 35.7361 152.378 35.8735 152.861 36.1456C153.344 36.4177 153.719 36.8061 153.982 37.3094C154.245 37.8127 154.378 38.3887 154.382 39.0426V39.4944C154.382 40.1641 154.25 40.7494 153.987 41.2513C153.724 41.7547 153.347 42.1404 152.858 42.4099C152.37 42.6794 151.801 42.8181 151.152 42.8234H149.149V42.822ZM150.104 36.4983V42.0572H151.108C151.843 42.0572 152.415 41.8326 152.823 41.3848C153.233 40.9356 153.436 40.2989 153.436 39.4706V39.0571C153.436 38.2513 153.243 37.6251 152.857 37.1786C152.471 36.7321 151.924 36.5049 151.214 36.4983H150.104Z" fill="#E3E3E3"/>
<path d="M161.947 39.5463H158.812V42.0575H162.452V42.8211H157.857V35.7351H162.404V36.4987H158.812V38.7827H161.947V39.5463Z" fill="#E3E3E3"/>
<path d="M168.072 41.5806L170.139 35.7351H171.182L168.498 42.8211H167.654L164.977 35.7351H166.015L168.072 41.5806Z" fill="#E3E3E3"/>
<path d="M178.275 39.5463H175.139V42.0575H178.782V42.8211H174.186V35.7351H178.732V36.4987H175.139V38.7827H178.275V39.5463Z" fill="#E3E3E3"/>
<path d="M182.963 42.0575H186.393V42.8211H182.004V35.7351H182.963V42.0575Z" fill="#E3E3E3"/>
<path d="M194.756 39.5087C194.756 40.2022 194.637 40.8086 194.398 41.3264C194.16 41.8442 193.823 42.2379 193.386 42.51C192.949 42.7835 192.437 42.9195 191.855 42.9195C191.284 42.9195 190.78 42.7822 190.339 42.5087C189.898 42.2339 189.557 41.8429 189.312 41.3343C189.068 40.827 188.944 40.2392 188.938 39.5708V39.0595C188.938 38.3779 189.059 37.7755 189.3 37.2537C189.543 36.7306 189.886 36.3316 190.328 36.0542C190.77 35.7768 191.276 35.6394 191.845 35.6394C192.425 35.6394 192.936 35.7768 193.379 36.0502C193.821 36.325 194.161 36.7226 194.4 37.2431C194.639 37.7636 194.757 38.37 194.757 39.0608V39.5087H194.756ZM193.808 39.0503C193.808 38.2101 193.636 37.5655 193.291 37.1163C192.946 36.6658 192.464 36.4413 191.845 36.4413C191.242 36.4413 190.768 36.6658 190.421 37.1163C190.074 37.5655 189.896 38.189 189.887 38.9869V39.5087C189.887 40.3224 190.061 40.9631 190.412 41.4281C190.761 41.8944 191.241 42.1256 191.855 42.1256C192.471 42.1256 192.949 41.9063 193.286 41.4664C193.623 41.0265 193.797 40.3964 193.808 39.576V39.0503Z" fill="#E3E3E3"/>
<path d="M199.177 40.0479V42.822H198.222V35.7361H200.891C201.684 35.7361 202.303 35.9342 202.753 36.3292C203.202 36.7255 203.426 37.2487 203.426 37.9012C203.426 38.5895 203.207 39.1192 202.767 39.4904C202.329 39.8616 201.701 40.0479 200.883 40.0479H199.177ZM199.177 39.283H200.891C201.402 39.283 201.792 39.1655 202.063 38.929C202.336 38.6939 202.472 38.353 202.472 37.9092C202.472 37.4864 202.336 37.1483 202.063 36.8946C201.792 36.641 201.42 36.5089 200.947 36.4983H199.177V39.283Z" fill="#E3E3E3"/>
<path d="M207.911 35.7351L210.277 41.5172L212.641 35.7351H213.878V42.8211H212.924V40.0614L213.014 37.0825L210.637 42.8211H209.907L207.536 37.0971L207.631 40.0614V42.8211H206.677V35.7351H207.911Z" fill="#E3E3E3"/>
<path d="M221.687 39.5463H218.551V42.0575H222.194V42.8211H217.598V35.7351H222.144V36.4987H218.551V38.7827H221.687V39.5463Z" fill="#E3E3E3"/>
<path d="M230.976 42.822H230.017L226.374 37.3609V42.822H225.415V35.7361H226.374L230.028 41.221V35.7361H230.976V42.822Z" fill="#E3E3E3"/>
<path d="M239.562 36.4987H237.235V42.8211H236.287V36.4987H233.966V35.7351H239.56V36.4987H239.562Z" fill="#E3E3E3"/>
</svg>
