<svg width="148" height="84" viewBox="0 0 148 84" fill="none" xmlns="http://www.w3.org/2000/svg">
<g filter="url(#filter0_d)">
<path d="M118.092 6H11.9077C8.64522 6 6 8.73982 6 12.1203V55.8797C6 59.2602 8.64522 62 11.9077 62H118.092C121.355 62 124 59.2602 124 55.8797V12.1203C123.999 8.73982 121.355 6 118.092 6Z" fill="url(#paint0_linear)"/>
<path d="M38.5 25L44.1292 34H32.8708L38.5 25Z" fill="white"/>
<path d="M48 34.2491C48 31.6935 48.8335 29.5642 50.5016 27.8601C52.1686 26.1571 54.2898 25.3044 56.8639 25.3044C59.4856 25.3044 61.6067 26.0998 63.2261 27.6882L61.7199 30.0478C61.088 29.5069 60.3485 29.0657 59.498 28.7207C58.6487 28.3769 57.8186 28.205 57.01 28.205C55.1957 28.205 53.779 28.7792 52.7598 29.9252C51.7406 31.0724 51.2298 32.498 51.2298 34.201C51.2298 35.9212 51.7474 37.3915 52.7836 38.6132C53.8187 39.8325 55.2365 40.4434 57.0326 40.4434C58.8786 40.4434 60.5467 39.7065 62.0359 38.2316L63.687 40.5167C61.8581 42.4019 59.5999 43.3428 56.9126 43.3428C54.2411 43.3428 52.0871 42.4833 50.4529 40.7631C48.8176 39.0418 48 36.8701 48 34.2491Z" fill="white"/>
<path d="M70.2937 43.0472V28.3265H64.6348V25.599H79.0591V28.3265H73.4013V43.0472H70.2937Z" fill="white"/>
<path d="M81.4863 43.0472V25.599H87.1702C88.6266 25.599 89.7115 25.7549 90.4238 26.0654C91.3309 26.4425 92.0433 27.0407 92.5608 27.859C93.0795 28.6784 93.3388 29.6697 93.3388 30.8329C93.3388 31.8987 93.0795 32.8682 92.5608 33.7449C92.0433 34.6216 91.3389 35.2405 90.4487 35.6003V35.6496C90.5948 35.8295 90.7806 36.1332 91.007 36.5584L94.5528 43.046H91.032L87.6323 36.5332H84.621V43.046H81.4863V43.0472ZM84.6199 33.7827H87.4364C88.2778 33.7827 88.9425 33.5329 89.4284 33.0332C89.9142 32.5336 90.1566 31.8586 90.1566 31.0059C90.1566 29.7923 89.7036 28.9992 88.7976 28.6222C88.3605 28.4251 87.7297 28.3265 86.903 28.3265H84.6199V33.7827Z" fill="white"/>
<path d="M128.128 39.3915L131.22 45.9114C131.356 46.1995 131.523 46.6848 131.591 46.9963L133.854 57.2615C134.354 59.5287 133.254 61.8425 131.201 62.8392L117.446 69.5174C116.031 70.2039 114.36 70.1559 112.975 69.3877L98.8443 61.5428C96.4654 60.2217 95.5639 57.2044 96.8335 54.7802C97.8299 52.8803 99.8548 51.9161 101.846 52.2106L95.3818 38.5765C94.202 36.0874 95.2253 33.0974 97.6632 31.9138C100.102 30.729 103.047 31.7919 104.227 34.2822L107.348 40.8644C108.805 39.4291 111.046 39.0281 112.97 40.0144C114.415 37.7109 117.447 37.0296 119.753 38.5363C121.932 35.5488 126.515 35.9914 128.128 39.3915ZM100.109 59.212L114.241 67.0569C114.885 67.4138 115.658 67.4371 116.311 67.1205L130.066 60.4423C131.023 59.9777 131.525 58.9083 131.291 57.8416L129.027 47.5764C128.989 47.3999 128.93 47.2273 128.851 47.0638L125.76 40.5426C124.43 37.7394 120.327 39.7367 121.655 42.5359C121.811 42.8669 121.674 43.2653 121.347 43.4236L120.818 43.6805C120.491 43.8389 120.098 43.7 119.941 43.3691L119.168 41.7391C117.838 38.936 113.736 40.9332 115.063 43.7325L115.836 45.3624C115.993 45.6933 115.855 46.0918 115.528 46.2501L115 46.507C114.673 46.6654 114.279 46.5265 114.123 46.1956L112.834 43.4781C111.504 40.675 107.402 42.6722 108.729 45.4714L110.018 48.1889C110.174 48.5198 110.037 48.9183 109.71 49.0766L109.181 49.3335C108.854 49.4919 108.46 49.353 108.303 49.0221L101.863 35.4372C100.533 32.6341 96.4308 34.6313 97.7581 37.4306L106.646 56.1766C106.749 56.2337 106.872 56.366 106.922 56.4725C107.079 56.8034 106.941 57.2005 106.614 57.3601C106.287 57.5197 105.894 57.3796 105.737 57.0487L102.243 55.1085C99.6484 53.6654 97.3618 57.6858 100.109 59.212ZM110.876 54.4532C110.719 54.1222 110.857 53.7238 111.184 53.5655L111.713 53.3085C112.04 53.1502 112.434 53.2891 112.59 53.62L115.682 60.1399C115.839 60.4708 115.702 60.8692 115.375 61.0276L114.845 61.2845C114.518 61.4428 114.124 61.304 113.968 60.973L110.876 54.4532ZM116.695 51.6267C116.539 51.2957 116.676 50.8986 117.003 50.739L117.533 50.482C117.86 50.3237 118.254 50.4626 118.41 50.7935L121.502 57.3134C121.658 57.6443 121.521 58.0427 121.194 58.2011L120.665 58.458C120.337 58.6163 119.945 58.4762 119.789 58.1453L116.695 51.6267ZM122.515 48.8015C122.359 48.4705 122.496 48.0721 122.823 47.9138L123.351 47.6568C123.678 47.4985 124.072 47.6374 124.228 47.9683L127.32 54.4882C127.477 54.8191 127.339 55.2175 127.012 55.3759L126.484 55.6328C126.157 55.7911 125.763 55.6523 125.607 55.3214L122.515 48.8015Z" fill="white"/>
<path d="M37 33H40V43H37V33Z" fill="white"/>
<rect x="25" y="39" width="3" height="9" transform="rotate(-180 25 39)" fill="white"/>
<rect x="25" y="39" width="3" height="9" transform="rotate(-180 25 39)" fill="white"/>
<rect x="25" y="39" width="3" height="9" transform="rotate(-180 25 39)" fill="white"/>
<rect x="19" y="36" width="3" height="9" transform="rotate(-90 19 36)" fill="white"/>
<rect x="19" y="36" width="3" height="9" transform="rotate(-90 19 36)" fill="white"/>
<rect x="19" y="36" width="3" height="9" transform="rotate(-90 19 36)" fill="white"/>
</g>
<defs>
<filter id="filter0_d" x="0" y="0" width="147.974" height="84.0001" filterUnits="userSpaceOnUse" color-interpolation-filters="sRGB">
<feFlood flood-opacity="0" result="BackgroundImageFix"/>
<feColorMatrix in="SourceAlpha" type="matrix" values="0 0 0 0 0 0 0 0 0 0 0 0 0 0 0 0 0 0 127 0"/>
<feOffset dx="4" dy="4"/>
<feGaussianBlur stdDeviation="5"/>
<feColorMatrix type="matrix" values="0 0 0 0 0 0 0 0 0 0 0 0 0 0 0 0 0 0 0.15 0"/>
<feBlend mode="normal" in2="BackgroundImageFix" result="effect1_dropShadow"/>
<feBlend mode="normal" in="SourceGraphic" in2="effect1_dropShadow" result="shape"/>
</filter>
<linearGradient id="paint0_linear" x1="134.77" y1="8.12193" x2="-4.58876" y2="66.249" gradientUnits="userSpaceOnUse">
<stop stop-color="#39B54A"/>
<stop offset="0.6071" stop-color="#39934A"/>
<stop offset="0.6939" stop-color="#39B04A"/>
<stop offset="0.9337" stop-color="#57E54A"/>
</linearGradient>
</defs>
</svg>
