<?xml version="1.0" encoding="UTF-8"?>
<!-- Generator: Adobe Illustrator 21.0.2, SVG Export Plug-In . SVG Version: 6.00 Build 0)  -->
<svg version="1.1" id="Layer_1" xmlns="http://www.w3.org/2000/svg" xmlns:xlink="http://www.w3.org/1999/xlink" x="0px" y="0px" viewBox="0 0 122.2 30.4" style="enable-background:new 0 0 122.2 30.4;" xml:space="preserve">
<style type="text/css">
	.st0{fill:#7C4E78;}
	.st1{fill:#0E0E0E;}
</style>
<g>
	<path class="st0" d="M40.1,5.9c-0.7-0.7-1.7-1-2.7-1c-11.2,0-22.4,0-33.7,0c-1.5,0-2.9,1-3.5,2.3C0,7.8,0,8.5,0,9.1   c0,4.2,0,8.4,0,12.6c0,1.9,1.7,3.7,3.6,3.7c5.4,0,10.8,0,16.2,0c2.5,1.3,4.9,2.7,7.3,4c-0.5-1.4-1.1-2.7-1.7-4.1   c4.1,0,8.2,0,12.3,0c1.9-0.1,3.6-1.8,3.6-3.7c0-4.3,0-8.6,0-12.9C41.4,7.7,40.9,6.6,40.1,5.9z M16.9,22c0,0.6-0.3,1.4-0.9,1.5   c-0.6,0.1-1.2-0.3-1.6-0.7c-1.8-2-2.9-4.5-3.6-7.1c-0.8,1.5-1.5,3-2.2,4.5c-0.5,1-1.1,2.1-1.9,2.9c-0.3,0.3-0.9,0.7-1.4,0.3   c-0.7-0.6-0.8-1.5-1.1-2.3c-1.1-3.7-1.7-7.6-2.3-11.4C1.7,9,1.9,8.3,2.6,8c0.5-0.2,1.2-0.2,1.6,0.2c0.3,0.3,0.4,0.7,0.4,1.1   c0.4,3,1,5.9,1.7,8.8c1.2-2.3,2.4-4.7,3.7-7c0.2-0.3,0.4-0.7,0.7-0.9c0.4-0.3,1.1-0.3,1.5,0.1c0.3,0.3,0.4,0.8,0.5,1.2   c0.4,1.9,0.9,3.8,1.6,5.7c0.3-2.7,0.7-5.5,1.7-8.1c0.2-0.5,0.4-1.1,0.8-1.5c0.6-0.7,1.8-0.4,2.3,0.3c0.2,0.4,0.3,0.9,0.1,1.3   c-0.9,1.7-1.2,3.6-1.6,5.5C17.1,17.1,16.8,19.5,16.9,22z M27.6,18.7c-0.5,0.9-1.2,1.8-2.1,2.4c-1.4,0.8-3.2,0.7-4.5-0.1   c-1.1-0.7-1.6-2-1.9-3.2c-0.5-2.8,0.3-5.9,2.5-7.8c0.6-0.5,1.4-0.9,2.2-1c1.3-0.2,2.7,0.3,3.6,1.3c0.7,0.8,1.1,1.9,1.3,3   C28.8,15.2,28.5,17.1,27.6,18.7z M38.2,18.7c-0.5,1-1.2,1.9-2.2,2.5c-1.3,0.8-3,0.7-4.4-0.1c-0.9-0.5-1.5-1.4-1.8-2.4   c-0.9-2.9-0.1-6.3,2-8.5c0.6-0.6,1.5-1.1,2.4-1.2c1.3-0.2,2.7,0.2,3.6,1.2c0.8,0.9,1.2,2,1.4,3.2C39.4,15.2,39.1,17.1,38.2,18.7z    M35.8,12.3c0.6,0.8,0.8,1.9,0.6,2.9c-0.1,1.1-0.5,2.2-1.3,2.9c-0.4,0.3-0.8,0.7-1.3,0.6c-0.5,0-0.8-0.4-1-0.8   c-0.7-1.4-0.5-3.2,0.3-4.6c0.4-0.6,0.8-1.3,1.5-1.5C35,11.7,35.5,11.9,35.8,12.3z M25.2,12.3c0.7,1,0.8,2.2,0.6,3.3   c-0.2,1-0.6,2-1.4,2.7c-0.4,0.3-0.8,0.6-1.3,0.5c-0.5-0.1-0.7-0.5-0.9-0.9c-0.7-1.5-0.4-3.3,0.4-4.7c0.3-0.5,0.7-1.1,1.4-1.3   C24.4,11.7,24.9,11.9,25.2,12.3z"/>
	<g>
		<path class="st1" d="M115,21.1c-1.4,0.4-3,0.3-4.4-0.3c-1.5-0.7-2.7-2-3.1-3.6c-0.3-1.2-0.4-2.5-0.1-3.8c0.5-1.9,2.1-3.5,4-4    c1.2-0.3,2.4-0.3,3.6,0c0,0.9,0,1.8,0,2.8c-0.9-0.2-1.9-0.4-2.8,0c-1,0.5-1.6,1.5-1.7,2.6c-0.1,1.2,0.2,2.6,1.3,3.3    c0.9,0.6,2.2,0.5,3.2,0.2C115,19.3,115,20.2,115,21.1z"/>
		<path class="st1" d="M122.2,18.6c0,0.8,0,1.6,0,2.5c-2.1,0-4.2,0-6.3,0c0-3.8,0-7.7,0-11.5c2.1,0,4.2,0,6.3,0c0,0.8,0,1.6,0,2.5    c-1.1,0-2.1,0-3.2,0c0,0.7,0,1.4,0,2.1c0.9,0,1.8,0,2.8,0c0,0.8,0,1.6,0,2.4c-0.9,0-1.8,0-2.8,0c0,0.7,0,1.4,0,2.1    C120,18.6,121.1,18.6,122.2,18.6z"/>
		<path class="st1" d="M62.4,13.7c-0.2-1.3-0.7-2.7-1.8-3.5c-1.1-0.9-2.6-1.1-4-0.9c-1.1,0.1-2.1,0.6-2.9,1.5    c-0.9,1-1.2,2.4-1.3,3.8c-0.1,1.6,0.1,3.2,0.9,4.6c0.6,1,1.6,1.8,2.7,2c1.2,0.3,2.6,0.2,3.8-0.3c1.1-0.5,1.9-1.6,2.3-2.8    C62.6,16.7,62.6,15.2,62.4,13.7z M59.1,16.7c-0.1,0.5-0.2,1.1-0.5,1.5c-0.5,0.7-1.7,0.8-2.2,0.1c-0.4-0.5-0.5-1.1-0.6-1.7    c-0.1-1.1-0.1-2.3,0.2-3.4c0.1-0.6,0.5-1.1,1.1-1.3c0.5-0.1,1,0,1.4,0.4c0.4,0.4,0.6,1,0.7,1.6C59.3,14.8,59.2,15.7,59.1,16.7z"/>
		<path class="st1" d="M74.9,9.5c0.5,3.8,1,7.7,1.6,11.5c-1,0-2.1,0-3.1,0c-0.3-2.6-0.5-5.3-0.8-7.9c-0.6,2.6-1.3,5.3-1.9,7.9    c-0.7,0-1.4,0-2.1,0c-0.7-2.6-1.3-5.3-2-7.9c-0.3,2.6-0.5,5.3-0.8,7.9c-1,0-2,0-2.9,0c0.5-3.8,1-7.7,1.5-11.5c1.3,0,2.6,0,3.9,0    c0.5,2.1,0.9,4.3,1.3,6.4c0.4-2.1,0.9-4.3,1.4-6.4C72.2,9.5,73.6,9.5,74.9,9.5z"/>
		<path class="st1" d="M89,9.5c0.5,3.8,1,7.7,1.6,11.5c-1,0-2.1,0-3.1,0c-0.3-2.6-0.6-5.3-0.8-7.9c-0.6,2.6-1.3,5.3-1.9,7.9    c-0.7,0-1.4,0-2.1,0c-0.7-2.6-1.3-5.3-2-7.9c-0.3,2.6-0.5,5.3-0.8,7.9c-1,0-2,0-2.9,0c0.5-3.8,1-7.7,1.5-11.5c1.3,0,2.6,0,3.9,0    c0.5,2.1,0.9,4.2,1.3,6.4c0.4-2.1,0.9-4.3,1.4-6.4C86.3,9.5,87.7,9.5,89,9.5z"/>
		<path class="st1" d="M105.2,15.9c0.8-0.4,1.5-1.1,1.7-2c0.3-1.1,0-2.4-0.8-3.1c-0.9-0.9-2.2-1.2-3.5-1.2c-1.3,0-2.6,0-4,0    c0,3.8,0,7.7,0,11.5c1,0,2.1,0,3.1,0c0-1.8,0-3.5,0-5.3c0.9,1.8,1.7,3.5,2.6,5.3c1.1,0,2.2,0,3.3,0    C106.8,19.3,106,17.6,105.2,15.9z M103.4,14.1c-0.5,0.3-1.1,0.4-1.7,0.4c0-0.9,0-1.8,0-2.8c0.6,0.1,1.4,0.1,1.8,0.6    C103.9,12.9,104,13.7,103.4,14.1z"/>
		<path class="st1" d="M94.6,18.6c1.1,0,2.1,0,3.2,0c0,0.8,0,1.6,0,2.5c-2.1,0-4.2,0-6.3,0c0-3.8,0-7.7,0-11.5c2.1,0,4.2,0,6.3,0    c0,0.8,0,1.6,0,2.5c-1.1,0-2.1,0-3.2,0c0,0.7,0,1.4,0,2.1c0.9,0,1.8,0,2.8,0c0,0.8,0,1.6,0,2.4c-0.9,0-1.8,0-2.8,0    C94.6,17.2,94.6,17.9,94.6,18.6z"/>
		<path class="st1" d="M47.3,15.1c-0.1,1.1,0.3,2.4,1.3,3.1c0.9,0.6,2.1,0.5,3.2,0.2c0,0.9,0,1.8,0,2.7c-1.4,0.4-2.8,0.3-4.2-0.1    c-1.6-0.6-2.9-2-3.3-3.6c-0.4-1.2-0.4-2.6-0.1-3.8c0.5-2,2.2-3.7,4.2-4.1c1.1-0.2,2.3-0.2,3.4,0c0,0.9,0,1.8,0,2.7    c-0.9-0.2-1.9-0.4-2.8,0C47.9,12.7,47.3,13.9,47.3,15.1z"/>
	</g>
</g>
</svg>